<?xml version="1.0" encoding="utf-8"?>
<!-- Generator: Adobe Illustrator 21.0.0, SVG Export Plug-In . SVG Version: 6.00 Build 0)  -->
<svg version="1.1" id="Layer_1" xmlns="http://www.w3.org/2000/svg" xmlns:xlink="http://www.w3.org/1999/xlink" x="0px" y="0px"
	 viewBox="0 0 376 126" style="enable-background:new 0 0 376 126;" xml:space="preserve">
<style type="text/css">
	.st0{fill:#FF5A5F;}
</style>
<g id="XMLID_1_">
	<path id="XMLID_30_" class="st0" d="M197.9,34.7c0,4.1-3.3,7.4-7.4,7.4s-7.4-3.3-7.4-7.4c0-4.1,3.2-7.4,7.4-7.4
		C194.7,27.4,197.9,30.7,197.9,34.7z M167.3,49.6c0,0.7,0,1.8,0,1.8s-3.5-4.6-11.1-4.6c-12.4,0-22.1,9.5-22.1,22.6
		c0,13,9.6,22.6,22.1,22.6c7.6,0,11.1-4.7,11.1-4.7v1.9c0,0.9,0.7,1.6,1.6,1.6h9.2V48c0,0-8.4,0-9.2,0C168,48,167.3,48.8,167.3,49.6
		z M167.3,77.1c-1.7,2.5-5.1,4.7-9.2,4.7c-7.3,0-12.9-4.6-12.9-12.3c0-7.8,5.6-12.3,12.9-12.3c4,0,7.6,2.3,9.2,4.7V77.1z M185,48
		h10.9v42.9H185V48z M348.5,46.9c-7.5,0-11.1,4.6-11.1,4.6V27.4h-10.9v63.5c0,0,8.4,0,9.2,0c0.9,0,1.6-0.8,1.6-1.6v-1.9
		c0,0,3.5,4.7,11.1,4.7c12.4,0,22.1-9.6,22.1-22.6C370.5,56.4,360.8,46.9,348.5,46.9z M346.7,81.6c-4.2,0-7.5-2.2-9.2-4.7V61.6
		c1.7-2.3,5.4-4.7,9.2-4.7c7.3,0,12.9,4.6,12.9,12.3C359.6,77.1,354,81.6,346.7,81.6z M320.8,65.5V91h-10.9V66.7
		c0-7.1-2.3-9.9-8.4-9.9c-3.3,0-6.7,1.7-8.9,4.2v29.9h-10.9V48h8.7c0.9,0,1.6,0.8,1.6,1.6v1.8c3.2-3.3,7.4-4.6,11.6-4.6
		c4.8,0,8.8,1.4,12,4.1C319.3,54.2,320.8,58.3,320.8,65.5z M255,46.9c-7.5,0-11.1,4.6-11.1,4.6V27.4H233v63.5c0,0,8.4,0,9.2,0
		c0.9,0,1.6-0.8,1.6-1.6v-1.9c0,0,3.5,4.7,11.1,4.7c12.4,0,22.1-9.6,22.1-22.6C277.1,56.4,267.4,46.9,255,46.9z M253.2,81.6
		c-4.2,0-7.5-2.2-9.2-4.7V61.6c1.7-2.3,5.4-4.7,9.2-4.7c7.3,0,12.9,4.6,12.9,12.3C266.1,77.1,260.5,81.6,253.2,81.6z M223.5,46.9
		c3.3,0,5,0.6,5,0.6v10.1c0,0-9.1-3.1-14.8,3.4v30h-10.9V48c0,0,8.4,0,9.2,0c0.9,0,1.6,0.8,1.6,1.6v1.8
		C215.7,49,220.1,46.9,223.5,46.9z M109.8,87c-0.6-1.4-1.1-2.9-1.7-4.1c-0.9-2.1-1.8-4-2.6-5.8l-0.1-0.1
		c-7.9-17.1-16.3-34.4-25.2-51.5l-0.3-0.7c-0.9-1.7-1.8-3.5-2.7-5.4c-1.1-2.1-2.3-4.2-4.1-6.3C69.5,8.5,64.2,6,58.6,6
		C52.9,6,47.8,8.5,44,12.8c-1.7,2.1-3,4.2-4.1,6.3c-0.9,1.8-1.8,3.6-2.7,5.4l-0.3,0.7c-8.8,17.1-17.3,34.4-25.2,51.5l-0.1,0.2
		c-0.8,1.8-1.7,3.8-2.6,5.8c-0.6,1.3-1.1,2.6-1.7,4.1C5.8,91,5.4,95,5.9,99.1c1.3,8.6,7,15.7,14.8,18.9c3,1.3,6,1.8,9.2,1.8
		c0.9,0,2.1-0.1,3-0.2c3.8-0.5,7.6-1.7,11.4-3.9c4.7-2.6,9.1-6.4,14.1-11.9c5,5.5,9.6,9.2,14.1,11.9c3.8,2.2,7.6,3.4,11.4,3.9
		c0.9,0.1,2.1,0.2,3,0.2c3.2,0,6.4-0.6,9.2-1.8c8-3.2,13.6-10.5,14.8-18.9C111.8,95.2,111.3,91.2,109.8,87z M58.4,92.9
		c-6.2-7.8-10.1-15.1-11.5-21.2c-0.6-2.6-0.7-4.9-0.3-7c0.2-1.8,0.9-3.4,1.8-4.8c2.2-3.1,5.8-5,10-5s8,1.8,10,5
		c0.9,1.4,1.6,3,1.8,4.8c0.3,2.1,0.2,4.4-0.3,7C68.6,77.8,64.6,85.1,58.4,92.9z M103.9,98.3c-0.8,5.9-4.8,11.1-10.4,13.3
		c-2.7,1.1-5.7,1.5-8.7,1.1c-2.9-0.3-5.7-1.3-8.7-3c-4.1-2.3-8.2-5.8-13-11.1c7.5-9.2,12.1-17.7,13.8-25.2c0.8-3.5,0.9-6.7,0.6-9.7
		c-0.5-2.9-1.5-5.5-3.1-7.8c-3.5-5.1-9.5-8.1-16.1-8.1s-12.5,3.1-16.1,8.1c-1.6,2.3-2.6,4.9-3.1,7.8c-0.5,3-0.3,6.3,0.6,9.7
		c1.7,7.5,6.4,16.1,13.8,25.3c-4.7,5.2-8.9,8.8-13,11.1c-3,1.7-5.8,2.6-8.7,3c-3.1,0.3-6-0.1-8.7-1.1c-5.6-2.3-9.6-7.4-10.4-13.3
		c-0.3-2.9-0.1-5.7,1-8.9c0.3-1.1,0.9-2.3,1.5-3.6c0.8-1.8,1.7-3.8,2.6-5.7l0.1-0.2C25.8,63,34.2,45.7,43,28.8l0.3-0.7
		c0.9-1.7,1.8-3.5,2.7-5.2c0.9-1.8,1.9-3.5,3.2-5c2.4-2.7,5.6-4.2,9.1-4.2s6.7,1.5,9.1,4.2c1.3,1.5,2.3,3.2,3.2,5
		c0.9,1.7,1.8,3.5,2.7,5.2l0.3,0.7c8.7,17,17.1,34.3,25,51.3v0.1c0.9,1.8,1.7,3.9,2.6,5.7c0.6,1.4,1.1,2.5,1.5,3.6
		C104,92.5,104.4,95.3,103.9,98.3z"/>
</g>
</svg>
