<?xml version="1.0" encoding="utf-8"?>
<!-- Generator: Adobe Illustrator 21.0.0, SVG Export Plug-In . SVG Version: 6.00 Build 0)  -->
<svg version="1.1" id="Layer_1" xmlns="http://www.w3.org/2000/svg" xmlns:xlink="http://www.w3.org/1999/xlink" x="0px" y="0px"
	 viewBox="0 0 374 130" style="enable-background:new 0 0 374 130;" xml:space="preserve">
<style type="text/css">
	.st0{fill:#406EB3;}
	.st1{fill:#632678;}
	.st2{fill:#982881;}
	.st3{fill:#BA2F7D;}
	.st4{fill:#26478D;}
</style>
<g id="XMLID_1_">
	<path id="XMLID_3_" class="st0" d="M62.2,33.8H48.8c-4,0-7.2-3.2-7.2-7.2V13.2c0-3.9,3.2-7.2,7.2-7.2h13.4c3.9,0,7.2,3.2,7.2,7.2
		v13.4C69.4,30.6,66.2,33.8,62.2,33.8"/>
	<path id="XMLID_4_" class="st1" d="M27.5,63.8H12.6c-4.5,0-8.1-3.7-8.1-8.1V40.6c0-4.4,3.7-8.1,8.1-8.1h15.1c4.5,0,8.1,3.7,8.1,8.1
		v15.1C35.7,60.2,32.1,63.8,27.5,63.8"/>
	<path id="XMLID_5_" class="st2" d="M26.2,95H17c-2.7,0-4.9-2.2-4.9-4.9v-9.2c0-2.7,2.2-4.9,4.9-4.9h9.2c2.7,0,4.9,2.2,4.9,4.9v9.2
		C31.1,92.8,28.9,95,26.2,95"/>
	<path id="XMLID_6_" class="st3" d="M50.8,124H39.9c-3.2,0-5.9-2.6-5.9-5.9v-10.9c0-3.2,2.6-5.9,5.9-5.9h10.9c3.2,0,5.9,2.6,5.9,5.9
		v10.9C56.7,121.5,54.1,124,50.8,124"/>
	<path id="XMLID_7_" class="st3" d="M90.6,39.3h-7.5c-2.2,0-4-1.8-4-4v-7.5c0-2.2,1.8-4,4-4h7.5c2.2,0,4,1.8,4,4v7.5
		C94.8,37.4,92.9,39.3,90.6,39.3"/>
	<path id="XMLID_8_" class="st4" d="M255.5,44.3c2.4,0,4.3-2,4.3-4.3c0-2.4-2-4.3-4.3-4.3c-2.4,0-4.4,2-4.4,4.3S253,44.3,255.5,44.3
		z"/>
	<path id="XMLID_9_" class="st4" d="M97.1,90.6c-0.6,1-1.7,1.5-2.9,1.5c-0.6,0-1.5-0.1-2-0.5c-1-0.6-1.6-1.8-1.6-3.1
		c0-0.6,0.1-1.2,0.5-1.7l10-15.8l-10-15.8c-0.4-0.5-0.5-1.2-0.5-1.7c0-1.2,0.6-2.4,1.7-3.1c0.6-0.4,1.2-0.5,1.8-0.5
		c1.2,0,2.3,0.5,3.1,1.5l8.2,13l8.3-13c0.6-1,1.8-1.5,3.1-1.5c0.6,0,1.2,0.1,1.8,0.5c1.1,0.6,1.7,1.8,1.7,3.1c0,0.6-0.1,1.2-0.5,1.7
		l-10,15.8l10,15.8c0.4,0.5,0.5,1.1,0.5,1.7c0,1.2-0.6,2.6-1.6,3.1c-0.6,0.4-1.3,0.5-2,0.5c-1.2,0-2.2-0.5-2.9-1.5l-8.3-12.9
		L97.1,90.6z"/>
	<path id="XMLID_12_" class="st4" d="M133,54.7c3.8-3.4,8.9-5.5,14.5-5.5c12.1,0,21.7,9.7,21.7,21.7c0,11.9-9.7,21.6-21.7,21.6
		c-5.5,0-10.7-2.1-14.5-5.5v18.5c0,1.8-1.7,3.4-3.6,3.4c-1.7,0-3.6-1.6-3.6-3.4V53c0-1.8,1.7-3.4,3.6-3.4c2,0,3.6,1.6,3.6,3.4V54.7z
		 M147.3,56.4c-8.1,0-14.5,6.4-14.5,14.5s6.4,14.5,14.5,14.5s14.5-6.4,14.5-14.5C161.9,62.8,155.5,56.4,147.3,56.4z"/>
	<path id="XMLID_13_" class="st4" d="M230.5,67v21.7c0,1.8-1.7,3.4-3.6,3.4c-2,0-3.6-1.6-3.6-3.4V53c0-1.8,1.7-3.4,3.6-3.4
		c1.7,0,3.4,1.5,3.6,3.3c2.9-2.2,6.7-3.6,10.8-3.6c2.2,0,3.9,1.7,3.9,3.6c0,2-1.7,3.7-3.9,3.7C235.7,56.7,230.5,58.6,230.5,67z"/>
	<path id="XMLID_14_" class="st4" d="M255.5,49.6c-2,0-3.6,1.6-3.6,3.4v35.8c0,1.8,1.7,3.4,3.6,3.4c1.7,0,3.6-1.6,3.6-3.4V53
		C259,51.2,257.3,49.6,255.5,49.6L255.5,49.6z"/>
	<path id="XMLID_17_" class="st4" d="M301,53c0-1.8,1.7-3.4,3.6-3.4c1.7,0,3.6,1.6,3.6,3.4v35.8c0,1.8-1.7,3.4-3.6,3.4
		c-2,0-3.6-1.6-3.6-3.4V87c-3.9,3.4-8.9,5.5-14.5,5.5c-12.1,0-21.7-9.7-21.7-21.7c0-11.9,9.7-21.6,21.7-21.6
		c5.5,0,10.5,2.1,14.5,5.5V53z M286.6,85.3c8.1,0,14.5-6.4,14.5-14.5s-6.4-14.5-14.5-14.5s-14.5,6.4-14.5,14.5
		C272.1,79,278.5,85.3,286.6,85.3z"/>
	<path id="XMLID_18_" class="st4" d="M344.5,67.4c0-6-5.1-11.1-11.1-11.1c-5.8,0-11.1,2.3-11.1,10.8v21.7c0,1.8-1.7,3.4-3.6,3.4
		c-2,0-3.6-1.6-3.6-3.4V53c0-1.8,1.7-3.4,3.6-3.4c1.7,0,3.4,1.5,3.6,3.3c3.1-2.3,6.9-3.6,11-3.6c9.7,0,18.4,7.6,18.4,17.1v22.3
		c0,1.8-1.7,3.4-3.6,3.4c-2,0-3.6-1.6-3.6-3.4L344.5,67.4L344.5,67.4z"/>
	<path id="XMLID_21_" class="st4" d="M88.5,69.7c-0.1-11-9.9-20.3-21.6-20.3c-12.1,0-21.7,9.7-21.7,21.6c0,12.1,9.7,21.7,21.7,21.7
		c5.8,0,11.1-2.2,15.1-6.1c0.7-0.6,1.2-1.7,1.2-2.7c0-2-1.7-3.6-3.6-3.6c-1.1,0-2.1,0.6-2.8,1.5c-2.4,2.6-6,3.8-9.8,3.8
		c-7.2,0-13.1-4.9-14.3-11.8H85h0.1h0.1h0.1l0.4-0.1C87.3,73,88.5,71.5,88.5,69.7L88.5,69.7z M67,56.4c6.5,0,11.9,4.2,13.7,10H53.1
		C55,60.6,60.4,56.4,67,56.4z"/>
	<path id="XMLID_24_" class="st4" d="M217.4,69.7c-0.1-11-10-20.3-21.6-20.3c-12.1,0-21.7,9.7-21.7,21.6c0,12.1,9.7,21.7,21.7,21.7
		c5.8,0,11.1-2.2,15.1-6.1c0.7-0.6,1.2-1.7,1.2-2.7c0-2-1.7-3.6-3.6-3.6c-1.1,0-2.1,0.6-2.8,1.5c-2.4,2.6-6,3.8-9.8,3.8
		c-7.2,0-13.1-4.9-14.3-11.8h32.3h0.1h0.1h0.2h0.1C216,73.1,217.4,71.5,217.4,69.7L217.4,69.7z M195.8,56.4c6.5,0,11.9,4.2,13.7,10
		H182C183.8,60.6,189.2,56.4,195.8,56.4z"/>
	<path id="XMLID_25_" class="st4" d="M359.2,92.2c-0.4,0-0.6-0.2-0.6-0.6v-6h-1.3c-0.4,0-0.6-0.2-0.6-0.6s0.2-0.6,0.6-0.6h3.9
		c0.4,0,0.6,0.2,0.6,0.6s-0.2,0.6-0.6,0.6h-1.3v6C359.8,91.9,359.6,92.2,359.2,92.2z"/>
	<path id="XMLID_26_" class="st4" d="M366.2,92.2c-0.4,0-0.5-0.2-0.6-0.5l-1.7-4.9v4.8c0,0.4-0.2,0.6-0.6,0.6s-0.6-0.2-0.6-0.6v-6.4
		c0-0.5,0.4-0.9,0.9-0.9c0.4,0,0.7,0.2,0.9,0.6l1.7,5l1.7-5c0.1-0.4,0.5-0.6,0.9-0.6c0.5,0,0.9,0.4,0.9,0.9v6.4
		c0,0.4-0.2,0.6-0.6,0.6s-0.6-0.2-0.6-0.6v-4.8c-0.2,0.7-0.6,2-1,2.9c-0.6,2-0.7,2-0.7,2C366.7,92.1,366.4,92.2,366.2,92.2
		L366.2,92.2z"/>
</g>
</svg>
