<?xml version="1.0" encoding="utf-8"?>
<!-- Generator: Adobe Illustrator 21.0.0, SVG Export Plug-In . SVG Version: 6.00 Build 0)  -->
<svg version="1.1" id="Layer_1" xmlns="http://www.w3.org/2000/svg" xmlns:xlink="http://www.w3.org/1999/xlink" x="0px" y="0px"
	 viewBox="0 0 627 126" style="enable-background:new 0 0 627 126;" xml:space="preserve">
<style type="text/css">
	.st0{fill:#FF0000;}
</style>
<g id="Layer_2">
	<g>
		<path class="st0" d="M407.9,2.9h-20.2c-1.1,0-2,0.9-2,2v44.9h-20.5V4.9c0-1.1-0.9-2-2-2H343c-1.1,0-2,0.9-2,2v115.6
			c0,1.1,0.9,2,2,2h20.2c1.1,0,2-0.9,2-2V74.1h20.5v46.4c0,1.1,0.9,2,2,2h20.2c1.1,0,2-0.9,2-2V4.9C409.9,3.8,409,2.9,407.9,2.9"/>
		<path class="st0" d="M236.2,2.9h-9.9h-10.7c-1.1,0-2,0.8-2,1.8v53.7v28.7v0.1c0,3.9-0.9,7-2.7,9.2c-1.7,2.1-3.9,3.1-6.8,3.1
			c-2.9,0-5.1-1-6.8-3.1c-1.8-2.2-2.7-5.3-2.7-9.2v-0.1V58.4l0,0V4.7c0-1-0.9-1.8-2-1.8h-11.2H172c-1.1,0-2,0.8-2,1.8v53.7v29
			c0,10.9,2.6,20.6,8.8,27.1c6.3,6.6,15.2,9.9,25.4,9.9s19.1-3.3,25.4-9.9c6.2-6.5,8.8-16.2,8.8-27.1v-29V4.7
			C238.3,3.7,237.4,2.9,236.2,2.9"/>
		<path class="st0" d="M36.4,1L36.4,1C26.2,1,17.3,4.3,11,10.9C4.8,17.5,2.2,27.1,2.2,38v20.4v24.3v3v1.7c0,10.9,2.6,20.6,8.8,27.1
			c6.3,6.6,15.2,9.9,25.4,9.9s19.1-3.3,25.4-9.9c6.2-6.5,8.8-16.2,8.8-27.1v-4.7v-1.3V65.8v-5.5c0-1.1-0.9-2.1-2.1-2.1h-30
			c-1.1,0-2.2,0.9-2.2,2.1v20.2c0,1.1,1,2.1,2.2,2.1h7.8V83l0,0v4.1c0,4.1-1,7.4-2.8,9.8c-1.7,2.2-4.1,3.2-7.1,3.2S31,99.1,29.3,97
			c-1.9-2.4-2.9-5.6-2.9-9.8v-4.4V58.4V38.4c0-4.1,1-7.4,2.9-9.8c1.7-2.2,4.1-3.2,7.1-3.2s5.4,1,7.1,3.2c1.9,2.4,2.8,5.6,2.8,9.8V43
			c0,1,0.9,1.8,2,1.8h20.2c1.1,0,2-0.8,2-1.8v-4.8c0-10.9-2.6-20.6-8.8-27.1C55.5,4.3,46.6,1,36.4,1"/>
		<path class="st0" d="M314.1,60.7c3.8-3.3,9.8-11.9,9.8-22.4c0-12.2-4.6-20-8.5-24.5c-6.2-7-15.1-10.9-25-10.9h-18.8h-13.5
			c-1.1,0-2,0.9-2,2v115.6c0,1.1,0.9,2,2,2h12.3h21.4c10.6,0,20.3-4.3,26.6-12.1c3.6-4.5,7.6-12.5,7.6-24.6
			C326,71.9,317.5,63.4,314.1,60.7 M280.2,27.2h10.2c3,0,5.2,0.9,6.8,2.7c1.6,1.8,2.4,4.7,2.4,8.4c0,3.8-0.8,6.8-2.5,8.7
			c-1.6,1.9-3.8,2.8-6.7,2.8h-10.2L280.2,27.2L280.2,27.2z M299.1,95.1c-1.7,2.1-4.1,3.1-7.3,3.1h-11.6V73.5h11.6
			c3.1,0,5.4,1,7.2,3.2c1.9,2.3,2.8,5.2,2.8,9C301.8,89.8,300.9,92.9,299.1,95.1"/>
		<path class="st0" d="M140.8,71L140.8,71c2.1-1.5,4-3.2,5.7-5.2c4.2-4.7,9.1-13.1,9.1-25.8c0-12.5-4.9-20.8-9.1-25.5
			C140.4,7.5,131.8,3.5,122.2,3V2.9h-1.8c-0.1,0-0.2,0-0.3,0l0,0h-32c-1.1,0-2,0.9-2,2v115.6c0,1.1,0.9,2,2,2h20.2c1.1,0,2-0.9,2-2
			V77.4h7.2l12.8,43.7c0.3,0.9,1,1.5,1.9,1.5h21.5c0.6,0,1.2-0.3,1.6-0.8c0.4-0.5,0.5-1.2,0.3-1.8L140.8,71z M128.3,49.7
			c-2,2.3-4.7,3.3-8.2,3.3h-9.8V27.2h9.8c3.5,0,6.2,1.1,8.2,3.3c2.1,2.3,3,5.4,3,9.4C131.3,44.2,130.3,47.4,128.3,49.7"/>
		<path class="st0" d="M572.1,60.7c3.8-3.3,9.8-11.9,9.8-22.4c0-12.2-4.6-20-8.5-24.5c-6.2-7-15.1-10.9-25-10.9h-18.8h-13.5
			c-1.1,0-2,0.9-2,2v115.6c0,1.1,0.9,2,2,2h12.3h21.4c10.6,0,20.3-4.3,26.6-12.1c3.6-4.5,7.6-12.5,7.6-24.6
			C584,71.9,575.5,63.4,572.1,60.7 M538.2,27.2h10.2c3,0,5.2,0.9,6.8,2.7c1.6,1.8,2.4,4.7,2.4,8.4c0,3.8-0.8,6.8-2.5,8.7
			c-1.6,1.9-3.8,2.8-6.7,2.8h-10.2V27.2z M557.1,95.1c-1.7,2.1-4.1,3.1-7.3,3.1h-11.6V73.5h11.6c3.1,0,5.4,1,7.2,3.2
			c1.9,2.3,2.8,5.2,2.8,9C559.8,89.8,558.9,92.9,557.1,95.1"/>
		<path class="st0" d="M494.1,2.9h-9.9h-10.7c-1.1,0-2,0.8-2,1.8v53.7v28.7v0.1c0,3.9-0.9,7-2.7,9.2c-1.7,2.1-3.9,3.1-6.8,3.1
			s-5.1-1-6.8-3.1c-1.8-2.2-2.7-5.3-2.7-9.2v-0.1V58.4l0,0V4.7c0-1-0.9-1.8-2-1.8h-11.2h-9.4c-1.1,0-2,0.8-2,1.8v53.7v29
			c0,10.9,2.6,20.6,8.8,27.1c6.3,6.6,15.2,9.9,25.4,9.9c10.2,0,19.1-3.3,25.4-9.9c6.2-6.5,8.8-16.2,8.8-27.1v-29V4.7
			C496.1,3.7,495.2,2.9,494.1,2.9"/>
		<path class="st0" d="M591.8,5.7V3h13.8v2.7h-5.3v13.5h-3.2V5.7H591.8z M612.9,3l4.1,11.5L621.2,3h4.6v16.2h-3V6.1l-4.5,13.1h-2.6
			l-4.5-13.1v13.1h-3V3H612.9z"/>
	</g>
</g>
</svg>
