<?xml version="1.0" encoding="utf-8"?>
<!-- Generator: Adobe Illustrator 21.0.0, SVG Export Plug-In . SVG Version: 6.00 Build 0)  -->
<svg version="1.1" id="Layer_1" xmlns="http://www.w3.org/2000/svg" xmlns:xlink="http://www.w3.org/1999/xlink" x="0px" y="0px"
	 viewBox="0 0 370 150" style="enable-background:new 0 0 370 150;" xml:space="preserve">
<style type="text/css">
	.st0{fill:#00519A;}
	.st1{fill:#FFFFFF;}
</style>
<g id="g2565">
	<path id="path2567" class="st0" d="M328.3,141.1l-1.3,0.5c-5.1,2-19.9,3.5-29.4,3.5c-8.9,0-20.7-3.3-27.6-12.5
		c-2.6-3.6-5.2-9.1-5.2-17h-9l-6.9,27.6h-23.4l8.2-27.6h-7.4l-17.8,27.6h-18.8l-1.7-27.6h-8.3l-8.2,27.6h-20l8.5-27.6h-47v-0.4
		l-8.4,28.1H83.3l8.3-27.7h-26l12.9,27.7H53.9l-11.2-27.7H36c-4.2,13.6-7.5,24.6-7.7,25.4l-0.4,2.2H5l21-69.8V4.7h78.6v67.9l3-10
		h5.4V4.7h78.4v57.9h8.4V4.7h78.4V78c2.6-3.6,5.5-6.5,8.4-8.7V4.9H365v110.8h-29.6L328.3,141.1z M286.7,115.6c0,3.6,0.7,6.6,2.3,8.6
		c2.2,3,6.2,4.5,11.8,4.5c6.2,0,8.6-0.7,9.4-1l3.9-12.1H286.7"/>
	<path id="path2569" class="st1" d="M144.9,88.1c-2.5,7.6-6,11.5-17.3,11.8c-3.7,0-7.8,0-13.4,0l6.9-23.6
		C138,76.3,149.3,74.9,144.9,88.1z M48.2,65.5h-17L8.7,140.4h16.8C25.9,138.9,48.2,65.5,48.2,65.5z M92.3,65.5H71.7L38.9,98.6l0,0
		l0,0l0,0l0,0l0,0l0,0l16.9,41.8h18.3l-18.9-40.3L92.3,65.5z M160.4,88.1c4.3-23.1-14.3-22.8-31.6-22.6h-19.1l-22.7,75h15.4
		l8.8-29.6h12.3C147.6,110.9,158.2,100.2,160.4,88.1z M265.4,65.5h-24.6c-29.9,41.5-37.2,64.8-37.2,64.8c2.9-26.4-0.9-64.8-0.9-64.8
		h-24.4l-22.9,74.9h14.1l19-64.1l3.9,64.1H207l41.4-64.1l-19,64.1h17.3L265.4,65.5z M314.2,63.9c-15.1,0-33.8,3.4-44.5,38.8
		c-9,29.6,12.8,39.7,28,39.7c10,0,24.1-1.7,28.3-3.4l10.6-37.8h-31.8l-3.5,11.3H318l-5.2,16.4c0,0,0.7,2.6-11.9,2.6
		c-15.9,0-20.3-11-15.1-29.2c4.8-16.9,12.6-28.2,26.9-27.5c9.7,0.4,15.2,4.1,12.5,13c-0.1,0.6-0.2,1.4-0.5,1.9h15.4
		C344,78.2,336.2,63.9,314.2,63.9"/>
</g>
</svg>
