<svg viewBox="0 0 550 200" xmlns="http://www.w3.org/2000/svg"><defs><linearGradient id="b" x1=".13878" x2=".89144" y1=".61255" y2=".66491"><stop stop-color="#0064e1" offset="0"/><stop stop-color="#0064e1" offset=".4"/><stop stop-color="#0073ee" offset=".83"/><stop stop-color="#0082fb" offset="1"/></linearGradient><linearGradient id="a" x1=".54315" x2=".54315" y1=".82781" y2=".39306"><stop stop-color="#0082fb" offset="0"/><stop stop-color="#0064e0" offset="1"/></linearGradient></defs><g stroke="null"><path d="m42.316 116c0 5.768 1.266 10.196 2.921 12.876 2.17 3.509 5.406 4.996 8.704 4.996 4.255 0 8.148-1.056 15.649-11.431 6.01-8.316 13.091-19.988 17.856-27.306l8.069-12.397c5.605-8.61 12.093-18.181 19.531-24.669 6.073-5.295 12.623-8.237 19.216-8.237 11.068 0 21.612 6.414 29.68 18.444 8.831 13.175 13.117 29.77 13.117 46.895 0 10.181-2.007 17.661-5.421 23.571-3.299 5.715-9.729 11.426-20.545 11.426v-16.295c9.261 0 11.573-8.51 11.573-18.249 0-13.879-3.236-29.281-10.364-40.287-5.059-7.806-11.615-12.576-18.827-12.576-7.801 0-14.078 5.884-21.133 16.374-3.751 5.574-7.601 12.366-11.925 20.03l-4.759 8.431c-9.561 16.952-11.982 20.813-16.763 27.185-8.379 11.158-15.534 15.387-24.953 15.387-11.173 0-18.239-4.838-22.615-12.13-3.572-5.942-5.327-13.738-5.327-22.621l16.316 0.583z" fill="#0081fb"/><path d="m38.865 69.426c7.481-11.531 18.276-19.594 30.657-19.594 7.171 0 14.299 2.122 21.743 8.2 8.142 6.645 16.821 17.588 27.647 35.622l3.882 6.472c9.372 15.612 14.704 23.644 17.824 27.432 4.013 4.864 6.824 6.314 10.475 6.314 9.261 0 11.573-8.51 11.573-18.249l14.394-0.452c0 10.181-2.007 17.661-5.421 23.571-3.299 5.715-9.729 11.426-20.545 11.426-6.724 0-12.681-1.46-19.269-7.675-5.064-4.77-10.984-13.243-15.539-20.86l-13.548-22.631c-6.798-11.357-13.033-19.825-16.642-23.66-3.882-4.124-8.873-9.104-16.836-9.104-6.446 0-11.919 4.523-16.5 11.441l-13.895-8.253z" fill="url(#b)"/><path d="m69.26 66.237c-6.446 0-11.919 4.523-16.5 11.441-6.477 9.776-10.443 24.338-10.443 38.322 0 5.768 1.266 10.196 2.921 12.876l-13.91 9.162c-3.573-5.942-5.328-13.738-5.328-22.621 0-16.153 4.434-32.99 12.865-45.991 7.481-11.531 18.276-19.594 30.657-19.594l-0.263 16.406 1e-3 -1e-3z" fill="url(#a)"/><path d="m208.78 53.004h18.875l32.092 58.058 32.097-58.058h18.465v95.397h-15.397v-73.114l-28.146 50.63h-14.446l-28.141-50.63v73.114h-15.397v-95.397h-2e-3zm149.77 35.569c-11.042 0-17.693 8.311-19.284 18.601h37.476c-0.772-10.601-6.887-18.601-18.192-18.601zm-34.55 24.464c0-21.654 13.994-37.413 34.818-37.413 20.482 0 32.711 15.56 32.711 38.569v4.229h-52.264c1.854 11.194 9.282 18.738 21.26 18.738 9.556 0 15.528-2.916 21.191-8.247l8.179 10.018c-7.706 7.087-17.509 11.173-29.917 11.173-22.541 0-35.979-16.437-35.979-37.066l1e-3 -1e-3zm86.199-23.098h-14.173v-12.608h14.173v-20.85h14.856v20.85h21.533v12.608h-21.533v31.955c0 10.911 3.488 14.788 12.061 14.788 3.914 0 6.157-0.336 9.471-0.888v12.471a44.24 44.24 0 0 1-12.334 1.702c-16.038 0-24.054-8.762-24.054-26.303v-33.725zm98.943 12.261c-2.984-7.533-9.64-13.08-19.421-13.08-12.713 0-20.85 9.02-20.85 23.713 0 14.325 7.491 23.781 20.24 23.781 10.023 0 17.178-5.831 20.03-13.086v-21.328h1e-3zm14.856 46.202h-14.583v-9.949c-4.076 5.857-11.494 11.652-23.508 11.652-19.321 0-32.233-16.174-32.233-37.271 0-21.296 13.222-37.208 33.053-37.208 9.802 0 17.493 3.919 22.688 10.837v-9.13h14.583v71.07-1e-3z" fill="#192830"/></g></svg>
