<?xml version="1.0" encoding="utf-8"?>
<!-- Generator: Adobe Illustrator 21.0.0, SVG Export Plug-In . SVG Version: 6.00 Build 0)  -->
<svg version="1.1" id="Layer_1" xmlns="http://www.w3.org/2000/svg" xmlns:xlink="http://www.w3.org/1999/xlink" x="0px" y="0px"
	 viewBox="0 0 380 66" style="enable-background:new 0 0 380 66;" xml:space="preserve">
<g id="XMLID_1_">
	<path id="path813" fill="#2B2A2B" d="M308.6,5.7v38c0,1.9,1,3,2,3.7c1.1,0.7,2.7,1.1,4.8,1.1c1.4,0,3.1-0.4,3.1-0.4v-3.4c-0.5,0-1,0.1-1.5,0.1
		c-3.2,0-3.7-1.2-3.7-2.6V5.9h-4.7V5.7z M208.2,6.1c-3.6,0-6.8,1.1-9.1,3.1c-2.2,2-3.5,4.7-3.5,7.6c0,3.2,1.3,5.8,4,7.8
		c2.4,1.8,5.6,2.9,8.7,4c5.3,1.9,10.3,3.6,10.3,8.5c0,2.2-0.7,4-2.1,5.3c-1.5,1.4-3.7,2.1-6.6,2.1c-5.1,0-8.8-2.8-10.9-8.3l-4.6,1.2
		c1,2.2,2.7,5.4,5.1,7.6c2.7,2.4,6,3.5,10.1,3.5c4.9,0,8.6-1.3,11-3.8c2.5-2.6,3.1-6,3.1-8.4c0-3.4-1.4-6-4.3-8
		c-2.5-1.8-5.8-3-8.9-4c-5.2-1.8-10.1-3.4-10-7.8c0-2,0.7-3.6,2-4.7c1.3-1.1,3.1-1.7,5.5-1.7c2.5,0,4.7,0.7,6.4,2.1
		c1.6,1.2,2.7,3.1,3.2,5.1l4.4-0.6C220.2,10.1,215.4,6.1,208.2,6.1z M5,6.6v41.2h4.8V10.1l0.1,0.1l11.3,37.6h3.7l11.4-37.6l0.1-0.1
		v37.7h4.8V6.6h-7.9L23.2,39.7v0.1l-0.1-0.1L13,6.6H5z M231.3,7.5v9.9h-4.6v3.8h4.6c0,0,0,21.2,0,22.5c0,1.9,0.9,3,1.9,3.7
		c1.1,0.7,2.7,1.1,4.8,1.1c1.4,0,3.2-0.4,3.2-0.4v-3.4c-0.5,0-1.1,0.1-1.6,0.1c-3.2,0-3.5-1.2-3.5-2.6V21.4h5.1v-3.8h-5.1V7.7h-4.8
		V7.5z M60.3,16.8c-4,0-7.4,1.6-9.8,4.6c-2.2,2.8-3.4,6.8-3.4,11.2s1.2,8.4,3.4,11.2c2.4,3,5.8,4.6,9.8,4.6s7.4-1.6,9.8-4.6
		c2.2-2.8,3.4-6.8,3.4-11.2s-1.2-8.4-3.4-11.2C67.7,18.4,64.3,16.8,60.3,16.8z M334.5,16.8c-2,0-3.9,0.4-5.5,1.1
		c-1.6,0.7-3,1.8-4,3.1c-2.2,2.7-3.4,6.7-3.4,11.6c0,5.4,1.6,9.5,4.4,12.3c3,2.9,6.8,3.5,9.4,3.5c6.8,0,10.2-3.7,11.6-7.1l-3.8-1.9
		c-0.9,2.1-3,5.2-7.8,5.2c-2.7,0-4.9-1.1-6.5-3.1c-1.5-2-2.4-4.7-2.4-8h20.8v-2.9c0-5-1.3-8.7-3.8-11
		C341.4,17.7,338.4,16.8,334.5,16.8z M109,16.9c-5.4,0-13,3.6-13,15.7c0,11.8,7.6,15.7,12.7,15.7c3,0,5.7-1.7,7.6-4l0.3-0.1V50
		c0,4.1-3.5,6.6-7.3,6.6c-3.6,0-6.9-0.7-9.5-1.9v4.1c2.2,1,5.8,1.5,8.9,1.5c8.4,0,12.5-4.6,12.5-11.4V17.5h-3.5l-1,3.2
		C114.9,18.4,112.6,16.9,109,16.9z M139.7,16.9c-6.8,0-9.9,4-11.3,6.6l3.8,2c0.5-1.4,2.4-4.8,7.6-4.8c4,0,6.1,1.8,6.1,5.3v1.1
		c0,0,0,0.3-0.1,0.4c-0.2,0.2-0.6,0.3-1.6,0.4c-5.7,0.6-9.4,1.6-12.2,3.3c-3,1.9-4.9,4.6-4.9,8.4c0,2.6,1.3,4.9,3,6.5
		c1.6,1.5,3.7,2.2,6,2.3c5,0.2,8.3-1.9,9.9-4.4c0.1,1.7,0.7,2.6,2.1,3.3c1.2,0.7,3.3,0.5,4.2,0.3v-3.2c-1.1-0.1-1.7-0.6-1.7-1.9V28
		v-1.9c0-3-1.2-5.5-3.5-7.1C145.1,17.6,142.5,16.9,139.7,16.9z M172.4,16.9c-3.1,0-6.3,1.6-8.9,4.6v-4h-4.8v30.4h4.8V25.3
		c1.6-1.7,5.2-4.6,8.5-4.6s4.8,1.6,4.8,5.3v22h4.8V25.9C181.5,19.3,176.8,16.9,172.4,16.9z M258.4,16.9c-6.7,0-9.9,4-11.3,6.6l3.8,2
		c0.5-1.4,2.4-4.8,7.6-4.8c4,0,6.1,1.8,6.1,5.3v1.1c0,0,0,0.3-0.1,0.4c-0.1,0.2-0.5,0.3-1.5,0.4c-5.7,0.6-9.4,1.6-12.2,3.3
		c-3,1.9-4.9,4.6-4.9,8.4c0,2.6,1.3,4.9,3,6.5c1.6,1.5,3.7,2.2,6,2.3c5,0.2,8.3-1.9,9.9-4.4c0.1,1.7,0.7,2.6,2.1,3.3
		c1.2,0.7,3.3,0.5,4.2,0.3v-3.2c-1.1-0.1-1.7-0.6-1.7-1.9V28v-1.9c0-3-1.3-5.5-3.5-7.1C263.8,17.6,261.2,16.9,258.4,16.9z
		 M291.1,16.9c-3.1,0-6.3,1.6-8.9,4.6v-4h-4.8v30.4h4.8V25.3c1.6-1.7,5.2-4.6,8.5-4.6s4.8,1.6,4.8,5.3v22h4.8V25.9
		C300.2,19.3,295.6,16.9,291.1,16.9z M94.2,17c-4.8,0-7.7,1.9-10.1,6.3V23v-5.5h-4.8v30.4h4.8V30.7c1.2-6.3,4.5-9.2,10.1-9.2V17z
		 M350.5,17.4l10.6,30.2v0.3c-0.6,2.9-2.5,6.5-4.1,7.6c-1.5,1-3,1.1-4.2,1.1c-0.6,0-1.8-0.2-2.3-0.3V60c0.7,0.2,2.2,0.4,3.1,0.4
		c2.3,0,4.2-0.6,5.8-1.7c1.9-1.4,4.1-5,5.1-8.2l10.6-33h-4.6l-6.9,23.4l-0.1,0.5l-0.1-0.5l-8.2-23.4h-4.7V17.4z M60.3,20.6
		c5.1,0,8.2,4.5,8.2,12s-3,12-8.2,12c-5.1,0-8.2-4.5-8.2-12C52.1,25.1,55.2,20.6,60.3,20.6z M109.3,20.6c2.7,0,5,1.2,7.3,3.9V39
		c-1.2,3.5-4.8,5.5-7.3,5.5c-4.9,0-8.3-3.1-8.3-12.2C101,24.7,104.1,20.6,109.3,20.6z M334.7,20.6c5.4,0,7.9,2.9,7.9,9.1h-16
		C327,23.5,329.6,20.6,334.7,20.6z M146,31.4v7.7c-0.2,2.7-5.2,5.9-9.3,5.7c-2.2-0.1-4.4-1.9-4.6-4.9c-0.4-4.9,3.3-7,11.6-7.9
		C144.3,31.9,145.4,31.7,146,31.4z M264.7,31.4v7.7c-0.2,2.7-5.2,5.9-9.3,5.7c-2.2-0.1-4.4-1.9-4.6-4.9c-0.4-4.9,3.3-7,11.6-7.9
		C263,31.9,264.2,31.7,264.7,31.4z"/>
</g>
</svg>
