<svg xmlns="http://www.w3.org/2000/svg" viewBox="0 0 417.5 307.4"><path d="M382 274.9c0 3.8-2.8 6.3-6 6.3-3.4 0-6.1-2.5-6.1-6.3s2.7-6.3 6.1-6.3c3.2 0 6 2.5 6 6.3zm2.5 0c0-5.2-4-8.2-8.5-8.2s-8.5 3-8.5 8.2c0 5.2 4 8.2 8.5 8.2 4.4 0 8.5-3 8.5-8.2m-9.9.7h.9l2.1 3.7h2.3l-2.3-3.9c1.2-.1 2.2-.7 2.2-2.3 0-2-1.4-2.7-3.8-2.7h-3.4v8.8h2v-3.6m0-1.5V272h1.4c.7 0 1.8.1 1.8 1 0 1-.5 1.2-1.4 1.2h-1.8m-47.4-44.4l10.6 29h-21.5l10.9-29zm-11.3-11.3l-24.4 61.9h17.2l3.9-10.9h28.9l3.7 10.9h18.7l-24.6-61.9h-23.4zm-49.1 61.9h17.5v-61.9h-17.5v61.9zm-121.4-61.9l-14.6 49.1-14-49.1H97.9l20 61.9h25.2l20.1-61.9h-17.8zm70.7 13.5h7.5c10.9 0 18 4.9 18 17.6 0 12.7-7.1 17.6-18 17.6h-7.5V232zm-17.4-13.5v61.9h28.4c15.1 0 20-2.5 25.4-8.1 3.8-4 6.2-12.6 6.2-22.1 0-8.7-2.1-16.5-5.7-21.3-6.5-8.6-15.8-10.3-29.8-10.3h-24.5zM33 218.4v62h17.6v-47.1h13.7c4.5 0 7.8 1.1 9.9 3.5 2.8 2.9 3.9 7.7 3.9 16.4v27.2h17.1v-34.3c0-24.5-15.6-27.8-30.8-27.8 0 .1-31.4.1-31.4.1zm137.6.1v61.9h17.5v-61.9h-17.5z" fill="#373737"/><path d="M80 95.2s22.5-33.2 67.4-36.6v-12c-49.8 4-92.9 46.1-92.9 46.1s24.4 70.6 92.9 77v-12.8C97.2 150.6 80 95.2 80 95.2zm67.5 36.2v11.7c-38-6.8-48.5-46.2-48.5-46.2s18.2-20.2 48.5-23.5v12.9h-.1c-15.9-1.9-28.3 12.9-28.3 12.9s7 25 28.4 32.2m0-107.1v22.2c1.5-.1 2.9-.2 4.4-.3 56.6-1.9 93.4 46.4 93.4 46.4s-42.3 51.5-86.5 51.5c-4 0-7.8-.4-11.4-1v13.7c3.1.4 6.3.6 9.5.6 41.1 0 70.7-21 99.5-45.8 4.8 3.8 24.3 13.1 28.3 17.2-27.3 22.9-91 41.3-127.1 41.3-3.5 0-6.8-.2-10.1-.5V189h156V24.3h-156zm0 49.1V58.6c1.4-.1 2.9-.2 4.4-.2 40.7-1.3 67.4 35 67.4 35s-28.8 40-59.7 40c-4.4 0-8.4-.7-12-1.9V86.3c15.8 1.9 19 8.9 28.6 24.8l21.2-17.9s-15.5-20.3-41.5-20.3c-3.1.1-5.8.3-8.4.5" fill="#77b900"/></svg>
