<?xml version="1.0" standalone="no"?>
<!DOCTYPE svg PUBLIC "-//W3C//DTD SVG 20010904//EN"
 "http://www.w3.org/TR/2001/REC-SVG-20010904/DTD/svg10.dtd">
<svg version="1.0" xmlns="http://www.w3.org/2000/svg" viewBox="0 0 1452.000000 1162.000000"
 preserveAspectRatio="xMidYMid meet">
<metadata>
Created by potrace 1.16, written by Peter Selinger 2001-2019
</metadata>
<style type="text/css">
  .st0{fill:#302F30;}
</style>
<g transform="translate(0.000000,1162.000000) scale(0.100000,-0.100000)"
fill="#000000" stroke="none">
<path class="st0" d="M6025 10561 c-14 -6 -5 -9 35 -14 102 -12 190 -79 190 -144 0 -40
-31 -82 -78 -105 -76 -36 -144 -23 -532 98 -331 105 -430 120 -554 88 -224
-58 -366 -247 -341 -454 13 -103 75 -199 156 -241 50 -25 57 -24 32 4 -32 34
-43 62 -43 107 0 116 93 190 219 176 31 -4 189 -42 351 -85 284 -75 484 -124
563 -136 l37 -6 0 -214 0 -215 -105 -87 c-58 -47 -105 -89 -104 -92 0 -3 47
-44 105 -90 l104 -83 -2 -301 -3 -302 -50 -27 c-97 -53 -261 -78 -385 -59
-105 15 -254 90 -340 169 l-65 59 273 137 272 136 0 470 0 470 -22 -9 c-13 -5
-164 -72 -335 -149 -172 -77 -313 -138 -313 -136 0 14 58 117 95 169 50 71
111 129 190 181 65 44 59 53 -17 29 -311 -101 -580 -378 -670 -691 -30 -107
-33 -347 -4 -469 104 -448 485 -745 936 -730 140 5 226 27 365 95 215 105 339
250 420 494 30 88 38 130 42 210 l5 101 -44 -78 c-24 -43 -68 -110 -98 -149
-54 -70 -193 -198 -214 -198 -8 0 -11 84 -9 287 1 159 2 291 2 294 1 3 48 43
106 89 l104 82 -104 85 c-58 47 -105 88 -106 92 0 3 -2 101 -2 216 l-2 210 68
12 c173 29 283 129 321 291 46 198 -53 353 -261 407 -60 16 -155 19 -188 6z
m-680 -1402 c0 -239 -1 -440 -4 -447 -2 -7 -34 -29 -72 -48 l-69 -34 -36 57
c-46 70 -85 157 -114 248 -42 132 -38 354 8 497 l17 52 125 57 c69 32 129 56
135 55 5 -1 9 -171 10 -437z"/>
<path class="st0" d="M6834 10264 c-126 -97 -230 -178 -232 -179 -2 -2 10 -11 27 -21 63
-37 61 -4 61 -866 l0 -785 -100 -72 c-55 -40 -100 -76 -100 -81 0 -21 19 -16
59 16 24 19 47 34 50 34 3 0 64 -55 135 -121 77 -71 135 -118 143 -115 28 11
412 321 413 334 0 20 -14 14 -64 -25 l-47 -36 -52 51 -52 51 1 431 1 430 43
38 c83 71 68 76 170 -50 l91 -113 -4 -525 c-5 -557 -8 -596 -57 -707 -29 -65
-124 -161 -195 -194 -33 -16 -66 -29 -72 -29 -7 0 -13 -4 -13 -9 0 -15 113
-22 187 -11 149 21 254 70 350 166 53 52 82 91 107 144 69 142 75 218 76 876
l0 420 66 48 c45 33 62 52 55 59 -7 7 -27 -3 -65 -31 -30 -23 -59 -43 -64 -44
-5 -2 -75 70 -155 159 l-145 162 -185 -159 c-102 -87 -187 -154 -189 -147 -2
7 -3 252 -2 545 0 292 -3 532 -6 532 -4 0 -111 -79 -236 -176z"/>
<path class="st0" d="M8540 9530 c-107 -66 -255 -150 -327 -187 l-133 -68 0 -432 0 -431
-52 -43 c-29 -23 -57 -46 -62 -51 -6 -5 -6 -12 0 -18 8 -8 28 3 67 35 31 25
58 45 61 45 3 0 89 -76 192 -169 l186 -169 242 192 c132 105 280 223 329 261
57 45 84 72 78 78 -7 7 -15 7 -23 0 -7 -5 -86 -67 -175 -136 -89 -70 -166
-127 -172 -127 -5 0 -76 62 -156 137 l-146 137 3 50 3 50 288 211 c158 117
293 217 298 222 8 8 -26 74 -107 214 -65 112 -131 228 -148 258 -17 30 -35 55
-41 57 -5 1 -98 -51 -205 -116z m65 -339 c76 -128 138 -239 139 -246 1 -10
-219 -180 -281 -219 -10 -6 -13 68 -13 355 0 218 4 359 9 354 5 -6 71 -115
146 -244z"/>
<path class="st0" d="M11915 7107 c-38 -28 -146 -104 -240 -169 -93 -66 -171 -124 -173
-129 -2 -5 5 -9 16 -9 28 0 79 -62 93 -112 9 -31 12 -257 13 -827 l1 -784 -92
-81 c-82 -71 -110 -106 -85 -106 4 0 31 21 60 46 l53 47 27 -25 c15 -13 76
-70 136 -126 60 -57 112 -102 117 -100 18 7 394 342 397 354 6 24 -14 15 -62
-27 l-47 -42 -60 59 c-33 32 -63 71 -67 87 -4 15 -7 470 -6 1012 0 542 -2 985
-5 984 -3 0 -37 -23 -76 -52z"/>
<path class="st0" d="M3450 7135 c0 -53 -79 -143 -146 -165 -77 -26 -208 10 -285 78 l-35
31 -193 -220 c-131 -150 -191 -225 -187 -236 5 -12 16 -4 49 32 23 27 48 57
55 67 12 17 16 16 65 -22 69 -52 135 -80 220 -94 l70 -12 1 -527 c1 -290 -1
-527 -4 -527 -3 0 -52 87 -111 193 -645 1176 -652 1189 -714 1252 -87 88 -136
110 -255 110 -111 0 -154 -17 -233 -94 -60 -57 -93 -120 -107 -202 -12 -77
-13 -186 -2 -193 5 -3 14 17 21 45 8 30 26 63 46 84 28 30 39 35 77 35 57 0
111 -37 156 -107 l32 -50 0 -196 c0 -109 -3 -197 -7 -197 -42 -1 -153 -24
-196 -40 -137 -51 -209 -190 -172 -332 30 -116 103 -196 200 -218 l35 -8 -30
34 c-40 46 -41 100 -5 137 29 28 112 52 150 43 l25 -6 0 -279 0 -279 -22 -6
c-13 -3 -39 -6 -58 -6 -50 0 -142 -25 -205 -56 -66 -32 -146 -113 -179 -180
-137 -274 44 -557 353 -553 l76 1 -45 12 c-178 50 -247 175 -161 294 75 102
237 92 359 -23 l50 -45 94 102 c268 294 300 330 290 340 -6 6 -29 -11 -64 -48
l-54 -56 -48 43 c-26 24 -67 56 -89 71 -47 32 -173 83 -229 93 l-38 7 0 651
c0 358 2 648 4 646 2 -2 30 -53 63 -114 33 -60 85 -155 115 -210 30 -55 133
-242 228 -415 95 -173 196 -358 225 -410 29 -52 103 -187 165 -300 233 -426
217 -400 256 -400 l34 0 0 945 0 945 28 0 c40 1 158 45 205 77 122 84 192 273
156 419 -12 45 -29 69 -29 39z"/>
<path class="st0" d="M8310 6899 c-107 -87 -198 -158 -202 -158 -5 -1 -8 67 -8 150 0 116
-3 150 -12 147 -10 -4 -13 -237 -14 -1121 0 -614 -3 -1119 -6 -1122 -3 -3 -32
1 -64 10 -32 8 -83 18 -111 22 l-53 6 0 942 c0 634 -4 961 -11 1001 -31 170
-154 267 -339 268 -75 1 -93 -3 -151 -30 -76 -36 -152 -108 -191 -180 -28 -52
-51 -161 -37 -170 5 -3 9 2 9 11 0 24 35 87 63 113 59 56 159 34 200 -43 21
-38 22 -54 25 -351 l3 -311 -55 -7 c-132 -15 -233 -84 -283 -192 -66 -145 26
-342 168 -361 l40 -6 -37 37 c-32 32 -36 41 -31 73 4 20 15 46 26 56 24 24
107 46 141 37 l25 -6 3 -450 2 -450 -47 -23 c-119 -57 -215 -166 -229 -259 -3
-26 -8 -55 -10 -65 -6 -36 18 -144 46 -204 102 -221 308 -269 750 -178 411 85
506 98 573 76 45 -15 69 -55 69 -116 0 -52 -12 -77 -61 -129 l-36 -38 35 7
c69 13 179 73 230 125 83 85 118 222 86 333 -23 78 -95 156 -189 202 -127 62
-246 58 -684 -24 -397 -75 -494 -77 -564 -14 -71 64 -73 156 -4 231 53 59 115
77 270 77 180 0 238 -9 485 -72 191 -49 227 -55 320 -56 197 -1 303 66 346
218 15 54 17 149 19 963 l1 902 72 62 c48 41 69 65 62 72 -6 6 -29 -8 -67 -40
-32 -28 -64 -54 -71 -58 -8 -5 -54 29 -135 100 -67 59 -133 117 -147 130 l-25
22 -195 -159z m3 -233 l77 -68 0 -273 0 -273 -30 -26 c-65 -54 -144 -55 -221
-3 l-34 23 -3 326 -2 326 47 35 c46 34 49 35 68 18 11 -9 55 -48 98 -85z
m-159 -691 c29 -15 66 -25 91 -25 25 0 62 10 91 25 27 14 50 25 52 25 1 0 2
-56 2 -124 l0 -125 -44 25 c-30 17 -61 25 -94 26 -49 0 -114 -21 -126 -41 -19
-31 -26 -1 -26 114 0 69 1 125 3 125 1 0 24 -11 51 -25z m161 -224 c80 -37 76
-12 73 -437 -3 -370 -4 -380 -25 -421 -12 -22 -39 -55 -60 -72 -41 -34 -126
-56 -173 -46 l-30 7 0 457 0 458 23 21 c54 51 126 63 192 33z"/>
<path class="st0" d="M4650 6623 c-93 -32 -193 -124 -236 -216 -29 -63 -32 -147 -8 -228
14 -47 29 -66 110 -145 147 -143 138 -108 142 -605 l3 -416 -70 -53 c-39 -28
-71 -56 -71 -61 0 -18 24 -8 78 32 30 23 61 42 68 43 7 0 81 -55 165 -124 84
-69 158 -124 165 -124 6 1 87 61 178 133 107 86 170 130 178 125 7 -5 86 -66
176 -137 104 -82 168 -127 178 -123 8 3 92 54 187 112 95 59 245 152 335 207
l162 100 0 401 1 401 110 95 c134 115 153 135 144 150 -4 6 -27 -9 -62 -40
-31 -28 -62 -49 -69 -46 -7 3 -76 57 -154 121 l-140 117 -161 -148 -160 -147
60 -61 61 -62 0 -490 0 -491 -24 -11 c-21 -9 -36 0 -159 101 l-137 112 0 403
0 403 53 60 c28 33 52 63 52 68 0 5 -64 66 -143 135 l-142 127 -161 -142 -160
-142 60 -61 61 -62 -2 -463 -3 -464 -26 -20 -27 -19 -116 93 -116 93 0 448 c0
499 1 490 -68 561 -20 21 -76 66 -124 99 -104 71 -152 122 -169 177 -16 55 0
109 50 161 l38 40 -31 0 c-17 -1 -51 -8 -76 -17z"/>
<path class="st0" d="M12240 6019 c-124 -181 -224 -336 -224 -343 1 -11 270 -447 561 -909
l23 -37 187 162 c102 90 202 177 221 194 22 19 33 35 28 43 -5 8 -27 -5 -72
-45 -36 -31 -66 -55 -68 -53 -2 2 -146 219 -320 482 -277 418 -315 480 -306
498 6 11 14 19 18 17 4 -2 39 -20 77 -40 206 -106 381 -52 480 149 24 49 65
178 65 205 0 4 -22 -8 -49 -27 -67 -48 -112 -65 -173 -65 -59 0 -132 30 -184
73 -18 15 -33 27 -35 27 -2 -1 -105 -149 -229 -331z"/>
<path class="st0" d="M9588 6242 c-92 -54 -234 -131 -317 -172 l-151 -74 0 -461 -1 -460
-54 -44 c-48 -40 -61 -61 -35 -61 5 0 30 18 55 40 40 35 50 39 64 28 19 -15
327 -273 356 -300 21 -17 23 -17 93 27 85 53 318 185 485 275 l117 63 0 428 0
428 55 47 c49 43 69 74 47 74 -4 0 -34 -23 -65 -51 l-57 -51 -102 89 c-268
234 -313 272 -318 272 -3 -1 -80 -44 -172 -97z m155 -324 l88 -83 -3 -454 -3
-454 -162 148 -163 147 0 460 0 460 78 -70 c42 -39 117 -108 165 -154z"/>
<path class="st0" d="M3890 6223 c-96 -58 -242 -142 -325 -186 -82 -44 -152 -82 -155 -85
-3 -2 -6 -191 -7 -420 -1 -229 -2 -424 -2 -433 -1 -9 -28 -38 -62 -64 -40 -32
-57 -51 -50 -58 6 -6 30 6 70 38 l61 48 28 -25 c15 -13 99 -90 188 -170 l160
-146 328 259 c179 142 327 262 327 266 1 24 -36 0 -197 -126 l-179 -140 -70
67 c-243 230 -225 209 -225 266 l1 51 299 219 300 220 -18 30 c-10 17 -78 136
-151 264 -73 127 -136 232 -139 232 -4 -1 -86 -48 -182 -107z m44 -356 l145
-248 -137 -101 c-75 -55 -143 -105 -149 -111 -10 -7 -13 65 -13 353 0 200 2
361 4 359 3 -2 70 -116 150 -252z"/>
<path class="st0" d="M10575 6193 c-82 -74 -172 -155 -199 -180 -33 -30 -46 -47 -39 -54 7
-7 28 6 66 41 l56 51 65 -87 66 -87 0 -398 0 -398 -25 -19 c-14 -11 -53 -46
-86 -77 -46 -42 -59 -59 -50 -68 8 -8 25 2 66 43 l55 54 32 -30 c225 -208 280
-254 292 -247 7 4 101 82 210 172 127 106 193 168 187 174 -6 6 -31 -8 -70
-39 -34 -27 -65 -49 -70 -49 -5 0 -42 30 -83 66 l-73 66 1 444 c1 244 2 447 3
450 1 3 19 -11 42 -32 103 -95 228 -107 336 -33 92 63 151 177 160 309 l5 70
-28 -26 c-54 -48 -77 -59 -129 -59 -40 0 -63 7 -108 34 l-56 34 -121 -125
c-99 -101 -124 -122 -136 -112 -7 6 -58 65 -111 130 -54 66 -100 119 -103 119
-3 -1 -72 -62 -155 -137z"/>
<path class="st0" d="M5095 3721 c-15 -6 -6 -10 40 -15 78 -10 139 -39 165 -80 24 -40 26
-93 4 -125 -22 -31 -90 -61 -139 -61 -54 0 -206 38 -400 100 -387 124 -485
140 -616 101 -143 -44 -244 -124 -297 -239 -24 -51 -27 -69 -27 -167 0 -103 2
-113 30 -164 32 -59 91 -114 137 -130 30 -11 30 -11 14 12 -53 72 -57 139 -12
207 45 68 125 92 230 70 32 -6 201 -50 375 -96 252 -67 493 -124 527 -124 2 0
4 -98 4 -218 l0 -219 -106 -84 -106 -84 39 -32 c21 -18 68 -57 105 -86 l67
-52 1 -307 0 -307 -54 -25 c-154 -73 -347 -83 -497 -27 -97 37 -279 161 -279
192 0 5 119 69 265 141 l265 133 0 472 0 472 -67 -30 c-382 -172 -585 -260
-589 -256 -9 9 46 109 97 178 50 67 94 108 182 168 27 18 46 35 44 38 -19 18
-223 -72 -332 -148 -104 -72 -238 -215 -303 -324 -154 -261 -171 -579 -47
-875 68 -162 228 -343 380 -429 214 -122 471 -160 685 -101 41 11 125 45 186
75 226 110 373 300 434 560 20 87 32 198 23 221 -3 9 -18 -10 -38 -51 -61
-120 -186 -268 -293 -344 l-32 -22 0 298 1 298 67 52 c37 29 84 68 105 85 l39
33 -106 85 -106 85 0 215 0 216 72 12 c186 32 308 162 325 347 15 160 -62 273
-226 336 -60 23 -200 35 -236 20z m-675 -1409 l0 -448 -73 -36 -74 -36 -33 50
c-145 222 -185 496 -110 741 l20 63 127 56 c71 31 131 57 136 57 4 1 7 -201 7
-447z"/>
<path class="st0" d="M5750 3284 c-74 -68 -136 -129 -138 -134 -3 -8 101 -130 208 -244 17
-17 23 -13 163 114 l146 133 -117 128 c-64 71 -119 129 -122 128 -3 0 -66 -56
-140 -125z"/>
<path class="st0" d="M10867 2851 c-7 -57 -32 -90 -87 -118 -83 -43 -166 -25 -249 51 l-46
44 -100 -66 c-150 -98 -315 -197 -405 -242 l-80 -40 0 -209 0 -209 115 -107
114 -107 -110 -121 c-129 -143 -171 -217 -177 -312 -6 -90 18 -161 73 -223 50
-55 132 -102 179 -102 30 0 29 0 -16 29 -25 16 -53 39 -62 52 -53 76 32 181
132 163 47 -8 107 -42 154 -88 l37 -36 163 107 c90 59 219 140 288 179 l125
72 3 274 2 273 -125 99 c-69 55 -125 100 -125 101 0 2 23 31 51 66 147 184
212 375 165 484 l-13 30 -6 -44z m-499 -349 c125 -99 254 -99 384 1 l47 36
-18 -30 c-68 -111 -356 -414 -388 -407 -7 2 -42 28 -78 58 l-65 55 0 208 0
209 39 -49 c21 -27 57 -64 79 -81z m130 -493 l72 -61 0 -262 0 -261 -31 54
c-72 125 -186 201 -312 209 -101 6 -168 -21 -254 -101 -92 -86 -55 -19 67 121
60 70 366 362 378 362 5 0 40 -27 80 -61z"/>
<path class="st0" d="M7826 2659 c-103 -82 -191 -149 -195 -149 -3 0 -66 65 -140 145
l-133 145 -86 -67 c-48 -37 -132 -103 -187 -146 l-100 -79 -140 145 -140 146
-160 -141 c-88 -77 -178 -156 -199 -174 -25 -22 -36 -38 -30 -44 6 -6 31 9 68
41 32 27 62 49 65 47 4 -2 46 -46 94 -100 l87 -96 0 -360 0 -360 -45 -38 -45
-39 141 -160 c78 -88 145 -161 148 -163 3 -1 71 63 151 143 l144 144 -62 65
-62 64 0 429 0 428 34 28 c19 15 37 27 40 27 3 0 50 -52 106 -117 l100 -116 0
-351 0 -350 -41 -42 -41 -41 133 -149 c73 -82 135 -150 139 -152 3 -1 70 63
149 142 l144 144 -52 55 -53 56 -3 433 -4 433 34 25 c18 14 38 25 44 25 6 0
56 -49 111 -110 l99 -110 1 -355 0 -354 -35 -36 -34 -35 145 -157 c80 -87 150
-158 155 -158 6 0 98 82 205 181 139 129 192 185 185 192 -8 8 -24 -1 -54 -31
-23 -23 -47 -42 -52 -41 -6 0 -40 35 -77 77 l-68 77 0 406 0 405 71 53 c49 37
68 56 61 63 -8 8 -33 -6 -82 -42 -39 -29 -75 -49 -79 -44 -44 52 -254 284
-259 288 -4 3 -92 -63 -196 -145z"/>
<path class="st0" d="M9185 2689 c-110 -66 -256 -150 -325 -186 -69 -37 -127 -68 -130 -70
-3 -3 -6 -197 -7 -431 -1 -235 -2 -430 -2 -433 -1 -3 -28 -28 -62 -54 -40 -32
-57 -51 -50 -58 6 -6 30 6 70 38 l61 48 28 -24 c273 -249 345 -310 357 -305
11 4 612 473 649 507 6 5 3 11 -6 14 -11 4 -76 -41 -194 -134 l-178 -140 -66
62 c-36 34 -102 97 -148 140 l-82 77 0 53 1 52 299 219 c165 120 298 221 296
225 -65 120 -300 521 -304 521 -4 -1 -97 -55 -207 -121z m-23 -184 c19 -33 81
-138 138 -233 56 -96 100 -175 98 -176 -15 -10 -240 -175 -265 -194 l-33 -24
0 363 c0 305 2 360 13 344 8 -11 29 -47 49 -80z"/>
<path class="st0" d="M5705 2659 c-199 -174 -209 -184 -200 -198 4 -7 25 5 57 34 42 37 54
44 64 33 6 -7 44 -50 83 -96 l71 -83 0 -407 0 -407 -61 -52 c-45 -40 -57 -54
-45 -59 10 -4 35 11 68 40 29 25 55 46 58 46 3 0 64 -67 135 -149 l129 -150
35 31 c226 197 350 313 342 321 -9 9 -72 -33 -101 -68 -7 -8 -16 -15 -19 -15
-4 0 -42 40 -84 89 l-77 89 0 395 0 395 68 61 c45 40 64 63 57 70 -7 7 -28 -6
-65 -39 -30 -27 -60 -49 -66 -50 -6 0 -71 70 -144 155 -73 85 -135 155 -139
155 -3 -1 -78 -64 -166 -141z"/>
</g>
</svg>
