<svg viewBox="0 0 500 82" xml:space="preserve" xmlns="http://www.w3.org/2000/svg">
<style type="text/css">
  .st0{fill:#1D1D1B;}
</style>
  <path class="st0" d="m274 38.8s-4.8-2.9-7.7-4.1c0 0-9.1-4.2-10.9-6.2 0 0-3.5-3.3-1.5-7.2 0 0 0.9-2.5 4.6-2.5 0 0 4.9 0.3 4.9 4.3v5.7h17.6v-8.3s1.3-13.7-20.6-14.3c0 0-17.3-1.1-22.2 8.2 0 0-1.9 2.1-1.9 9.3v5.2s-0.2 6 2.9 9.9c0 0 1.7 2.5 6 5.4 0 0 8.7 4.7 13.9 7.4 0 0 5.3 3 4.6 7.8 0 0-0.4 4.9-5.5 4.7 0 0-4.7-0.2-4.7-5v-5.7h-18.7v8.2s-0.5 15.7 23.5 15.7c0 0 22.9 0.5 24-16.1v-6.7c-0.2-0.1 0.6-10.3-8.3-15.7z"/>
  <polygon class="st0" points="184.4 8 178.5 44.8 177.2 44.8 171.6 8.4 142.3 8.4 140.9 74.9 158.2 74.9 158.4 24.8 159.8 24.8 168.9 74.9 187.1 74.9 196.2 24.8 197.4 24.8 197.8 74.9 215.2 74.9 213.4 8"/>
  <polygon class="st0" points="81.3 8.3 69.8 74.8 88.5 74.8 95.3 23.3 96.8 23.3 103.6 74.8 122.3 74.8 110.8 8.3"/>
  <path class="st0" d="m472.5 37.9v9.8h4.8v10.5c0 5.1-4.4 5.2-4.4 5.2-5.4 0-5.1-4.9-5.1-4.9v-36.3c0-3.8 4.7-4 4.7-4 4.6 0 4.6 4.5 4.6 4.5v5.5h17.5c0.6-10.8-1.6-13.4-1.6-13.4-4.4-9.8-20.8-9.2-20.8-9.2-25.3 0-22.5 19.4-22.5 19.4v35.2c0.5 18.2 25.5 16.4 25.9 16.3 11.1-1.2 14.4-4.7 14.4-4.7 3.1-2.3 3.9-5.5 3.9-5.5 0.9-1.8 1.1-7.7 1.1-7.7v-20.7h-22.5z"/>
  <polygon class="st0" points="414.3 48.7 413.5 48.7 395.7 8.1 374.4 8.1 374.4 74.9 391.7 74.9 390.7 34.2 391.5 34.2 409.9 74.9 430.6 74.9 430.6 8.1 413 8.1"/>
  <path class="st0" d="m332.1 58.2s0.3 5.5-4.8 5.5c0 0-5.4 0.3-5.4-5.3l-0.1-50.3h-19v49.9s-2 18.9 24.7 18.9c0 0 23.2 0.3 23.2-18v-50.8h-18.6v50.1z"/>
  <path class="st0" d="m45.1 38.8s-4.8-2.9-7.7-4.1c0 0-9.1-4.2-10.9-6.2 0 0-3.6-3.3-1.5-7.2 0 0 0.9-2.5 4.6-2.5 0 0 4.9 0.3 4.9 4.3v5.7h17.5v-8.3s1.3-13.7-20.6-14.3c0 0-1.7-0.1-4.1 0 0 0-13.3 0.7-18.1 8 0 0.1-0.1 0.1-0.1 0.1s-1.9 2.1-1.9 9.3v5.2s-0.2 6 2.9 9.9c0 0 1.7 2.5 6 5.4 0 0 8.7 4.7 13.9 7.4 0 0 5.3 3 4.6 7.8 0 0-0.4 4.9-5.5 4.7 0 0-4.7-0.2-4.7-5v-5.7h-18.6v8.2s-0.5 15.7 23.4 15.7c0 0 22.9 0.5 24-16.1v-6.7s0.8-10.2-8.1-15.6z"/>
</svg>
