<?xml version="1.0" encoding="UTF-8"?>
<svg enable-background="new 0 0 380 92" version="1.1" viewBox="0 0 380 92" xml:space="preserve" xmlns="http://www.w3.org/2000/svg">
<style type="text/css">
	.st0{fill:#827F80;}
	.st1{fill:#F57A14;}
</style>
<g transform="matrix(1.25 0 0 -1.25 -230.78 603.93)">
	<path class="st0" d="m465 453.8c-1.5 0-3.8-0.1-4.9-0.3-0.4-0.1-0.6-0.2-0.6-0.6v-13.5c0-0.2 0.2-0.4 0.4-0.4h2.1c0.2 0 0.4 0.2 0.4 0.4v5.1c0.5 0 2.2-0.1 2.7-0.1h0.5l3-5c0.1-0.2 0.2-0.4 0.4-0.4h2.5c0.2 0 0.2 0.1 0.2 0.3v0.1l-3.2 5.5c1.7 0.7 2.8 1.8 2.8 4v0.2c-0.2 3.6-3.1 4.7-6.3 4.7zm0-2.4c2.1 0 3.2-0.7 3.2-2.2v-0.2c0-1.8-1.1-2.2-3.2-2.2-0.3 0-2.4 0.1-2.7 0.1v4.4c0.4 0 2.3 0.1 2.7 0.1z"/>
	<path class="st0" d="m395.2 453.8c-1.5 0-3.8-0.1-4.9-0.3-0.4-0.1-0.6-0.2-0.6-0.6v-13.5c0-0.2 0.2-0.4 0.4-0.4h2.1c0.2 0 0.4 0.2 0.4 0.4v5.1c0.5 0 2.2-0.1 2.7-0.1h0.5l3-5c0.1-0.2 0.2-0.4 0.4-0.4h2.5c0.2 0 0.2 0.1 0.2 0.3v0.1l-3.2 5.5c1.7 0.7 2.8 1.8 2.8 4v0.2c-0.3 3.6-3.2 4.7-6.3 4.7zm0-2.4c2.1 0 3.2-0.7 3.2-2.2v-0.2c0-1.8-1.1-2.2-3.2-2.2-0.4 0-2.4 0.1-2.7 0.1v4.4c0.3 0 2.2 0.1 2.7 0.1z"/>
	<path class="st0" d="m357.8 453.8c-3.4 0-6.5-1.9-6.5-6.4v-2.1c0-4.5 3.1-6.4 6.5-6.4s6.5 1.9 6.5 6.4v2.1c0.1 4.5-3.1 6.4-6.5 6.4zm0-2.5c2 0 3.7-1.2 3.7-3.9v-2.1c0-2.7-1.6-3.9-3.7-3.9-2 0-3.7 1.2-3.7 3.9v2.1c0.1 2.7 1.7 3.9 3.7 3.9z"/>
	<path class="st0" d="m309.8 453.8c-3.4 0-6.5-1.9-6.5-6.4v-2.1c0-4.5 3.1-6.4 6.5-6.4s6.5 1.9 6.5 6.4v2.1c0.1 4.5-3.1 6.4-6.5 6.4zm0-2.5c2 0 3.7-1.2 3.7-3.9v-2.1c0-2.7-1.6-3.9-3.7-3.9-2 0-3.7 1.2-3.7 3.9v2.1c0.1 2.7 1.7 3.9 3.7 3.9z"/>
	<path class="st0" d="m448.8 443.1c0-1.7 0.1-1.8 1.6-1.8h5.2c0.2 0 0.4-0.2 0.4-0.4v-1.3c0-0.3-0.1-0.4-0.4-0.4-0.7-0.1-2-0.3-4.4-0.3-3.4 0-5.2 0-5.2 4.2v6.5c0 4.2 1.8 4.2 5.2 4.2 2.4 0 3.8-0.2 4.4-0.3 0.3 0 0.4-0.1 0.4-0.4v-1.3c0-0.2-0.2-0.4-0.4-0.4h-5.2c-1.6 0-1.6 0-1.6-1.8v-1.9h6.6c0.2 0 0.4-0.2 0.4-0.4v-1.5c0-0.2-0.2-0.4-0.4-0.4h-6.6v-2.3z"/>
	<path class="st0" d="m479.2 438.9c-1.8 0-3.7 0.3-4.7 0.5-0.2 0-0.4 0.2-0.4 0.4v1.5c0 0.2 0.2 0.4 0.4 0.4 0.8-0.1 2.7-0.4 4.7-0.4 1.8 0 2.4 0.7 2.4 1.8 0 1.5-3.7 2.4-5.5 3.1s-2.4 2.2-2.4 3.6c0 2.3 1.8 3.9 5.7 3.9 2 0 3.8-0.4 4.5-0.5 0.2 0 0.4-0.2 0.4-0.4v-1.5c0-0.2-0.1-0.4-0.3-0.4-1.4 0.1-2.8 0.4-4.6 0.4-1.5 0-2.7-0.5-2.7-1.5 0-0.7 0.8-1.3 1.7-1.7s2.1-0.8 3.5-1.4c1.7-0.7 2.9-1.7 2.9-3.7-0.2-1.9-1.5-4.1-5.6-4.1"/>
	<path class="st0" d="m443.4 451.3h-4.1v-11.8c0-0.2-0.2-0.4-0.4-0.4h-2c-0.2 0-0.4 0.2-0.4 0.4v11.8h-4.1c-0.2 0-0.4 0.1-0.4 0.4v1.6c0 0.2 0.2 0.4 0.4 0.4h11.1c0.2 0 0.4-0.2 0.4-0.4v-1.6c-0.1-0.3-0.3-0.4-0.5-0.4"/>
	<path class="st0" d="m423.7 438.9c-3.3 0-6.2 1.4-6.2 5.8v8.6c0 0.2 0.2 0.4 0.4 0.4h2c0.2 0 0.4-0.2 0.4-0.4v-8.6c0-2.3 1.1-3.5 3.3-3.5s3.3 1.1 3.3 3.5v8.6c0 0.2 0.2 0.4 0.4 0.4h2c0.2 0 0.4-0.2 0.4-0.4v-8.6c0.2-4.4-2.7-5.8-6-5.8"/>
	<path class="st0" d="m407.2 443.1c0-1.7 0.1-1.8 1.6-1.8h5.2c0.2 0 0.4-0.2 0.4-0.4v-1.3c0-0.3-0.1-0.4-0.4-0.4-0.7-0.1-2-0.3-4.4-0.3-3.4 0-5.2 0-5.2 4.2v6.5c0 4.2 1.8 4.2 5.2 4.2 2.4 0 3.8-0.2 4.4-0.3 0.3 0 0.4-0.1 0.4-0.4v-1.3c0-0.2-0.2-0.4-0.4-0.4h-5.2c-1.6 0-1.6 0-1.6-1.8v-1.9h6.6c0.2 0 0.4-0.2 0.4-0.4v-1.5c0-0.2-0.2-0.4-0.4-0.4h-6.6v-2.3z"/>
	<path class="st0" d="m343.3 438.9c-1.8 0-3.7 0.3-4.7 0.5-0.2 0-0.4 0.2-0.4 0.4v1.5c0 0.2 0.2 0.4 0.4 0.4 0.8-0.1 2.7-0.4 4.7-0.4 1.8 0 2.4 0.7 2.4 1.8 0 1.5-3.7 2.4-5.5 3.1s-2.4 2.2-2.4 3.6c0 2.3 1.8 3.9 5.7 3.9 2 0 3.8-0.4 4.5-0.5 0.2 0 0.4-0.2 0.4-0.4v-1.5c0-0.2-0.1-0.4-0.3-0.4-1.4 0.1-2.8 0.4-4.6 0.4-1.5 0-2.7-0.5-2.7-1.5 0-0.7 0.8-1.3 1.7-1.7s2.1-0.8 3.5-1.4c1.7-0.7 2.9-1.7 2.9-3.7-0.2-1.9-1.5-4.1-5.6-4.1"/>
	<path class="st0" d="m379.3 439h-2.1c-0.5 0-0.9 0-1.3 0.7l-5.6 9.4c-0.1 0.1-0.1 0.2-0.2 0.2s-0.1 0-0.1-0.2v-9.7c0-0.2-0.2-0.4-0.4-0.4h-1.6c-0.2 0-0.4 0.2-0.4 0.4v13.4c0 0.5 0.4 0.8 0.8 0.8h2.2c0.4 0 0.7-0.1 0.9-0.7l5.8-9.9c0-0.1 0.1-0.2 0.2-0.2 0 0 0.1 0.1 0.1 0.2v10.2c0 0.2 0.2 0.4 0.4 0.4h1.8c0.2 0 0.4-0.2 0.4-0.4v-13.4c-0.1-0.4-0.4-0.8-0.9-0.8"/>
	<path class="st0" d="m334.1 439h-2.1c-0.2 0-0.3 0.2-0.3 0.4v8.9c0 0.1 0 0.2-0.1 0.2l-0.1-0.1-3.3-7.4c-0.1-0.2-0.4-0.4-0.7-0.4h-1.1c-0.3 0-0.5 0.1-0.7 0.4l-3.3 7.4c0 0.1-0.1 0.1-0.1 0.1s-0.1-0.1-0.1-0.2v-8.9c0-0.2-0.1-0.4-0.3-0.4h-2.1c-0.2 0-0.4 0.1-0.4 0.3v13.5c0 0.5 0.4 0.8 0.8 0.8h1.7c0.3 0 0.6-0.2 0.8-0.5l3.9-8c0.1-0.2 0.1-0.3 0.2-0.3s0.1 0.1 0.2 0.3l3.9 8c0.1 0.3 0.4 0.5 0.8 0.5h1.7c0.5 0 0.8-0.4 0.8-0.8v-13.5c0.2-0.2 0.1-0.3-0.1-0.3"/>
	<path class="st0" d="m299.6 439h-2c-0.2 0-0.4 0.2-0.4 0.4v6h-6.5v-6c0-0.2-0.2-0.4-0.4-0.4h-2c-0.2 0-0.4 0.2-0.4 0.4v13.8c0 0.2 0.2 0.4 0.4 0.4h2c0.2 0 0.4-0.2 0.4-0.4v-5.3h6.5v5.3c0 0.2 0.2 0.4 0.4 0.4h2c0.2 0 0.4-0.2 0.4-0.4v-13.8c0-0.2-0.2-0.4-0.4-0.4"/>
	<path class="st0" d="m284.8 451.3h-4.1v-11.8c0-0.2-0.2-0.4-0.4-0.4h-2c-0.2 0-0.4 0.2-0.4 0.4v11.8h-4.1c-0.2 0-0.4 0.1-0.4 0.4v1.6c0 0.2 0.2 0.4 0.4 0.4h11.1c0.2 0 0.4-0.2 0.4-0.4v-1.6c-0.1-0.3-0.3-0.4-0.5-0.4"/>
	<path class="st1" d="m209.3 466.4c-0.4 0.5-1.2 0.6-1.7 0.2s-0.6-1.1-0.2-1.7c0.4-0.5 1.2-0.6 1.7-0.2s0.6 1.2 0.2 1.7m12 4.4c-0.1 0.7-0.7 1.1-1.3 1s-1.1-0.7-1-1.3c0.1-0.7 0.7-1.1 1.3-1s1.1 0.7 1 1.3m5.7-47.6c-0.6-0.1-1.1-0.7-1-1.3 0.1-0.7 0.7-1.1 1.3-1s1.1 0.7 1 1.3c0 0.6-0.6 1.1-1.3 1m11.2 4.8c-0.5-0.4-0.6-1.2-0.2-1.7s1.2-0.6 1.7-0.2 0.6 1.1 0.2 1.7c-0.5 0.5-1.2 0.6-1.7 0.2m-36.2 2.2c0.5-1.3 1.9-2 3.2-1.5s2 1.9 1.5 3.3c-0.5 1.3-1.9 2-3.2 1.5s-2-2-1.5-3.3m4.8-4.3c0.4-1.2 1.7-1.9 2.9-1.5s1.9 1.7 1.5 2.9-1.7 1.9-2.9 1.5-1.9-1.6-1.5-2.9m6-2.9c0.3-1 1.3-1.6 2.2-1.3 1 0.3 1.6 1.2 1.3 2.2s-1.3 1.6-2.2 1.3c-1-0.2-1.6-1.2-1.3-2.2m6.5-1.4c0.2-0.8 1-1.4 1.8-1.2s1.4 1 1.2 1.8-1 1.4-1.8 1.2-1.4-1-1.2-1.8m-18.9 18.9c1.3 0.6 1.8 2.1 1.1 3.4-0.6 1.3-2.1 1.8-3.4 1.1-1.2-0.6-1.8-2.1-1.1-3.4 0.7-1.2 2.2-1.7 3.4-1.1m-0.1 6.7c1.1 0.6 1.5 2 0.9 3.1s-2 1.5-3.1 0.9-1.5-2-0.9-3.1 2-1.5 3.1-0.9m1.5 6.7c0.9 0.5 1.1 1.7 0.6 2.5-0.5 0.9-1.7 1.1-2.5 0.6-0.9-0.5-1.1-1.7-0.6-2.5 0.5-0.9 1.6-1.2 2.5-0.6m3 5.9c0.7 0.5 0.8 1.4 0.4 2.1-0.5 0.7-1.4 0.8-2.1 0.4-0.7-0.5-0.9-1.4-0.4-2.1s1.4-0.9 2.1-0.4m-2.6-25.7c1.4 0.6 2 2.2 1.4 3.6s-2.2 2-3.6 1.4-2-2.2-1.4-3.6c0.5-1.4 2.2-2 3.6-1.4m30.7-9.3c-0.6-0.2-0.8-0.9-0.6-1.4 0.2-0.6 0.9-0.8 1.5-0.6s0.8 0.9 0.6 1.5c-0.2 0.5-0.9 0.7-1.5 0.5m14 27.4c-1.2-0.6-1.8-2.1-1.1-3.4 0.6-1.3 2.1-1.8 3.4-1.1 1.2 0.6 1.8 2.1 1.1 3.4-0.7 1.2-2.2 1.7-3.4 1.1m0-6.7c-1.1-0.6-1.5-2-0.9-3.1s2-1.5 3.1-0.9 1.5 2 0.9 3.1-2 1.5-3.1 0.9m-1.4-6.7c-0.9-0.5-1.1-1.7-0.6-2.5 0.5-0.9 1.7-1.1 2.5-0.6 0.9 0.5 1.1 1.7 0.6 2.5-0.5 0.9-1.6 1.2-2.5 0.6m-3-5.9c-0.7-0.5-0.8-1.4-0.4-2.1 0.5-0.7 1.4-0.8 2.1-0.4 0.7 0.5 0.8 1.4 0.4 2.1-0.5 0.7-1.4 0.9-2.1 0.4m-27.6 36.5c-0.2 0.6-0.9 0.8-1.5 0.6s-0.8-0.9-0.6-1.5 0.9-0.8 1.5-0.6c0.6 0.3 0.9 0.9 0.6 1.5m30.4-6.9c-0.5 1.3-1.9 2-3.2 1.5s-2-1.9-1.5-3.2 1.9-2 3.2-1.5c1.3 0.4 2 1.9 1.5 3.2m-4.8 4.3c-0.4 1.2-1.7 1.9-2.9 1.5s-1.9-1.7-1.5-2.9 1.7-1.9 2.9-1.5 1.9 1.6 1.5 2.9m-6 2.9c-0.3 1-1.3 1.6-2.2 1.3-1-0.3-1.6-1.2-1.3-2.2s1.3-1.6 2.2-1.3c1 0.2 1.6 1.2 1.3 2.2m-6.5 1.4c-0.2 0.8-1 1.4-1.8 1.2s-1.4-1-1.2-1.8 1-1.4 1.8-1.2 1.4 1 1.2 1.8m19.3-17.5c-1.4-0.6-3 0-3.6 1.4s0 3 1.4 3.6 3 0 3.6-1.4 0-3-1.4-3.6m-30.3 23.6c-0.2 0.8-1.1 1.3-1.9 1.1s-1.3-1-1.1-1.9c0.2-0.8 1.1-1.3 1.9-1.1s1.3 1 1.1 1.9m16.3-0.8c0.2 0.8-0.3 1.6-1.1 1.9-0.8 0.2-1.6-0.3-1.9-1.1-0.2-0.8 0.3-1.6 1.1-1.9 0.8-0.2 1.6 0.3 1.9 1.1m-17.4-59c-0.8 0.2-1.6-0.3-1.9-1.1-0.2-0.8 0.3-1.6 1.1-1.9 0.8-0.2 1.6 0.3 1.9 1.1 0.2 0.8-0.3 1.7-1.1 1.9m15.5 0c-0.8-0.2-1.3-1.1-1.1-1.9s1.1-1.3 1.9-1.1 1.3 1 1.1 1.9c-0.3 0.8-1.1 1.3-1.9 1.1m-41.4 21c-0.1-1.8 1.3-3.3 3.1-3.4s3.3 1.3 3.4 3.1-1.3 3.3-3.1 3.4c-1.8 0-3.3-1.4-3.4-3.1m3.4-7.5c-0.2-1.6 1-3.1 2.6-3.2 1.6-0.2 3.1 1 3.2 2.6 0.2 1.6-1 3.1-2.6 3.2-1.5 0.2-3-1-3.2-2.6m5.6-6.5c-0.2-1.3 0.7-2.5 2-2.7s2.5 0.7 2.7 2-0.7 2.5-2 2.7c-1.2 0.2-2.4-0.7-2.7-2m7-4.9c-0.2-1.1 0.4-2.1 1.5-2.3s2.1 0.4 2.3 1.5c0.2 1-0.4 2.1-1.5 2.3s-2.1-0.5-2.3-1.5m-12.6 31.8c1.8 0.1 3.2 1.6 3.1 3.4s-1.6 3.2-3.4 3.1-3.2-1.6-3.1-3.4c0.1-1.9 1.6-3.2 3.4-3.1m3.3 7.9c1.6 0.2 2.8 1.6 2.6 3.2s-1.6 2.8-3.2 2.6-2.8-1.6-2.6-3.2c0.1-1.6 1.6-2.8 3.2-2.6m5 7.1c1.3 0.2 2.2 1.4 2 2.7s-1.4 2.2-2.7 2-2.2-1.4-2-2.7 1.5-2.2 2.7-2m6.6 5.4c1.1 0.2 1.7 1.3 1.5 2.3-0.2 1.1-1.3 1.7-2.3 1.5s-1.7-1.2-1.5-2.3c0.2-1 1.2-1.7 2.3-1.5m-16.2-28.9c1.9 0 3.5 1.6 3.5 3.5 0 2-1.6 3.5-3.5 3.5s-3.5-1.6-3.5-3.5 1.6-3.5 3.5-3.5m31.5-26.5c-0.8 0-1.4-0.6-1.4-1.4s0.6-1.4 1.4-1.4 1.4 0.6 1.4 1.4c0.1 0.7-0.6 1.4-1.4 1.4m30.3 25.1c-1.8-0.1-3.2-1.6-3.1-3.4s1.6-3.2 3.4-3.1 3.2 1.6 3.1 3.4-1.6 3.2-3.4 3.1m-3.3-7.9c-1.6-0.2-2.8-1.6-2.6-3.2s1.6-2.8 3.2-2.6 2.8 1.6 2.6 3.2c-0.1 1.6-1.6 2.8-3.2 2.6m-5.1-7.1c-1.3-0.2-2.2-1.4-2-2.7s1.4-2.2 2.7-2 2.2 1.4 2 2.7-1.4 2.2-2.7 2m-6.5-5.4c-1.1-0.2-1.7-1.3-1.5-2.3 0.2-1.1 1.3-1.7 2.3-1.5s1.7 1.3 1.5 2.3-1.3 1.7-2.3 1.5m-13.9 56.8c0 0.8-0.6 1.4-1.4 1.4s-1.4-0.6-1.4-1.4 0.6-1.4 1.4-1.4c0.7 0 1.4 0.7 1.4 1.4m32.2-23.5c0.1 1.8-1.3 3.3-3.1 3.4s-3.3-1.3-3.4-3.1 1.3-3.3 3.1-3.4c1.8 0 3.3 1.3 3.4 3.1m-3.5 7.5c0.2 1.6-1 3.1-2.6 3.2-1.6 0.2-3.1-1-3.2-2.6-0.2-1.6 1-3.1 2.6-3.2 1.6-0.2 3.1 1 3.2 2.6m-5.6 6.4c0.2 1.3-0.7 2.5-2 2.7s-2.5-0.7-2.7-2 0.7-2.5 2-2.7c1.3-0.1 2.5 0.8 2.7 2m-6.9 5c0.2 1.1-0.4 2.1-1.5 2.3s-2.1-0.4-2.3-1.5 0.4-2.1 1.5-2.3c1-0.2 2.1 0.5 2.3 1.5m13.8-30.4c-1.9 0-3.5 1.6-3.5 3.5 0 2 1.6 3.5 3.5 3.5s3.5-1.6 3.5-3.5c0.1-1.9-1.5-3.5-3.5-3.5m-23.5-4.5c0.6 0.3 0.8 1.1 0.5 1.6-0.3 0.6-1.1 0.8-1.6 0.5-0.6-0.3-0.8-1.1-0.5-1.6 0.3-0.7 1-0.9 1.6-0.5m1.7 2.7c0.5 0.3 0.7 0.9 0.4 1.5-0.3 0.5-0.9 0.7-1.5 0.4-0.5-0.3-0.7-0.9-0.4-1.5 0.4-0.5 1-0.7 1.5-0.4m0.9 3.2c0.5 0.3 0.6 0.8 0.4 1.3s-0.8 0.6-1.3 0.4c-0.5-0.3-0.6-0.8-0.4-1.3 0.3-0.5 0.9-0.7 1.3-0.4m-0.1 3.3c0.4 0.2 0.5 0.7 0.3 1.1s-0.7 0.5-1.1 0.3-0.5-0.7-0.3-1.1 0.7-0.5 1.1-0.3m-7.6-10.6c-0.3 0.6-1.1 0.8-1.6 0.5-0.6-0.3-0.8-1-0.5-1.6s1-0.8 1.6-0.5c0.7 0.3 0.9 1 0.5 1.6m-3.3-0.1c-0.3 0.5-0.9 0.7-1.5 0.4-0.5-0.3-0.7-0.9-0.4-1.5 0.3-0.5 0.9-0.7 1.5-0.4 0.5 0.3 0.7 0.9 0.4 1.5m-3.1 0.8c-0.3 0.5-0.8 0.6-1.3 0.4-0.5-0.3-0.6-0.8-0.4-1.3s0.8-0.6 1.3-0.4c0.4 0.3 0.6 0.9 0.4 1.3m-2.8 1.8c-0.2 0.4-0.7 0.5-1.1 0.3s-0.5-0.7-0.3-1.1 0.7-0.5 1.1-0.3 0.5 0.7 0.3 1.1m12.4-1.4c-0.4 0.7-1.2 0.9-1.9 0.6-0.7-0.4-0.9-1.2-0.6-1.9 0.4-0.7 1.2-0.9 1.9-0.6 0.7 0.4 1 1.3 0.6 1.9m2.3 12.9c0.2-0.3 0.6-0.4 0.9-0.3 0.3 0.2 0.5 0.6 0.3 0.9s-0.6 0.5-0.9 0.3-0.4-0.6-0.3-0.9m-11.3 4.9c0.3-0.6 1.1-0.8 1.6-0.5 0.6 0.3 0.8 1.1 0.5 1.6-0.3 0.6-1.1 0.8-1.6 0.5-0.6-0.3-0.8-1-0.5-1.6m3.4 0.2c0.3-0.5 0.9-0.7 1.4-0.4s0.7 0.9 0.4 1.5c-0.3 0.5-0.9 0.7-1.5 0.4-0.4-0.4-0.6-1-0.3-1.5m3.1-0.9c0.2-0.5 0.8-0.6 1.3-0.4 0.5 0.3 0.6 0.8 0.4 1.3s-0.8 0.6-1.3 0.4c-0.4-0.3-0.6-0.8-0.4-1.3m2.8-1.7c0.2-0.4 0.7-0.5 1.1-0.3s0.5 0.7 0.3 1.1-0.7 0.5-1.1 0.3c-0.4-0.3-0.5-0.8-0.3-1.1m-15.7-11.3c-0.3-0.2-0.4-0.6-0.3-0.9 0.2-0.3 0.6-0.4 0.9-0.3 0.3 0.2 0.4 0.6 0.3 0.9s-0.5 0.5-0.9 0.3m1.4 12.4c-0.6-0.3-0.8-1-0.5-1.7 0.3-0.6 1-0.8 1.6-0.5s0.8 1.1 0.5 1.6c-0.3 0.7-1 0.9-1.6 0.6m-1.8-2.8c-0.5-0.3-0.7-0.9-0.4-1.5 0.3-0.5 0.9-0.7 1.5-0.4 0.5 0.3 0.7 0.9 0.4 1.5-0.3 0.5-0.9 0.7-1.5 0.4m-0.8-3.2c-0.5-0.2-0.6-0.8-0.4-1.3 0.3-0.5 0.8-0.6 1.3-0.4s0.6 0.8 0.4 1.3c-0.3 0.5-0.9 0.7-1.3 0.4m0.1-3.3c-0.4-0.2-0.5-0.7-0.3-1.1s0.7-0.5 1.1-0.3 0.6 0.7 0.3 1.1c-0.2 0.4-0.7 0.5-1.1 0.3m6.8 10.8c0.4-0.7 0.1-1.5-0.6-1.9s-1.5-0.1-1.9 0.6-0.1 1.5 0.6 1.9c0.7 0.3 1.6 0.1 1.9-0.6m3.6-25.1c0.8-0.2 1.7 0.2 1.9 1s-0.2 1.7-1 1.9-1.7-0.2-1.9-1c-0.3-0.8 0.2-1.7 1-1.9m4.4 0.9c0.7-0.2 1.5 0.2 1.7 0.9s-0.2 1.5-0.9 1.7-1.5-0.2-1.7-0.9c-0.3-0.7 0.1-1.4 0.9-1.7m3.9 2.4c0.6-0.2 1.2 0.2 1.3 0.7 0.2 0.6-0.2 1.2-0.7 1.3-0.6 0.2-1.2-0.2-1.3-0.7-0.2-0.5 0.1-1.1 0.7-1.3m3 3.4c0.5-0.1 1 0.1 1.1 0.6s-0.1 0.9-0.6 1.1c-0.5 0.1-0.9-0.1-1.1-0.6-0.1-0.5 0.2-1 0.6-1.1m-17.7-3.2c0.2 0.8-0.2 1.7-1 1.9s-1.7-0.2-1.9-1 0.2-1.7 1-1.9c0.8-0.3 1.7 0.1 1.9 1m-3.3 3c0.2 0.7-0.2 1.5-0.9 1.7s-1.5-0.2-1.7-0.9 0.2-1.5 0.9-1.7 1.5 0.2 1.7 0.9m-2.4 3.9c0.2 0.6-0.2 1.2-0.7 1.3-0.6 0.2-1.2-0.2-1.3-0.7-0.2-0.6 0.1-1.2 0.7-1.3 0.5-0.2 1.1 0.2 1.3 0.7m-1 4.4c0.1 0.5-0.1 0.9-0.6 1.1-0.5 0.1-0.9-0.1-1.1-0.6-0.1-0.5 0.1-0.9 0.6-1.1 0.5-0.1 0.9 0.1 1.1 0.6m10.9-13.3c0.3 0.9-0.3 1.9-1.2 2.2s-1.9-0.3-2.2-1.2 0.3-1.9 1.2-2.2 1.9 0.3 2.2 1.2m15 10.2c-0.1-0.3 0.1-0.7 0.4-0.8 0.4-0.1 0.7 0.1 0.8 0.4s-0.1 0.7-0.4 0.8-0.7-0.1-0.8-0.4m-6.3 15.7c-0.2-0.8 0.2-1.7 1-1.9s1.7 0.2 1.9 1-0.2 1.7-1 1.9c-0.8 0.3-1.7-0.2-1.9-1m3.3-3c-0.2-0.7 0.2-1.5 0.9-1.7s1.5 0.2 1.7 0.9-0.2 1.5-0.9 1.7-1.5-0.2-1.7-0.9m2.4-3.9c-0.2-0.6 0.2-1.2 0.7-1.3 0.6-0.2 1.2 0.2 1.3 0.7 0.2 0.6-0.2 1.2-0.7 1.3s-1.1-0.2-1.3-0.7m1-4.4c-0.1-0.5 0.1-0.9 0.6-1.1 0.5-0.1 0.9 0.1 1.1 0.6 0.1 0.5-0.1 0.9-0.6 1.1-0.5 0.1-1-0.2-1.1-0.6m-26.4 3.9c-0.3 0.1-0.7-0.1-0.8-0.4s0.1-0.7 0.4-0.8 0.7 0.1 0.8 0.4c0.1 0.4-0.1 0.7-0.4 0.8m13.3 10.9c-0.8 0.2-1.7-0.2-1.9-1s0.2-1.7 1-1.9 1.7 0.2 1.9 1c0.3 0.8-0.2 1.7-1 1.9m-4.4-1c-0.7 0.2-1.5-0.2-1.7-0.9s0.2-1.5 0.9-1.7 1.5 0.2 1.7 0.9c0.3 0.8-0.2 1.5-0.9 1.7m-3.9-2.3c-0.6 0.2-1.2-0.2-1.3-0.7-0.2-0.6 0.2-1.2 0.7-1.3 0.6-0.2 1.2 0.2 1.3 0.7 0.2 0.5-0.1 1.1-0.7 1.3m-3.1-3.4c-0.5 0.1-0.9-0.1-1.1-0.6-0.1-0.5 0.1-0.9 0.6-1.1 0.5-0.1 0.9 0.1 1.1 0.6s-0.1 0.9-0.6 1.1m17 4.2c-0.3-0.9-1.3-1.5-2.2-1.2-1 0.3-1.5 1.3-1.2 2.2s1.3 1.5 2.2 1.2 1.5-1.3 1.2-2.2m-15-31.3c0.8-0.7 2-0.7 2.8 0.1 0.7 0.8 0.7 2-0.1 2.8-0.8 0.7-2 0.7-2.8-0.1-0.7-0.8-0.7-2 0.1-2.8m5.8-1.4c0.7-0.7 1.8-0.6 2.5 0.1s0.6 1.8-0.1 2.5-1.8 0.6-2.5-0.1c-0.7-0.8-0.6-1.9 0.1-2.5m6.1 0.4c0.6-0.5 1.4-0.5 2 0.1 0.5 0.6 0.5 1.4-0.1 2-0.6 0.5-1.4 0.5-2-0.1-0.5-0.6-0.5-1.5 0.1-2m5.6 2.2c0.5-0.4 1.2-0.4 1.6 0s0.4 1.2 0 1.6-1.2 0.4-1.6 0c-0.4-0.5-0.4-1.2 0-1.6m-23.1 6.8c0.7 0.8 0.7 2-0.1 2.8s-2 0.7-2.8-0.1c-0.7-0.8-0.7-2 0.1-2.8 0.8-0.7 2.1-0.7 2.8 0.1m-2.1 5.7c0.7 0.7 0.6 1.8-0.1 2.5s-1.8 0.6-2.5-0.1-0.6-1.8 0.1-2.5 1.8-0.6 2.5 0.1m-0.5 6.1c0.5 0.6 0.5 1.4-0.1 2-0.6 0.5-1.4 0.5-2-0.1-0.5-0.6-0.5-1.4 0.1-2 0.6-0.5 1.5-0.5 2 0.1m1.5 5.7c0.4 0.4 0.4 1.2-0.1 1.6-0.4 0.4-1.2 0.4-1.6 0s-0.4-1.2 0-1.6c0.6-0.4 1.3-0.4 1.7 0m4.9-22.3c0.9 0.9 0.8 2.3-0.1 3.2s-2.4 0.8-3.2-0.1c-0.9-0.9-0.8-2.3 0.1-3.2 0.9-0.8 2.3-0.8 3.2 0.1m24.1 2.9c-0.3-0.3-0.3-0.9 0-1.2s0.9-0.3 1.2 0 0.3 0.9 0 1.2c-0.3 0.4-0.9 0.4-1.2 0m2 22.6c-0.7-0.8-0.7-2 0.1-2.8s2-0.7 2.8 0.1 0.7 2-0.1 2.8c-0.8 0.7-2.1 0.7-2.8-0.1m2.1-5.7c-0.7-0.7-0.6-1.8 0.1-2.5s1.8-0.6 2.5 0.1 0.6 1.8-0.1 2.5-1.8 0.6-2.5-0.1m0.4-6.1c-0.5-0.6-0.5-1.4 0.1-2 0.6-0.5 1.4-0.5 2 0.1 0.5 0.6 0.5 1.4-0.1 2-0.6 0.5-1.4 0.5-2-0.1m-1.4-5.8c-0.4-0.4-0.4-1.2 0-1.6 0.5-0.4 1.2-0.4 1.6 0.1 0.4 0.4 0.4 1.2 0 1.6-0.5 0.4-1.2 0.4-1.6-0.1m-29.1 20.6c-0.3 0.3-0.9 0.3-1.2 0s-0.3-0.9 0-1.2 0.9-0.3 1.2 0c0.4 0.4 0.4 0.9 0 1.2m22.4 5c-0.8 0.8-2 0.7-2.8-0.1-0.7-0.8-0.7-2 0.1-2.8 0.8-0.7 2.1-0.7 2.8 0.1s0.7 2-0.1 2.8m-5.8 1.4c-0.7 0.7-1.8 0.6-2.5-0.1s-0.6-1.8 0.1-2.5 1.8-0.6 2.5 0.1c0.7 0.8 0.6 1.9-0.1 2.5m-6.1-0.4c-0.6 0.5-1.4 0.5-2-0.1-0.5-0.6-0.5-1.4 0.1-2 0.6-0.5 1.4-0.5 2 0.1 0.5 0.6 0.5 1.5-0.1 2m-5.7-2.2c-0.5 0.4-1.2 0.4-1.6 0-0.4-0.5-0.4-1.2 0-1.6 0.5-0.4 1.2-0.4 1.6 0 0.5 0.5 0.5 1.2 0 1.6m22.7-5.1c-0.9-0.9-2.3-1-3.2-0.1s-1 2.3-0.1 3.2 2.3 1 3.2 0.1 0.9-2.3 0.1-3.2"/>
</g>
</svg>
