<?xml version="1.0" encoding="UTF-8"?>
<svg enable-background="new 0 0 601 372.5" version="1.1" viewBox="0 0 601 372.5" xml:space="preserve" xmlns="http://www.w3.org/2000/svg">
<style type="text/css">
	.st0{fill:#418FDE;}
	.st1{fill:none;}
	.st2{font-family:'MyriadPro-Bold';}
	.st3{font-size:48px;}
</style>

	<path class="st0" d="m349 307.4c-2.1 2.4-4.8 4.7-7.4 6.7-16.6-17.2-36.1-36.2-54.7-36.2-11.5 0-19.8 8.8-29.4 14.9-13.4 8.6-31.8 13.4-47.6 7.1-8.5-3.2-16.7-8-22.8-15.7 12.4 8.6 31 9.7 45 3.9 15.5-6.4 31.2-15 48.9-15 26 0.1 50.7 17.7 68 34.3zm-192.2-54.1c17.2 19.6 45.3 13.3 68.3 18.2 3.2 0.7 6.2 1.7 9.6 1.2-2.7-1.7-6.4-1.9-9.5-3.1-17.8-6.7-20.6-25.8-30.4-38.9 12.5 8.3 22.8 19.6 34.5 30.3 8.1 7.4 18.2 10.6 28.7 12.7-2.5 0.9-5.8 0.7-8.5 1.4-18.8 4.7-39.7 12-59.8 5.4-12.9-4.2-26.4-14.4-32.9-27.2zm-27.6-45.3c10.7 24.3 37.7 26.2 55.7 41.1 3.4 2.8 6.8 5.4 10.5 7.2l0.2-0.2c-4.1-3.7-8.6-8.2-11.8-12.9-10.3-14.9-6.8-35.3-14.8-51.1 7.2 8.6 13.9 17.5 18.1 27.3 6.7 15.8 8.9 33.9 23.8 46-16.2-5.3-34.8-4.3-49.4-13.8-15.2-10-29.4-25.8-32.3-43.6zm-11.5-49.2c1.6 21.4 24.4 32.9 35.2 50.5 2.3 3.8 4.7 7.6 8.1 10.7-0.5-2.3-2.4-4.3-3.4-6.5-3.5-7.6-5.1-16.3-4.2-25.3 1.1-10.9 5.6-21.1 3.9-32.6 9.4 20.2 6.4 45.5 11.8 67.4 1.2 4.8 4.1 9.1 6 13.7-9.2-7-21.3-13.2-31.4-21.2-9.8-7.7-18.3-16.7-22.7-28.5-3.3-8.6-4.1-18.7-3.3-28.2zm0.6-39.5c1.1-4.8 1.9-9.7 4-14.1-3.9 20.2 9.5 34.8 14.1 52.3 1.7 6.6 2.3 13.6 5 19.7 0.2 0.1 0.5-0.1 0.6-0.3-6.6-18.6 3.1-35.8 12.6-50.5 2.5-3.9 3.7-8.3 4.9-12.9 1 8.4-0.8 18.2-2.3 26.9-2 11.2-5.8 21.7-8.9 32.5-2 6.7-1.5 14.4-0.4 21.4l-1-0.8c-7.1-13-21-23.2-25.2-37.4-3.4-11.3-5.7-24.5-3.4-36.8zm7.5-21.8c0-15.3 6-27.8 14.9-39.2 0.3-0.1 0.4-0.4 0.8-0.3-9.8 15-0.9 33.8-2.1 50.8l-1.3 17.4c0.2 0.1 0.2 0.6 0.6 0.4 0.6-1.9 0.8-4 1.1-6 2.4-14 14.7-23.8 25.2-33.7 2.5-2.3 4.3-5.1 5.5-8.1-0.9 7-2.8 14.2-6 20.5-8 16.3-23.6 29.4-26.4 48-1.5-17.7-12.3-30.9-12.3-49.8zm25.9-51.5c4.9-5.5 10.5-9.8 17.1-11.4-12.8 8.8-12.1 24.6-16 37.7-1.4 4.8-3.5 9.3-4.7 14.3l0.3 0.3c2.1-5.6 5.8-11 10.6-15.5 9-8.5 22.6-13.6 27-26.1-0.2 17.3-14.9 30.4-28.4 40.6-6 4.6-11.2 10.7-14.3 17.1 0.5-4.8 0.8-8.7 0.3-13.4-1.4-15.2-2.3-32.2 8.1-43.6zm52-29.1c-9.5 8.3-15.9 19.1-23.2 28.7-6.1 8-14.4 13-21.6 19.7 3.9-8 4.6-17.2 9.5-25 8.5-13.2 22.4-18.4 35.3-23.4z"/>
	<path class="st0" d="m250.7 307.4c2.1 2.4 4.8 4.7 7.4 6.7 16.6-17.2 36.1-36.2 54.7-36.2 11.5 0 19.8 8.8 29.4 14.9 13.4 8.6 31.8 13.4 47.6 7.1 8.5-3.2 16.7-8 22.8-15.7-12.4 8.6-31 9.7-45 3.9-15.5-6.4-31.2-15-48.9-15-25.9 0.1-50.6 17.7-68 34.3zm192.3-54.1c-17.2 19.6-45.3 13.3-68.3 18.2-3.2 0.7-6.2 1.7-9.6 1.2 2.7-1.7 6.4-1.9 9.5-3.1 17.8-6.7 20.6-25.8 30.4-38.9-12.5 8.3-22.8 19.6-34.5 30.3-8.1 7.4-18.2 10.6-28.7 12.7 2.5 0.9 5.8 0.7 8.5 1.4 18.8 4.7 39.7 12 59.8 5.4 12.9-4.2 26.3-14.4 32.9-27.2zm27.6-45.3c-10.7 24.3-37.7 26.2-55.7 41.1-3.4 2.8-6.8 5.4-10.5 7.2l-0.2-0.2c4.1-3.7 8.6-8.2 11.8-12.9 10.3-14.9 6.8-35.3 14.8-51.1-7.2 8.6-13.9 17.5-18.1 27.3-6.7 15.8-8.9 33.9-23.8 46 16.2-5.3 34.8-4.3 49.4-13.8 15.2-10 29.4-25.8 32.3-43.6zm11.5-49.2c-1.6 21.4-24.4 32.9-35.2 50.5-2.3 3.8-4.7 7.6-8.1 10.7 0.5-2.3 2.4-4.3 3.4-6.5 3.5-7.6 5.1-16.3 4.2-25.3-1.1-10.9-5.6-21.1-3.9-32.6-9.4 20.2-6.4 45.5-11.8 67.4-1.2 4.8-4.1 9.1-6 13.7 9.2-7 21.3-13.2 31.4-21.2 9.8-7.7 18.3-16.7 22.7-28.5 3.2-8.6 4.1-18.7 3.3-28.2zm-0.6-39.5c-1.1-4.8-1.9-9.7-4-14.1 3.9 20.2-9.5 34.8-14.1 52.3-1.7 6.6-2.3 13.6-5 19.7-0.2 0.1-0.5-0.1-0.6-0.3 6.6-18.6-3.1-35.8-12.6-50.5-2.5-3.9-3.7-8.3-4.9-12.9-1 8.4 0.8 18.2 2.3 26.9 2 11.2 5.8 21.7 8.9 32.5 2 6.7 1.5 14.4 0.4 21.4l1-0.8c7.1-13 21-23.2 25.2-37.4 3.4-11.3 5.7-24.5 3.4-36.8zm-7.5-21.8c0-15.3-6-27.8-14.9-39.2-0.3-0.1-0.4-0.4-0.8-0.3 9.8 15 0.9 33.8 2.1 50.8l1.3 17.4c-0.2 0.1-0.2 0.6-0.6 0.4-0.6-1.9-0.8-4-1.1-6-2.4-14-14.7-23.8-25.2-33.7-2.5-2.3-4.3-5.1-5.5-8.1 0.9 7 2.8 14.2 6 20.5 8 16.3 23.6 29.4 26.4 48 1.4-17.7 12.3-30.9 12.3-49.8zm-25.9-51.5c-4.9-5.5-10.5-9.8-17.1-11.4 12.8 8.8 12.1 24.6 16 37.7 1.4 4.8 3.5 9.3 4.7 14.3l-0.3 0.3c-2.1-5.6-5.8-11-10.6-15.5-9-8.5-22.6-13.6-27-26.1 0.2 17.3 14.9 30.4 28.4 40.6 6 4.6 11.2 10.7 14.3 17.1-0.5-4.8-0.8-8.7-0.3-13.4 1.3-15.2 2.2-32.2-8.1-43.6zm-52-29.1c9.5 8.3 15.9 19.1 23.2 28.7 6.1 8 14.4 13 21.6 19.7-3.9-8-4.6-17.2-9.5-25-8.5-13.2-22.4-18.4-35.3-23.4z"/>
	<path class="st0" d="m416 189.7-2.8-1.5c-6 12.3-13.8 23.5-23.3 33.1l-16.4-16.4c8-8.3 14.5-17.7 19.3-27.8l-2.8-1.5c-4.7 10.1-11.1 19.2-18.7 27.1l-14.9-14.9c6.4-6.6 11.4-14.2 15.1-22.4l-2.8-1.5c-3.6 8.1-8.5 15.4-14.5 21.7l-16.4-16.4c4.6-4.8 8.1-10.4 10.5-16.4l-2.8-1.5c-2.3 5.9-5.7 11.2-9.9 15.7l-14.9-15c4.2-4.7 6.7-10.7 7.1-17h21.1c-0.2 5.7-1.3 11.2-3.3 16.2l2.8 1.5c2.2-5.6 3.5-11.6 3.7-17.7h23.3c-0.2 10.3-2.5 20-6.4 28.9l2.8 1.5c4.2-9.5 6.6-19.8 6.8-30.4h21.1c-0.2 14.5-3.6 28.2-9.3 40.5l2.8 1.5c6.1-13 9.4-27.3 9.7-42.1h23.3c-0.2 19-4.7 37.1-12.5 53.2l2.3 1.6c8.4-17.3 12.9-36.5 12.9-56.3 0-16.9-3.2-33.2-9.4-48.4l-2.9 1.2c5.8 14.3 8.9 29.7 9.1 45.6h-23.3c-0.2-12.7-2.7-24.9-7.2-36.4l-2.9 1.2c4.4 11.1 6.8 22.9 7 35.2h-21.1c-0.2-9.3-2-18.4-5.3-26.8l-2.9 1.2c3.1 8.1 4.9 16.7 5 25.6h-23c-0.2-5.7-1.2-11.2-3.2-16.4l-2.9 1.2c1.8 4.8 2.7 9.9 2.9 15.2h-21.1c-0.3-6.4-2.8-12.3-7.1-17l14.9-14.9c4.6 4.9 8.1 10.6 10.3 16.8l2.9-1.2c-2.4-6.5-6.1-12.5-11-17.7l16.5-16.4c7 7.3 12.4 15.8 15.9 25l2.9-1.2c-3.7-9.6-9.3-18.4-16.6-26l14.9-14.9c9.2 9.5 16.3 20.6 21.1 32.5l2.9-1.2c-4.9-12.3-12.2-23.7-21.7-33.5l16.4-16.6c11.6 11.9 20.6 25.7 26.7 40.8l2.9-1.2c-6.4-15.8-16-30.4-28.4-42.8-12.5-12.5-27.1-22.1-43-28.5l-1.1 2.9c15 6.1 28.9 15 40.8 26.7l-16.4 16.5c-9.6-9.3-20.8-16.6-32.9-21.5l-1.1 2.9c11.7 4.8 22.5 11.7 31.8 20.8l-14.9 14.9c-7.2-7-15.6-12.4-24.6-16.1l-1.1 2.9c8.7 3.5 16.6 8.7 23.6 15.4l-16.4 16.4c-4.6-4.4-9.9-7.8-15.6-10.2l-1.1 2.9c5.3 2.2 10.3 5.4 14.6 9.5l-14.9 14.9c-4.7-4.2-10.7-6.7-17-7.1v-21.1c6.1 0.2 11.9 1.5 17.4 3.8l1.1-2.9c-5.8-2.4-12.1-3.8-18.5-4v-23.3c9.4 0.2 18.5 2.1 27 5.6l1.1-2.9c-8.8-3.6-18.4-5.6-28.2-5.8v-21.1c12.5 0.2 24.6 2.7 35.9 7.2l1.1-2.9c-11.6-4.7-24.1-7.3-37-7.5v-23.2c15.8 0.2 31.2 3.3 45.5 9.1l1.1-2.9c-15.1-6.1-31.4-9.3-48.2-9.3-20.7 0-40.3 4.9-57.7 13.7l1.4 2.7c16.8-8.4 35.4-13 54.7-13.3v23.3c-15.8 0.2-30.7 4.1-43.9 10.7l1.4 2.7c13.1-6.5 27.5-10 42.5-10.3v21.1c-11.7 0.2-22.8 3-32.7 7.9l1.4 2.7c9.7-4.7 20.3-7.3 31.3-7.5v23.3c-7.3 0.2-14.2 1.9-20.5 4.9l1.4 2.7c5.9-2.8 12.4-4.3 19.1-4.5v21.1c-3.3 0.2-6.4 0.9-9.3 2.1l1.4 2.7c2.9-1.2 6.1-1.8 9.4-1.8 6.6 0 12.9 2.6 17.5 7.3 4.7 4.7 7.3 10.9 7.3 17.6 0 13.7-11.1 24.8-24.8 24.8-6.6 0-12.9-2.6-17.6-7.3s-7.3-10.9-7.3-17.5 2.6-12.9 7.3-17.6c2.4-2.4 5.1-4.2 8.1-5.4l-1.4-2.7c-2.9 1.2-5.5 2.9-7.8 4.9l-14.9-14.9c3.9-3.6 8.2-6.6 12.9-8.7l-1.4-2.7c-5 2.4-9.6 5.5-13.6 9.3l-16.7-16.7c5.8-5.5 12.3-10 19.3-13.4l-1.4-2.7c-7.4 3.6-14.2 8.4-20.1 14l-14.9-14.9c7.5-7.3 16-13.3 25.2-17.8l-1.4-2.7c-9.6 4.8-18.3 11-25.9 18.3l-16.5-16.5c9.4-9.2 20.1-16.8 31.6-22.5l-1.4-2.7c-25.1 12.6-45.6 33.2-58 58.4l2.7 1.5c5.8-11.8 13.5-22.8 22.9-32.4l16.5 16.4c-7.7 7.9-14.1 17-18.9 27.1l2.7 1.5c4.6-9.6 10.8-18.5 18.4-26.3l14.9 14.9c-6 6.3-11 13.5-14.7 21.5l2.7 1.5c3.5-7.6 8.2-14.6 14.2-20.8l16.4 16.3c-4.2 4.5-7.6 9.7-10.1 15.4l2.7 1.5c2.2-5.4 5.4-10.3 9.5-14.7l14.9 14.9c-4.1 4.6-6.7 10.5-7.1 17h-21.1c0.2-6 1.5-11.8 3.7-17.3l-2.7-1.5c-2.5 5.8-3.9 12.1-4.1 18.7h-23.3c0.2-10.5 2.6-20.6 6.8-29.8l-2.7-1.5c-4.4 9.6-7 20.1-7.2 31.3h-21.1c0.2-14.5 3.6-28.6 9.7-41.4l-2.7-1.5c-6.3 13-9.9 27.5-10.1 42.8h-23.1c0.2-19 4.7-37.3 12.8-53.9l-2.7-1.5c-8.5 17.2-13.3 36.5-13.3 56.9 0 12.5 1.8 24.7 5.2 36.4l3-0.8c-3.2-10.9-5-22.4-5.1-34h23.3c0.1 9.7 1.6 19.3 4.4 28.4l3-0.8c-2.7-8.8-4.2-18.1-4.3-27.6h21.1c0.2 7.7 1.4 15.3 3.7 22.4l3-0.8c-2.2-6.9-3.5-14.2-3.6-21.7h23.3c0.2 5.5 1.2 10.9 3 16l3-0.8c-1.8-4.8-2.7-10-2.9-15.2h21.1c0.3 6.4 2.8 12.3 7.1 17l-14.9 14.9c-4.6-4.9-8.1-10.6-10.3-16.7l-3 0.8c2.4 6.7 6.2 12.9 11.2 18.2l-16.4 16.5c-8-8.3-13.9-18.2-17.3-28.9l-3 0.8c3.6 11.3 9.7 21.6 18.2 30.4l-14.9 14.9c-11.1-11.5-19.2-25.2-23.7-40.1l-3 0.8c4.7 15.5 13 29.7 24.6 41.5l-16.4 16.5c-14.6-14.9-25-32.8-30.7-52.3l-3 0.8c6 20.5 17.1 39.3 32.6 54.9 10.5 10.5 22.6 19 35.6 25.2l1.5-2.7c-12.3-5.9-23.8-13.8-33.8-23.6l16.4-16.4c8.5 8.3 18.3 14.9 28.8 19.7l1.5-2.7c-10.3-4.7-19.8-11.1-28.2-19.2l14.9-14.9c7 6.7 15 12 23.7 15.7l1.5-2.7c-8.4-3.5-16.2-8.6-23-15.1l16.5-16.5c5.3 5 11.4 8.7 18.1 11.1l1.6-2.8c-6.4-2.2-12.4-5.8-17.5-10.6l14.9-14.9c4.7 4.3 10.7 6.7 17 7.1v21.1c-5-0.2-9.9-1.1-14.5-2.7l-1.6 2.8c5.1 1.8 10.5 2.9 16.1 3v23.3c-9.6-0.2-19-2.2-27.6-5.8l-1.5 2.7c9.1 3.9 19 6 29.1 6.2v21.1c-13.9-0.2-27.2-3.3-39.5-8.8l-1.5 2.7c12.7 5.8 26.7 9 41.1 9.2v23.3c-18.5-0.2-36.3-4.4-52.5-12.1l-1.5 2.7c17.2 8.2 36.1 12.6 55.6 12.6 20.5 0 40.3-4.8 58.1-13.8l-1.5-2.9c-16.6 8.4-35.3 13.3-55.1 13.5v-23.4c15.7-0.2 30.8-4 44.5-10.9l-1.5-2.8c-13 6.5-27.6 10.3-43 10.6v-21.1c11.8-0.2 23.1-3.1 33.4-8.2l-1.4-2.8c-9.7 4.8-20.5 7.6-32 7.9v-23.3c7.5-0.2 14.7-2 21.3-5.2l-1.4-2.8c-6 2.9-12.8 4.7-19.9 4.9v-21.1c6.4-0.3 12.3-2.8 17-7.1l14.9 14.9c-3.6 3.4-7.6 6.2-12.1 8.3l1.4 2.8c4.7-2.3 9-5.3 12.9-8.9l16.4 16.4c-5.5 5.3-11.8 9.7-18.6 13.1l1.4 2.8c7-3.5 13.6-8.1 19.4-13.7l14.9 14.9c-7.2 7-15.6 12.9-24.6 17.5l1.5 2.8c9.2-4.6 17.8-10.7 25.4-18.1l16.4 16.4c-9.2 8.9-19.7 16.5-31.2 22.3l1.5 2.9c12.1-6.1 23.2-14.1 33.1-24 10-10.2 18.3-22 24.5-34.8z"/>
	
		<rect class="st0" transform="matrix(.9992 -.039896 .039896 .9992 -3.9051 12.327)" x="306.5" y="103.5" width=".8" height=".9"/>
	<rect class="st0" x="305.4" y="102.3" width="1" height=".8"/>
	
		<rect class="st0" transform="matrix(.1481 -.989 .989 .1481 158.4 387.26)" x="303.6" y="101.2" width=".8" height=".9"/>
	<polygon class="st0" points="302.7 101.7 301.8 101.6 301.9 100.8 302.8 101"/>
	<rect class="st0" x="295.2" y="100.7" width="1" height=".8"/>
	<polygon class="st0" points="292.9 102.3 293.9 102.4 294 101.6 293.1 101.5"/>
	<polygon class="st0" points="293 103.5 292 103.2 292.2 102.4 293.2 102.7"/>
	<polygon class="st0" points="291.2 104.4 291 103.7 291.8 103.5 291.9 104.3"/>
	<polygon class="st0" points="189 185.5 189 187.2 189.8 187.2 189.7 185.2 188.6 184.8 188.6 184.2 188 184.2 188 185.5"/>
	<polygon class="st0" points="194.5 190.2 196.4 191.2 197.1 193 198 193.7 198.9 195.7 198.4 196.6 197 195.3 195.9 193.8 195.4 192.6"/>
	<polygon class="st0" points="227.4 230.9 228.1 232.6 227.1 233.2 226.6 232.4 225.3 232 225.2 230.8 224.2 229.2 225.7 229.5"/>
	<path class="st0" d="m295.9 112.1h-1.4l-0.3-2.9 0.8-0.5v-1.5h-4.6l-0.1-1.5 0.7-0.4-1-0.4-0.8 1.1-0.3 1.2-1.3 0.3v0.7h-0.9v1.7l-3.6 3-7.3-0.3c-0.5 1.2-1.8-0.1-1.8-0.1-0.3-0.8-2.1 0-2.1 0 0 1.5-2.5-0.7-2.5-0.7l-4.6-3.3c-2.6-2.4-6.5 0.7-6.6 1.3 0.1 1.8-3 0.4-3 0.4s-2.6-0.8-3 0.3-2.1 0.8-2.1 0.8l-0.3 0.5-1.3 0.3-0.3 0.8-1.6 0.3 3.9-0.1c1-0.1-0.4 2.2-1 2.1l-1.8 0.1-0.7 0.7h-1.7l-0.8 1.1-2.5-0.1s-1.4 1.2-1.3 1.6-0.3 1.6-0.7 1.6-1.2 1.2-0.9 1.6-0.8 1.7-0.8 1.7l-0.3 1.3-0.8 0.3v3.6l-1.6 1.1v1.6l-2.3 2.5 0.3 2.1-2 2.1 0.3 2.1-1.2 0.4-0.3 0.9-0.5 2.8 1.3 0.1c0.6-0.3 0.5 1.7 0 2s-2 0.8-1.2 1.3-2.1 0.4-2.1-0.4-1.6-1.5-2-1.2-1-1.2-1-1.2c-1.4-1.5-5.9 0.1-5.9 0.1l-0.7 2.1c-1.4 0.3-2.3 2.6-2.3 2.6-1.2 0.4-2.1 1.8-1.7 2.2s-0.7 0.5-0.7 0.5v2.9l-0.6 0.9 0.1 3.2c0.8 0 0.7 1.5 0.7 1.5-1.3 0.1-1 1.8-1 1.8l-2.7 0.9-0.5 0.8-3.4-0.1-0.9 0.9-0.9-0.9h-6.5l-0.3-0.7-1.3-0.3-0.1-1.5-2 0.1-0.4 0.8-2.1 0.1c0.1 1.3-2.1 3.3-2.3 2.8-0.3-0.5-1.7-2-1-2.2 0.7-0.3 2.3-0.5 2.3-0.5v-0.9l-4.8-0.1-0.5 0.8-2 0.1v2.1l-0.9 0.3c-0.7 0.4 0.1 1.8 0.1 1.8 0.9 0.9-0.1 2.4-0.1 2.4-0.8 0.8 0.6 2.2 0.6 2.2 1 0.3-0.6 1.1-0.6 1.1 0.3 1.3 1 1.7 1 1.7-0.8 1.3 0.5 2 0.5 2l0.1 2.2 0.9 0.5v1.4l0.5 0.9h2.1l-0.1-3.3c-1.8-2.1 1.6-2.6 1.7-1.9 0.1 0.8 1.6 1.2 1.6 1.2 0.3 2 2.5 3.2 3.1 1.2 0.7-2 1.2-0.8 1.6 0.1s2.9 3.2 2.9 3.2h2l0.3 1.8c2.2-0.1 2.9 0.1 3.8 3.2 0.9 3 3.4 3.8 3.4 3.8l1.8-0.1c0-1.6 1.8 0.3 1.8 1.1s3.5 3.8 3.5 3.8l3.5 0.8 3.3 2.6 2.5-0.3h1c0.6-2.2 3.8 0.1 4 0.9 0.3 0.8 2.3 2.1 2.6 1.5 0.3-0.7 1.7-0.3 2 1.7s1.2 1.6 1.2 1.6l7.4-0.1 2.6-2.2 6.6-0.1c3.4-0.1 1.3-4.8 0.7-4.8-1.2-0.9 0.4-4.8 0.4-4.8l-9.5-8.8c-2.2 0-0.3-3.2-0.3-3.2 1.7-1.1-0.4-2.8-0.4-2.8 0.3-1.6-0.9-3.4-0.9-3.4-2.3-1.6-1.7-4.6-1.7-4.6v-2.1c-2-1.8 0.8-2.1 0.8-2.1 0.9-1.6-0.7-2.8-0.7-2.8l-0.1-1.7-2.1-0.3-0.3-6.2-4.7-6.7c-0.9-0.3-0.3-1.8-0.3-1.8 1.2-0.7-0.3-2.2-0.3-2.2l-0.1-2.9 2.7-0.3 0.7-1.1h1.3l0.1-3.3c0.6-1.7 2.2-0.8 2.2-0.8l1.8 0.1 1-2 0.3-1.6-1.4-0.1c-1.6-0.9-0.8-4.4-0.8-4.4 2.5-3.7 5.3-1.6 5.3-1.6l1.8-0.1c2.7 1.8 0.3 5.3 0.3 5.3-0.5 0.8-0.3 3.3-0.3 3.3l0.6 4.2-1.7 1.5c-1.4 0.8-1.4 2.6 0.1 3 1 0.1 0.6 2.6-0.9 0.9-2.3 0 1.3 2.1 0.3 1.6 2.3 1.2 1.8-1.1 1.8-1.1l3.1-2.5c1.2-0.9 3.3 2 3.3 2.4s5.2 0.1 5.2 0.1c1.4 0.9 2 3.3 2 3.3 1.4-1.9 4.4-0.1 2.2 0.9 2.1 1.3 2.1 2.5 2.1 2.5 1.7-0.5 1.7 0.8 1.7 1.2s0.5-2 0.5-2c-2-1.5 2.6-2 1.3 0.7l-0.8 1.2 1.3 1.1 0.1 3c2.9-0.3 2.1-3.8 2.1-3.8l1.3-0.3c0-1.2 0.9-0.5 0.9-0.5-0.9-4.5 2.1-5.3 2.1-5.3 1.7-0.4 1.8-4 1.8-4-1.2-0.5-0.5-2.4 0.8-0.8s-0.8-3.2-0.8-3.2l-1-0.9-1.4-0.1-0.1-1.5h-2.3l-0.4 1.8-0.9 0.3-0.3-0.5-0.4 1.5h-2.3l-0.1-1.6 1.4-0.4 0.5-0.8 0.4-2.1h1.7l2.2-0.7c0.1-2.2 1.3-1.7 1.3-1.7l0.8 0.7 1.2 0.9 0.1 0.8-0.8 0.4-0.1 1.1 0.4 1.5h1c0.4-2.1 3.1-2.1 3.9-0.8l0.8-1.8c-1.8-0.9 0-2.4 0.5-1.7s1.7-1.7 1.7-1.7 0.9 1.2 0-0.4 0.6-2.4 0.6-2.4c-0.3-1.6 1.7-1.3 1.7-1.3l0.1-2.1-1.8-0.1c-0.4 1.8-2 0.3-1.2-0.1s1.6-1.2 1.6-1.2v-1.3l0.8-0.3 0.1-1.3h2l1.7-0.8 0.4-0.7 1.8-0.1 2.6-2.4-0.3-1.1c-1.6 0 0-1.2 0-1.2l0.4-2z"/>
	<path class="st0" d="m243.4 138.2-2.3-0.3 0.1 0.9h0.6c1 1.9 0.1 6.3 0.1 6.3s-1.6 0.1-1.8-0.7c-0.3-0.8-0.9 1.7-0.4 2.1s2.3 0 2.5 1.5c0.1 1.5 1.2-0.9 1.2-0.9v-8.9z"/>
	<polygon class="st0" points="241.1 148.9 241.1 152.1 243.2 154.8 243.9 153 244.2 151.8 243.3 151.4 243.4 149.4 244.2 149.3 244.3 148.4 242.4 149.7"/>
	<polygon class="st0" points="244.5 157.7 244.5 156.4 243.5 156.6 243.4 157.6"/>
	<polygon class="st0" points="243.3 164.1 243.3 163.2 242.2 163.3 242.2 164.2"/>
	<ellipse class="st0" cx="244.8" cy="159.5" rx=".6" ry=".6"/>
	<ellipse class="st0" cx="245.7" cy="162.2" rx=".6" ry=".6"/>
	<ellipse class="st0" cx="245.8" cy="147.2" rx=".6" ry=".6"/>
	<polygon class="st0" points="287.5 129.2 288.3 129.2 288.4 130 287.9 130.5 287.7 131.2 286.6 131.5 284.3 133.7 284.1 134.8 283.5 135.7 282.7 137.7 280 137.8 279.5 140.2 279.8 142.2 282.2 143.1 282.5 141.8 283.2 141.4 283.4 140.1 283.9 139.1 284.7 138.2 284.9 137.1 286.2 136.4 287.8 136.1 288.4 135.3 288.7 133.7 288.8 132.5 289.4 131.7 290.9 131.1 290.9 128.6 290.1 128.6 290 127.6 288.6 127.5 288.3 128.2 287.7 128.2"/>
	<path class="st0" d="m293.6 136.6v-1.8l-0.3-1.7-1.9-0.9-1.4 1.3-0.3 1.8v1.2l-1.3 0.3-0.3 3.6-1 0.4 0.1 1.3-2.8 0.8-0.3 1.7-1 0.7-0.5 1.6-0.6 3.8s1.2 2.2 1.8 1.2c0.7-1.1 1.7-1.2 1.7-1.2l0.4-0.9 3.5 0.1c0.3-1.5 2-0.9 2-0.3 0 0.7 1.3 0.1 1.3 0.1l0.9-1.5h1.4l0.1-1.6 0.7-0.4v-2.4c2.1-0.7 1.8-2.6 1.8-2.6l0.5-0.7-0.3-0.9c-1-0.4-0.5-1.3 0.1-1.1 0.7 0.3-0.9-1.2-0.9-1.2-0.8 0.7-1.4-0.8-1.4-0.8h-2v0.1z"/>
	<path class="st0" d="m295.7 152.6c-0.1 1.6-2.1 2.1-2.1 2.1l-1.4-0.4-0.8-0.7-0.1-1.9 1.2-0.1 0.3 0.8 2.9 0.2z"/>
	<path class="st0" d="m302.8 144.2c0.3 1.2 0.3-1.9 0.8-1.7 0.5 0.1 0.1-1.8 0.1-1.8l-2.3 1.7c1.1 0 1.2 1.2 1.4 1.8z"/>
	<path class="st0" d="m309.7 137.3c0.5 1.2 0.4 2.9 2.3 4.2 0.7 0.4-0.4 1.3-1 0.9s-2.5-3.3-2.5-3.3v-1.7c0.4-1 0.9-0.6 1.2-0.1z"/>
	<polygon class="st0" points="309.7 177.4 310 177.8 310.4 178.5 311.3 177 310.6 176.8"/>
	<polygon class="st0" points="325.2 173.4 326.3 172.7 325.8 172.1 324.8 172.7"/>
	<path class="st0" d="m362.9 200.9 1.2 0.5 0.1 2.2c1.6 1.6 6.6 0.3 6.6-0.1s-0.3-4.9-0.3-4.9l-0.7-0.7-0.1-3.3c0.5-1.7-2.5-4.2-2.7-3.7-0.3 0.5-2 0.1-2 0.7 0 0.5-1 3.2-0.5 4.1s-0.4 0.9-0.5 1.8c-0.1 1.1-1.4 2.7-1.1 3.4z"/>
	<path class="st0" d="m360 195.7c-0.2 1-1.2 1.6-1.7 1.2s0.6 0.7 0.9 1.2 1 0.5 1.3 0 0.1-1.7 0.4-2.2c0.3-0.6-0.8-0.8-0.9-0.2z"/>
	<rect class="st0" x="354" y="171.4" width=".9" height="2.5"/>
	<path class="st0" d="m367.4 146c-0.6-0.8 2.6-2.1 3.1-0.5s0 1.3-0.5 1.2c-0.5-0.2-1.8 0.4-2.6-0.7z"/>
	
		<rect class="st0" transform="matrix(.1708 -.9853 .9853 .1708 180.6 472.26)" x="370.5" y="128.1" width=".8" height="1.5"/>
	<polygon class="st0" points="366.6 130.6 366.7 130.8 367.4 130.5 367.1 129.9 367 129.5 366.6 129.7 365.6 130.2 364.8 129.7 364.4 130.3 365.4 131 365.6 131.1 365.8 131"/>
	<path class="st0" d="m371.5 98.4h-2s0.7 0.3-1.2-1.5c-1.8-1.7-3 0.4-3 0.4l-2.1 0.3v2.1l-1 0.4 0.1 1.3 1.4-0.1s0 1.6 0.4 0.9 3.6 0.1 3.4 1.7c-0.1 0.7 3.3 2.4 2.9 4.5 1.7 0.3 1.3 2 1.3 2l2.2 0.3 0.7-1.3 0.6 0.1v-0.8l-1.4-0.4-0.3-4.2-0.9-0.7 0.3-1.1-1-0.4 0.5-1.7-0.9-1.8z"/>
	<path class="st0" d="m377.2 111.9-1-0.1-2.3 0.4-1.3 2.5s0.6 0.4 1.2 1.3c0.5 0.9 0.8 6.3-0.8 7.3-1.6 0.9 0.1 0.4 0.1 0.4l-0.3 2.9c0.4 1.3 1 0.7 1.4 0s0.8-0.8 1.3-1.5 1.3-1.8 1.4-2.8c0.1-0.9 0.8-2.4 0.4-2.8s0.4-2.2 0.4-2.2 0.5-1.1 0-2.1c-0.5-1.1 0.1-2.2 0.5-2.8l-1-0.5z"/>
	<polygon class="st0" points="378.8 117.3 378.9 116.3 379.7 116.4 379.5 117.4"/>
	<polygon class="st0" points="378.7 121 378 120.6 378.4 119.8 379.1 120.2"/>
	<path class="st0" d="m377.6 110.5-0.5-1.2s0-1.1 0.3-1.6-0.5-1.1-0.9-1.2-0.3-1.2-0.4-1.7-1-0.9-1-0.9-0.3-2-0.3-2.4-1.2-0.9-0.8-1.3 0.7-0.9 1-1.2c0.4-0.3-0.4-2.1 0.3-1.7s0.7 1.1 0.9 1.6c0.3 0.5-0.1 2.4 0.5 2.8s-0.1 1.7 0.9 1.7 0.4 2.5 0.4 2.5-0.3 1.8 0.4 2c0.7 0.1 0.3 3.3 0.3 3.3l-1.1-0.7z"/>
	<path class="st0" d="m369.1 89.1c0.4 0.5 1.2 0.9 1.2 1.5 0 0.5-0.3 0.9 0.5 1.1 0.8 0.1 1.3-0.1 1.6 0.5 0.3 0.7 0.3 1.7 0.1 2.2-0.1 0.5 0.1 1.3 0.8 1.3s0.8 0.1 0.8 0.5 0.8-1.5 0.8-1.5c-0.7-0.5-1.2-1.7-1.2-1.7s-0.6-1.8-0.6-2.1-0.9-0.5-1.3-0.7c-0.4-0.1-1-1.3-1-1.3l-1.7 0.2z"/>
	<path class="st0" d="m370.4 87.9c-0.4-0.5-0.8-0.9-1.3-1.2s-0.9-0.5-1.4-0.5-1-0.5-0.8-1.2c0.3-0.7-0.4-0.9-0.4-1.5 0-0.5 0.4-0.5 1-0.1 0.7 0.4 0.5 0.5 1 1.2s0.8 1.3 1.3 1.2 0.9 1.2 1.4 0.8 0.4 0.9 0.4 0.9l-1.2 0.4z"/>
	<path class="st0" d="m355.2 102.8c0.7 0.7-3.9 0.5-3.9 0s0.4-2.4 1.6-2 1.3-2.4 1.3-2.4-1 0.1-0.1-0.4 0-1.3-0.4-1.7-0.8-1.1-0.8-1.1h1.8c0.8-0.5 1-3 1-3 1.6 0.5 2.3-0.5 2.3-0.5s0.3 0.8 0.8 1.5-1.3 0.9-0.7 1.3c0.7 0.4 0.9 1.6 0.7 2-0.3 0.4-1.7 0.1-1.7-0.4s-0.5 0.7 0 1.3c0.5 0.7-0.6 1.6-0.9 1.6s-1.9 0.3-0.5 1.1 3 0.4 3 0.4 1.2-0.1 1.6 0.5c0.4 0.7-0.1 0.8-0.8 0.8-0.6 0-3.8-0.3-3.8-0.3s-0.9 0.9-0.5 1.3z"/>
	<path class="st0" d="m346.9 104c0.7-0.1 2.2-0.3 2.5 0.1s-0.9 0.9-0.9 0.9l-1.6 0.3c-0.5-0.6-0.7-1.2 0-1.3z"/>
	<path class="st0" d="m363.7 92.9c1-0.5 3.3-0.5 3.1-1.3-0.1-0.8 1.3-1.1 1.3-1.1l0.4 1.6 1.2 0.8 0.1 1.5s0.4-0.3-1 0.1-0.5 1.1-0.5 1.1l-3.1 0.1-0.4-1.3-1.1-1.5z"/>
	<path class="st0" d="m358.6 85.8c0.8 0-0.3 3 1.8 2.8 2.1-0.3 0.1 0.9 1.7 1.1 1.6 0.1 1.2-1.2 1.7-2.1s0.3-1.5-0.6-1.7c-0.9-0.3-0.9-0.3-1.2-1.3-0.3-1.1-1.3-1.3-1.3-1.3l-0.4-1.6-1.7 1.1-1.7 2.2c0 1.6 0.9 0.8 1.7 0.8z"/>
	<polygon class="st0" points="362 96.9 362.4 96.1 363.1 96.5 362.7 97.3"/>
	<rect class="st0" x="360.7" y="95.7" width=".8" height=".9"/>
	<polygon class="st0" points="361.3 78.1 361.5 79.3 360.7 79.4 360.5 78.2"/>
	<rect class="st0" x="359.1" y="90.4" width=".8" height=".7"/>
	<polygon class="st0" points="357.1 90.4 357 89.6 358.3 89.5 358.4 90.2"/>
	<polygon class="st0" points="346.3 103.1 345.6 102.8 346 101.8 346.7 102.2"/>
	<polygon class="st0" points="342.2 100.7 342.2 99.9 343.5 99.8 343.5 100.5"/>
	
		<rect class="st0" transform="matrix(.999 -.04568 .04568 .999 -4.2766 14.643)" x="316.8" y="100.5" width="2.9" height=".8"/>
	<polygon class="st0" points="314.9 101.6 314.6 100.4 315.4 100.2 315.6 101.4"/>
	<polygon class="st0" points="314.3 102.4 314.1 101.6 314.5 101.5 314.7 102.3"/>
	<path class="st0" d="m320.8 100.2-0.1 0.9 1.4 0.1s0.6 0.5 0.6 0.9 0.9 0.8 1.4 0.8 2-1.1 2-1.1 0.7-1.8 0.1-1.7c-0.5 0.1-1.6 0.9-1.7 0.1s-1.7-0.4-1.7-0.4l-2 0.4z"/>
	<path class="st0" d="m327.3 98.7c0 0.4-0.3 0.9 0.5 1.1 0.8 0.1 2.2-0.5 2.3 0.3s0.1 1.3 1.2 1.7c1 0.4 1.7 0.5 2.5 0.5s2.5-0.3 2.5-0.3 1.8 0.3 2.2 0.7c1.4 1.5 2.3 1.8 2.7 1.2 0.4-0.7-0.1-2.1-0.3-2.6-0.1-0.5-2-3-2.6-2.5s-0.8 0-2 0.4-3.6 0.1-3.8-0.4c-0.1-0.5-2-0.8-2-1.3s-1.3-1.2-1.2-0.4-0.9 1.2-1.2 0.9c0-0.3-0.8 0.7-0.8 0.7z"/>
	<path class="st0" d="m357.3 81.8 0.9-2.9c-1.3-0.3-1-1.7-1-1.7-0.1-1.2-2-2.5-2.6-2.1s-0.4-2.8-0.4-2.8 1.2-0.8 1.7-0.4-4.4-6.6-5.5-5.9c-1 0.7-3.4-0.7-3.3-1.9s-4.7-5.2-4.7-5.2-1.6-1.1-1.8-0.3c-0.3 0.8-0.8 1.3 0 1.7s0.6-0.7 1.6 0.3c0.9 0.9 2.6 2.1 2 2.9-0.7 0.8-1.4 1.1-1.4 1.1l0.9 1.1h1.4l0.3 2.2s1.6 0.8 2 1.7 0.4 1.5 0 2-1.2 1.5-1 2.4c0.1 0.9 1.2 1.3 1.2 1.3l1 0.1 0.8 0.4v1.7c1-0.3 2.7 1.2 2.6 2.1s0.3 0.4 1.6 1.3 0.9 1.1 1.8 1.7c0.7 0.8 1.5 0.4 1.9-0.8z"/>
	<path class="st0" d="m335.8 63.8c-0.1-0.5-0.4-2.4 0.4-2.2 0.8 0.1 0.3 0 1.2 0.4s1-0.7 1-0.7h1.4l1.8 1.5-0.3 1.2-1.3 0.1c-0.6-1.1-2-0.7-1.7 0.3 0.3 0.9-0.6 2.6-1.2 2.8-0.5 0.1-2.2 0.1-2.1-0.7 0.3-0.8 0.8-2.7 0.8-2.7z"/>
	<path class="st0" d="m334.8 60.3v-1.1s-0.1-1.1-0.8-1.1-1.8-0.8-1.6-1.3c0.3-0.5-2.2-1.1-2.2-1.1s-2.2-2.1-1.4-1.8 0.4-0.9 0.4-0.9-1.6 0.3-2 0.1c-0.4-0.1-0.3-1.3-0.3-1.3s-1.6-0.4-1.6 0 0.5 0.4 0.8 1.2 0.1 2.1 1.3 2.4 1.4 0.5 1.6 1.1c0.1 0.5 1.6 0.7 1.6 0.7l1 0.5 3.2 2.6z"/>
	<polygon class="st0" points="320.7 46.8 320.3 45.7 319.3 45.5 319.3 46.7"/>
	<path class="st0" d="m320.3 41.3c-1.4-1 1.8 0.8 1.8 0.8 1 0 1.7 0.8 1.7 1.2s1.4 0.3 1.4 0.3l0.1-0.9-1-1.3-0.9-0.7s-1.4-0.1-1.4-0.5c0-0.5-1.2 1.5-1.7 1.1z"/>
	<path class="st0" d="m344.3 42c-0.4 1.2-0.5 2.8-1.2 2.8-0.6 0-0.4 1.7-0.4 1.7s1.7 0 2.2 0.1 0.5 1.5 0.5 1.5c2-0.1 2.7 2.5 2.5 3.2-0.3 0.7 0.8 0.7 0.8 0.7s0 2.1-0.3 2.6 1.7 0.9 2.2 1.7-0.3 3.4-0.7 3.6c-0.4 0.1 1 0.5 0.9 1.2s0.4 0 0.5 1.1 0.4 3.3 0.4 3.3l1.8 0.1c0.3-1.7 3.6-1.8 4.2-1.6 2.2 0.8 3.9 4.2 3.9 5s-1.4 0.9-1.4 0.9l0.3 3.8c2.2 0.7 4 3.8 3.8 4.4-0.3 0.5 1.6 0.4 1.6 0.4 0.3-2.4 2.5-1.6 2.6-0.8s0.5 2.5 0.5 2.5l0.7 1.2 0.9 0.9 1.4-0.1 0.4 0.8 1.7 0.3s1.4 1.6 1.6 2c0.1 0.4 2.1 0.3 2.6 0.4s1.3 0.5 1.4 1.2 0.9 1.7 0.9 1.7 1.6 0.4 1.7 0.9 0.8 1.7 0.8 1.7l1.3 1.1 0.1 1.2 1.4 0.1 0.4 1.6 2.3-0.1 1.3-0.9c1.7-0.9 2.9-2.1 3-2.6s0.4-2.5 1.7-2.1 0.4-2.9 0.4-2.9-1.8-1.3-1.7-2-1.8-2-1.7-2.5-1.7-1.6-1.6-2.1-0.9-2-0.9-2l-2-1.8-0.3-1.2-1.6-0.1-3.1-3.8 0.1-1.1-0.9-0.1v-1.5l-0.9-0.5-1.4-0.1-2.9-3.2-0.3-1.5h-1.4l0.3-2.8c0.9-1.2 0.4-3.4 0.4-3.4s-1.8 0.9-2.7 0.5 0.4-1.3 0.4-1.3v-1.1l-0.8-0.8s-2.2 0.3-2.3-0.1-0.5-2.1-0.5-2.1l-0.1-2.2-0.9-0.4-0.1-0.8-1.4 0.1v-1.6l-0.8-0.3-0.8-0.4-0.1-1.6-2.9-0.1-0.9-1.3-1-1.6-3.3-0.3-0.8-0.8-1.3-0.3-0.9-0.4-0.4 0.7-2.5 0.1-0.1 0.8c-1.3 0.6-6.5 0.1-6.6 0.4z"/>
	<path class="st0" d="m357.9 38.6c-0.2-1 2.6-2 3.3-1.2s2.5 0.9 2.7 4.9c0.1 1.4-2.3-1.5-2.3-1.5l-2-0.7c-1-0.2-1.5-0.8-1.7-1.5z"/>
	<polygon class="st0" points="319.8 40.2 319.1 39.9 319.6 38.7 320.3 39"/>
	<path class="st0" d="m313 27.3-1.7-1.7v-1.5l-0.5-0.5-0.5-1.8-1.7-0.5-1.7 0.7-1.8 1.2-2 0.3-1 1.2 4.2 0.4 0.8 1.3 3 0.3 1.9 2c1.7 0.3 2.1-0.5 1-1.4z"/>
	<path class="st0" d="m312.8 20.8c-0.3-1.2-2 1.5-0.3 2s3.4 0 3.4 0l0.4-0.8 6.5 0.1c0.5-0.5 0.8-1.3 0.8-1.3s1.6-0.5 2.2-0.3c0.7 0.3 0.1-1.8-0.5-1.6-0.6 0.3-2 0.1-2 0.1h-2.3c-0.1-0.9-2.2-0.5-2.3 0s-0.9 0.7-0.9 0.7l-3 0.3c-0.3 0.8-1.9 1.3-2 0.8z"/>
	<path class="st0" d="m299.9 43.1c2 0.6 2.7 0.2 2.9-0.4 0.1-0.5 0.3-0.7 1-0.8 0.8-0.1-0.1-1.7-0.9-1.6s-1.6-0.3-1.7-0.9c-0.1-0.7-1.4-2.4-1.6-1.1-0.1 1.3-0.9 1.3-0.8 2.2 0.2 1 0.6 2.4 1.1 2.6z"/>
	<path class="st0" d="m284.9 44.6c-0.1-0.5 2.6-0.5 3-0.1s0.1 1.1 1.3 1.1 0.7 0.8 0.5 1.2c-0.1 0.4-1.4 0.3-1.6-0.1-0.1-0.4-2.1-0.5-2.1-0.5s-0.9-1-1.1-1.6z"/>
	<polygon class="st0" points="327.9 17.9 328.1 18.1 328.4 17.9 329.7 16.9 329.2 16.2 328.2 17.1 327.5 16.4 326.9 17"/>
	<polygon class="st0" points="322 14.8 322.2 14.6 323.7 13.7 323.2 13.1 322 13.8 321.2 13.3 320.8 14 321.8 14.6"/>
	<polygon class="st0" points="317.4 41.8 318.2 43.1 318.8 42.6 317.9 41.2 317.8 41 317.6 41 316.3 40.9 316.3 41.7"/>
	<path class="st0" d="m274.8 77.8 0.1 1.5h1.9c0.8 0-0.6-0.9-0.6-0.9s-1.6 0.1-1.4-0.6z"/>
	<polygon class="st0" points="277.3 77.9 277.8 77.3 278.5 77.9 278 78.5"/>
	<polygon class="st0" points="253.5 53.2 254.1 52.6 254.9 53.4 254.3 54"/>
	<polygon class="st0" points="290.2 223.9 290.8 224.5 291.5 223.8 291.8 223.4 291.3 223.2 290 222.5 289.7 223.2 290.5 223.6"/>
	<polygon class="st0" points="280 214.3 280.9 215 281.4 214.4 280.9 214 281.3 213.7 280.8 213.1 280 213.7 279.6 214"/>
	<path class="st0" d="m378 188.6c-0.2-0.7-0.9-0.9-1-1l-0.2 0.8c0.1 0 0.2 0.1 0.2 0.1l0.2 0.7c-0.1 0.1-0.1 0.2-0.2 0.2l0.6 0.5c0.4-0.4 0.6-0.9 0.4-1.3z"/>
	<polygon class="st0" points="379.2 186.1 378 186 378.1 184.8 379.3 185"/>
	<path class="st0" d="m409.4 175.8c0.6-0.4 1.3-1 1.2 0.5s-0.7 1-1.2 1.5-0.8-1.5 0-2z"/>
	<path class="st0" d="m416 170.2v-0.2c0-0.2 0-0.5-0.2-0.8l-0.7 0.4c0.1 0.2 0.1 0.4 0.1 0.5 0 0.2 0 0.5 0.3 0.7 0.1 0.1 0.3 0.1 0.5 0.1l-0.1-0.8 0.1 0.1z"/>
	<path class="st0" d="m414.3 170.9c0.2 0.8 0.5 1.6 0.5 1.6l0.7-0.3s-0.3-0.8-0.5-1.5l-0.7 0.2z"/>
	<path class="st0" d="m411.5 174-0.8-0.1c-0.1 0.6 0.1 1.4 0.7 1.5l0.2-0.8c-0.1 0-0.2-0.3-0.1-0.6z"/>
	<path class="st0" d="m408 158.2c0-0.3-0.2-0.5-0.4-0.6-0.6-0.3-1.6 0.2-2 0.5l0.4 0.7c0.5-0.3 1.1-0.5 1.3-0.4l0.7-0.2z"/>
	<path class="st0" d="m372 116c-0.5 0.5-1.7 0.8-1.7 0.8l-0.4 1.5-0.6 0.5s0.1 0.4 0 1.3-1.3 1.5-1.3 1.5l-0.5 0.7s-3.1 0.2-3.5 0c-1.2-0.5-0.4-2.1 0.4-2s-0.1-2.2-0.1-2.2l1-0.1s0.1-2.4 0.5-2.4-0.1-0.8-0.7-1.2c-0.5-0.4-1.2-1.7-1.7-1.6s-2.6 0-2.6 0l-0.4 0.8-1.4 0.3s0.1 1-0.1 1.3c-0.8 0.9-3.8 2.9-2.5-0.4l0.4-0.8v-1.2l-2.3-0.1s-1.2-0.4-1.2-0.9-0.1-1.2-0.1-1.2l-2.7-3-3.3-0.4-0.3-0.7-1.9-0.3c-2.3-1.2-4.4-0.1-4 1.8 0.4 2 1 2.8-0.3 2.8s-1.6-1.1-1.6-1.1-1-0.4-1 0.1-0.4 1.6 0 2.1-0.5 1.3-0.9 0.9-1.4-1.6-1.2-2c0.3-0.4-1.8-2.9 0.3-3.3s-0.1-1.6 0.7-1.8l1-0.5h1l0.7-0.5-1.7-0.3-1-0.1-2-0.1c-2 1.3-2.3 2.9-2.3 2.9-1 2-3.5-0.8-2.6-1.8 0.9-1.1-2.9-0.1-3.5 0.4-0.7 0.5-2.6 0.3-2.6 0.3-0.4 1.2-2.2-0.1-1.7-0.9s0.5-1.3 0.5-1.3l-0.6-0.1-0.8 1.5c-1.8 0-2.3 1.1-2 1.7 0.4 0.7-0.5-0.1-0.8 0.8s0.1 0.9 0.9 1.3-0.4 0.4 0.1 1.1 2.1 0 1.2 0.9-2.7 0.5-2.7 0.5c-0.1 1.2-2.6 0.9-2.9 0.5s-2.2-2.8-2.2-2.8l-2.5-0.1c-0.3-1.8 1.2-0.9 1.7-2.4s0.8-3.8 0.8-3.8-2.1-0.1-2.2 0.5c-0.1 0.7-1.4 1.1-1.4 1.1s-1 0.4-0.7 0.9c0.4 0.5-0.8 0.8-0.8 0.8s0.2 0.9-0.1 1.2c-1 1.1-3.6 0.1-4-0.3l-1.6-0.7-1.6-1.1-1.8 0.8-0.5 0.5h-2l-0.1 1.6 3.5 0.4 0.3 3.3-1.4-0.5h-0.9l-0.4-0.8-0.8-0.1v2.9l0.8 0.7 0.7 0.7 1.3 0.1 0.3 1.6 3.3 0.1 0.4 0.7 2 0.1 3.8 3.8-0.3 1.2-0.7 0.4c0.3 0.9-1.7 0.4-1.7 0.4v0.8l0.9 0.1 0.9 0.5 1.3-2.2c1.4-0.9 2.1 0.4 2.2 1.2s-0.7 0.7-0.7 0.7v1.9l0.8 0.3c1.3 1.6-0.5 2.5-0.5 2.5l-0.4 1.3c-0.4 1.2-1.8 0.9-1.8 0.9l-0.5 0.8-1.6 0.4 3.1 0.4c0.3-1.1 1.1-1.3 1.5-0.8s0.4 1.5 0.4 1.5l0.8 0.1-0.1 1.5 0.8 0.3v4.2l0.9 1.1c1.6-0.7 1.6 0.4 0.8 0.9s-0.3 2.9-0.3 2.9l-0.7 0.7v1.1l-0.8 0.5v1.5c-1.3-0.7-2.9-0.4-3.3 0-1.2-0.8-3.6-0.5-3.6 0.1 0.8 1.1-0.9 1.3-0.9 1.3l-0.9 1.1c0.7 1.3-0.6 1.5-0.6 1.5v2.5l-1.6 1.5 0.1 3.4c0 0.9 2 1.1 2.3 0.5 0.4-0.5 2 1.1 2 1.1h1.2l0.3-2.4-0.8-0.4v-3.8l1.3-1.5c1.6-0.5 1 3.4 1 3.8 0.1 1.5 0.8 1.3 1.4 1.1 1.3-0.5 0.3 1.5-0.8 1.3-1-0.1-0.4 1.3-0.4 1.3l0.7 0.3-1.2 0.9-1 1.2-1.3-0.4-1.6-0.1-0.5-0.9-0.9-0.1-0.1 1.8-0.6 0.8-1.6 1.6c2.1 0-0.3 1.4-0.8 1.4 1.2 0.4-0.1 1.6-3.1 0.7v0.9l-1 0.1 0.9 1.1 1 0.1-0.4 2.2c0 1.7-4.3 0.5-4.7 0.1l-0.1 2.4-0.8 0.1 0.1 1.6-0.1 2.2 1.4-0.3v0.9l3.5 0.1 5.1-5.4 3-0.7c0.3-1.3 1.6 0.3 1.6 0.3 1.3-0.1 1.6 0.8 1.6 0.8l1.7 0.3c1.4 0.4 0.6 0.5 0.6 1.1 0.1 0.8 0.8 0.5 0.8 0.5l0.3-1.7 0.8 0.1-0.8-0.9-1.4-0.7-1.6-0.7c-1-1.5 0.3-1.2 1.3-1.1h1.7s2 2.6 2 3.3 0.9 0.8 0.9 0.8l1.2-0.1 0.4 0.9h1.2l0.4 0.8h2.3l0.1-1.2-2.2-0.4-0.1-1.3-1.6-0.4c-0.5-2.2 0.4-2.9 1-1.8l0.8 0.1-0.3-2 0.9-0.3-0.3-2.8-0.8-0.3v-0.9l3.3 0.1c-0.3-1.7 0.1-2.5 0.1-2.5h0.9l0.1 0.7 4 0.4 2.8-3.2c-0.1-0.2 0.3-0.4 0-0.7-0.4-0.4-0.9 0-1.6-0.4-0.6-0.4 0-2.6-0.1-3.2-0.1-0.5 2.2-1.3 1.8-0.1s0 1.7 0 1.7c1.7-1.6 3.1 0.1 3 0.5s0.9 0.8 1.6 0.4 1.4 1.2 1.2 2c-0.3 0.8-2.6 0.7-2.7-0.1s-0.5-0.5-0.8-0.1-1.4 0.7-2.1 0.3c-0.1-0.1-0.2-0.1-0.2-0.2l-2.8 3.2h0.2c1.6 0.9 0.8 2.1 0.3 2.4s-1.4 0.3-1.4 0.3l-0.3 0.5-3.4 0.3-0.3 1.3c-1.7-0.3-2.3 1.6-2 2.5 0.4 0.9 0 1.7 0 1.7l1.4 0.7 1.8-0.5c0.3-1.3 1.4-1.6 2.5-2.4 1-0.8 2.7 1.4 2.2 2.5s-0.5 1.5-0.5 1.5l0.1 1.2-1.3 0.5-1 0.5-0.1 0.7h-3.5l-0.6 0.7-1.7 0.1-0.5 0.8-1.2 0.1s-2 0.9-1.2 2-3.3 0.9-4.2-0.5c-0.3 1.3-1.7 0.1-1.7 0.1l-1.4-0.4-0.1-2c-0.3-1.3-2.7-1.3-2.6-0.4s-4.7 0.4-4.7 0.4l-1.6 0.8-1.4 0.8-0.1 0.7-2.3 0.3-1 0.5-0.4-0.8h-1l-1 1.5c-2.7 0.1-5.3 1.7-5.1 2.4 0.3 0.7-1 1.3-1 1.3l-1.2 0.4-0.8 1.2-1.6 0.5-0.3 2.8-0.8 0.5v1.2l-0.9 0.3v0.7l-1.3 0.1 0.8 2 1 0.5c1.8 0.3 1 2.5 1 2.5l1 0.1 0.5 1.5 1 2.1c0.4 1.6 1.6 1.2 2.1 1.1s1 1.6 1 1.6l5.2 0.1s-0.3 0.5 0.7 0.8c0.9 0.3 6.9 0.5 7.2 0.1-0.3-1.2 3.3-1.5 4.7-0.4s3.4 0.4 3.4 0.4l2 2.4 1.3 2.9 2.2 0.7 1.6 0.4 0.5 2.2 1.2 0.1 0.4 1.5c1.4 1.1-0.4 3.3-0.4 3.3v2.9l1 0.5-0.1 1.1 1.7 1.7 2 0.1 4.9 5.3 3.9 1.2 0.6 2.1 1-0.1 0.8-0.7 3.1-0.1 1.6-1.5 1.7-0.3 14.4-12.3-1.3-0.8v-3.3c2.3-1.7 2.5-4.8 0.3-5-1.7-0.2-0.9-2 0.7-2.2l0.9-0.4v-1.2l3-2.8v-2.1l-6.5-5.4c-2.9-1.1 0-7.4 1.9-7.3 2 0.1-0.1-9.8-0.1-9.8l-1-0.5 0.3-3.2h-1.4l-2.3 3-0.6 2.1c-0.3 2.8-8.3 2.2-8.7 1.8s-3.1-1.6-3.1-1.6-2.1-1.7-2.5-1.2-2.2-0.7-2.2-0.3-1.7-0.9-1.7-0.9l-2.6-0.9 2-0.4-0.4-1.6 3.4 1.7c0.4 0.5 2.1 0.4 2.1 0.4l0.5 0.7s1-0.1 1.7 0.7c0.6 0.8 4 0.1 4 0.1l0.9 0.8 1.4 0.5 4 0.1 0.1-2.5 0.8-0.8-0.1-1.6 0.9-0.8v-1.3l0.8-0.3 0.1-2.9 0.6-0.1v-6.3l-2-1.9c-0.1 0.7-2.2 0.7-2.2 0.7s-0.5 0.9-0.9 0.9 0.5 1.2 0.3 2c-0.3 0.8-1.3 0.8-1.3 0.8l-2 0.5-0.5 0.7h-2.1l-0.3-1.7 2.3-0.7 1.3-0.7 0.7-1.3c0.1-1.3 1.7-1.2 1.7-1.2s3-2.5 3.1-3.7 1.2-4.5 3-4.5h3.4c1.3-0.5 0.9-2.2 0.9-2.2l1.7-0.3 0.3 0.9s2.3 0.3 2.6-0.1 0.8-1.3 1.4-0.9c0.7 0.4 2.7-0.9 2.7-0.9 0.1-0.9 3.4-0.5 3.4-0.5l0.4-1.2s-2.2-3-2.6-3-2.5-1.9-2.7-1.2c-2.1-0.5-2-3.4-2-3.4l-0.8-1.8c0-1.1-1.9-3.3-2.3-3-2-1.5-0.5-3.2 0-3.3s1.8-2 1.8-2l0.6-1.8 2.2-0.7 0.3-1.7-1.2-0.1s1.3-2.4 2-2.4 4.9 0 5.3-0.3 1.2-2.4 1.2-2.8 1-0.5 1.4-0.7c0.4-0.1 1.3-1.2 1.6-1.7-0.2-0.5-1.1-3.8-1.6-3.3z"/>
	<path class="st0" d="m299.9 163.6c0.2-0.2 0.4 0.6 0.8 0.5s0.6 0.7 0.2 0.7-0.4 0.5-0.4 0.7 0 0.7-0.3 1-0.6 0.1-1-0.1-0.6-0.2-1.1-0.2-0.1 0.8-0.1 0.8-2-0.1-1.7-0.4c0.4-0.3 0.8-0.4 0.5-0.6s0-0.4 0-0.8 1-0.2 0.7-0.5 0-1.4 0.5-0.8l0.3-0.7c-0.3-0.3-0.1-0.4-0.7-0.6s-0.1-1.4-0.1-1.4l0.1-0.8c0.2-1 2.1-1.1 2.2-0.2s0 1.5 0 1.5l0.6 0.2s-0.1 0.6-0.6 0.6 0 0.3-0.3 0.6l0.4 0.5z"/>
	<path class="st0" d="m293.4 164.6c0.3-0.6 1-3.2 1.8-2.4s1.3 0 1.3 0 0.4 0.4 0.2 1.2-0.4 1.6-0.9 1.7-0.9 0.4-1.5 0.5-0.9-1-0.9-1z"/>

<rect class="st1" x="55.1" y="336" width="490.8" height="41.9"/>
<text class="st0 st2 st3" transform="translate(114.18 370.04)">UNITED NATIONS</text>
</svg>
