<svg xmlns="http://www.w3.org/2000/svg" width="438" height="529" fill="none" xmlns:v="https://vecta.io/nano"><g stroke="#bbdaff" stroke-width="2"><path d="M111.562 137.692l.001 255.967M111.562 421L111 528.921M112 2v107.963m55.023 127.272c0-35.342 28.65-63.992 63.992-63.992h0c35.342 0 63.992 28.65 63.992 63.992v156.424H167.023V237.235z"/><path d="M249.231 386.549h-75.098V237.235c0-31.415 25.466-56.881 56.881-56.881h0c31.415 0 56.882 25.466 56.882 56.881v149.314h-30.904M221.06 174.665l-9.955-36.973m30.576 36.973l9.954-36.973m-48.889 42.223l-21.473-20.884h-69.632m148.06 20.884l21.473-20.884h155.318m-249.649 31.81l-18.766-10.48h-56.436m163.964 10.48l18.766-10.48h142.127m-260.599 23.688l-7.822-2.357h-56.436m174.908 2.357l7.822-2.357h142.127m-268.421 21.33h-56.436m181.587 0h143.27m-269.132 21.331h-55.725m324.857.104H295.006m-127.64 21.227h-55.725m324.857.104H295.006m-127.64 21.226h-55.725m324.857.104H295.006m-127.64 21.227h-55.725m324.857.104H295.006m-127.64 21.226h-55.725m324.857.104H295.006m-127.64 21.227h-55.725m324.857.103H295.006m-127.64 21.227h-55.725m324.857.104H295.006m-127.64 21.227H97.42v14.213h.635a13.51 13.51 0 0 1 13.509 13.509h324.852M112.275 109.971H97.42v14.212h.635c7.461 0 13.509 6.049 13.509 13.51H436.34m.158 255.974H295.082"/><path d="M97.42 400.77h339.079M97.42 117.073h339.079m-339.079-7.11h339.079M111.641 442.72H436.5M111.641 88.633H436.5M111.641 67.302H436.5m-324.859-21.33H436.5M111.641 24.641H436.5M111.641 464.05H436.5m-324.859 21.331H436.5m-324.859 21.33H436.5"/><path d="M100.477 395.792v2.844m0-286.54v2.844m2.843 280.852v2.844m0-286.54v2.844m2.844 280.852v2.844m0-286.54v2.844m2.844 280.852v2.844m0-286.54v2.844m2.844 280.852v2.844m0-286.54v2.844m2.845 280.852v2.844m0-286.54v2.844m2.844 280.852v2.844m0-286.54v2.844m2.844 280.852v2.844m0-286.54v2.844m2.844 280.852v2.844m0-286.54v2.844m2.843 280.852v2.844m0-286.54v2.844m2.844 280.852v2.844m0-286.54v2.844m2.846 280.852v2.844m0-286.54v2.844m2.843 280.852v2.844m0-286.54v2.844m2.844 280.852v2.844m0-286.54v2.844m2.844 280.852v2.844m0-286.54v2.844m2.844 280.852v2.844m0-286.54v2.844m2.843 280.852v2.844m0-286.54v2.844m2.846 280.852v2.844m0-286.54v2.844m2.844 280.852v2.844m0-286.54v2.844m2.844 280.852v2.844m0-286.54v2.844m2.843 280.852v2.844m0-286.54v2.844m2.844 280.852v2.844m0-286.54v2.844m2.844 280.852v2.844m0-286.54v2.844m2.846 280.852v2.844m0-286.54v2.844m2.843 280.852v2.844m0-286.54v2.844m2.844 280.852v2.844m0-286.54v2.844m2.844 280.852v2.844m0-286.54v2.844m2.844 280.852v2.844m0-286.54v2.844m2.843 280.852v2.844m0-286.54v2.844m2.844 280.852v2.844m0-286.54v2.844m2.846 280.852v2.844m0-286.54v2.844m2.844 280.852v2.844m0-286.54v2.844m2.843 280.852v2.844m0-286.54v2.844m2.844 280.852v2.844m0-286.54v2.844m2.844 280.852v2.844m0-286.54v2.844m2.844 280.852v2.844m0-286.54v2.844m2.845 280.852v2.844m0-286.54v2.844m2.844 280.852v2.844m0-286.54v2.844m2.844 280.852v2.844m0-286.54v2.844m2.844 280.852v2.844m0-286.54v2.844m2.843 280.852v2.844m0-286.54v2.844m2.844 280.852v2.844m0-286.54v2.844m2.846 280.852v2.844m0-286.54v2.844m2.843 280.852v2.844m0-286.54v2.844m2.844 280.852v2.844m0-286.54v2.844m2.844 280.852v2.844m0-286.54v2.844m2.844 280.852v2.844m0-286.54v2.844m2.843 280.852v2.844m0-286.54v2.844m2.846 280.852v2.844m0-286.54v2.844m2.844 280.852v2.844m0-286.54v2.844m2.844 280.852v2.844m0-286.54v2.844m2.843 280.852v2.844m0-286.54v2.844m2.844 280.852v2.844m0-286.54v2.844m2.844 280.852v2.844m0-286.54v2.844m2.846 280.852v2.844m0-286.54v2.844m2.843 280.852v2.844m0-286.54v2.844m2.844 280.852v2.844m0-286.54v2.844m2.844 280.852v2.844m0-286.54v2.844m2.844 280.852v2.844m0-286.54v2.844m2.843 280.852v2.844m0-286.54v2.844m2.846 280.852v2.844m0-286.54v2.844m2.844 280.852v2.844m0-286.54v2.844m2.844 280.852v2.844m0-286.54v2.844m2.843 280.852v2.844m0-286.54v2.844m2.844 280.852v2.844m0-286.54v2.844m2.844 280.852v2.844m0-286.54v2.844m2.846 280.852v2.844m0-286.54v2.844m2.843 280.852v2.844m0-286.54v2.844m2.844 280.852v2.844m0-286.54v2.844m2.844 280.852v2.844m0-286.54v2.844m2.844 280.852v2.844m0-286.54v2.844m2.843 280.852v2.844m0-286.54v2.844m2.846 280.852v2.844m0-286.54v2.844m2.844 280.852v2.844m0-286.54v2.844m2.844 280.852v2.844m0-286.54v2.844m2.843 280.852v2.844m0-286.54v2.844m2.844 280.852v2.844m0-286.54v2.844m2.844 280.852v2.844m0-286.54v2.844m2.845 280.852v2.844m0-286.54v2.844m2.844 280.852v2.844m0-286.54v2.844m2.844 280.852v2.844m0-286.54v2.844m2.844 280.852v2.844m0-286.54v2.844m2.843 280.852v2.844m0-286.54v2.844m2.844 280.852v2.844m0-286.54v2.844m2.846 280.852v2.844m0-286.54v2.844m2.844 280.852v2.844m0-286.54v2.844m2.843 280.852v2.844m0-286.54v2.844m2.844 280.852v2.844m0-286.54v2.844m2.844 280.852v2.844m2.844-2.844v2.844m2.845-2.844v2.844m2.844-2.844v2.844m2.844-2.844v2.844m2.844-2.844v2.844m2.843-2.844v2.844m2.844-2.844v2.844m2.846-2.844v2.844m2.844-2.844v2.844m2.843-2.844v2.844m2.844-2.844v2.844m2.844-2.844v2.844m2.844-2.844v2.844m2.845-2.844v2.844m2.844-2.844v2.844m2.844-2.844v2.844m2.844-2.844v2.844m2.843-2.844v2.844m2.844-2.844v2.844m2.846-2.844v2.844m2.843-2.844v2.844m2.844-2.844v2.844m2.844-2.844v2.844m2.844-2.844v2.844m2.843-2.844v2.844m2.846-2.844v2.844m2.844-2.844v2.844m2.844-2.844v2.844m2.843-2.844v2.844m2.844-2.844v2.844m-85.322-286.54v2.844m2.844-2.844v2.844m2.845-2.844v2.844m2.844-2.844v2.844m2.844-2.844v2.844m2.844-2.844v2.844m2.843-2.844v2.844m2.844-2.844v2.844m2.846-2.844v2.844m2.844-2.844v2.844m2.843-2.844v2.844m2.844-2.844v2.844m2.844-2.844v2.844m2.844-2.844v2.844m2.845-2.844v2.844m2.844-2.844v2.844m2.844-2.844v2.844m2.844-2.844v2.844m2.843-2.844v2.844m2.844-2.844v2.844m2.846-2.844v2.844m2.843-2.844v2.844m2.844-2.844v2.844m2.844-2.844v2.844m2.844-2.844v2.844m2.843-2.844v2.844m2.846-2.844v2.844m2.844-2.844v2.844m2.844-2.844v2.844m2.843-2.844v2.844m2.844-2.844v2.844"/><path d="M100.173 168.978h11.035v63.636h-97.41A12.8 12.8 0 0 1 1 219.815a16 16 0 0 1 15.998-15.998h18.394a41.27 41.27 0 0 0 34.069-17.978l.701-1.025c6.775-9.91 18.006-15.836 30.01-15.836z" fill="#649ef4"/><path d="M248.367 182.486v41.95"/><path d="M218.217 254.299c0-16.492 13.37-29.862 29.863-29.862h0c16.492 0 29.862 13.37 29.862 29.862v4.977h-59.725v-4.977z"/></g><path fill-rule="evenodd" d="M247.965 225.162c-12.344 2.846-21.548 13.905-21.548 27.114v6.389h50.866v.013h-58.355v-4.338c0-16.068 12.987-29.102 29.037-29.178z" fill="#649ef4"/><g stroke="#bbdaff" stroke-width="2"><path d="M244.523 259.276h7.111v.711c0 1.964-1.592 3.555-3.555 3.555h0c-1.964 0-3.556-1.591-3.556-3.555v-.711zm-43.372 127.273l-1.678-50.315a13.24 13.24 0 0 1 13.229-13.676h0m37.536 0h0a13.73 13.73 0 0 1 13.72 14.185l-1.098 32.943m-14.782 16.863h-31.996l-2.24-16.802a4 4 0 0 1 3.965-4.528h28.547a4 4 0 0 1 3.964 4.528l-.495 3.714"/><ellipse cx="232.436" cy="377.306" rx="2.844" ry="2.133" fill="#649ef4"/><path d="M212.8 323.676a2.96 2.96 0 0 1 2.201-3.182h0c10.968-2.844 22.48-2.844 33.447 0h0a2.96 2.96 0 0 1 2.202 3.182l-1.861 17.368h0c-10.387 6.708-23.741 6.708-34.129 0h0l-1.86-17.368z"/></g><g fill="#bbdaff"><circle cx="222.838" cy="328.601" r="1.067"/><circle cx="222.838" cy="335.711" r="1.067"/><circle cx="231.369" cy="328.601" r="1.067"/><circle cx="231.369" cy="335.711" r="1.067"/><circle cx="239.902" cy="328.601" r="1.067"/><circle cx="239.902" cy="335.711" r="1.067"/></g><path d="M204.577 335.47l1.778 50.482h-4.492l-1.777-49.771c0-7.821 6.47-12.896 11.971-12.896-3.91 1.067-7.48 5.253-7.48 12.185z" fill="#649ef4"/><path d="M255.881 387.101l-.13.046c-1.614.578-3.384.544-4.974-.097l-.511-.205a7.02 7.02 0 0 1-1.171-.606l-1.525-.981c-.916-.589-1.619-1.456-2.004-2.475a6.53 6.53 0 0 1-.117-4.289l.311-.979-.602-3.068c-.16-.819.695-1.463 1.438-1.082l2.158 1.106.286-.118c2.171-.893 4.545-1.182 6.867-.834l1.031.154 1.632-1.088a1 1 0 0 1 1.548.718l.313 2.736.554 1.607c.421 1.221.507 2.533.247 3.799a5.6 5.6 0 0 1-1.612 2.917l-1.256 1.203a6.99 6.99 0 0 1-2.483 1.536z" stroke="#bbdaff" stroke-width="2"/><path d="M263.686 386.357h-1v1h1v-1zm6.91-2.372v1l.534-1.846-.534.846zm-.634-7.853a1 1 0 1 0-1.414-1.415l1.414 1.415zm-17.488-3.771a1 1 0 1 0 1.2 1.6l-1.2-1.6zm15.266 4.578l-.707-.707.707.707zm-3.114-7.527v-1 1zm-1.232 0v-1 1zm0 1h1.232v-2h-1.232v2zm13.008 10.047v1.276h2v-1.276h-2zm-3.621 4.898h-9.095v2h9.095v-2zm-8.095 1v-.372h-2v.372h2zm1-1.372h4.91v-2h-4.91v2zm5.444-1.846l-2.227-1.406-1.068 1.691 2.227 1.406 1.068-1.691zm-2.683-5.493l1.515-1.514-1.414-1.415-1.515 1.515 1.414 1.414zm-15.236-5.838l-.737.553 1.2 1.6.737-.553-1.2-1.6zm14.465 7.699c0-.698.278-1.367.771-1.861l-1.414-1.414c-.868.869-1.357 2.047-1.357 3.275h2zm1.227 2.226c-.763-.482-1.227-1.322-1.227-2.226h-2c0 1.59.815 3.068 2.159 3.917l1.068-1.691zm7.499.002c0 2-1.621 3.622-3.621 3.622v2c3.104 0 5.621-2.517 5.621-5.622h-2zm-2.414-7.311a8.75 8.75 0 0 1 2.414 6.035h2c0-2.76-1.062-5.415-2.965-7.414l-1.449 1.379zm-9.362-4.012a12.93 12.93 0 0 1 9.362 4.012l1.449-1.379a14.93 14.93 0 0 0-10.811-4.633v2zm.06 15.573a1 1 0 0 1 1-1v-2a3 3 0 0 0-3 3h2zm-1.292-17.573c-3.673 0-7.246 1.192-10.183 3.396l1.2 1.6a14.96 14.96 0 0 1 8.983-2.996v-2z" fill="#bbdaff"/><g stroke="#bbdaff" stroke-width="2"><path d="M263.112 386.356h-5.491m-8.601.001h-6.711v-.152a2 2 0 0 1 2-2h1.758m31.494-4.962l1.912 1.661c1.549 1.346 3.532 2.087 5.584 2.087h1.401a1.44 1.44 0 0 1 1.437 1.438h0c0 .794-.643 1.437-1.437 1.437h-2.605c-2.359 0-4.622-.937-6.29-2.605h0m-23.079-3.401c.465.82 1.916 1.609 2.941 0m-8.696 0c.464.82 1.915 1.609 2.94 0m-1.462 3.893l.415.43c.556.574 1.494.511 1.968-.132l.018-.024c.249-.338.754-.338 1.003 0h0c.474.643 1.421.681 1.945.078l.659-.759" stroke-linecap="round"/><path d="M111 1h327M111 528h325m1-527v528"/></g></svg>