<?xml version="1.0" standalone="no"?>
<!DOCTYPE svg PUBLIC "-//W3C//DTD SVG 20010904//EN"
 "http://www.w3.org/TR/2001/REC-SVG-20010904/DTD/svg10.dtd">
<svg version="1.0" xmlns="http://www.w3.org/2000/svg"
 width="1000.000000pt" height="1000.000000pt" viewBox="0 0 1000.000000 1000.000000"
 preserveAspectRatio="xMidYMid meet">
<metadata>
Created by potrace 1.11, written by Peter Selinger 2001-2013
</metadata>
<g transform="translate(0.000000,1000.000000) scale(0.100000,-0.100000)"
fill="#000000" stroke="none">
<path d="M2619 9996 c-2 -2 -41 -7 -85 -10 -45 -4 -93 -9 -105 -11 -13 -2 -67
-11 -119 -20 -363 -61 -720 -203 -1040 -412 -703 -460 -1154 -1193 -1254
-2038 -11 -101 -13 -503 -12 -2535 1 -1328 5 -2437 9 -2465 40 -271 70 -403
132 -590 197 -592 581 -1094 1105 -1445 121 -81 163 -105 335 -189 196 -96
386 -164 575 -206 8 -2 36 -8 63 -14 26 -6 64 -14 85 -17 20 -3 62 -9 92 -15
30 -5 93 -13 140 -17 112 -9 4822 -9 4925 0 44 5 89 10 100 12 11 2 43 7 70
10 28 4 93 16 145 27 823 175 1522 709 1908 1459 165 320 266 663 299 1015 10
106 10 4827 0 4930 -10 100 -16 148 -27 205 -5 25 -12 59 -14 75 -20 114 -107
419 -127 440 -5 5 -9 15 -9 23 0 22 -107 250 -170 364 -178 318 -433 613 -730
845 -159 124 -405 269 -590 348 -47 20 -94 40 -105 46 -38 18 -270 91 -335
105 -169 37 -251 53 -315 59 -38 4 -79 10 -90 13 -22 7 -4849 15 -4856 8z"/>
</g>
</svg>
