<svg xmlns="http://www.w3.org/2000/svg" xmlns:xlink="http://www.w3.org/1999/xlink" viewBox="0 0 1000 695" xmlns:v="https://vecta.io/nano"><style><![CDATA[.E{fill:#fff}.F{fill:#377fea}]]></style><g fill="#ff9d00"><circle cx="849.6" cy="217.7" r="42.8"/><circle cx="476.2" cy="65.7" r="42.8"/><circle cx="362.3" cy="568.8" r="42.8"/><path d="M799.3 277.4l-2.4-9.1c-13.5-45.1-46.6-86.3-90.7-103.9-54.1-21.5-112-5.3-166.2 7.3-30.4 7.1-58.5-3.4-81.5-23.6-29-25.4-55.4-60.1-93.2-73.1-62.5-21.4-133-14.8-185.4 20.9-24.3 16.6-44.2 38.6-57.2 64-13.1 25.7-18.5 54.6-15.9 83.5 2.5 28.8 12.8 57.4 30.3 82 21 29.3 51.2 52.6 85 68 60.1 27.3 125.9 14.1 176.8 62.4 21.8 20.7 38.3 46 62.6 64.1 23.6 17.6 51.3 29.9 80.3 35.3 109.8 20.6 200.6-55.9 241.7-151.6 17.3-40.2 25.9-83.4 15.8-126.2z"/></g><path d="M384 164.4c4.9-5.6 7.9-12.9 7.9-20.8 0-17.8-15-32.3-33.4-32.3-18.5 0-33.4 14.4-33.4 32.3 0 17.8 15 32.3 33.4 32.3h.1c-.4 1.4-.6 2.9-.6 4.5 0 9.7 8.2 17.6 18.3 17.6s18.3-7.9 18.3-17.6c-.1-7.2-4.4-13.2-10.6-16z" class="E"/><path d="M376.3 199.5c-11 0-19.9-8.6-19.9-19.2 0-1 .1-1.9.2-2.9-18.5-.9-33.2-15.8-33.2-33.8 0-18.7 15.7-33.9 35-33.9s35 15.2 35 33.9c0 7.3-2.5 14.4-7 20.3 5.9 3.5 9.6 9.7 9.6 16.5.1 10.5-8.8 19.1-19.7 19.1zm-17.7-25.3c.5 0 1 .2 1.3.6s.4.9.3 1.4c-.4 1.3-.5 2.7-.5 4.1 0 8.8 7.5 16 16.6 16 9.2 0 16.6-7.2 16.6-16 0-6.2-3.7-11.8-9.5-14.5a1.44 1.44 0 0 1-.9-1.1c-.1-.5 0-1 .4-1.4 4.8-5.5 7.5-12.5 7.5-19.7 0-16.9-14.3-30.6-31.8-30.6s-31.8 13.7-31.8 30.6 14.3 30.6 31.8 30.6h0z"/><ellipse cx="339.3" cy="187.4" rx="7.8" ry="7.5" class="E"/><path d="M339.3 196.5c-5.2 0-9.4-4.1-9.4-9.2s4.2-9.2 9.4-9.2 9.4 4.1 9.4 9.2-4.2 9.2-9.4 9.2zm0-15.1c-3.4 0-6.2 2.7-6.2 5.9 0 3.3 2.8 5.9 6.2 5.9s6.2-2.7 6.2-5.9-2.8-5.9-6.2-5.9z"/><path d="M332.9 248.8c0 8.7 7.1 15.8 15.8 15.8 5 0 9.5-2.3 12.4-6l3.2 24.7c.4 3.4 3.3 5.9 6.7 5.9h33.5c3.4 0 6.3-2.5 6.7-5.9l7.1-55.3c.5-4.1-2.6-7.6-6.7-7.6H364c-4.1 0-7.2 3.6-6.7 7.6l1.1 8.3c-2.6-2-5.9-3.2-9.5-3.2-8.9-.1-16 7-16 15.7zm9.2 0c0-3.7 3-6.6 6.6-6.6 3.7 0 6.6 3 6.6 6.6s-3 6.6-6.6 6.6c-3.7 0-6.6-2.9-6.6-6.6z" class="F"/><path d="M404.4 290.8h-33.5c-4.2 0-7.8-3.2-8.3-7.3l-2.7-21.4c-3.1 2.6-7 4.1-11.2 4.1-9.6 0-17.4-7.8-17.4-17.4s7.8-17.4 17.4-17.4a17.52 17.52 0 0 1 7.5 1.7l-.6-4.9c-.3-2.4.4-4.8 2-6.6s3.9-2.8 6.3-2.8h47.6c2.4 0 4.7 1 6.3 2.8s2.3 4.2 2 6.6l-7.1 55.3c-.5 4.2-4.1 7.3-8.3 7.3zM361 257c.1 0 .3 0 .4.1.6.2 1.1.7 1.2 1.4l3.2 24.7c.3 2.6 2.5 4.5 5.1 4.5h33.5c2.6 0 4.8-1.9 5.1-4.5l7.1-55.3c.2-1.5-.3-3-1.2-4.1-1-1.1-2.4-1.8-3.9-1.8h-47.6c-1.5 0-2.9.6-3.9 1.8-1 1.1-1.4 2.6-1.2 4.1l1.1 8.3c.1.6-.2 1.3-.8 1.6s-1.3.3-1.8-.1c-2.5-1.9-5.4-2.9-8.5-2.9-7.8 0-14.2 6.4-14.2 14.2s6.4 14.2 14.2 14.2c4.4 0 8.4-2 11.1-5.4.2-.6.7-.8 1.1-.8zm-12.3 0a8.24 8.24 0 0 1-8.2-8.2 8.24 8.24 0 0 1 8.2-8.2 8.24 8.24 0 0 1 8.2 8.2 8.24 8.24 0 0 1-8.2 8.2zm0-13.2a4.95 4.95 0 1 0 0 10 4.95 4.95 0 0 0 5-5c0-2.8-2.3-5-5-5z"/><path d="M449.8 252.9c-.3-8.7-5-16.7-12.4-21.3-9.3-5.8-16.4-9.7-23.4-13.2-12.7-6.3-21.4-8.1-25.8-1.9-4.4 6.1 4.5 17.8 23.8 25.2 0 0-26.8-7-28.8 6.3-.8 5 4 10.2 10.2 11.8-6.2.7-11.4 2.9-11.7 8.6-.3 5 7 10.1 16 10.8-4.9 1.3-10.1 4-10.4 9.9-.3 6 6.1 9 16.4 10.1l-11.3 45.1h60.9l-3.5-91.4z" class="E"/><path d="M453.4 346h-60.9c-.5 0-1-.2-1.3-.6s-.4-.9-.3-1.4l10.9-43.3c-5.6-.7-16.4-2.9-16-11.6.2-4 2.3-7.1 6.1-9.3-7-2.1-12-6.6-11.7-11.4.2-4.4 2.9-7.5 8-9.1-4.4-2.8-7.1-7.3-6.5-11.5.4-2.9 1.9-5.2 4.3-6.8 4-2.6 10-3 15.2-2.6-8.1-4.6-13.6-10.2-15.2-15.5-.8-2.8-.5-5.3.9-7.3 5.7-8.1 17.3-3.8 27.8 1.4 7.7 3.8 14.9 7.9 23.5 13.3 7.8 4.9 12.8 13.3 13.1 22.6l3.6 91.5c0 .4-.1.9-.5 1.2a1.53 1.53 0 0 1-1 .4zm-58.9-3.2h57.2l-3.5-89.8c-.3-8.2-4.7-15.6-11.6-20-8.5-5.3-15.6-9.3-23.2-13.1-13-6.5-20.4-7.2-23.8-2.4-.9 1.2-1 2.7-.5 4.5 1.4 4.8 8.5 12.4 23.6 18.3.8.3 1.2 1.2 1 2-.3.8-1.1 1.3-1.9 1.1-.2 0-16.8-4.3-23.9.4-1.7 1.1-2.6 2.6-2.9 4.5-.6 4 3.5 8.6 9 10 .8.2 1.3.9 1.2 1.7s-.7 1.4-1.4 1.5c-8.9 1-10.1 4.6-10.3 7.1-.2 3.7 6.1 8.4 14.5 9.1a1.7 1.7 0 0 1 1.5 1.5c.1.8-.4 1.5-1.2 1.7-5.9 1.6-9 4.4-9.2 8.4-.1 1.7-.3 6.8 14.9 8.4.5 0 .9.3 1.2.7s.4.9.2 1.3l-10.9 43.1z"/><path d="M421.5 305.4a1.58 1.58 0 0 1-1.6-1.6c0-.6-.4-1-1-1.1l-15.3-1.8c-.9-.1-1.5-.9-1.4-1.8s.9-1.5 1.8-1.4l15.3 1.8c2.2.3 3.8 2.1 3.8 4.3a1.58 1.58 0 0 1-1.6 1.6zm4.2-20.8c-.1 0-.3 0-.4-.1-6.4-1.8-27.5-3.7-27.7-3.7-.9-.1-1.5-.9-1.5-1.8.1-.9.9-1.6 1.8-1.5s21.6 1.9 28.3 3.8c.9.2 1.4 1.1 1.1 2-.2.8-.9 1.3-1.6 1.3zm9-36.1c-.2 0-.4 0-.5-.1-5.1-1.8-22.2-5-22.3-5.1-.9-.2-1.5-1-1.3-1.9s1-1.5 1.9-1.3c.7.1 17.5 3.3 22.8 5.2.8.3 1.3 1.2 1 2.1-.3.7-1 1.1-1.6 1.1zm-5.5 18.5h-.3c-5.4-1.1-35.3-5.5-35.6-5.6-.9-.1-1.5-1-1.4-1.8.1-.9 1-1.5 1.8-1.4l35.8 5.6c.9.2 1.4 1 1.3 1.9-.2.8-.9 1.3-1.6 1.3z"/><path d="M486.2 1.4h281.3v326.4H486.2z" class="E"/><path d="M750.4 312.2h-247a1.58 1.58 0 0 1-1.6-1.6V18.5a1.58 1.58 0 0 1 1.6-1.6h247a1.58 1.58 0 0 1 1.6 1.6v292.1a1.58 1.58 0 0 1-1.6 1.6zM505 309h243.8V20.1H505V309zm262.6 20.4H486.2a1.58 1.58 0 0 1-1.6-1.6V1.4a1.58 1.58 0 0 1 1.6-1.6h281.3a1.58 1.58 0 0 1 1.6 1.6v326.4c.1.8-.6 1.6-1.5 1.6zm-279.8-3.3h278.1V3H487.8v323.1z"/><path d="M626.9 311.1a1.58 1.58 0 0 1-1.6-1.6V19.6a1.58 1.58 0 1 1 3.2 0v289.9a1.58 1.58 0 0 1-1.6 1.6z"/><path d="M750.2 166.2H503.5a1.58 1.58 0 1 1 0-3.2h246.7a1.58 1.58 0 0 1 1.6 1.6c.1.8-.7 1.6-1.6 1.6z"/><path d="M324.5 634.2h-68.1V510.4h-29.3v123.8H159c-7 0-12.7 5.7-12.7 12.7v21.2h21.9v-13.3h147v13.3h21.9v-21.2c.1-7-5.6-12.7-12.6-12.7z" class="E"/><path d="M337.2 669.7h-21.9a1.58 1.58 0 0 1-1.6-1.6v-11.7H169.9v11.7a1.58 1.58 0 0 1-1.6 1.6h-21.9a1.58 1.58 0 0 1-1.6-1.6v-21.2a14.3 14.3 0 0 1 14.3-14.3h66.5V510.4a1.58 1.58 0 0 1 1.6-1.6h29.3a1.58 1.58 0 0 1 1.6 1.6v122.2h66.5a14.3 14.3 0 0 1 14.3 14.3v21.2c-.1.9-.8 1.6-1.7 1.6zm-20.3-3.2h18.7v-19.6c0-6.1-5-11.1-11.1-11.1h-68.1a1.58 1.58 0 0 1-1.6-1.6V512h-26v122.2a1.58 1.58 0 0 1-1.6 1.6h-68.1c-6.1 0-11.1 5-11.1 11.1v19.6h18.7v-11.7a1.58 1.58 0 0 1 1.6-1.6h147a1.58 1.58 0 0 1 1.6 1.6v11.7z"/><circle cx="157.5" cy="671.8" r="20.4"/><circle cx="326.1" cy="671.8" r="20.4"/><circle cx="326.1" cy="671.8" r="11.1" class="E"/><path d="M256.4 635.8h-29.3a1.58 1.58 0 1 1 0-3.2h29.3a1.58 1.58 0 1 1 0 3.2z"/><circle cx="157.5" cy="671.8" r="11.1" class="E"/><path d="M344.7 494.7c-.9 0-5.2-13.3-5.6-14.3l-13.5-34.2-30.5-77.5c-13-31.1-45.4-34.6-75.3-34-21.6.5-43.2.6-64.8.3-15.6-.3-31.2-.8-46.8.2-14.2.9-28.5 2.5-37.8 14.6-10.8 14.1-8.5 30.9-2.4 46.4L98.2 473l15 38.7c4.7 12 9.1 26.7 16.6 37.2 9.1 12.6 29.4 12.2 55.6 12.2l80.1-.7h86.1c13.2 0 24.6-2.4 32.6-13.7 7.9-11 8.5-26.1.9-37.4-9.5-14.5-24.8-14.6-40.4-14.6z" class="F"/><path d="M277.1 284.8l-37.7-1.2c-29.5-15.2-65.8-5.2-83.3 23C127.4 353 91.8 420.3 103 454.1c9.2 27.8 37.8 38.3 71.4 31.1 8.3-1.8 16.9-4.6 25.5-8.5 0 0 32.4-5.9 67.1-22.3 50.2-23.7 109.8-60.7 121.8-62.3-3.9-9.4-27.7-63.6-40.4-89.8-13-27-47.3-35.4-71.3-17.5z"/><path d="M269.3 311c23.7-.4 31.5-21.9 34.1-35.6-9.1.4-18.2 3.5-26.2 9.4l-37.7-1.2c-8.6-4.4-17.7-6.7-26.7-7.1 4.7 7.1 26 35 56.5 34.5z" class="E"/><path d="M154.4 489c-26.1 0-45.7-12.3-53-34.4-11.2-33.8 22.8-99.6 53.3-148.8 8.7-14 22.2-24.1 38.1-28.5 15.8-4.3 32.4-2.7 47 4.8l36.8 1.1c11.7-8.6 26.5-11.5 40.6-8 14.3 3.5 26.2 13.1 32.6 26.4 13 26.9 36.8 81.2 40.4 89.9.2.5.2 1-.1 1.4s-.7.7-1.2.8c-6.1.8-26.7 12.1-50.5 25.2-22.2 12.2-47.3 25.9-70.8 37-33.1 15.6-64.5 21.8-67.3 22.4-8.6 3.9-17.2 6.7-25.7 8.5-7 1.5-13.8 2.2-20.2 2.2zm56-210.7c-20.9 0-41.3 10.5-52.9 29.2-30.1 48.6-63.8 113.5-53 146.1 8.5 25.8 35.2 37.3 69.5 30 8.3-1.8 16.7-4.6 25.2-8.4.1-.1.2-.1.4-.1.3-.1 32.6-6 66.7-22.1 23.4-11 48.5-24.8 70.6-36.9 22.9-12.6 41.5-22.7 49.6-25.1-5.4-12.7-27.4-62.5-39.6-88-6-12.4-17.1-21.4-30.4-24.7-13.4-3.3-27.4-.4-38.4 7.8a1.69 1.69 0 0 1-1 .3l-37.7-1.2c-.2 0-.5-.1-.7-.2a63.25 63.25 0 0 0-28.3-6.7z"/><path d="M324.9 377.1c-.8 0-1.5-.6-1.6-1.5l-3.3-40.9c-.1-.9.6-1.7 1.5-1.7.9-.1 1.7.6 1.7 1.5l3.3 40.9c.1.9-.6 1.7-1.5 1.7 0 0-.1 0-.1 0z" class="E"/><path d="M801.3 339.9s-2.7-43.8 4.8-65.2c8.7-24.6 25-50.7 55.2-45.4 13.8 2.4 24.7 11.6 30.2 24.4 8.1 18.5 6.7 41.4-.4 60a30.9 30.9 0 0 1-1.4 3.2c-9.5 20.1-19.7 29.4-19.7 29.4s26.8 12.2 20.6 45.6-40.5 79.6-77.4 76.9-55.1-55.3-51.2-87.2c4-31.9 30.2-46.6 39.3-41.7z" class="F"/><path d="M818.4 619c-.8 0-1.6-.7-1.6-1.5-.1-1.2-7.6-124.6 0-198.5 7.6-74 41.7-167.6 42-168.5.3-.8 1.2-1.3 2.1-1 .8.3 1.3 1.2 1 2.1s-34.3 94.2-41.8 167.8c-7.6 73.6-.1 196.7 0 197.9.1.9-.6 1.7-1.5 1.7h-.2z"/><path d="M791.5 378.1s18.3-8.5 35.2 19.5c16.8 28.1 17.1 116.5-25.1 126.2-38.2 8.8-81.5-44.9-88-78.9s11.8-43.1 18.6-44c-2 .3-8.7-7.7-10-8.9-7.5-7.3-14.4-15.3-20.2-24-17-25.6-27.1-74.9 7-92.1 16.1-8.2 36.7-3 50.5 7.6.2.1.4.3.6.4 17.1 13.6 25.6 35.9 29.5 56.8 1.5 8.1 2.3 16.3 2.4 24.6-.3 1.5.5 12.3-.5 12.8z" class="E"/><path d="M793 526.4c-9.9 0-20.6-3.6-31.3-10.5-26-17-45.8-49.2-49.9-70.6-2.9-15.4-1.3-27.5 4.9-36.1 3.3-4.6 7.6-7.4 11.2-8.8-1.5-1.3-3.3-3.2-5.8-5.8-.6-.6-1-1.1-1.3-1.4-8-7.8-14.9-16-20.4-24.3-11-16.5-20-44.6-14.1-67.2 3.3-12.4 10.6-21.6 21.6-27.2 17.6-8.9 38.9-2.5 52.2 7.8l.6.4c18.8 15 26.7 39.7 30.1 57.8 1.5 8.2 2.3 16.6 2.4 24.9a11.8 11.8 0 0 0 .1 1.6 175.58 175.58 0 0 1 .2 8.9c6-1.3 20.9-1.5 34.4 21 12 20.1 15.7 69.7 2.3 101.2-6.4 15.1-16.3 24.6-28.5 27.4-2.7.5-5.7.9-8.7.9zm-60.7-123.9c-3.4.4-8.9 2.9-12.9 8.5-5.6 7.7-7.1 19.3-4.3 33.6 4 20.7 23.2 52 48.5 68.5 13.2 8.6 26.1 11.7 37.6 9.1 11.3-2.6 20.1-11.2 26.2-25.5 13.1-30.7 9.5-78.9-2.1-98.3-15.9-26.5-32.9-19-33.1-18.9-.8.4-1.8 0-2.1-.8-.3-.6-.2-1.2.2-1.7.2-1 .2-4.4 0-10.1 0-.8-.1-1.4-.1-1.7-.1-8.1-.9-16.2-2.4-24.3-3.2-17.5-10.8-41.5-28.9-55.9l-.5-.4c-12.5-9.6-32.4-15.7-48.7-7.4-10.2 5.2-16.9 13.6-20 25.1-5.7 21.7 3 48.7 13.6 64.6 5.4 8.1 12.1 16.1 20 23.7.3.3.8.8 1.4 1.5 4 4.3 6.5 6.7 7.4 7 .8 0 1.6.6 1.7 1.4 0 1.1-.6 1.9-1.5 2h0z"/><path d="M837.2 526.3s7-52.9 46.9-97.6c32.3-36.1 87.9-28.1 108.1-23.7 4.5 1 7.3 5.5 6.1 10-4.2 16.2-20.3 50.4-79.8 41 0 0 19 37.8-13 52.9-22.5 10.6-48.9-.8-68.3 17.4z" class="E"/><path d="M837.2 527.9c-.3 0-.5-.1-.7-.2-.6-.3-1-1-.9-1.6.1-.5 7.5-54 47.3-98.5 32.5-36.3 87.5-29 109.6-24.2 2.6.6 4.8 2.1 6.2 4.4s1.8 5 1.1 7.5c-3.7 14.1-16.8 43.8-62.2 43.8-5.1 0-10.6-.4-16.5-1.2 2.4 5.9 7.2 20.4 2.6 33.7-2.8 8.2-8.8 14.5-17.6 18.6-9.9 4.7-20.4 5.2-30.7 5.7-13.6.7-26.5 1.4-37.2 11.4a1.1 1.1 0 0 1-1 .6zm118.6-125.4c-23.5 0-51.2 5.6-70.5 27.2-32.6 36.5-43.1 79.1-45.8 92.5 10.9-8.1 23.5-8.7 35.8-9.4 9.9-.5 20.1-1 29.4-5.4 8-3.8 13.4-9.4 15.9-16.8 5.4-15.5-3.6-33.8-3.7-33.9-.3-.5-.2-1.2.1-1.7.4-.5 1-.7 1.6-.6 58.6 9.3 74.1-24.8 78-39.8.5-1.7.2-3.5-.7-5s-2.4-2.6-4.2-3c-8.2-1.9-21.2-4.1-35.9-4.1zm-95.5 290.4h-79.7l-10.3-124.1h100.3z"/><path d="M826.1 629.3a1.58 1.58 0 0 1-1.6-1.6c0-34.2 11-101 11.1-101.7.1-.9 1-1.5 1.9-1.3.9.1 1.5 1 1.3 1.9-.1.7-11.1 67.2-11.1 101.1a1.58 1.58 0 0 1-1.6 1.6zm-13-9.2c-.9 0-1.6-.7-1.6-1.5-3-54.1-30.6-173.7-45-212.4-14.7-39.7-53.1-116.8-53.5-117.6s-.1-1.8.7-2.2 1.8-.1 2.2.7 38.9 78 53.7 117.9c14.4 39 42.1 159 45.1 213.4.1.9-.6 1.7-1.6 1.7h0z"/><path d="M746 355.6h-.1c-.9-.1-1.6-.8-1.5-1.7l3.3-43.3c.1-.9.9-1.6 1.7-1.5.9.1 1.6.8 1.5 1.7l-3.3 43.3c0 .8-.7 1.5-1.6 1.5zm44.2 131.3c-.4 0-.8-.1-1.1-.4l-40.9-37c-.7-.6-.7-1.6-.1-2.3s1.6-.7 2.3-.1l40.9 37c.7.6.7 1.6.1 2.3-.3.4-.8.5-1.2.5zm52.2-178.6c-.4 0-.9-.2-1.2-.5-.6-.7-.5-1.7.1-2.3l26.7-23.6c.7-.6 1.7-.5 2.3.1.6.7.5 1.7-.1 2.3l-26.7 23.6c-.4.3-.7.4-1.1.4z"/><path d="M432.7 485.4L530 692.9l119.2-37.2c2.5-.8 3.6-2.7 2.9-4.8-9.6-31.2-53.6-15.4-53.6-15.4L506.7 457l-74 28.4z" class="E"/><path d="M530 694.5c-.6 0-1.2-.3-1.5-.9l-97.3-207.5c-.2-.4-.2-.9 0-1.3a1.96 1.96 0 0 1 .9-.9l74-28.4c.8-.3 1.6 0 2 .8l91.3 177.3c5.4-1.7 25.7-7.4 40.5 0 6.8 3.4 11.4 9.1 13.8 16.8.9 3-.7 5.8-4 6.8l-119.2 37.2c-.1.1-.3.1-.5.1zm-95.1-208.2l96 204.6 117.9-36.8c.8-.2 2.4-1 1.9-2.7-2.1-6.9-6.2-11.9-12.2-14.9-15.6-7.8-39.1.5-39.3.6-.8.3-1.6-.1-2-.8l-91.3-177.2-71 27.2z"/><path d="M530 692.9l119.2-37.2c2.5-.8 3.6-2.7 2.9-4.8-9.6-31.2-53.6-15.4-53.6-15.4l-.6-1.3-83.3 26 15.4 32.7z"/><path d="M452 465.9l176.4 146.3 92-84.4c1.9-1.7 2.1-3.9.6-5.6-22-24.2-55 8.9-55 8.9L506.9 408.7 452 465.9z" class="E"/><path d="M628.4 613.8c-.4 0-.7-.1-1-.4L451 467.1c-.3-.3-.6-.7-.6-1.2 0-.4.1-.9.4-1.2l54.8-57.2c.6-.6 1.5-.7 2.2-.2l158.1 121.5c4.1-3.8 19.7-17.2 36-17.2h.7c7.6.2 14.2 3.3 19.7 9.4 2.1 2.3 1.8 5.5-.7 7.8l-92 84.4c-.4.4-.8.6-1.2.6zm-174-148l174 144.3 91-83.5c.6-.5 1.8-1.9.5-3.3-4.9-5.3-10.7-8.1-17.3-8.3-17.5-.4-35.2 17.1-35.3 17.3-.6.6-1.5.6-2.1.1L507 410.8l-52.6 55z"/><path d="M628.4 612.2l92-84.4c1.9-1.7 2.1-3.9.6-5.6-22-24.2-55 8.9-55 8.9l-1.1-.9-64.3 59 27.8 23z"/><circle transform="matrix(.9899 -.1415 .1415 .9899 -30.8671 38.7023)" cx="256.7" cy="236.4" r="33.8"/><path d="M239.3 263.8c8.8-4.3 14.7-19.2 14.7-20 .6-5.9-4.2-22.4-4.2-22.4s20.7-8.6 27.5-6.7c3.8 1 8.6 8.5 9.3 11.7.3 1.7 3.3 9.4 3.9 20.4 1 15.8 3.1 25.5-13.5 27.9v15.8h-37.8l.1-26.7z" class="E"/><path d="M277.1 288.2a1.58 1.58 0 0 1-1.6-1.6v-11.8c0-.8.6-1.5 1.4-1.6 13.8-2 13.3-8.8 12.3-22.5l-.3-3.7c-.5-8.6-2.5-15.2-3.4-18.3-.3-.9-.4-1.5-.5-1.9-.6-3-5.2-9.7-8.1-10.5-4.8-1.3-18.7 3.6-25.1 6.1 1.1 4.2 4.3 16.4 3.8 21.6-.1.8-5.7 15.6-14.7 20.8v21.1a1.58 1.58 0 1 1-3.2 0v-22.1c0-.6.4-1.2.9-1.5 7.8-3.8 13.4-17.1 13.9-18.8.4-4.7-2.8-17.2-4.1-21.7-.2-.8.2-1.6.9-1.9 2.2-.9 21.4-8.7 28.5-6.8 4.7 1.3 9.7 9.4 10.4 13 .1.3.2.9.4 1.6 1 3.3 3 10.1 3.5 19.1.1 1.3.2 2.5.2 3.7.9 13.3 1.6 22.9-13.7 25.7v10.4c.2.9-.6 1.6-1.5 1.6z"/><path d="M271.9 276.7c-5.8 0-9.3-1-9.5-1.1-.9-.3-1.3-1.2-1.1-2 .3-.9 1.2-1.3 2-1.1 0 0 5.3 1.5 13.7.7a1.67 1.67 0 0 1 1.8 1.4 1.67 1.67 0 0 1-1.4 1.8c-2.1.2-3.9.3-5.5.3z"/><path d="M277.5 278.8s-.6 5.5-5.5 6c-4.9.6-9.2-10.8-9.2-10.8l14.3.7.4 4.1z"/><circle transform="matrix(.9899 -.1415 .1415 .9899 -32.6253 37.6173)" cx="248.1" cy="248.2" r="8.9" class="E"/><path d="M250 251.1c-.4 0-.9-.2-1.2-.5l-3.9-4.1c-.6-.6-.6-1.7.1-2.3.6-.6 1.7-.6 2.3.1l3.9 4.1c.6.6.6 1.7-.1 2.3-.3.3-.7.4-1.1.4zm29 7.2h-.3c-3.5-.6-5.3-4-5.3-4.1-.4-.8-.1-1.8.7-2.2s1.8-.1 2.2.7c0 0 1.2 2.1 3 2.4.9.1 1.5 1 1.3 1.9-.1.7-.8 1.3-1.6 1.3z"/><circle transform="matrix(.999 -.044176 .044176 .999 -10.39 12.1312)" cx="269.3" cy="241.1" r="2.1"/><circle transform="matrix(.999 -.044176 .044176 .999 -10.2707 12.8517)" cx="285.6" cy="238.8" r="2.1"/><circle transform="matrix(.9899 -.1415 .1415 .9899 -27.9541 39.9498)" cx="266.9" cy="216.5" r="10.9"/><circle transform="matrix(.9899 -.1415 .1415 .9899 -27.5141 42.0063)" cx="281.6" cy="214.4" r="10.9"/><circle transform="matrix(.9899 -.1415 .1415 .9899 -26.2249 40.2671)" cx="270" cy="204.5" r="12"/><circle transform="matrix(.9899 -.1415 .1415 .9899 -29.018 37.9707)" cx="252.4" cy="223" r="9.7"/><circle cx="108" cy="184.2" r="71.4" class="E"/><path d="M108 257.2c-40.3 0-73-32.8-73-73 0-40.3 32.8-73 73-73 40.3 0 73 32.8 73 73s-32.7 73-73 73zm0-142.8c-38.5 0-69.8 31.3-69.8 69.8S69.5 254 108 254s69.8-31.3 69.8-69.8-31.3-69.8-69.8-69.8z"/><circle cx="108" cy="184.2" r="57.5" class="F"/><path d="M152.1 185.8H108a1.58 1.58 0 0 1-1.6-1.6v-42.7a1.58 1.58 0 1 1 3.2 0v41.1h42.5a1.58 1.58 0 1 1 0 3.2z"/><g class="E"><circle cx="108" cy="184.2" r="8.4"/><path d="M127.1 419.2c-.3 0-.6-.1-.9-.3-.7-.5-.9-1.5-.4-2.2.3-.4 26.8-37.7 92.7-46.2.9-.1 1.7.5 1.8 1.4s-.5 1.7-1.4 1.8c-64.3 8.3-90.2 44.4-90.5 44.8-.3.5-.8.7-1.3.7zm72.8 59.1c-.5 0-1-.3-1.4-.7-.5-.7-.3-1.7.5-2.2.4-.3 39-26 45-59.5.2-.9 1-1.5 1.9-1.3s1.5 1 1.3 1.9c-6.3 34.8-44.8 60.5-46.4 61.6-.3.1-.6.2-.9.2z"/><path d="M313.9 346c-19.9-4.2-44.1 1-50.6 2.7-4.2 1.1-38.3 19.8-62.5 33.4-13.5 7.5-18.2 24.7-10.5 38.1 8.6 14.9 28.6 18.4 41.8 7.3l13.5-11.4c1.3.1 2.6.1 4.1 0 6.8-.7 10.6-3.9 12.7-6.8 6.7 5.4 17.3 12 23.5 6.8 2.2-1.8 2.5-4.4 1.6-7.4 5.6 1.3 11.1 1 15.5-2.2 3.5-2.6 4.6-5.7 4.2-9 4.7 1.2 8.9.8 12-2.8 11.7-13.8-23.8-31.1-23.8-31.1s9.5.9 17.5 2.6 17.7 8.6 23.8.1c6.2-8.6-2.8-16-22.8-20.3z"/></g><path d="M214.3 435.6c-1.7 0-3.4-.1-5.1-.4-8.6-1.5-16-6.7-20.3-14.2a29.09 29.09 0 0 1-2.9-22.5c2.1-7.6 7.1-14 14-17.8 38.3-21.4 59.5-32.7 62.9-33.5 4.9-1.2 30.3-7.2 51.4-2.7 10 2.1 22.6 6.2 25.4 13.6.8 2 1.2 5.3-1.6 9.2-5.3 7.4-13.2 4.6-19.6 2.4-2.1-.7-4.1-1.4-5.9-1.8-3-.6-6.3-1.2-9.2-1.6 7.4 4.5 17.9 12.2 19.6 20.3.7 3.4-.1 6.5-2.5 9.3-2.8 3.3-6.7 4.6-11.5 3.8-.2 3.2-1.9 6-4.9 8.3-3.8 2.8-8.6 3.8-14.4 3 .3 3.4-1.1 5.4-2.6 6.6-6.6 5.4-16.6.1-24.3-5.8-2.3 2.7-6.3 5.5-12.8 6.2-1.3.1-2.6.2-3.8.1l-13 10.9c-5.4 4.2-12.1 6.6-18.9 6.6zm82.6-89.6c-15.4 0-29.7 3.4-33.2 4.3-3 .8-25.7 12.9-62.1 33.2-6.2 3.4-10.6 9.1-12.5 15.9s-.9 13.9 2.6 20c3.9 6.7 10.5 11.3 18.1 12.6s15.4-.8 21.3-5.7l13.5-11.4c.3-.3.8-.4 1.2-.4 1.2.1 2.5.1 3.8 0 5.1-.6 9-2.6 11.6-6.2.3-.4.7-.6 1.1-.7s.9.1 1.2.3c5.7 4.5 16 11.4 21.5 6.8 1-.8 2.1-2.2 1-5.7-.2-.6 0-1.2.4-1.6s1-.6 1.5-.5c5.9 1.3 10.6.7 14.2-2 2.8-2.1 3.9-4.5 3.6-7.5-.1-.5.1-1.1.6-1.4.4-.3 1-.5 1.5-.3 4.6 1.2 8 .5 10.3-2.3 1.7-2 2.3-4.1 1.8-6.5-2.3-10.8-24.9-22-25.1-22.1-.7-.3-1.1-1.1-.8-1.9.2-.8.9-1.2 1.7-1.2.1 0 9.7.9 17.7 2.6 2.1.4 4.2 1.2 6.3 1.9 7.4 2.6 12.2 3.9 15.9-1.2 1.6-2.2 2-4.2 1.2-6.1-1.8-4.6-10.2-8.8-23.1-11.6-5.5-.9-11.2-1.3-16.8-1.3z"/><path d="M287.6 410.3c-.5 0-1-.2-1.3-.7-7.3-10.4-24.1-21.2-24.3-21.3-.8-.5-1-1.5-.5-2.2.5-.8 1.5-1 2.2-.5s17.6 11.3 25.2 22.2c.5.7.3 1.7-.4 2.3-.3.1-.6.2-.9.2zm19.7-11.2c-.5 0-1-.3-1.4-.7-7.6-11.7-28.9-22.3-30.9-22.9-.8-.1-1.4-.8-1.4-1.6a1.58 1.58 0 0 1 1.6-1.6c1.9 0 25 11.5 33.4 24.3.5.7.3 1.7-.5 2.2-.2.2-.5.3-.8.3zm-11.9-33.9a1.93 1.93 0 0 1-1-.3s-4.6-3.5-7.4-4.5c-.8-.3-1.3-1.2-1-2.1.3-.8 1.2-1.3 2.1-1 3.3 1.2 8.1 4.8 8.3 5 .7.5.8 1.6.3 2.3-.3.3-.8.6-1.3.6zm-12-113.2c-.7 0-1.4-.5-1.6-1.2l-3.6-13.7c-.2-.9.3-1.7 1.1-2 .9-.2 1.7.3 2 1.1l3.6 13.7c.2.9-.3 1.7-1.1 2-.1.1-.3.1-.4.1z"/><path d="M317.9 405.4c-.1-1 0-1.9.2-2.9l13.3-72.1c1-5.5 5.8-9.5 11.4-9.5h121.4c7.2 0 12.7 6.6 11.4 13.7l-13.3 72.1c-1 5.5-5.8 9.5-11.4 9.5h-7.1-114.4-76.3c-3 0-5.4-2.4-5.4-5.4s2.4-5.4 5.4-5.4h64.8z" class="E"/><path d="M450.8 417.8H253.1c-3.9 0-7-3.1-7-7s3.1-7 7-7h63.1c0-.5.1-1.1.2-1.6l13.3-72.1c1.2-6.3 6.6-10.8 13-10.8h121.4c3.9 0 7.6 1.7 10.2 4.8 2.5 3 3.6 7 2.8 10.8L463.8 407c-1.2 6.2-6.6 10.8-13 10.8zM253.1 407a3.8 3.8 0 1 0 0 7.6h197.6c4.8 0 8.9-3.4 9.8-8.2l13.3-72.1c.5-2.9-.2-5.9-2.1-8.2s-4.7-3.6-7.7-3.6H342.7c-4.8 0-8.9 3.4-9.8 8.2l-13.3 72.1c-.1.8-.2 1.6-.1 2.5 0 .4-.1.9-.4 1.2s-.7.5-1.2.5h-64.8z"/><circle cx="396.7" cy="368.5" r="14.3" class="F"/><path d="M619.9 473l-107.4-84.1c-34.4-27-81.7-30.5-119.7-9l-127.5 72.2-65.4 24.5c9.4 33.3 37.6 54 73.9 52.1.5 0 1-.1 1.5-.1 40-2.7 97.8-30.3 119.5-41.3l73.5 155.9 138.4-38.5-30.5-60.6c7.3-14.7 43.7-71.1 43.7-71.1z" class="E"/><path d="M468.2 644.9c-.6 0-1.2-.4-1.5-.9L394 489.5c-23.7 12-79.5 38.1-118.7 40.7-.5 0-1 .1-1.5.1-18.1.9-34.7-3.6-48.1-13.1-13.2-9.4-22.7-23.3-27.5-40.1-.2-.8.2-1.7 1.1-2 4.1-1.4 62.2-23.3 65.2-24.4L392 378.6c38.8-21.9 86.5-18.4 121.5 9.1l107.4 84.1c.7.5.8 1.4.4 2.1-.4.6-35.3 54.7-43.3 70.2l30.1 59.9c.2.4.2.9 0 1.4-.2.4-.6.8-1 .9l-138.4 38.5c-.2.1-.3.1-.5.1zm-73.4-159.2c.2 0 .4 0 .5.1.4.1.8.4.9.8l72.9 154.7 135.2-37.6-29.6-58.9a1.95 1.95 0 0 1 0-1.5c6.8-13.6 37.6-61.4 43.1-70l-106.2-83.2c-34-26.7-80.3-30.1-117.9-8.8l-127.5 72.2c-.1 0-.1.1-.2.1l-64 24c9.7 32.3 37.1 51.3 71.8 49.4.5 0 1-.1 1.5-.1 39.4-2.6 96.3-29.6 118.9-41.1.1 0 .3-.1.6-.1z"/><path d="M576.1 545.7c-.6 0-1.2-.3-1.4-.9L550 495.9c-17.4-34.5-58.6-49.3-94-33.8l-60.6 26.7c-.8.4-1.8 0-2.1-.8-.4-.8 0-1.8.8-2.1l60.6-26.7c36.9-16.2 80-.7 98.2 35.3l24.6 48.9c.4.8.1 1.8-.7 2.2-.2 0-.4.1-.7.1z"/><path d="M167.3 518.5s72.1-39.8 173.9 7.3l3 18.3-175.5 5.7-1.4-31.3z" class="F"/><path d="M341.2 527.3c-.2 0-.5 0-.7-.1-52.1-24.1-96.2-24.8-124-21.2-30.1 4-48.2 13.7-48.4 13.8-.8.4-1.8.1-2.2-.6-.4-.8-.1-1.8.6-2.2s18.6-10.1 49.3-14.2c28.3-3.7 73.1-3.1 126 21.4.8.4 1.2 1.3.8 2.1-.3.7-.8 1-1.4 1zM43.5 608.1h157.7v28.3H43.5z"/><path d="M36.6 664.6h167v28.3h-167z" fill="#ff9d00"/><path d="M65.3 567.7c0 8.7 7.1 15.8 15.8 15.8 5 0 9.5-2.3 12.4-6l3.2 24.7c.4 3.4 3.3 5.9 6.7 5.9h33.5c3.4 0 6.3-2.5 6.7-5.9l7.1-55.3c.5-4.1-2.6-7.6-6.7-7.6H96.3c-4.1 0-7.2 3.6-6.7 7.6l1.1 8.3c-2.6-2-5.9-3.2-9.5-3.2a15.71 15.71 0 0 0-15.9 15.7zm9.2 0c0-3.7 3-6.6 6.6-6.6 3.7 0 6.6 3 6.6 6.6s-3 6.6-6.6 6.6-6.6-2.9-6.6-6.6z" class="E"/><path d="M136.8 609.7h-33.5c-4.2 0-7.8-3.2-8.3-7.3L92.3 581c-3.1 2.6-7 4.1-11.2 4.1-9.6 0-17.4-7.8-17.4-17.4s7.8-17.4 17.4-17.4a17.52 17.52 0 0 1 7.5 1.7l-.6-4.9c-.3-2.4.4-4.8 2-6.6s3.9-2.8 6.3-2.8h47.6c2.4 0 4.7 1 6.3 2.8s2.3 4.2 2 6.6l-7.1 55.3c-.5 4.2-4 7.3-8.3 7.3zm-43.3-33.8c.1 0 .3 0 .4.1.6.2 1.1.7 1.2 1.4l3.2 24.7c.3 2.6 2.5 4.5 5.1 4.5h33.5c2.6 0 4.8-1.9 5.1-4.5l7.1-55.3c.2-1.5-.3-3-1.2-4.1-1-1.1-2.4-1.8-3.9-1.8H96.3c-1.5 0-2.9.6-3.9 1.8-1 1.1-1.4 2.6-1.2 4.1l1.1 8.3c.1.6-.2 1.3-.8 1.6s-1.3.3-1.8-.1c-2.5-1.9-5.4-2.9-8.5-2.9-7.8 0-14.2 6.4-14.2 14.2s6.4 14.2 14.2 14.2c4.4 0 8.4-2 11.1-5.4.2-.6.7-.8 1.2-.8zm-12.4 0a8.24 8.24 0 0 1-8.2-8.2 8.24 8.24 0 0 1 8.2-8.2 8.24 8.24 0 0 1 8.2 8.2c0 4.5-3.6 8.2-8.2 8.2zm0-13.2a4.95 4.95 0 1 0 0 10 4.95 4.95 0 1 0 0-10z"/><path d="M61.9 608.1h16.7v28.3H61.9z" class="F"/><path d="M21.4 636.4h167v28.3h-167z" class="E"/><path d="M188.4 666.3h-167a1.58 1.58 0 0 1-1.6-1.6v-28.3a1.58 1.58 0 0 1 1.6-1.6h167a1.58 1.58 0 0 1 1.6 1.6v28.3c0 .8-.7 1.6-1.6 1.6zM23 663h163.8v-25H23v25zm99.4-13.7H43.5a1.6 1.6 0 1 1 0-3.2h78.9a1.58 1.58 0 0 1 1.6 1.6c0 .8-.7 1.6-1.6 1.6zm22.7 7.9h-31.2a1.6 1.6 0 1 1 0-3.2h31.2a1.6 1.6 0 1 1 0 3.2z"/><path d="M199.9 377.1c-.8 0-1.5-.6-1.6-1.5l-3.3-40.9c-.1-.9.6-1.7 1.5-1.7.9-.1 1.7.6 1.7 1.5l3.3 40.9c.1.9-.6 1.7-1.5 1.7h-.1z" class="E"/><defs><path id="A" d="M860.3 692.9h-79.7l-10.3-124.1h100.3z"/></defs><clipPath id="B"><use xlink:href="#A"/></clipPath><g clip-path="url(#B)" class="E"><path d="M863 662.3c-.2 0-.3 0-.5-.1-.7-.2-17.7-5.7-21.8-32.9-5.2-35.5 27.3-66.5 28.7-67.8.7-.6 1.7-.6 2.3.1s.6 1.7-.1 2.3c-.3.3-32.7 31.1-27.7 64.9 3.7 25 18.9 30 19.5 30.2.8.3 1.3 1.2 1.1 2s-.8 1.3-1.5 1.3zm-31.3 37.5c-.8 0-1.5-.6-1.6-1.5-7.6-82.1-22.4-94.8-30.9-94.8h-.4c-21.4 1.1-27.3 38.8-27.4 39.2-.1.9-1 1.5-1.8 1.4-.9-.1-1.5-1-1.4-1.8.2-1.7 6.4-40.7 30.4-41.9h.6c16.6 0 28.1 32.9 34 97.8.1.9-.6 1.7-1.5 1.8.1-.2 0-.2 0-.2zm-24.5-105.3c-21.8 0-43.6-23.5-44.6-24.6-.6-.7-.6-1.7.1-2.3s1.7-.6 2.3.1c.3.3 27.3 29.4 49.5 22.4 22.3-7 28.6-37.7 28.6-38.1.2-.9 1-1.5 1.9-1.3s1.4 1 1.3 1.9c-.3 1.3-6.7 32.9-30.8 40.5-2.7 1-5.5 1.4-8.3 1.4z"/></g><path d="M899.7 694.5H1.6a1.6 1.6 0 1 1 0-3.2h898.1a1.6 1.6 0 1 1 0 3.2zM750.4 111.1h-178c-.6 0-1.1-.3-1.4-.8s-.3-1.1 0-1.6c.8-1.4 19.8-33.8 50.6-39.2 18.7-3.3 30.7 3.9 34.9 7.1 2.2-4.2 8.3-14.8 20-24.8 13.6-11.7 37.4-24.8 74-20.7.8.1 1.4.8 1.4 1.6v76.8c.1.9-.6 1.6-1.5 1.6zm-175.1-3.2h173.4V34.2c-34.5-3.5-57.1 8.9-70 19.9-14.2 12.2-20.1 25.5-20.2 25.7-.2.5-.6.8-1.2.9a1.69 1.69 0 0 1-1.4-.4c-.2-.2-12.3-11.3-33.8-7.6-24.5 4.3-41.7 27.6-46.8 35.2zm37.9 128H503.4a1.6 1.6 0 1 1 0-3.2h107.4c-2.9-6.1-12.2-22.5-28.2-22.5-19.7 0-28.2 12.8-28.5 13.4-.3.5-.9.8-1.5.7a1.63 1.63 0 0 1-1.3-1.1c-15-42.3-45.8-34.1-47.1-33.7-.9.2-1.8-.3-2-1.1-.2-.9.3-1.8 1.1-2 .3-.1 33.6-9 50.1 33 3.7-4.2 13-12.5 29.4-12.5 21.8 0 31.8 25.7 32.2 26.8.2.5.1 1.1-.2 1.5-.5.4-1 .7-1.6.7zm20.2 186.2c-12 0-21.7-9.8-21.7-21.7 0-12 9.8-21.7 21.7-21.7 12 0 21.7 9.8 21.7 21.7 0 12-9.7 21.7-21.7 21.7zm0-40.2c-10.2 0-18.5 8.3-18.5 18.5s8.3 18.5 18.5 18.5 18.5-8.3 18.5-18.5-8.3-18.5-18.5-18.5zM267.2 154.3c-.4 0-.8-.2-1.1-.5l-22.4-22.4c-.6-.6-.6-1.7 0-2.3s1.7-.6 2.3 0l22.4 22.4c.6.6.6 1.7 0 2.3a1.58 1.58 0 0 1-1.2.5z"/><path d="M244.7 154.3c-.4 0-.8-.2-1.1-.5-.6-.6-.6-1.7 0-2.3l22.4-22.4c.6-.6 1.7-.6 2.3 0s.6 1.7 0 2.3l-22.4 22.4a1.58 1.58 0 0 1-1.2.5z"/></svg>