<?xml version="1.0" encoding="UTF-8"?>
<svg viewBox="0 0 87.4 42.5" xmlns="http://www.w3.org/2000/svg">
<style type="text/css">.st0{fill:#EE2E24;}</style>
<path class="st0" d="m43.5 18c0.5-5.2 3.3-8.2 3.3-11.2 0-2.2-0.8-4-3.3-6.8-2.5 2.8-3.3 4.7-3.3 6.8-0.1 3 2.7 6 3.3 11.2"/>
<path class="st0" d="m38 17.3c-1.3 1.2-3.9 0.4-3.9-2.4 0-1.6 1.7-3 3.3-3 3.2 0 4.7 3.4 4.7 5 0.1 1.2-0.5 3.2-2.6 3.2 1-0.5 1.3-1.6 1.2-2.5-0.1-1-0.7-2.3-2.1-2.3-0.8 0-1.3 0.5-1.3 1 0 0.6 0.3 1 0.7 1"/>
<path class="st0" d="m48.9 17.3c1.3 1.2 3.9 0.4 3.9-2.4 0-1.6-1.7-3-3.3-3-3.2 0-4.7 3.4-4.7 5-0.1 1.2 0.5 3.2 2.6 3.2-1-0.5-1.3-1.6-1.2-2.5 0.1-1 0.7-2.3 2.1-2.3 0.8 0 1.3 0.5 1.3 1 0 0.6-0.2 1-0.7 1"/>
<rect x="18.4" y="25.6" width="2.4" height="16.7"/>
<polyline points="14.7 42.3 12.3 42.3 12.3 35 2.4 35 2.4 42.3 0 42.3 0 25.6 2.4 25.6 2.4 32.8 12.3 32.8 12.3 25.6 14.7 25.6 14.7 42.3"/>
<polyline points="80.3 33.6 87.4 42.3 84.5 42.3 78.8 35.4 73.1 42.3 70.2 42.3 77.4 33.6 70.7 25.6 73.6 25.6 78.8 31.9 84 25.6 86.9 25.6 80.3 33.6"/>
<path d="m62 25.4c5.5 0 9 3.9 9 8.6 0 4.5-3.4 8.6-9 8.6-5.5 0-8.9-4-8.9-8.6-0.1-4.7 3.5-8.6 8.9-8.6m0 14.9c3.7 0 6.5-2.7 6.5-6.4s-2.8-6.4-6.5-6.4-6.5 2.7-6.5 6.4 2.8 6.4 6.5 6.4z"/>
<path d="m50.8 38.1c-1.2 1.4-3 2.2-5.1 2.2-3.7 0-6.5-2.7-6.5-6.4s2.8-6.4 6.5-6.4c2 0 3.8 0.8 5 2.1l1.3-2.1c-1.5-1.4-3.7-2.2-6.2-2.2-5.4 0-9 3.9-9 8.6 0 4.5 3.5 8.6 8.9 8.6 2.7 0 4.8-0.9 6.4-2.3l-1.3-2.1"/>
<path d="m33.8 28.7c-1.3-1.1-3-1.4-4.1-1.4-1.7 0-3.2 0.8-3.2 2.2 0 3.2 8.5 3.2 8.5 8.5 0 3.5-3.5 4.6-6.3 4.5-1.8-0.1-3.2-0.5-4.7-1.4v-2.4c1.5 0.9 2.8 1.4 4.4 1.6 1.7 0.1 4.2-0.3 4.2-2.3 0-3.5-8.6-3.6-8.6-8.1 0-2.7 2.4-4.5 5.3-4.5 1.9 0 3.2 0.4 4.4 1.1l0.1 2.2"/>
</svg>
