<svg xmlns="http://www.w3.org/2000/svg" viewBox="0 0 811 815" xmlns:v="https://vecta.io/nano"><style><![CDATA[.G{fill:#fff}.H{fill:#377fea}.I{fill:#ff9d00}]]></style><path d="M766.1 615.7h0 0zM336 144.5c-.6 0-1.2-.4-1.4-.9-.3-.8.1-1.6.8-1.9C369.7 128 405.7 121 442.5 121h4.7a1.54 1.54 0 0 1 1.5 1.5 1.54 1.54 0 0 1-1.5 1.5h-4.6c-36.4 0-72 6.9-106 20.5h-.6zm246.1 15.8c-.2 0-.5-.1-.7-.2-28.2-15.7-58.6-26.5-90.4-32-.8-.1-1.4-.9-1.2-1.7.1-.8.9-1.4 1.7-1.2 32.2 5.6 62.9 16.4 91.4 32.3.7.4 1 1.3.6 2-.4.5-.9.8-1.4.8z"/><path d="M596.8 169c-.3 0-.6-.1-.8-.2-4.8-3-9.7-6-14.6-8.7-.7-.4-1-1.3-.6-2s1.3-1 2-.6c5 2.8 10 5.7 14.8 8.8.7.4.9 1.4.5 2.1-.3.4-.8.6-1.3.6z"/><path d="M73.1 451.8c0-56.7 45-102.8 101.2-104.7C202.5 225 311.9 133.9 442.5 133.9c135.3 0 247.7 97.6 270.9 226.2 54.1 5.5 96.3 51.2 96.3 106.7v.7c-.2 36.3-30 65.5-66.3 65.5H154.8c-43.9 0-80.5-34.7-81.6-78.6-.1-.8-.1-1.7-.1-2.6z" class="I"/><path d="M743.4 534.5H154.8c-21.7 0-42.2-8.3-57.9-23.2-15.7-15.1-24.7-35.2-25.2-56.8v-2.8c0-27.8 10.6-54 29.9-73.9 19-19.6 44.4-31 71.5-32.3 14-59.5 48-113.5 95.9-152.1 24.1-19.4 51-34.5 79.9-44.9 30-10.8 61.4-16.2 93.6-16.2 65.3 0 128.7 23.2 178.4 65.2 48.9 41.3 82.2 98.5 93.7 161.1 26.2 2.9 50.4 15.3 68.3 35 18.2 20.1 28.3 46 28.3 73.2v.8c-.3 36.9-30.7 66.9-67.8 66.9zM442.5 135.4c-128.3 0-238 87.2-266.8 212l-.3 1.1h-1.2c-55.9 1.9-99.7 47.3-99.7 103.2v2.7c1.1 42.5 37 77.1 80.1 77.1h588.6c35.5 0 64.6-28.7 64.8-64v-.7c0-54.5-40.8-99.8-95-105.3l-1.1-.1-.2-1.1c-23.3-130.4-136.6-224.9-269.2-224.9z"/><path d="M181.2 761c9.6-7.9 19.7-15.2 30.1-22.2 21-14.2 43.1-26.9 65.5-39.2 11.8-6.5 24-12.3 36-18.3l36.5-18 33.3-16.5c25.2-85.3 52.6-182 47.2-182L16.1 453.2c-9.7 0-16.3 7.9-14.6 17.7l50.1 285.8c1.7 9.7 11 17.7 20.8 17.7h92c5.5-4.7 11.3-8.9 16.8-13.4z"/><path d="M164.5 775.8h-92c-10.4 0-20.4-8.5-22.2-18.9L.1 471.1c-.9-5.2.3-10.1 3.4-13.8 3-3.6 7.5-5.6 12.6-5.6l413.7 11.7c.6 0 1.1.3 1.5.8 1.3 1.8 4.9 6.6-47.3 183.1-.1.4-.4.7-.8.9l-33.3 16.5-36.5 18c-2.7 1.4-5.5 2.7-8.2 4.1-9.2 4.5-18.7 9.3-27.8 14.2-19.9 10.9-43.3 24.2-65.4 39.1-11.3 7.7-21.1 14.9-30 22.1h0c-2.4 2-4.9 3.9-7.3 5.8-3.1 2.4-6.3 4.9-9.3 7.5-.2.2-.6.3-.9.3zM16.1 454.7c-4.2 0-7.8 1.6-10.3 4.5-2.5 3-3.5 7-2.7 11.4l50.1 285.8c1.6 9.1 10.2 16.4 19.3 16.4H164c2.9-2.5 6-4.9 9-7.2l7.3-5.8h0c8.9-7.3 18.8-14.6 30.2-22.3 22.2-15 45.6-28.3 65.6-39.2 9.1-5 18.7-9.7 27.9-14.3a313.25 313.25 0 0 0 8.2-4.1l36.5-18 32.7-16.2C425.1 498 429.6 470.6 429 466.3L16.1 454.7zm413.6 11.7h0z"/><path d="M441.5 454.2H24.7c-9.2 0-15.4 7.5-13.7 16.7l50.1 285.8c1.6 9.2 10.4 16.7 19.6 16.7h416.8c9.2 0 15.4-7.5 13.7-16.7l-50.1-285.8c-1.6-9.2-10.4-16.7-19.6-16.7z" class="G"/><path d="M497.5 774.8H80.7c-9.9 0-19.3-8-21.1-17.9L9.5 471.1c-.9-4.9.3-9.6 3.2-13.1 2.9-3.4 7.1-5.3 12-5.3h416.8c9.9 0 19.3 8 21.1 17.9l50.1 285.8c.9 4.9-.3 9.6-3.2 13.1-2.9 3.4-7.1 5.3-12 5.3zM24.7 455.7c-4 0-7.4 1.5-9.7 4.3-2.4 2.8-3.3 6.6-2.6 10.6l50.1 285.8c1.5 8.5 9.6 15.4 18.1 15.4h416.8c4 0 7.4-1.5 9.7-4.3 2.4-2.8 3.3-6.6 2.6-10.6l-50.1-285.8c-1.5-8.5-9.6-15.4-18.1-15.4H24.7z"/><path d="M249.4 774.6H79.2c-6.9 0-12.4 5.6-12.4 12.4 0 6.9 5.6 12.4 12.4 12.4h175.3c6.9.1-5.1-24.8-5.1-24.8z"/><path d="M254.5 801H79.2c-7.7 0-13.9-6.3-13.9-13.9s6.3-13.9 13.9-13.9h170.2c.6 0 1.1.3 1.4.9 2.3 4.8 9.6 20.8 6.6 25.5-.6.8-1.7 1.4-2.9 1.4zM79.2 776.1A10.93 10.93 0 0 0 68.3 787c0 6 4.9 11 10.9 11h175.3c.3 0 .3-.1.4-.1 1.4-2.2-2.2-12.8-6.4-21.7H79.2z"/><path d="M594.1 774.6H192.4c-6.9 0-12.4 5.6-12.4 12.4 0 6.9 5.6 12.4 12.4 12.4h401.7c6.9 0 12.4-5.6 12.4-12.4s-5.6-12.4-12.4-12.4z" class="H"/><path d="M594.1,801H192.4c-7.7,0-13.9-6.3-13.9-13.9s6.3-13.9,13.9-13.9h401.7c7.7,0,13.9,6.3,13.9,13.9S601.7,801,594.1,801z        M192.4,776.1c-6,0-10.9,4.9-10.9,10.9s4.9,10.9,10.9,10.9h401.7c6,0,10.9-4.9,10.9-10.9s-4.9-10.9-10.9-10.9H192.4z"/><path d="M431.8 478.1h-389c-4 0-6.7 3.3-6 7.3l.9 5.4c.7 4 4.6 7.3 8.6 7.3h388.9c4 0 6.7-3.3 6-7.3l-.9-5.4c-.7-4.1-4.5-7.3-8.5-7.3z" class="I"/><path d="M431.6 488.1c.5 2.7-1.3 4.8-4 4.8s-5.2-2.2-5.7-4.8c-.5-2.7 1.3-4.8 4-4.8s5.3 2.1 5.7 4.8z" class="G"/><path d="M216.5 742.7c-3.6 0-7.2-.2-10.8-.5-.8-.1-1.4-.8-1.4-1.6.1-.8.8-1.4 1.6-1.4 3.9.4 7.9.5 11.8.5a1.54 1.54 0 0 1 1.5 1.5 1.54 1.54 0 0 1-1.5 1.5h-1.2zm13.3-.8a1.6 1.6 0 0 1-1.5-1.3c-.1-.8.5-1.6 1.3-1.7 3.9-.5 7.9-1.2 11.6-2.1.8-.2 1.6.3 1.8 1.1s-.3 1.6-1.1 1.8c-3.9.9-7.9 1.7-12 2.1 0 .1 0 .1-.1.1zm-35.8-1.4h-.3c-3.9-.8-7.9-1.7-11.8-2.8-.8-.2-1.3-1.1-1-1.9.2-.8 1.1-1.3 1.9-1 3.8 1.1 7.7 2 11.5 2.8.8.2 1.3.9 1.2 1.8-.2.6-.8 1.1-1.5 1.1zm59.1-4.2c-.6 0-1.2-.4-1.4-1-.3-.8.1-1.6.9-1.9 3.7-1.4 7.3-3 10.8-4.8.7-.4 1.6-.1 2 .6s.1 1.6-.6 2c-3.6 1.9-7.3 3.6-11.1 5-.3 0-.5.1-.6.1zm-82.1-2.5c-.2 0-.4 0-.5-.1-3.7-1.5-7.5-3.1-11.1-4.9-.7-.4-1-1.3-.7-2 .4-.7 1.3-1 2-.7 3.5 1.8 7.2 3.4 10.8 4.8.8.3 1.2 1.2.8 1.9-.2.7-.7 1-1.3 1zm103.2-8.8c-.5 0-.9-.2-1.2-.6-.5-.7-.3-1.6.3-2.1 3.2-2.3 6.3-4.8 9.1-7.5.6-.6 1.6-.5 2.1.1.6.6.5 1.6-.1 2.1-2.9 2.8-6.1 5.4-9.4 7.8-.2.1-.5.2-.8.2zm-124.7-1.8c-.3 0-.5-.1-.8-.2-3.4-2.1-6.8-4.3-10.1-6.7-.7-.5-.8-1.4-.3-2.1s1.4-.8 2.1-.3c3.2 2.3 6.5 4.5 9.9 6.6.7.4.9 1.4.5 2.1-.3.3-.8.6-1.3.6zm-19.4-14.1c-.3 0-.7-.1-1-.4-3.1-2.6-6-5.4-8.9-8.3-.6-.6-.6-1.5 0-2.1s1.5-.6 2.1 0c2.8 2.8 5.7 5.5 8.7 8.1.6.5.7 1.5.2 2.1-.3.5-.7.6-1.1.6zm161.5-.5c-.3 0-.7-.1-.9-.3-.6-.5-.7-1.5-.2-2.1 2.4-3 4.7-6.3 6.7-9.7.4-.7 1.4-.9 2.1-.5s.9 1.3.5 2.1c-2.1 3.5-4.4 6.8-7 10-.4.3-.8.5-1.2.5zm-178.4-16.5c-.4 0-.9-.2-1.1-.5-2.6-3.1-5.1-6.3-7.4-9.6-.5-.7-.3-1.6.4-2.1s1.6-.3 2.1.4c2.3 3.2 4.7 6.4 7.3 9.4.5.6.5 1.6-.2 2.1-.4.2-.8.3-1.1.3zm190.7-4c-.2 0-.4 0-.6-.1-.8-.3-1.1-1.2-.8-2 1.5-3.6 2.9-7.3 4-11.1.2-.8 1.1-1.3 1.9-1 .8.2 1.3 1.1 1 1.9-1.1 3.9-2.5 7.8-4.1 11.5-.3.5-.8.8-1.4.8zM99.3 672.6c-.5 0-1-.3-1.3-.7-2.1-3.5-4-7.1-5.7-10.7-.4-.7 0-1.6.7-2s1.6 0 2 .7c1.7 3.5 3.6 7.1 5.6 10.5.4.7.2 1.6-.5 2.1-.2 0-.5.1-.8.1zm211.2-7.5h-.2c-.8-.1-1.4-.9-1.2-1.7.6-3.8 1-7.8 1.1-11.8 0-.8.7-1.5 1.6-1.4.8 0 1.5.7 1.4 1.6-.2 4.1-.6 8.2-1.2 12.1-.1.7-.8 1.2-1.5 1.2zM89 650.9c-.6 0-1.2-.4-1.4-1-1.4-3.8-2.6-7.7-3.7-11.6-.2-.8.3-1.6 1.1-1.8s1.6.3 1.8 1.1c1 3.8 2.2 7.6 3.6 11.3.3.8-.1 1.6-.9 1.9-.1.1-.3.1-.5.1zm222.5-9.7c-.8 0-1.4-.6-1.5-1.4a122.82 122.82 0 0 0-1.5-11.8c-.1-.8.4-1.6 1.2-1.7s1.6.4 1.7 1.2c.7 4 1.2 8.1 1.5 12.1.1.8-.6 1.5-1.4 1.6zM82.9 627.7c-.7 0-1.4-.5-1.5-1.3-.7-4-1.1-8.1-1.3-12.1 0-.8.6-1.5 1.4-1.6s1.5.6 1.6 1.4c.2 3.9.7 7.8 1.3 11.8.1.8-.4 1.6-1.2 1.7-.1.1-.2.1-.3.1zm225.2-7.2c-.7 0-1.3-.5-1.5-1.1-1-3.8-2.1-7.6-3.4-11.3-.3-.8.1-1.6.9-1.9s1.6.1 1.9.9c1.4 3.8 2.5 7.7 3.5 11.6.2.8-.3 1.6-1.1 1.8h-.3zM81.6 603.8s-.1 0 0 0c-.9 0-1.5-.8-1.5-1.6.2-4.1.7-8.1 1.4-12.1.1-.8.9-1.4 1.7-1.2.8.1 1.4.9 1.2 1.7-.7 3.8-1.1 7.8-1.3 11.7-.1.9-.7 1.5-1.5 1.5zm218.5-5.8c-.6 0-1.1-.3-1.4-.9-1.6-3.6-3.5-7.1-5.4-10.5-.4-.7-.2-1.6.6-2 .7-.4 1.6-.2 2 .6 2 3.5 3.9 7.1 5.6 10.8a1.59 1.59 0 0 1-.7 2c-.2-.1-.4 0-.7 0zM85.7 580.3c-.1 0-.3 0-.4-.1-.8-.2-1.2-1.1-1-1.9 1.2-3.9 2.6-7.7 4.3-11.4.3-.8 1.2-1.1 2-.7.8.3 1.1 1.2.7 2-1.6 3.5-3 7.3-4.2 11-.2.6-.8 1.1-1.4 1.1zm202.5-3.1c-.5 0-.9-.2-1.2-.6-2.2-3.2-4.6-6.4-7.2-9.5-.5-.6-.4-1.6.2-2.1s1.6-.4 2.1.2c2.6 3.1 5 6.4 7.3 9.7.5.7.3 1.6-.4 2.1-.2.1-.5.2-.8.2zM273 558.7c-.4 0-.8-.2-1.1-.5-2.7-2.8-5.6-5.6-8.6-8.2-.6-.5-.7-1.5-.1-2.1.5-.6 1.5-.7 2.1-.1 3 2.7 6 5.5 8.8 8.3.6.6.6 1.5 0 2.1-.4.3-.7.5-1.1.5zm-177.4-.2c-.3 0-.5-.1-.8-.2-.7-.4-.9-1.4-.5-2.1 2.2-3.4 4.6-6.8 7.1-9.9.5-.6 1.5-.7 2.1-.2s.7 1.5.2 2.1c-2.5 3-4.8 6.2-6.9 9.5a1.3 1.3 0 0 1-1.2.8zm159.3-15.6c-.3 0-.6-.1-.9-.3-3.2-2.4-6.5-4.6-9.8-6.7-.7-.4-.9-1.4-.5-2.1s1.4-.9 2.1-.5c3.4 2.1 6.8 4.4 10 6.8.7.5.8 1.4.3 2.1-.3.5-.7.7-1.2.7zm-144-2.8c-.4 0-.8-.2-1.1-.5-.6-.6-.5-1.6.1-2.1 3-2.7 6.2-5.3 9.5-7.6.7-.5 1.6-.3 2.1.4s.3 1.6-.4 2.1c-3.2 2.2-6.3 4.7-9.2 7.3-.3.3-.7.4-1 .4zm123.7-9.9c-.2 0-.5-.1-.7-.2-3.5-1.8-7.2-3.5-10.8-4.9-.8-.3-1.1-1.2-.8-2s1.2-1.1 2-.8c3.7 1.5 7.4 3.2 11 5 .7.4 1 1.3.7 2-.4.6-.9.9-1.4.9zm-104-3.7c-.5 0-1.1-.3-1.3-.8-.4-.7-.1-1.6.7-2a101.96 101.96 0 0 1 11.2-4.8c.8-.3 1.6.1 1.9.9s-.1 1.6-.9 1.9c-3.7 1.3-7.4 2.9-10.8 4.7-.4 0-.6.1-.8.1zm81.7-5.2c-.1 0-.3 0-.4-.1-3.8-1.2-7.7-2.1-11.5-2.9-.8-.2-1.3-1-1.2-1.8.2-.8 1-1.3 1.8-1.2 3.9.8 7.9 1.8 11.8 3 .8.2 1.2 1.1 1 1.9-.2.6-.8 1.1-1.5 1.1zm-59.2-2.9c-.7 0-1.3-.5-1.5-1.2-.2-.8.3-1.6 1.1-1.8 3.9-.9 7.9-1.5 12-2 .8-.1 1.6.5 1.6 1.3.1.8-.5 1.6-1.3 1.6-4 .4-7.9 1.1-11.7 1.9 0 .2-.1.2-.2.2zm35.8-1.9h-.2a116.56 116.56 0 0 0-11.8-.6 1.54 1.54 0 0 1-1.5-1.5 1.54 1.54 0 0 1 1.5-1.5c4 0 8.1.2 12.1.6.8.1 1.4.8 1.3 1.6 0 .8-.7 1.4-1.4 1.4z"/><path d="M179.6 530.9c-53.5 0-89.3 43.4-79.9 96.9s60.4 96.9 113.9 96.9 89.3-43.4 79.9-96.9-60.4-96.9-113.9-96.9zm30.8 175.6c-43.5 0-84.9-35.3-92.6-78.8-7.6-43.5 21.4-78.8 64.9-78.8s84.9 35.3 92.6 78.8c7.7 43.6-21.4 78.8-64.9 78.8z" fill="#caddff"/><path d="M129.5 574.1l-15.1-12.8c-3.6 4.6-6.6 9.7-9.1 15.2l17.3 9.1c1.9-4.1 4.3-7.9 6.9-11.5z" class="H"/><path d="M182.4 530.9l3.2 18.1c18.9.7 37.4 7.9 52.6 19.6l10.1-13.2c-19-14.6-42.1-23.8-65.9-24.5z" fill="#99b9ff"/><path d="M243 572.5c16.5 14.2 28.5 33.7 32.3 55.2 1.2 6.8 1.5 13.4 1 19.7l18.3 5.3c.7-8 .4-16.4-1.1-25-4.7-26.7-19.7-50.9-40.3-68.4L243 572.5z" class="H"/><path d="M263.7 681.4l15.1 12.8c7.8-10.2 13.1-22.4 15.2-36l-18.3-5.3c-1.8 10.7-5.9 20.4-12 28.5zM150.1 683c-16.5-14.2-28.5-33.7-32.3-55.2-2.4-13.5-1.2-26.2 2.8-37.3l-17.3-9.1c-5.1 13.8-6.6 29.6-3.7 46.4 4.7 26.7 19.7 50.9 40.3 68.4l10.2-13.2z" fill="#99b9ff"/><path d="M260.4 685.4c-11.2 12.5-27.6 20.4-47.1 21l3.2 18.1c24.5-.7 45.1-10.6 59-26.4l-15.1-12.7zM132.8 570.1c11.2-12.5 27.6-20.4 47.1-21l-3.2-18.1c-24.5.7-45.1 10.6-59 26.4l15.1 12.7zm77.9 154.5l-3.2-18.1c-18.9-.7-37.4-7.9-52.6-19.6l-10.1 13.2c19 14.7 42.2 23.8 65.9 24.5z" class="H"/><path d="M207.5 691.3c-8.1 0-16.3-1.5-24.3-4.5-.8-.3-1.2-1.2-.9-1.9.3-.8 1.2-1.2 1.9-.9 7.7 2.9 15.5 4.3 23.3 4.3 26.3 0 46.4-16.8 50.1-41.8.1-.8.9-1.4 1.7-1.3s1.4.9 1.3 1.7c-4 26.6-25.3 44.4-53.1 44.4zm46.9-76.6c-.6 0-1.1-.3-1.4-.9-2.2-5.2-5-10.2-8.4-15-.5-.7-.3-1.6.3-2.1.7-.5 1.6-.3 2.1.3 3.5 4.9 6.5 10.1 8.7 15.6.3.8 0 1.6-.8 2-.1.1-.3.1-.5.1zM165 676.8c-.3 0-.6-.1-.9-.3-16.5-12.1-27.8-29.7-31.1-48.5-3-17.2.9-33.3 11.1-45.4 10-11.9 24.7-18.4 41.6-18.4 6.6 0 13.3 1 19.9 3 .8.2 1.2 1.1 1 1.9s-1.1 1.2-1.9 1c-6.3-1.9-12.7-2.9-19-2.9-15.9 0-29.9 6.1-39.3 17.3-9.6 11.4-13.3 26.7-10.4 43 3.2 18 14.1 35 29.9 46.6.7.5.8 1.4.3 2.1-.3.4-.7.6-1.2.6z"/><path d="M259.7 73.8l21.7 164.1c8.4 63.4 43 120.5 95.4 157.2l50.7 35.6c12.9 9.1 30.2 8.6 42.7-1l44.3-34.4c47.7-37 78.8-91.4 86.5-151.2l22.1-170c2.2-17.2-8.6-33.3-25.3-37.8L487.5 6.4c-32.1-8.7-66-8.5-98.1.4L284.7 35.9c-16.6 4.6-27.2 20.8-25 37.9z" class="H"/><g class="G"><path d="M590.7 244.1h-.2c-.8-.1-1.4-.9-1.3-1.7l22.1-170c1.4-11.2-5.7-21.8-16.5-24.7-.8-.2-1.3-1-1.1-1.8s1-1.3 1.8-1.1c12.3 3.3 20.4 15.4 18.7 28l-22.1 170c0 .7-.7 1.3-1.4 1.3zM494.2 20.6c-.1 0-.3 0-.4-.1l-9.4-2.5c-30-8.1-61.9-7.9-91.8.4-.8.2-1.6-.2-1.8-1s.2-1.6 1-1.8c30.4-8.4 62.9-8.6 93.4-.4l9.4 2.5c.8.2 1.3 1 1.1 1.8-.2.6-.8 1.1-1.5 1.1zM289 217.3c-.7 0-1.4-.5-1.5-1.3l-19-143.4c-1.7-12.6 6.3-24.6 18.5-28l28.1-7.8c.8-.2 1.6.2 1.8 1s-.2 1.6-1 1.8l-28.1 7.8C277 50.4 270 61 271.4 72.2l19 143.4c.1.8-.5 1.6-1.3 1.7.1-.1 0 0-.1 0zm159.1 210.9c-5.6 0-10.9-1.7-15.5-4.9l-50.7-35.6c-10.1-7.1-19.6-15-28.3-23.7-.6-.6-.6-1.5 0-2.1s1.5-.6 2.1 0c8.6 8.6 18 16.4 28 23.4l50.7 35.6c4.1 2.8 8.8 4.4 13.8 4.4 5.4 0 10.5-1.7 14.7-5l44.3-34.4c.7-.5 1.6-.4 2.1.3s.4 1.6-.3 2.1l-44.3 34.4c-4.8 3.5-10.5 5.5-16.6 5.5z"/><circle cx="441.6" cy="189.1" r="92.4"/></g><path d="M436.5 252.9c-4.1 0-7.8-2.1-9.9-5.7l-38.5-65.3c-3.2-5.5-1.4-12.5 4.1-15.7s12.5-1.4 15.7 4.1l28.3 47.9 43.1-78.6c3-5.6 10-7.6 15.6-4.6s7.6 10 4.6 15.6L446.7 247a11.71 11.71 0 0 1-9.9 6c-.1-.1-.2-.1-.3-.1zm-236 33.9l-10.1 3.6 1.4 11.6c-2.2 1.3-4.3 2.7-6.2 4.3l-10.4-5.4-6.9 8.2 7.1 9.4c-1.2 2.2-2.3 4.4-3.2 6.8l-11.7.5-1.9 10.6 10.8 4.6a47.4 47.4 0 0 0 .6 7.5l-9.9 6.3 3.6 10.1 11.6-1.4c1.3 2.2 2.7 4.3 4.3 6.2l-5.4 10.4 8.2 6.9 9.4-7.1c2.2 1.2 4.4 2.3 6.8 3.2l.5 11.7 10.6 1.9 4.6-10.8a47.4 47.4 0 0 0 7.5-.6l6.3 9.9 10.1-3.6-1.4-11.6c2.2-1.3 4.3-2.7 6.2-4.3l10.4 5.4 6.9-8.2-7.1-9.4c1.2-2.2 2.3-4.4 3.2-6.8l11.7-.5 1.9-10.6-10.8-4.6a47.4 47.4 0 0 0-.6-7.5l9.9-6.3-3.6-10.1-11.6 1.4c-1.3-2.2-2.7-4.3-4.3-6.2l5.4-10.4-8.2-6.9-9.4 7.1c-2.2-1.2-4.4-2.3-6.8-3.2l-.5-11.7-10.6-1.9-4.6 10.8a47.4 47.4 0 0 0-7.5.6l-6.3-9.9zm39.8 44.8c5.2 14.4-2.3 30.2-16.7 35.4s-30.2-2.3-35.4-16.7 2.3-30.2 16.7-35.4c14.3-5.1 30.2 2.3 35.4 16.7z" class="H"/><path d="M207.4 402.9h-.3l-10.6-1.9c-.7-.1-1.2-.7-1.2-1.4l-.5-10.7c-1.8-.7-3.5-1.5-5.2-2.4L181 393c-.6.4-1.3.4-1.9-.1l-8.2-6.9c-.5-.5-.7-1.2-.4-1.8l5-9.5c-1.2-1.5-2.3-3.1-3.3-4.7l-10.7 1.3c-.7.1-1.4-.3-1.6-1l-3.6-10.1c-.2-.7 0-1.4.6-1.8l9.1-5.8c-.3-1.9-.4-3.8-.5-5.7l-9.9-4.2c-.6-.3-1-1-.9-1.6l1.9-10.6c.1-.7.7-1.2 1.4-1.2l10.8-.5c.7-1.8 1.5-3.5 2.4-5.2l-6.5-8.6c-.4-.6-.4-1.3.1-1.9l6.9-8.2c.5-.5 1.2-.7 1.8-.4l9.5 5c1.5-1.2 3.1-2.3 4.7-3.3l-1.3-10.7c-.1-.7.3-1.4 1-1.6l10.1-3.6c.7-.2 1.4 0 1.8.6l5.8 9.1c1.9-.3 3.8-.4 5.7-.5l4.2-9.9c.3-.6 1-1 1.6-.9l10.6 1.9c.7.1 1.2.7 1.2 1.4l.5 10.8c1.8.7 3.5 1.5 5.2 2.4l8.6-6.5c.6-.4 1.3-.4 1.9.1l8.2 6.9c.5.5.7 1.2.4 1.8l-5 9.5c1.2 1.5 2.3 3.1 3.3 4.7l10.7-1.3c.7-.1 1.4.3 1.6 1l3.6 10.1c.2.7 0 1.4-.6 1.8l-9.1 5.8c.3 1.9.4 3.8.5 5.7l9.9 4.2c.6.3 1 1 .9 1.6l-1.9 10.6c-.1.7-.7 1.2-1.4 1.2l-10.7.5c-.7 1.8-1.5 3.5-2.4 5.2l6.5 8.6c.4.6.4 1.3-.1 1.9l-6.9 8.2c-.5.5-1.2.7-1.8.4l-9.5-5c-1.5 1.2-3.1 2.3-4.7 3.3l1.3 10.7c.1.7-.3 1.4-1 1.6l-10.1 3.6c-.7.2-1.4 0-1.8-.6l-5.8-9.1c-1.9.3-3.8.4-5.7.5l-4.2 9.9c-.3.5-.8.8-1.4.8zm18.7-99.1l-.5-10.5-8.2-1.5-4.1 9.7c-.2.6-.8.9-1.4.9-2.4 0-4.8.2-7.2.6-.6.1-1.2-.2-1.5-.7l-5.7-8.9-7.9 2.8 1.3 10.5c.1.6-.2 1.2-.7 1.5-2.1 1.2-4.1 2.6-6 4.1-.5.4-1.1.5-1.6.2l-9.3-4.9-5.3 6.4 6.4 8.4c.4.5.4 1.1.1 1.7-1.2 2.1-2.2 4.3-3.1 6.5-.2.6-.7.9-1.3 1l-10.5.5-1.5 8.2 9.7 4.1c.6.2.9.8.9 1.4 0 2.4.2 4.8.6 7.2.1.6-.2 1.2-.7 1.5l-8.9 5.7 2.8 7.9 10.5-1.3c.6-.1 1.2.2 1.5.7 1.2 2.1 2.6 4.1 4.1 6 .4.5.5 1.1.2 1.6l-4.9 9.3 6.4 5.4 8.4-6.4c.5-.4 1.1-.4 1.7-.1 2.1 1.2 4.3 2.2 6.5 3.1.6.2.9.7 1 1.3l.5 10.5 8.2 1.5 4.1-9.7c.2-.6.8-.9 1.4-.9 2.4 0 4.8-.2 7.2-.6.6-.1 1.2.2 1.5.7l5.7 8.9 7.9-2.8-1.3-10.5c-.1-.6.2-1.2.7-1.5 2.1-1.2 4.1-2.6 6-4.1.5-.4 1.1-.5 1.6-.2l9.3 4.9 5.4-6.4-6.4-8.4c-.4-.5-.4-1.1-.1-1.7 1.2-2.1 2.2-4.3 3.1-6.5.2-.6.7-.9 1.3-1l10.5-.5 1.5-8.2-9.7-4.1c-.6-.2-.9-.8-.9-1.4 0-2.4-.2-4.8-.6-7.2-.1-.6.2-1.2.7-1.5l8.9-5.7-2.8-7.9-10.5 1.3c-.6.1-1.2-.2-1.5-.7-1.2-2.1-2.6-4.1-4.1-6-.4-.5-.5-1.1-.2-1.6l4.9-9.3-6.4-5.4-8.4 6.4c-.5.4-1.1.4-1.7.1m-21.8 66.7c-4.2 0-8.5-.9-12.4-2.8-7-3.3-12.4-9.2-15-16.5s-2.3-15.3 1.1-22.3c3.3-7 9.2-12.4 16.5-15s15.3-2.3 22.3 1.1c7 3.3 12.4 9.2 15 16.5s2.3 15.3-1.1 22.3c-3.3 7-9.2 12.4-16.5 15-3.2 1.2-6.5 1.7-9.9 1.7zm.1-55.3c-3 0-6 .5-8.9 1.6-6.6 2.4-11.8 7.1-14.8 13.5-3 6.3-3.3 13.4-1 20 2.4 6.6 7.1 11.8 13.5 14.8 6.3 3 13.4 3.3 20 1 6.6-2.4 11.8-7.1 14.8-13.5 3-6.3 3.3-13.4 1-20-2.4-6.6-7.1-11.8-13.5-14.8-3.5-1.8-7.3-2.6-11.1-2.6z"/><path d="M81.7 120.4l-17.3 6.2 2.5 19.9c-3.7 2.2-7.3 4.6-10.5 7.3l-17.8-9.3-11.9 14 12.1 16c-2.1 3.7-4 7.6-5.5 11.6l-20.1.9-3.3 18.1 18.5 7.8c0 4.2.4 8.5 1.1 12.8l-16.9 10.8 6.2 17.3 19.9-2.5c2.2 3.7 4.6 7.3 7.3 10.5l-9.3 17.8 14 11.9 16-12.1c3.7 2.1 7.6 4 11.6 5.5l.9 20.1 18.1 3.3 7.8-18.5c4.2 0 8.5-.4 12.8-1.1l10.8 16.9 17.3-6.2-2.5-19.9c3.7-2.2 7.3-4.6 10.5-7.3l17.8 9.3 11.9-14-12.1-16c2.1-3.7 4-7.6 5.5-11.6l20.1-.9 3.3-18.1-18.5-7.8c0-4.2-.4-8.5-1.1-12.8l16.9-10.8-6.2-17.3-19.9 2.5c-2.2-3.7-4.6-7.3-7.3-10.5l9.3-17.8-14-11.9-16 12.1c-3.7-2.1-7.6-4-11.6-5.5l-.9-20.1-18.1-3.3-7.8 18.5c-4.2 0-8.5.4-12.8 1.1l-10.8-16.9zm68 76.7c8.8 24.6-3.9 51.7-28.5 60.6-24.6 8.8-51.7-3.9-60.6-28.5-8.8-24.6 3.9-51.7 28.5-60.6 24.7-8.9 51.8 3.9 60.6 28.5z" class="H"/><path d="M93.5 318h-.3l-18.1-3.3c-.7-.1-1.2-.7-1.2-1.4l-.8-19.1c-3.4-1.3-6.8-2.9-10-4.7L47.8 301c-.6.4-1.3.4-1.9-.1l-14-11.9c-.5-.5-.7-1.2-.4-1.8l8.8-16.9c-2.3-2.8-4.4-5.9-6.3-9.1l-19 2.3c-.7.1-1.4-.3-1.6-1l-6.2-17.3c-.2-.7 0-1.4.6-1.8L24 233.3a68.94 68.94 0 0 1-.9-11l-17.6-7.4c-.6-.3-1-1-.9-1.6l3.3-18.1c.1-.7.7-1.2 1.4-1.2l19.1-.8c1.3-3.4 2.9-6.8 4.7-10L21.6 168c-.4-.6-.4-1.3.1-1.9l11.9-14c.5-.5 1.2-.7 1.8-.4l16.9 8.8c2.8-2.3 5.9-4.4 9.1-6.3L59 135c-.1-.7.3-1.4 1-1.6l17.3-6.2c.7-.2 1.4 0 1.8.6l10.3 16.1a68.94 68.94 0 0 1 11-.9l7.4-17.6c.3-.6 1-1 1.6-.9l18.1 3.3c.7.1 1.2.7 1.2 1.4l.8 19.1c3.4 1.3 6.8 2.9 10 4.7l15.2-11.5c.6-.4 1.3-.4 1.9.1l14 11.9c.5.5.7 1.2.4 1.8l-8.8 16.9c2.3 2.8 4.4 5.9 6.3 9.1l19-2.3c.7-.1 1.4.3 1.6 1l6.2 17.3c.2.7 0 1.4-.6 1.8l-16.1 10.3a68.94 68.94 0 0 1 .9 11l17.6 7.4c.6.3 1 1 .9 1.6l-3.3 18.1c-.1.7-.7 1.2-1.4 1.2l-19.1.8c-1.3 3.4-2.9 6.8-4.7 10l11.5 15.2c.4.6.4 1.3-.1 1.9l-11.9 14c-.5.5-1.2.7-1.8.4l-16.9-8.8c-2.8 2.3-5.9 4.4-9.1 6.3l2.3 19c.1.7-.3 1.4-1 1.6l-17.3 6.2c-.7.2-1.4 0-1.8-.6l-10.3-16.1a68.94 68.94 0 0 1-11 .9l-7.4 17.6c-.1.6-.6.9-1.2.9zm-16.7-6l15.7 2.8 7.4-17.4c.2-.6.8-.9 1.4-.9 4.1 0 8.3-.4 12.5-1.1.6-.1 1.2.2 1.5.7l10.1 15.9 15-5.4-2.3-18.7c-.1-.6.2-1.2.7-1.5 3.7-2.1 7.2-4.5 10.3-7.1.5-.4 1.1-.5 1.6-.2l16.7 8.7 10.3-12.2-11.4-15.1c-.4-.5-.4-1.1-.1-1.7 2.1-3.6 3.9-7.4 5.3-11.4.2-.6.7-.9 1.3-1l18.9-.8 2.8-15.7-17.4-7.4c-.6-.2-.9-.8-.9-1.4 0-4.1-.4-8.3-1.1-12.5-.1-.6.2-1.2.7-1.5l15.9-10.1-5.4-15-18.7 2.3c-.6.1-1.2-.2-1.5-.7-2.1-3.7-4.5-7.2-7.1-10.3-.4-.5-.5-1.1-.2-1.6l8.7-16.7-12.2-10.3-14.7 11.3c-.5.4-1.1.4-1.7.1-3.6-2.1-7.4-3.9-11.4-5.3-.6-.2-.9-.7-1-1.3l-.8-18.9-15.7-2.8-7.4 17.4c-.2.6-.8.9-1.4.9-4.1 0-8.3.4-12.5 1.1-.6.1-1.2-.2-1.5-.7l-10.1-15.9-15 5.4 2.3 18.7c.1.6-.2 1.2-.7 1.5-3.7 2.1-7.2 4.5-10.3 7.1-.5.4-1.1.5-1.6.2L35 154.7l-10.3 12.2L36.1 182c.4.5.4 1.1.1 1.7-2.1 3.6-3.9 7.4-5.3 11.4-.2.6-.7.9-1.3 1l-18.9.8-2.8 15.7 17.4 7.4c.6.2.9.8.9 1.4 0 4.1.4 8.3 1.1 12.5.1.6-.2 1.2-.7 1.5l-15.9 10.1 5.4 15 18.7-2.3c.6-.1 1.2.2 1.5.7 2.1 3.7 4.5 7.2 7.1 10.3.4.5.5 1.1.2 1.6l-8.7 16.7L47 297.9l15-11.4c.5-.4 1.1-.4 1.7-.1 3.6 2.1 7.4 3.9 11.4 5.3.6.2.9.7 1 1.3l.7 19zm24.5-41.9c-7.1 0-14.2-1.6-20.8-4.7-11.8-5.6-20.7-15.4-25.1-27.7-9.1-25.3 4.1-53.4 29.4-62.5 12.3-4.4 25.5-3.8 37.3 1.8s20.7 15.4 25.1 27.7 3.8 25.5-1.8 37.3-15.4 20.7-27.7 25.1c-5.2 2.1-10.8 3-16.4 3zm0-94.7c-5.1 0-10.4.9-15.5 2.7-11.5 4.1-20.7 12.5-26 23.6-5.2 11.1-5.8 23.5-1.7 35 8.6 23.8 34.9 36.2 58.6 27.6 11.5-4.1 20.7-12.5 26-23.6 5.2-11.1 5.8-23.5 1.7-35h0c-6.6-18.6-24.3-30.3-43.1-30.3z"/><g class="I"><path d="M677.6 642.5H406.4a18.1 18.1 0 1 0 0 36.2h271.2a18.1 18.1 0 1 0 0-36.2zm-179.4-57.6H348.3c-9.3 0-16.8 7.5-16.8 16.8s7.5 16.8 16.8 16.8h149.8c9.3 0 16.8-7.5 16.8-16.8s-7.5-16.8-16.7-16.8z"/><circle cx="549.6" cy="601.7" r="16.8"/></g><path d="M687 447.1c11.2 8.7 27.7 21.5 51.2 21.1 3.7-.1 34-1.2 48-23.8 1.8-3 10.2-16.6 5.5-29.2-5-13.5-20.3-13.8-21-22.5-1-11.6 25.7-14.3 30.6-30.8 5.3-17.8-16.7-45.2-41.4-58.2-29.8-15.6-57.5-7.2-63.9-22.7-3.7-9 4.6-14.4.4-26.6-4.4-13-20.5-26.8-34.7-22-9.1 3.1-16.3 13.3-15.4 22.6 1 11.4 13.4 13.1 20.4 23.1 17.8 25.6-29.1 62.6-20.3 110.9 5.5 30.9 31.1 50.7 40.6 58.1z"/><path d="M637.9 313.7s-14.2 5.1-31.7 27.7c-17.5 22.7-56.9 23.9-69.7 8.4-12.7-15.6-11.4-19.9-11.4-19.9l-4.7 13.4s3.7 67.3 64.4 56.9c12.5-2.1 30.4-6.1 37.8-12.6 28.5-25 15.3-73.9 15.3-73.9z" class="G"/><path d="M572.7 402.7c-12 0-22.3-3.4-30.7-10.1-21-16.8-23-48-23.1-49.3 0-.2 0-.4.1-.6l4.7-13.4 2.8 1v-.1s-.5 4.5 11.1 18.6c5.2 6.3 15.5 10 27.5 9.8 16.1-.2 31.3-7.2 39.8-18.2 17.6-22.8 31.8-28 32.4-28.2.4-.1.8-.1 1.2.1s.6.5.8.9c.5 2 13.1 50.2-15.6 75.4-6 5.2-18.9 9.6-38.5 12.9-4.4.9-8.5 1.2-12.5 1.2zM522 343.4c.2 3.2 3 31.8 21.9 46.9 10.5 8.4 24.2 11.2 40.7 8.4 18.8-3.2 31.6-7.4 37-12.2 24.4-21.5 17.1-61.9 15.1-70.7-4.1 2-15.8 8.8-29.5 26.5-9 11.7-25.2 19.1-42.1 19.3-13 .2-24.1-3.9-29.9-10.9-6-7.3-9-12.3-10.4-15.6l-2.8 8.3z"/><path d="M611.8 416.2c13.6-55.6-3.6-79 15.9-96.2 17.9-15.7 48.9-10.6 62.3-8.4 15.2 2.5 27.8 4.6 36.4 14.2 2.3 2.6 3.9 5.2 5 8.1h0c16.4 30.8 3.1 62.7-5.1 77.4-1.4 59 22 76.7 6.6 98.5-16.6 23.6-57.8 22.5-79.4 17.7-7.6-1.7-50.1-11.9-59.8-42.5-6.3-20.1 8.1-28 18.1-68.8z" class="G"/><path d="M680.3 531.8c-10.2 0-19.7-1.2-27.1-2.8-11.9-2.6-51.3-13.4-60.9-43.5-3.9-12.2-.3-20.3 5.1-32.6 3.9-8.9 8.8-20.1 12.9-37h0c6.2-25.4 6-43.8 5.7-58.5-.3-17.3-.4-28.7 10.6-38.4 18.4-16.2 50-11 63.5-8.8 15.2 2.5 28.3 4.7 37.3 14.7 2.3 2.6 4 5.4 5.2 8.4 16.3 30.8 4 62.2-4.9 78.4-.6 27.4 4.1 45.3 7.9 59.8 4.2 16.3 7 27-1.5 39.2-11.5 16.3-33.7 21.1-53.8 21.1zm-67.1-115.3C609 433.7 604 445 600.1 454c-5.3 12.1-8.5 19.3-4.9 30.5 9.3 29.3 50.5 39.7 58.7 41.5 19.7 4.3 61.4 6.2 77.8-17.1 7.7-11 5.2-20.7 1.1-36.7-3.6-13.9-8.6-33-7.9-61 0-.2.1-.5.2-.7 8.7-15.6 20.8-46.1 5.1-75.8-.1-.1-.1-.2-.1-.3-1.1-2.8-2.6-5.3-4.7-7.7-8.2-9.3-20.3-11.2-35.5-13.7-13.1-2.2-43.7-7.2-61.1 8.1-10 8.8-9.9 19.1-9.6 36.2.1 14.9.4 33.4-6 59.2h0z"/><path d="M628.7 397.9s-35-12.8-46-36.1l-22.6-21s.3 10.2 7 14.4c0 0-5.7 11.6 2.7 19.6 0 0 6.4 5.1 10.2 5.1 0 0 11.1 36.5 41.1 47.4.1-.1 8.5-12.9 7.6-29.4z" class="G"/><path d="M621.2 428.7c-.2 0-.3 0-.5-.1-28-10.1-39.7-41.4-41.7-47.4-4.1-.8-9.3-4.9-10-5.4l-.1-.1c-7.5-7.1-4.8-16.8-3.6-20.1-6.3-4.9-6.7-14.5-6.7-14.9 0-.6.3-1.2.9-1.4s1.2-.1 1.6.3l22.6 21c.1.1.3.3.3.5 10.6 22.5 44.8 35.2 45.1 35.4.6.2 1 .7 1 1.3.9 16.8-7.4 29.7-7.8 30.2-.1.5-.6.7-1.1.7zm-50.3-55.1c1.7 1.3 6.5 4.7 9.2 4.8.6 0 1.2.4 1.4 1.1.1.4 11 35 39 45.9 1.8-3.2 7.1-13.7 6.7-26.4-5.8-2.3-35.4-14.7-45.8-36.3l-19.2-17.9c.7 3 2.3 7 5.7 9.1.6.4.9 1.2.5 1.9-.1.4-5 10.6 2.5 17.8zm89.4 65.7c-10.4 0-22.4-1.8-35.8-6.8-.8-.3-1.2-1.2-.9-1.9.3-.8 1.2-1.2 1.9-.9 49.4 18.3 79-7.1 79.3-7.4.6-.5 1.6-.5 2.1.1s.5 1.6-.1 2.1c-.2.2-17.1 14.8-46.5 14.8zm-17.9-39.6c-2.3 0-4.8-.1-7.3-.4-.8-.1-1.4-.8-1.3-1.6s.8-1.4 1.6-1.3c23 2.3 40.9-6.3 53.2-25.7 9.3-14.6 11.7-30 11.7-30.2.1-.8.9-1.4 1.7-1.3s1.4.9 1.3 1.7c-.1.7-2.6 16.2-12.2 31.3-8.1 12.9-23.1 27.5-48.7 27.5zm-105.1-87.4l28.6 102-33.6-9.7-31.5-100.5z"/><path d="M519.1 362.8s-8.6-9.1-10.6-16.3 10.6-23 10.6-23v39.3z" class="G"/><path d="M519.1 364.3c-.4 0-.8-.2-1.1-.5-.4-.4-8.9-9.4-11-16.9-2.1-7.7 9.6-22.7 10.9-24.4.4-.5 1.1-.7 1.7-.5s1 .8 1 1.4v39.3c0 .6-.4 1.2-.9 1.4-.3.2-.5.2-.6.2zm-1.5-36.3c-3.8 5.5-8.8 13.9-7.7 18.1 1.2 4.3 5 9.5 7.7 12.7V328zm105.1 53.3c-.7 0-1.4-.5-1.5-1.3-4.7-32.5 9.8-50.4 10.4-51.1.5-.6 1.5-.7 2.1-.2s.7 1.5.2 2.1h0c-.1.2-14.3 17.7-9.8 48.8.1.8-.4 1.6-1.3 1.7h-.1zm-.5 270.8c0 6.6 15.4.4 34.7 4.7 28.2 6.2 42.3-5.4 42.3-12s-21.1-4.6-41-4.6-36 5.3-36 11.9z"/><path d="M638.9 634.6l85.2 113.2 13.6-12s-35.3-91.7-66.4-100.6l-23.1-14.1-9.3 13.5z" class="G"/><path d="M724.1 749.2h-.2c-.4 0-.8-.3-1-.6l-85.2-113.2c-.4-.5-.4-1.2 0-1.8l9.3-13.5c.5-.7 1.3-.8 2-.4l22.9 14c31.4 9.3 65.8 97.6 67.2 101.4a1.57 1.57 0 0 1-.4 1.7l-13.6 12c-.3.3-.6.4-1 .4zm-83.4-114.7l83.6 111 11.6-10.2c-3.9-9.8-36.7-90.6-65-98.7a.76.76 0 0 1-.4-.2L648.6 623l-7.9 11.5z"/><path d="M667.9 621.8s15.1 32 10.9 67.2c-4.2 35.1-21.8 96.4-21.8 96.4h-21.8l5.1-167.6 27.6 4z" class="G"/><path d="M657 786.9h-21.8c-.4 0-.8-.2-1.1-.5s-.4-.7-.4-1.1l5.1-167.6c0-.4.2-.8.5-1.1s.8-.4 1.2-.3l27.5 4.1c.5.1.9.4 1.1.8.2.3 15.3 32.8 11 68-4.2 34.8-21.6 96-21.8 96.6-.1.6-.7 1.1-1.3 1.1zm-20.2-3h19.1c2.4-8.4 17.6-63 21.4-95 3.8-31.4-8.3-60.7-10.4-65.6l-25-3.7-5.1 164.3z"/><path d="M589.3 804.2c5.7-8.4 27-21.9 46.3-31.9h10.2c2.8 0 5 2.6 4.5 5.4l-.7 4.3 7-6.5c2-1.8 5.2-1 6 1.6 1.6 5.4 3.7 14.1 3.6 22.3 0 2.4-1.5 4.6-3.7 5.5-7.5 3.3-37.4 11.6-67.7 10.3-5.5-.2-8.6-6.4-5.5-11z"/><path d="M597.6 810.2h-4.4a1.54 1.54 0 0 1-1.5-1.5 1.54 1.54 0 0 1 1.5-1.5c42.5.9 69.5-12 69.8-12.1.7-.4 1.6-.1 2 .7.4.7.1 1.6-.7 2-.2.1-26 12.4-66.7 12.4zm30.9-15.2c-.7 0-1.3-.4-1.4-1.1 0-.1-2.6-8.7-8.5-11.2-.8-.3-1.1-1.2-.8-2s1.2-1.1 2-.8c7.2 3.1 10 12.7 10.2 13.1.2.8-.2 1.6-1 1.9-.3.1-.4.1-.5.1zm-12.6 4.7a1.6 1.6 0 0 1-1.5-1.3c-.9-7.2-5.5-9.5-5.7-9.6-.7-.4-1-1.3-.7-2 .4-.7 1.3-1.1 2-.7.3.1 6.2 3.1 7.3 12 .1.8-.5 1.6-1.3 1.7 0-.1-.1-.1-.1-.1z" class="G"/><path d="M715.6 738.9l7.1-5.3c2.1-1.6 5.2-.9 6.4 1.5l1.7 3.3 1.5-8.3c.4-2.4 3.3-3.6 5.3-2.1 4.1 3 10.2 8 14.5 14 1.3 1.7 1.4 4.1.3 5.9-3.6 6.4-20.5 28.4-42.9 43.7-4.1 2.8-9.7 0-9.9-4.9-.4-9.1 7.5-30.2 16-47.8z"/><path d="M704.9 789.3c-.5 0-.9-.2-1.2-.6-.5-.7-.3-1.6.3-2.1 30.9-22.2 43.2-45.9 43.3-46.1.4-.7 1.3-1 2-.7.7.4 1 1.3.7 2-.5 1-12.8 24.6-44.3 47.2-.2.2-.5.3-.8.3zm17-29.8c-.3 0-.6-.1-.9-.3-.1 0-6.5-4.8-11.9-3.4-.8.2-1.6-.3-1.8-1.1s.3-1.6 1.1-1.8c6.9-1.7 14.1 3.7 14.5 4 .7.5.8 1.4.3 2.1-.4.3-.8.5-1.3.5zm-6.4 10.1c-.4 0-.8-.2-1.1-.5-4.5-4.6-9-3.8-9.1-3.8-.8.2-1.6-.4-1.8-1.2s.4-1.6 1.2-1.8c.2 0 6.2-1.2 11.8 4.7.6.6.6 1.5 0 2.1-.3.4-.7.5-1 .5z" class="G"/><path d="M697.3 645.3c-5.3-36.1 3.4-94.3 12-152.4 0 0-37.7-45.1-71.5-42.5-21.9 1.7-20.4 42.5-20.4 42.5l6.3 159.2c-.1 0 28-13.2 73.6-6.8z" class="H"/><path d="M623.6 653.6c-.3 0-.5-.1-.8-.2-.4-.3-.7-.7-.7-1.2L615.8 493c-.1-1.7-1.2-42.3 21.8-44.1 34.2-2.6 71.2 41.2 72.8 43 .3.3.4.8.3 1.2l-.1.9c-8.4 56.7-17.1 115.3-11.8 151 .1.5-.1.9-.4 1.3a1.48 1.48 0 0 1-1.3.4c-44.5-6.2-72.5 6.6-72.8 6.7-.3.2-.5.2-.7.2zm17-201.8c-.9 0-1.8 0-2.7.1-20.2 1.6-19.1 40.6-19 41l6.2 157.1c7.2-2.9 32.5-11.3 70.5-6.4-4.7-36.2 3.8-94 12.1-149.9v-.3c-4.2-4.8-37.1-41.6-67.1-41.6z"/><path d="M717.8 521.4c-.2 0-.3 0-.5-.1-.8-.3-1.2-1.1-.9-1.9h0c.2-.5 4-12.7-8.2-25.5-.6-.6-.6-1.5 0-2.1s1.5-.6 2.1 0c13.6 14.2 9.1 28 8.9 28.6a1.41 1.41 0 0 1-1.4 1z"/><path d="M649.4 277c4.6-4.7 13.4-19.7 13.3-19.2-.1 5 10.2 6.4 17.1 10.9s-2.6 13-2.6 13 6.9-5.5 8 1.8c.7 4.2-4.3 5.5-8.3 5.8.1 1.3.3 2.8.5 4.6.8 8.2 6.4 15.1 14.2 17.7h0l-35.3 14.5-2.7-13.6 3.6-1.5c2.6-1.1 4.4-3.4 4.8-6.1l.9-9.7c-1.7.5-3.8.9-5.4.9-3.2 0-5.7-2.2-6.3-5.3-.8-4.3-.7-8.4.5-11.7l-2.3-2.1z" class="G"/><path d="M656.3 327.8c-.2 0-.5-.1-.7-.2a1.59 1.59 0 0 1-.8-1l-2.7-13.6c-.1-.7.2-1.4.9-1.7l3.6-1.5c2.1-.8 3.6-2.7 3.9-5l.7-7.6c-1.5.3-2.7.4-3.8.4-3.9 0-7-2.7-7.8-6.6-.8-4.2-.7-8.2.2-11.6l-1.5-1.5c-.6-.6-.6-1.5 0-2.1 3.1-3.2 8.3-11.4 11.1-15.8 2.6-4.2 2.6-4.2 3.8-3.8.6.2 1.1.8 1.1 1.5 0 2.1 3.8 3.7 7.9 5.4 2.8 1.1 5.9 2.4 8.5 4.2 2.4 1.6 3.1 3.6 3.2 5 .2 2-.7 4.1-1.7 5.8.5 0 1 .1 1.5.3 1.7.7 2.7 2.3 3.1 4.8.2 1.6-.1 3-1 4.2-1.3 1.7-3.7 2.7-7.1 3.2l.3 3.1c.8 7.6 5.9 14 13.2 16.5a1.41 1.41 0 0 1 1 1.4c0 .6-.3 1.2-.9 1.4L657 327.5c-.3.2-.5.3-.7.3zm-1-14.2l2.1 10.6 30.3-12.5c-6.5-3.5-11-10-11.8-17.5-.2-1.7-.3-3.3-.5-4.6 0-.4.1-.8.3-1.1.3-.3.6-.5 1-.5 3.2-.3 5.6-1.1 6.5-2.2.4-.5.5-1.1.4-1.9-.1-.9-.5-2.1-1.3-2.4-1.2-.5-3.4.8-4.3 1.5-.6.5-1.6.4-2.1-.2s-.5-1.5.1-2.1c1.4-1.2 4.8-5 4.6-7.9-.1-1.1-.7-2-1.8-2.7-2.4-1.6-5.3-2.8-8-3.9-3.5-1.5-6.9-2.9-8.6-5-.2.2-.3.5-.5.7-2.8 4.4-7.2 11.4-10.5 15.2l1.1 1.2c.4.4.5 1 .4 1.5-1 3.1-1.2 6.9-.4 11 .5 2.5 2.4 4.1 4.9 4.1 1.2 0 2.9-.3 5-.8.5-.1 1 0 1.3.3a1.3 1.3 0 0 1 .5 1.3l-.9 9.7c-.5 3.3-2.7 6.1-5.7 7.4l-2.1.8z"/><path d="M665.4 294.5l-2.6.9 2.6-.9z" class="G"/><path d="M662.8 296.9c-.6 0-1.2-.4-1.4-1-.3-.8.2-1.6.9-1.9l2.6-.9c.8-.3 1.6.2 1.9.9.3.8-.2 1.6-.9 1.9l-2.6.9c-.1 0-.3.1-.5.1zM337.5 534.8c-.4 0-.7-.1-1-.4-.6-.6-.6-1.5 0-2.1l4.7-4.9c.6-.6 1.5-.6 2.1 0s.6 1.5 0 2.1l-4.7 4.9c-.4.3-.7.4-1.1.4zm-16.6 17.3c-.4 0-.7-.1-1-.4-.6-.6-.6-1.5 0-2.1l4.7-4.9c.6-.6 1.5-.6 2.1 0s.6 1.5 0 2.1l-4.7 4.9c-.3.2-.7.4-1.1.4zm4.7-17c-.4 0-.8-.1-1.1-.4l-4.8-4.7c-.6-.6-.6-1.5 0-2.1s1.5-.6 2.1 0l4.8 4.7c.6.6.6 1.5 0 2.1-.3.2-.6.4-1 .4zm16.7 16.5c-.4 0-.8-.1-1.1-.4l-4.8-4.7c-.6-.6-.6-1.5 0-2.1s1.5-.6 2.1 0l4.8 4.7c.6.6.6 1.5 0 2.1a1.53 1.53 0 0 1-1 .4z"/><circle transform="matrix(.4363 -.8998 .8998 .4363 130.5732 746.4196)" cx="661" cy="269" r="1.4"/><path d="M200.4 625.5c5.9 0 10.8-4.8 10.8-10.8s-4.8-10.8-10.8-10.8-10.8 4.8-10.8 10.8 4.9 10.8 10.8 10.8zm7.6 2.7h-1.4c-1.9.9-3.9 1.3-6.1 1.3s-4.2-.5-6.1-1.3H193c-6.2 0-11.3 5.1-11.3 11.3v3.5c0 2.2 1.8 4 4 4h29.6c2.2 0 4-1.8 4-4v-3.5a11.29 11.29 0 0 0-11.3-11.3z"/></svg>