<?xml version="1.0" encoding="UTF-8"?>
<svg enable-background="new 0 0 1000 905" version="1.1" viewBox="0 0 170 153.06" xml:space="preserve" xmlns="http://www.w3.org/2000/svg"><g fill="#fff" transform="matrix(.86667 0 0 .86667 11.465 10.394)">
<path d="m57.547 24.208 0.54941-0.26034 0.52051-0.23128 0.49162-0.14462 0.49146-0.0867h0.69402l0.57829 0.17351 0.69402 0.40495 0.72291 0.66513 0.57829 0.69401 0.40479 0.78085 0.34717 0.72291 0.63624 0.83863 0.66512 0.34701 1.1279 0.26034 1.4169-0.0867 1.3014-0.0868h0.69402l0.40478-0.14461 0.14462-0.11572 0.0578-0.66513-0.0867-0.49162-0.17351-0.34701s-0.0867-0.17351-0.20239-0.17351c-0.11572 0-0.46273-0.0868-0.46273-0.0868l-0.28923-0.11556-0.11572-0.34701 0.11572-0.98324 0.23145-0.63624 0.40479-0.7518 0.60734-0.7518 0.40479-0.52051 0.11572-0.31812 0.26034-0.14461 0.60719-0.0578 0.40478 0.0289h0.26034l0.14478-0.2024-0.14478-0.40495-0.26034-0.57829-0.0289-0.66513 0.11573-0.60734 0.26034-0.5783 0.57829-0.57829 0.86752-0.52051 1.2145-0.28923 1.0121-0.14461 1.1856-0.11573 0.83863-0.0867 1.1568-0.11572 1.0121-0.17351 0.72291-0.43384 0.46273-0.60734 0.1735-0.5783-0.0578-0.7229-0.20239-0.40479-0.34701-0.43384-0.40495-0.34701-0.31812-0.11556-0.49146 0.0289-0.34717-0.0289-0.2024-0.17351 0.0291-0.3759 0.28906-0.34701 0.31812-0.26033 0.40479-0.0868 0.43384 0.0868 0.80974 0.43368 0.9253 0.72307 0.5783 0.31811 0.37589 0.40479 0.17351 0.17351h0.23128l0.14478-0.3759-0.029-0.49162-0.0578-0.40479 0.20239-0.0868 0.23145 0.17351 0.23128 0.46273 0.20256 0.3759 0.0578 0.23128 0.26034 0.17351h0.5494l0.43384 0.1735 0.83863 0.3759 0.66513 0.34701 0.66529 0.0868 2.805 0.0289 0.20239 0.0289 0.14478 0.31812 0.17334 0.46273 0.3759 0.34701 0.49162 0.2024 0.72291 0.0289 0.89641 0.0289 0.49162 0.0578 0.40479 0.0578 0.2024-0.17351 0.0578-0.20239 0.37589-0.11572 0.40479 0.0289 0.31812 0.0289 0.0867 0.1735 0.0868 0.46273 0.11556 0.3759 0.34717 0.14462 0.31812 0.0578 0.31811-0.0289 0.23129-0.0868 0.1735-0.34701 0.11573-0.347 0.23128-0.17351 0.43384-0.1735 0.43385-0.0289 0.40478 0.11556 0.34718 0.1735 0.20239 0.26034 0.0289 0.49162-0.11572 0.86752-0.0867 0.95436-0.17351 0.92546v0.26034l-0.11572 0.1735-0.14462 0.14462-0.60718 0.0578-1.2725-0.0578h-0.75196l-0.34701 0.0578-0.1735 0.23128-0.28907 1.446-0.28923 1.4171-0.52051 1.0121-0.86752 1.1568-0.72307 0.7518-0.46273 0.3759-0.23129 0.20239 0.0578 0.2024 0.66513-0.11557 0.83863 0.11557 1.041 0.28922 1.2725 0.54941 2.6026 1.5906 1.3591 0.92546 0.98341 0.60735 1.2723 0.5494 1.1858 0.43368 0.98325 0.52051 0.66512 0.54957 0.86769 0.80974 0.9253 0.69401 0.60735 0.46274 0.60718 0.28922 0.31812 0.17351 0.11572 0.49162 0.46273 0.92546 0.3759 0.46274 0.75196 0.49162 0.80958 0.20239h1.7063l1.3592-0.0289 0.7229-0.0289 0.17351-0.0868 0.17334-0.57829 0.20256-1.0699 0.31812-1.2723 0.60718-1.3593 0.57829-1.388 0.40479-1.2434 0.17351-1.2725 0.11572-1.7062 0.0289-1.9376 0.54956-3.8462 0.14462-1.1856 0.0578-0.89641v-0.57829l0.1735-0.28907 0.14462-0.11572 0.3759-0.0578 0.26033-0.11573 0.0578-0.31795 0.14462-1.5326 0.23128-1.388 0.4629-1.2145 0.3759-0.95436 0.46273-0.95419 0.20239-0.5494 0.17334-0.40495 0.11573-0.23129 0.31812-0.1735 0.63623 0.0291 0.49163 0.31796 0.43384 0.60734 0.34701 0.92547 0.14461 0.92546 0.0578 0.66513v0.72307l0.0578 0.26033 0.14461 0.0868 0.52052-0.0578 0.46273-0.0289 0.1735 0.0289 0.23145 0.0289 0.0578 0.26033-0.14478 0.3759-0.11572 0.34701v0.83863l0.0578 0.60735 0.31812 0.86752 0.43384 1.0412 0.52051 1.2145 0.31812 0.95435 0.2024 1.0121 0.0578 1.1278v0.9542l0.0289 0.49162 0.0868 0.31812 0.31812 0.0868h0.69402l0.57829-0.14461s0.40479-0.0578 0.52051-0.0578c0.11556 0 0.69386-0.0289 0.69386-0.0289l0.54956 0.14461 0.43384 0.34701 0.46274 0.63623 0.52051 0.92547 0.54956 0.89641 0.23129 0.52051 0.14461 0.80974 0.0291 1.1856 0.14461 1.5615 0.11572 0.83863 0.0867 0.60735 0.34717 0.80974 0.37574 0.3759 0.31812 0.3759 0.60735 0.20239 0.23128 0.28923 0.20256 0.98324 0.11556 1.2434 0.029 2.3424 0.0867 1.388 0.28923 1.3303 0.60718 1.0121 0.78085 1.0121 0.98325 0.86768 0.66529 0.40479 0.5494 0.1735h0.43384l0.17351 0.0289 0.14461 0.26034 0.14461 0.80974 0.26034 0.31796 0.57829 0.34701 0.95436 0.5494 0.72291 0.46273 0.63623 0.69402 0.60735 0.86752 0.49146 1.2725 0.78101 1.6773 0.78085 1.4749 0.5494 1.2723 0.5783 1.446 0.31812 1.388-0.0578 0.43384 0.0868 0.23129 0.17334-0.0868 0.0578-0.49162 0.11572-0.40495 0.23145-0.0867 0.40479 0.11556 0.20239 0.23145 0.26034 0.72291 0.26034 0.66512 0.20239 0.52051 0.11573 0.28923 0.28923 0.0578 0.17334-0.52051-0.0867-0.92546 0.0578-0.69402 0.0867-0.26034 0.3759-0.0868h0.31812l0.1735 0.1735 0.0867 0.60735 0.029 1.9665 0.11556 1.2145 0.2024 1.2434 0.34717 1.099 0.43384 0.69401 0.63608 0.69402 0.52051 0.66513 0.72307 0.95435 1.0121 1.6484 0.86752 1.3301 0.66513 0.80974 0.69402 0.63624 0.34717 0.17334 0.37573 0.0291s0.26034-0.0291 0.26034-0.1735c0-0.14445 0.029-0.43384 0.029-0.43384s0.0289-0.46273 0.14462-0.52051c0.11572-0.0578 0.28923-0.28907 0.28923-0.28907l0.49146-0.1735h0.54956l0.28907 0.1735 0.0868 0.20239-0.1735 0.46274-0.2024 0.57829-0.0868 0.57829-0.28907 0.78085-0.54956 0.3759-0.37574 0.029-0.26034 0.0289s-0.20239-0.0289-0.23128 0.11572c-0.029 0.14461-0.2024 0.69402-0.2024 0.69402l0.11573 1.1277 0.11556 2.4581-0.0578 2.4003 0.14477 1.9086 0.11573 0.95436-0.11573 1.7063-0.20239 1.5615-0.49162 1.5615-0.60719 1.8219-0.63623 1.3302-0.43384 0.95436-0.26034 1.0121-0.26034 1.9663-0.1735 1.5615-0.23129 1.1568-0.52067 1.1279-1.1856 1.0121-1.3014 0.89641-0.86768 0.63624-0.83863 0.78085-0.49146 0.66513-0.40495 0.75196-0.40479 1.012-0.3759 1.1568-0.63624 1.3015-1.0121 1.3592-0.5494 0.75179-0.5783 0.80974-0.46273 1.1279-0.89641 1.1277-0.98341 0.86768-0.69385 0.7518-0.34717 0.57829-0.0289 1.0121 0.0289 1.0701-0.23129 1.3301-0.31812 1.099-0.34717 0.69401-0.7229 0.78085-1.1568 0.3759-1.6773 0.029-2.1978 0.0867-1.5326 0.26034-1.1856 0.34701-1.2725 0.72307-0.63623 0.37574-0.46274 0.0578-0.40478 0.11572-0.20256 0.34717-0.0867 0.80958-0.0289 0.28923-0.23145 0.14461h-0.54957l-0.98324-0.34717-0.89641-0.17334s-0.26034-0.11572-0.26034-0.23145v-0.63623l-0.26034-0.72291-0.3759-0.3759-0.28906-0.14461-0.1735 0.26033 0.0289 0.75196 0.029 0.63624-0.11573 0.17334-0.31811-0.0867-0.52052-0.40479-0.5494-0.43384-0.34717-0.3759 0.0868-0.11572h0.43368l0.14478-0.31812 0.0576-0.63624-0.17334-0.46273-0.49163-0.75196-0.1735-0.0867-0.31796 0.28923-0.029 0.98324 0.029 0.78085-0.31812 0.60719-0.57829 0.40495-0.31812 0.26033h-2.0244l-1.5326-0.0868-0.43368-0.26034s-0.49162-0.63607-0.60734-0.7229c-0.11573-0.0867-0.5783-0.17351-0.69402-0.26034-0.11556-0.0867-0.5494-0.0578-0.69385-0.11572-0.14478-0.0578-1.1279-0.0578-1.1279-0.0578l-0.54941-0.0289-1.1278-0.46273-0.89642-0.52051-0.86752-0.34717-0.89641-0.0867s-0.80974 0.0578-0.95435-0.029c-0.14462-0.0867-0.86769-0.37574-0.86769-0.37574l-0.9253-1.0701-0.26033-0.80958 0.0578-1.2436 0.0289-1.5615 0.0578-1.5326-0.34701-1.0699s-0.46273-0.49162-0.57829-0.57846c-0.11573-0.0867-0.66529-0.347-0.66529-0.347l-0.7518-0.2024-0.43384-0.34701-0.0289-0.26034v-0.43384l0.0576-0.34717-0.11557-0.11556-0.26033 0.11556-0.89642 0.54957-0.49162 0.28923s-0.34701 0.17334-0.52051 0.17334-0.63624 0.0291-0.75196 0.0291-0.57829-0.0578-0.57829-0.0578l-0.11573-0.2024-0.0289-0.57829 0.0289-0.66529 0.0578-0.31812 0.43385-0.28906 0.37589-0.43384 0.17351-0.60719-0.0578-0.92546-0.0868-0.86752-0.0289-0.80974-0.0867-0.49146-0.20255-0.23145-0.40479-0.11572-0.3759 0.14461-0.2024 0.0868-0.14461 0.34701 0.0578 0.83863-0.11572 0.72307-0.11573 0.63608-0.26033 0.43384-0.31812 0.40479-0.54941 0.28923-0.52067 0.0867-1.0699 0.0578-0.54956-0.0289-0.14461-0.23145 0.0867-0.40479 0.49162-0.46273 0.63623-0.63624 0.72291-0.57829 0.78085-0.83863 0.46273-0.63624 0.43385-0.92546 0.31811-1.2144 0.0868-1.0412-0.0578-1.1277 0.0867-0.95436-0.0578-0.69401-0.0578-0.49146-0.23129-0.0868-0.20239 0.3759-0.52052 0.98325-0.75196 1.0412-1.446 1.7349-0.60719 0.75196-1.041 0.95436-0.69402 0.54956-0.40479 0.28907-0.28923 0.3759-0.28906 0.40479-0.0868 0.49162 0.0578 0.66513v0.52051l-0.23129 0.20239-0.63623 0.0291-0.69402-0.49163-0.72291-0.80958-0.57829-1.3015-0.3759-1.5038-0.31812-1.2725-0.46273-0.9253-0.89641-0.9253-0.66529-0.26034-0.69386-0.0289-0.28922-0.17351-0.17351-0.40479 0.20256-0.46273s0.17334-0.11572 0.34701-0.26033c0.1735-0.14478 0.43384-0.2024 0.43384-0.2024l0.23128-0.11572 0.11573-0.28923 0.029-0.43368-0.20256-0.1735-0.5494-0.11573-0.40479 0.0289-0.3759-0.0867s-0.1735-0.20239-0.20255-0.31812c-0.0289-0.11572 0-0.66512 0-0.66512l-0.0576-0.31812-0.5783-0.11572-1.0121-0.0289-0.98325-0.34717-1.099-0.14461-1.5617 0.0578h-0.95436l-0.5494-0.1735-0.34717-0.31812-0.11556-0.3759 0.0289-0.5494s0.11572-0.23145 0-0.34701c-0.11573-0.11573-0.31812-0.34717-0.31812-0.34717l-0.83863-0.3759-0.98325-0.23129-0.86768 0.0289-1.0699 0.0578-0.69401 0.17351-1.5038 0.40479-2.4003 0.95435-1.3591 0.66513-1.388 0.63624-1.4169 0.43384-1.099 0.17334h-1.5326l-0.80974 0.0578-0.49162 0.26034-0.49146 0.54956s-0.2024 0.3759-0.34717 0.3759c-0.14462 0-1.4169 0.31812-1.4169 0.31812l-1.9663 0.31812-1.5906 0.57829-1.735 0.69402-1.4458 0.83847-1.0121 0.60734-0.54956 0.69402-0.40479 0.80958-0.40479 0.75196-0.20256 0.43384-0.1735 0.26034-0.75196 0.26033-1.4458 0.3759s-1.5617 0.11573-1.8219 0.14462c-0.26017 0.0289-1.9954 0.0289-1.9954 0.0289l-1.2725-0.11556-1.5038 0.0867-1.1279 0.14461-1.5038 0.57829-2.0532 0.92547-1.099 0.9253-0.75196 0.5494-0.46274 0.4629-0.52051 0.78085-0.63623 0.83863-0.60735 0.43384-0.5494 0.23128-1.099 0.0291-2.9786 0.0289-1.0121-0.0289-1.3014-0.28923-0.89642-0.63624-0.98324-0.75179-0.49162-0.31812-1.1279-0.0868-0.95436-0.49146-0.43368-0.46289-0.11572-0.34701 0.0289-0.98324 0.0289-0.49163s-0.0868-0.23128 0.0289-0.347c0.11556-0.11573 0.66513-0.40496 0.66513-0.40496s0.31812-0.0576 0.43384-0.14461c0.11572-0.0867 0.52051-0.31812 0.52051-0.31812l0.31812-0.40479v-1.1277l-0.0289-0.75196-0.20239-0.43384-0.20256-0.49163 0.0289-0.86752 0.0289-1.5038-0.0578-1.2725v-0.26034l-0.20239-0.43384-0.86753-0.98324-0.78085-0.75196-0.63623-0.5783-0.49162-0.52051-0.17351-0.40479-0.20239-0.60734s-0.0578-0.69402-0.14462-0.83863c-0.0868-0.14462-0.34701-0.83863-0.34701-0.83863s-0.347-0.49146-0.46273-0.60719c-0.11572-0.11572-0.75196-0.83863-0.75196-0.83863l-0.49162-0.52051-0.20239-0.31812s-0.17351-0.3759-0.14462-0.49162c0.0289-0.11573 0.0868-0.80958 0.0868-0.80958l-0.0868-0.60735-0.26034-0.26033-0.63623-0.28907-0.69402-0.46289-0.43384-0.37574-0.40479-0.46289-0.26034-0.5783-0.0867-0.78085-0.0289-0.66512 0.11556-0.43385-0.0867-0.20239-0.52051-0.0289s-0.34701-0.0868-0.49162-0.14478c-0.14462-0.0578-0.3759-0.20239-0.3759-0.20239l-0.31812-0.49146v-1.0991l-0.14461-0.37574-0.28923-0.34717-0.92547-0.66513-1.0699-1.1278-0.60735-0.72291-0.34701-0.3759-0.11572-0.31812-0.0289-0.34701 0.26034-0.26033 0.49162-0.0291 0.5494 0.23145 0.52068 0.69402 0.78085 0.7229 0.66512 0.49163 0.49163 0.14461 0.40495-0.0578 0.14461-0.26034 0.0289-0.63623-0.0289-0.92531s-0.0289-0.40478-0.0868-0.52051c-0.0578-0.11572 0-0.11572-0.28923-0.28923-0.28923-0.1735-0.57829-0.23128-0.57829-0.23128l-0.43368 0.0289-0.26034-0.2024 0.0578-1.9954-0.0289-0.1735-0.31812-0.23128-0.40495-0.0578-0.69402-0.46274-0.57829-0.89641-0.40495-0.95435-0.14461-0.52052 0.23128-0.54956 0.3759-0.75196 0.0867-0.7518 0.0868-1.5039-0.0289-2.9786v-1.3303l0.0868-0.95435 0.0578-0.43368 0.0867-0.28923 0.14461-0.0289 0.26034 0.11556 0.23128 0.60735 0.2024 0.75196 0.26034 0.40479 0.20255 0.0289 0.26034-0.3759 0.14462-0.69402 0.37589-1.0121 0.60735-1.2145 1.5615-1.4747 1.2145-1.446 0.75196-0.72307 1.0121-0.78085 1.1856-0.63624 1.1279-0.28923h1.3302l1.0121-0.23128s0.7518-0.40495 0.86752-0.46273c0.11556-0.0578 0.66513-0.60735 0.66513-0.60735l0.78085-0.52051 0.89641-0.26034 0.80974-0.46273 0.72291-0.69402 0.347-0.52067 0.63624-0.66513 0.83863-0.46273 0.69402-0.17351 0.92546-0.0289 1.1856-0.0868 1.4749-0.31796 1.1856-0.31811 1.1566-0.69402 1.2436-0.95435 1.3014-1.5615 0.72291-0.92547 0.57829-1.2723 0.28923-1.1279 0.0868-1.4458 0.0289-1.5617 0.14461-1.1856 0.49163-1.1856 0.57829-0.80974 0.49162-0.5494 0.34701-0.34701 0.28923-0.0289 0.28923 0.26034 0.66512 0.89641 0.46274 0.43384 0.49162 0.43368 0.31812 0.23145s0.11556 0.14461 0.20239 0c0.0868-0.14462 0.1735-0.28923 0.1735-0.28923l0.0578-1.099-0.14462-1.8219 0.0289-0.60734 0.26034-0.28923 0.7518-0.0578 1.1279 0.0578h0.63623l0.26034-0.14461 0.11572-0.66513 0.0289-0.95435-0.0578-0.43368-0.31812-0.11573h-0.347l-0.28923-0.11572s-0.0578-0.23129 0.0289-0.3759c0.0868-0.14461 0.5494-0.57829 0.5494-0.57829l0.49162-0.54941 0.31812-0.57829 0.14462-0.34701s0.0578-0.11572 0.1735-0.23128c0.11572-0.11573 0.49162-0.14462 0.49162-0.14462l1.1279 0.0868h0.52068l0.28906-0.17351 0.0289-0.89641-0.0289-0.57829s-0.0289-0.26034 0.0868-0.34701c0.11573-0.0868 0.28923-0.26034 0.40496-0.26034 0.11556 0 0.57829 0.0578 0.57829 0.0578l0.63624 0.0867 0.23128-0.1735v-0.49162l0.029-0.60735 0.52052-0.46273 0.80957-0.5494 1.6195-0.86785z" style="fill:#fff;stroke-width:.1623"/>
<path d="m72.208 12.428 0.36811-0.34766 0.38856-0.14315h0.49065l0.42945 0.14315 0.69516 0.14315 0.85875 0.0204 0.65442-0.0409 0.49065-0.22495s0.18405-0.18406 0.26585-0.20451c0.0818-0.0205 0.26586-0.0409 0.26586-0.0409l0.30692 0.0818 0.18405 0.24541 0.0204 0.57261 0.0205 0.40901-0.14315 0.28631-0.32737 0.34765-0.30676 0.12271s-0.2045 0.0614-0.30675 0.0614c-0.10226 0-0.32721 0.0614-0.32721 0.0614l-0.26586 0.22496-0.55216 0.30675-0.36811 0.1227-0.3681 0.0205-0.30676-0.0205s-0.30676-0.1227-0.38856-0.22495-0.38872-0.51126-0.38872-0.51126l-0.34766-0.26586-0.49065-0.2454-0.38856-0.32721-0.1636-0.38856v-0.18405z" style="fill:#fff;stroke-width:.1623"/>
<path d="m97.298 22.141h-0.32721l-0.1636-0.12271v-0.2863l0.0818-0.20451 0.1227-0.10225 0.22496 0.0409 0.1227 0.22496 0.0409 0.2863z" style="fill:#fff;stroke-width:.1623"/>
<path d="m97.994 23.02v-0.51126l0.14316-0.32721 0.22495-0.30676 0.22496-0.14315 0.34765-0.0205 0.24541 0.0409 0.32737 0.10225 0.2045 0.1227 0.10225 0.18406-0.0614 0.1636-0.18405 0.18406-0.1227 0.22495-0.0409 0.28631 0.1227 0.22495 0.18405 0.20451 0.18406 0.14315 0.10225 0.18405-0.0204 0.32721s-0.0204 0.22496-0.10225 0.24541c-0.0818 0.0204-0.16361 0.10225-0.24541 0.10225s-0.49065-0.0204-0.49065-0.0204l-0.47036-0.22496-0.38856-0.2863-0.26585-0.36811-0.0409-0.36811 0.0201-0.1636z" style="fill:#fff;stroke-width:.1623"/>
<path d="m108.79 33.792 0.23144-0.347 0.44829-0.2024 0.28907-0.1735 0.33256-0.13017 0.24589-0.0867 0.26034-0.0435 0.20239 0.0435 0.14462 0.11556-0.0867 0.21684-0.2024 0.11572-0.34701 0.2024-0.31811 0.10127-0.2459 0.15906-0.31812 0.18795-0.18794 0.0867-0.23145 0.0289-0.2024-0.0433-0.0867-0.11572 0.0721-0.11557z" style="fill:#fff;stroke-width:.1623"/>
<path d="m134.2 130.35-0.029-0.27462 0.0146-0.24589 0.13017-0.1589h0.1589l0.24589 0.0576 0.31812 0.43384 0.24589 0.39035 0.17334 0.33256 0.15906 0.23145 0.1735 0.0867 0.0576 0.1735-0.1589 0.15906-0.21684 0.1589-0.10127 0.11572-0.17351 0.0722s-0.18795 0.0144-0.24573-0.0145c-0.0578-0.029-0.15906-0.0868-0.15906-0.15906 0-0.0722 0.0435-0.31811 0.0435-0.31811s-0.0146-0.11556-0.0435-0.17335c-0.0289-0.0578-0.13017-0.27478-0.13017-0.27478l-0.15889-0.23128-0.15906-0.17351-0.0867-0.0722-0.058-0.11573z" style="fill:#fff;stroke-width:.1623"/>
<path d="m134.87 132.53 0.11573-0.24589 0.0868-0.1589 0.1589-0.10128h0.31812l0.24589-0.0144 0.18795 0.0144 0.10111 0.0145 0.10128 0.23145-0.0578 0.1735-0.23145 0.10112-0.14461 0.0722-0.21684 0.0578h-0.33256l-0.31812-0.0289-0.0144-0.11556z" style="fill:#fff;stroke-width:.1623"/>
<path d="m121.28 129.87-0.0435-0.28923 0.0578-0.36145 0.029-0.43384s0.10112-0.11573 0.11573-0.18795c0.0144-0.0722-0.0146-0.14462 0.0289-0.21684 0.0435-0.0724 0.23144-0.18795 0.23144-0.18795s0.11557 0.0144 0.17335 0.0144c0.0578 0 0.23144 0.14462 0.23144 0.14462l0.0578 0.33256s0.0289 0.11572 0.0289 0.23145c0 0.11572 0.0145 0.39034 0 0.46273-0.0144 0.0724-0.14461 0.28923-0.14461 0.28923l-0.18795 0.20239s-0.0867 0.0722-0.1735 0.0867c-0.0867 0.0145-0.26034 0-0.26034 0l-0.14445-0.0868z" style="fill:#fff;stroke-width:.1623"/>
<path d="m123.64 133.32 0.24541-0.42946s0.18405-0.2045 0.26585-0.2045h0.28631l0.32721 0.26585 0.082 0.20451 0.36811 0.1227 0.5929 0.0614 0.40901 0.16361 0.51126 0.42946 0.57245 0.42946 0.5111 0.42946 0.5111 0.2863 0.59306 0.0613s0.49065 0.0204 0.57245-0.0409c0.0818-0.0614 0.22496-0.18405 0.32721-0.22495s0.51126-0.16361 0.51126-0.16361l0.53155-0.0614 0.49065-0.10225 0.77711-0.0613 0.69516-0.10225 0.44974-0.10226 0.36811-0.22495 0.36827-0.20451h0.38856l0.42946 0.16361 0.26586 0.1636 0.2045 0.38856 0.0409 0.53155-0.0205 0.55216-0.10225 0.552-0.2045 0.65425-0.16361 0.42946-0.0409 0.5929 0.0205 0.67471 0.0409 0.40917-0.10225 0.18405-0.38856 0.10225-0.2454 0.0204-0.32737 0.26586-0.22496 0.30676-0.2045 0.30675-0.0613 0.40901 0.10225 0.30692 0.2863 0.1227 0.14316 0.16361v0.1636l-0.0204 0.24541-0.26586 0.14315-0.0818 0.26586v0.34765 0.32737c0 0.12271-0.0818 0.26586-0.0818 0.26586l-0.0409 0.10225-0.26586 0.0204-0.28631-0.0204s-0.10225-0.2863-0.0818-0.36811c0.0204-0.0818-0.0409-0.30692-0.0818-0.38872s-0.10225-0.1636-0.2045-0.1636h-0.30692l-0.22496 0.0613-0.36811 0.26586-0.2454 0.18421-0.36811 0.4702-0.32721 0.28631-0.26585 0.6338-0.16377 0.32737-0.32721 0.1636-0.38855-0.0204-0.44975-0.18421-0.32721-0.26586-0.18422-0.14315h-0.1636-0.22495c-0.0818 0-0.22496 0.0204-0.22496 0.0204l-0.14315-0.0409s-0.16361 0-0.22496-0.10226c-0.0613-0.10225-0.1227-0.1636-0.1227-0.1636l-0.24541-0.14315s0.0205 0.0204-0.18405-0.12271c-0.2045-0.14315-0.44991-0.2863-0.44991-0.2863s-0.18405-0.12271-0.2045-0.20451c-0.0205-0.0818-0.34766-0.5111-0.34766-0.5111l-0.32721-0.63396-0.1636-0.5111-0.0409-0.5111 0.0204-0.47036-0.12271-0.34766-0.2454-0.2454s-0.26586-0.10225-0.30692-0.20451c-0.0409-0.10225-0.0818-0.30675-0.0818-0.30675l0.14331-0.20451s0.12271-0.10241 0.24541-0.14331 0.1636-0.0818 0.1636-0.0818 0.0409-0.0614 0.0409-0.18406v-0.2863l-0.1636-0.36811s-0.0409-0.20451-0.0613-0.28631c-0.0205-0.0818-0.38872-0.75667-0.38872-0.75667l-0.42946-0.3272-0.32721-0.36811-0.18405-0.22496-0.10226-0.59306 0.0205-0.7156 0.0204-0.81786-0.0187-0.40901z" style="fill:#fff;stroke-width:.1623"/>
<path d="m131.3 144.2-0.20451-0.18406-0.0409-0.2863 0.0613-0.30676 0.0818-0.1227 0.2454 0.0613 0.1227 0.22496v0.26585l-0.0409 0.20451-0.10225 0.1636-0.1227-0.0204z" style="fill:#fff;stroke-width:.1623"/>
<path d="m97.646 112.38 0.36811-0.40901 0.26586-0.30692 0.36811-0.22495 0.3681-0.0409 0.22496-0.10226h0.53171l0.53155-0.0204 0.34766 0.10226s0.2454 0.0614 0.44975 0.1227c0.20466 0.0614 0.26601 0.0818 0.34782 0.0818h0.2454l0.22496 0.0614 0.10225 0.1227-0.0613 0.28647s-0.10226 0.24541-0.18406 0.28631l-0.2863 0.14315-0.22496 0.18406s0.10225 0.10225-0.0613 0.14315c-0.16377 0.0409-0.26602 0.0614-0.26602 0.0614l-0.22495-0.1227v-0.10225l-0.26586-0.0204h-0.2454l-0.18406 0.18405-0.94072-0.0409-0.85876 0.0204-0.34765-0.1227-0.26586-0.10226-0.0409-0.0818 0.082-0.10225z" style="fill:#fff;stroke-width:.1623"/>
</g></svg>
