<svg xmlns="http://www.w3.org/2000/svg" fill="#fff" width="100" height="100" viewBox="0 -90 470 650" xml:space="preserve" stroke="#fff"><path d="M9.948 159.572c-.2 2.6 1 4.5 2.4 6.5 1 1.5 2.2 3.2 2.4 4.9.3 2.8 1.8 3.5 4.1 4 2.6.6 4.7 2 5.4 4.8.7 2.6 2.1 3.3 4.7 2.3 5.1-1.9 10.2-4 15.3-6-.1.6-.3 1.5-.4 2.4-.4 3.6-1 7.2-.9 10.7.1 3.7 2.4 6 5.8 6 6.6 0 13.1-.1 19.7-.3 3.2-.1 6-1.3 8.2-3.8.3-.3.7-.8 1-.7 3.9.7 6-2 8.4-4.3 2.7-2.6 5.8-4.4 9.8-4.3 2.5.1 5.1-.7 8-1.1 0 0 .4.5.7 1.1 1.4 2.2 2 4.2.3 6.7-.8 1.3-.4 3.4-.5 5.2-.1 1.3.2 2.8-.2 4-.6 1.9-.7 3.6.1 5.5 2.2 4.8 5.6 8.6 9.6 11.9 2.2 1.8 4.6 2.4 7.4 1.9.9-.1 2 .4 2.9.9 1.2.7 2.1 2.1 3.3 2.4 1.8.5 3 1.3 4.1 2.6 1.5 1.8 3.4 3 5.8 2.6 1.8-.3 2.6.2 3.1 2 1.1 3.8 3.4 4.9 7.3 4 1.1-.3 2.6 0 3.7.5 2.5 1.1 4.8 2.6 7.2 3.7 1.6.7 2.4 1.7 2.6 3.3.3 2.3.5 4.5.5 6.8-.1 3.1.3 6.3-2.4 8.8-.4.3-.6 1.101-.6 1.601.3 2.6.8 5.1 2.9 6.899 3.5 3 7.6 4.8 12.2 5.2 2 .2 4.1 0 6.2.1 2.7.101 3.6 1.4 2.9 3.9-.2.6-.4 1.3-.7 1.9-2.6 5.3-1 8.8 4.5 10.5 1.1.399 2.7 1.6 2.7 2.399.2 4.2 2 8.7-1.3 12.601-.4.399-.8.899-.9 1.5-.2 1.1-.6 2.5-.2 3.399.5 1.101.5 1.7-.2 2.601-1.5 2-2.5 4-2.7 6.6-.3 5.3-1 10.6-1.4 15.9-.2 2.6-.3 5.3-.2 7.899.1 2.2 1.3 4.101 3.5 4.601 3 .6 6.1 1 9.1 1 8.1 0 14.1 7.199 12.7 15.199-.4 2.101-.3 4.4-.2 6.601.1 2.8 1 3.399 3.8 2.899 1.3-.199 2.6-.6 3.9-.699 3.2-.2 5.5 1.8 5.1 5-.4 3.6-1.1 7.3-2.3 10.699-1.3 3.801-1.6 3.7 1.7 6.001 3.3 2.3 4.6 5.5 4.1 9.399-.3 2.601-1 5.101-1.1 7.7-.1 4-2.8 6.1-5.8 7.1-8.1 2.5-14.3 7.601-20.3 13.101-3.7 3.399-6.9 7.2-10.3 10.899-1.9 2-2 3.301-.5 5.7.4.7.8 1.4 1.3 2 2.4 3.101 5.5 5.7 4.5 10.4-.4 1.899 1 2.8 2.9 2.2.8-.2 1.5-.601 2.2-1.101 1.6-1.1 2.9-.5 3.9.7 3.9 4.9 8.3 9.1 13.2 12.8 2.2 1.601 3.9 3.7 4.3 6.4.3 2.3 1.7 2.5 3.5 2.3 1.7-.2 3.3-.7 5.1-1.1 1.1 2.3 2.8 2.6 4.4.6.7-.9 1.5-1.9 1.7-3 1.1-4.5 3.2-8.2 6.6-11.4 3.299-3.1 6.2-6.6 9.4-10.1.2.2.6.4.899.7 2.5 2.6 5.4 2.399 7.301-.601 1.1-1.8 2.199-3.6 3.1-5.6 1.6-3.4 3.9-5.9 6.9-8.1 2.1-1.601 3.899-3.601 5.399-5.7 2.4-3.5 3.2-7.8 3.7-11.9.5-3.6.7-7.3 1.1-10.899.101-1.4.4-2.801.601-4.101.7-4.5 4.5-8 3.899-13 1 .5 1.7 1 2.5 1.4 1.4.6 2.5.399 3.2-1.2 1.5-3.6 4.7-5.3 8.101-6.3 2.7-.9 5-2.101 7.2-3.9 2.5-2.1 5.1-4.1 8.8-3.9 5.399.2 10.399-1.1 14.2-5.3 3.3-3.6 6.8-4.2 11-1.8 2.699 1.5 5.699 1.7 8.8 1.3 6-.899 11.2-3.5 16.1-6.899 3.8-2.7 7.2-5.801 9.2-10.2 1.3-2.9 3.3-5.2 6.4-6.4 1-.399 2-.8 2.699-1.5 3.9-4.7 7.801-9.5 11.601-14.399 1.899-2.5 1-5.5 1.2-8.301.1-2.6.399-5.399 2.699-6.899 4-2.7 6-6.601 7.601-10.8.7-1.7.7-3.7 1-5.5-.101-.301.6-.5.7-.801.399-1.199.699-2.5.899-3.8.7-3.6 1.4-7.1 2-10.7.7-4.3 1.3-8.6 1.9-12.899.6-4 .8-8 1.6-12 .5-2.8 2.101-5.3 5-6.2 9.4-3.2 15.9-9.3 18.7-18.8 1.4-4.6 4.1-6.8 8.6-7.6 5.101-.9 9.801-2.7 12.801-7.3.8-1.3 1.3-2.8 2.3-3.9 2.6-2.8 5.399-5.4 8.1-8.1 6.4-6.3 8.8-13.7 6.601-22.5-.801-3-1.2-6-1.7-9.1-.4-2.5-.2-5.2-.9-7.6-1.6-5.3-4.6-9.5-10.7-10.5-1.699-.3-3.3-.8-5-1-3.699-.6-6.8-2.2-9.1-5-4-5.1-7.9-10.4-11.6-15.7-2.4-3.4-4.2-7.1-9.101-7.5-.6 0-1.3-.9-1.7-1.6-2-3.5-5-5.3-8.899-5.7-2.101-.2-4.4-.4-6.3.2-5.5 1.8-10.5.2-15.4-1.7-2-.7-4-2-5.4-3.5-1.8-1.9-4-2.8-6.399-3.1-4.601-.7-8.9.6-13.101 2.2-2.1.8-4.3 1.6-6.699 2.4 1.1-4.3 2.1-8.2 3.199-12.1.5-1.9.301-2.9-1.699-3.7-3-1.3-5.801-3-8.601-4.7-1.399-.9-2.5-2.2-4-3.1-5.3-3.2-11.1-5-17.2-6.2-6.8-1.3-13.199-.3-18.8 4.1-2.8 2.2-5.6 4.3-8.3 6.3-.9-2.1-2.2-3.9-3.8-5.3 1-.1 2.1-.4 3.1-.8 2-.8 4-1.7 5.7-2.9 3-2.3 6-4.7 8.7-7.4 1.6-1.6 1.2-2.9-.9-3.9-5.8-2.8-12-3.9-18.399-3.9-3 0-5.501 1.2-7.801 2.6-2.399 1.5-4.5 3.3-7 4.7-2 1.1-4.1 2.2-7.1 1.5.899-1.9 1.399-3.8 2.5-5.3 4.5-6.2 10.1-11.1 16.8-14.8 1.9-1 3.5-2.3 3.101-4.8-.3-1.8.399-3 1.8-4 1.1-.8 2.1-1.7 3.5-2.9-1.3-.7-2.101-1.3-3.101-1.6-1.899-.7-4.1-1-5.899-1.9-1.2-.6-2.4-1.8-2.7-3-.601-2.3-.4-4.8-1-7.2-1.2-5.5-2.7-11-4-16-2.5-1.7-4.101-.7-5.5.9-1.4 1.5-3 2.8-4.3 4.4-.601.8-1.101 2-.9 3 .4 3 .4 3.5-2.4 4.2-2.5.7-4 2.2-4.8 4.4-.6 1.6-1.8 2.4-3.399 2.8-4.5 1.1-8.9.8-13.4.2-3.399-.5-6.5-1.3-8.5-4.4-.399-.7-1.399-1.2-2.1-1.3-2.9-.5-5.8-.8-8.7-1.3-2.1-.4-3.3.3-4.5 2.1-2.1 3.4-7.1 7.2-12.6 5-3.5-1.4-7.2-.9-10.8.3-3.4 1.1-6.9 1.9-10.4 2.5-2.5.5-5 .1-7-1.8-4.3-4-6.8-9-7.5-14.9-.6-4.9 1.3-9.1 3.8-13 2.7-4.1 2.6-4.6-1.1-7.5-1.8-1.4-2.5-3-2-5.2.2-.9.8-1.8.6-2.5-.2-1.1-.7-2.5-1.5-2.9-2.3-1.2-4.1-.5-5.9 2-2.5 3.3-4.7 7-9.2 7.7-3.2.5-6.5.8-9.8 1.1-.8.1-1.6-.2-2.4-.1-2.5.1-3.8 1.8-5 3.7-2.1 3.5-3 3.6-6 .8-.3-.2-.5-.6-.8-.7-2.7-1.4-5.3-2.8-8-3.9-.7-.3-2.2.4-2.7 1.1-1.8 2.5-1.8 5.4-1.1 8.3 1 3.8 2.8 6.7 6.7 8.5 3.4 1.6 3.2 5.7 0 7.5-1 .6-2.2.9-3.2 1.5-6.8 3.9-13.6 7.8-20.4 11.8-1.4.9-2.7.9-4.1.3-2.6-1.2-5.1-1.3-7.5.5-.3.3-1.2.3-1.6 0-3.1-2.1-5.6-4.6-6.3-8.6-.6-3.5-2.3-6.1-6.1-7-2.6-.6-4.9 0-7.3.8-3.4 1.1-6.7 1.2-10.3.7-2.5-.4-5.1-.3-7.6 0-1.7.2-2.8 1.6-3 3.4-.2 1.9 1 3 2.6 3.7 1.1.5 2.3.8 3.1 1.6.8.7 1.5 1.9 1.5 2.8 0 .7-1.1 1.7-1.9 2-1.2.4-2.6.5-3.9.5-4.7.2-6.9 3.1-5 7.4 1.2 2.7 2.9 5.3 4.8 7.6 3.5 4.5 3.9 8.7.7 13.3-1.8 2.6-3.5 5.3-2.5 8.8.2.7-.1 1.6-.5 2.3-1.4 3-2.4 6.1-2.3 9.6 0 .8-.3 1.7-.6 2.5-.5 1.8-1.4 3.6-1.5 5.4-.3 4.4-2.2 6-6.3 4.7-3.9-1.3-7.3-.7-10.8 1.2-1.2.6-2.7.7-4.1.8-1.6 0-3.2-.3-4.9-.5-.4 2.2-1.9 3.1-3.9 3.4-.5.1-.9.4-1.3.7-6.4 4.4-8.7 11.2-10.4 18.3-.5 1.9-.6 3.7-2.9 4.8-1.5.7-2.8 2.3-3.8 3.8-2.5 3.7-2.4 6.4.4 9.9 1.797.901 2.797 2.7 2.597 5.001z"/></svg>