<?xml version="1.0" encoding="utf-8"?>
<!-- Generator: Adobe Illustrator 21.0.0, SVG Export Plug-In . SVG Version: 6.00 Build 0)  -->
<svg version="1.1" xmlns="http://www.w3.org/2000/svg" xmlns:xlink="http://www.w3.org/1999/xlink" x="0px" y="0px"
	 viewBox="0 0 800 600" style="enable-background:new 0 0 800 600;" xml:space="preserve">
<style type="text/css">
	.st0{fill:#fff;}
</style>
<g id="Bulgaria">
	<path class="st0" d="M479.615,429.957l-3.563,0.337l-1.944-0.568l-1.197-1.014l-2.462-2.827l-0.766-0.478l-1.331-0.1l-2.031,1.961
		l-5.076,0.16l-2.481,0.683l-2.49,2.034l-0.69,0.295l-0.632,0.035l-0.623,0.193l-0.632,0.718l-0.517,1.542l-0.058,1.795l0.259,1.757
		l0.441,1.452l0.413,0.617l0.688,1.027l1.322,0.625l1.303,0.256l1.063,0.509l0.795,0.948l0.536,1.044l0.852,3.163l0.067,0.935
		l-0.144,1.952l0.163,0.832l0.517,0.429l1.456,0.269l0.517,0.582l0.469,1.631l0.125,1.414l-0.144,1.394l-0.335,1.567l-1.082,1.119
		l-0.163,0.831l0.958,2.179l0.393,0.562l1.283,1.22l0.287,0.747l-0.163,0.996l-0.469,0.287l-0.584,0.211l-0.488,0.747l-1.034,3.078
		l-1.427,3.134l-1.073,1.697l-0.575,0.319l-0.68-0.172l-7.921,1.844l-1.197,0.6l-2.471,1.671l-2.098,1.02l-1.025,0.128l-1.245-0.242
		l-1.293-0.013l-2.308,1.205l-1.322,0.274l-1.791-0.746l-2.72-3.029l-2.069-0.791l-0.948,0.37l-3.458,2.347l-3.218,0.242
		l-1.044,0.363l-1.14,0.842l-0.661,0.663l-0.632,0.433l-1.044,0.153l-0.881-0.249l-1.935-1.147l-0.91-0.319l-8.18-0.567
		l-1.255,0.427l-0.718,1.167l-0.603,1.364l-0.814,1.013l-0.91,0.357l-0.718-0.077l-0.728-0.229l-0.963-0.089l-2.375,0.414
		l-15.545,5.058l-2.174,0.159l-2.146-0.344l-1.801-1.089l-3.946-5.442l-1.782-1.511l-0.373-0.176l-3.458-1.629l-0.364-0.421
		l-0.718-1.225l-0.278-0.319l-0.469-0.006l-1.523,0.325l-15.143-6.457l-2.835-1.762l-1.245-0.153l-0.919,0.192l-1.935,0.689
		l-3.601,0.255l-0.287,1.647l0.249,2.151l-0.795,1.793l-1.839-0.083l-2.021-1.812l-3.142-4.072l-1.81-1.634l-1.695-0.811
		l-1.82-0.268h-2.136l0.565-1.233l-3.228,0.051l-1.264-0.313l-1.427-1.329l-0.067-0.454l0.23-1.367l-0.105-0.613l-0.354-0.415
		l-0.881-0.562l-0.335-0.364l-0.498-0.716l-0.479-0.486l-0.383-0.575l-0.268-1.017l-0.297-3.428l-1.149-3.244l-1.925-1.747
		l-2.672,1.043l-2.05,0.461l-1.887,2.7l-1.379,0.307l-1.954-0.326l-1.427,0.147l-3.113,0.934l-0.824,0.09l-2.481-0.294l-0.805,0.121
		l-0.603,0.352l-0.642,0.211l-0.862-0.294l-0.163-0.684l0.211-1.049l-0.086-1.081l-1.81-1.165l-1.494-1.696l-1.619,0.205
		l-1.753,0.749l-1.545,0.997l-0.131,0.085l-1.36,1.197l-0.383,0.787l-0.402,1.945l-0.268,0.461l-0.69-0.058l-0.402-0.531
		l-0.412-0.716l-0.718-0.576l-2.758-0.819l-3.697-0.326l-2.711,1.273l0.23,3.971l0.249,2.742l-0.048,1.048l-0.565,0.933
		l-1.034,0.511l-1.102-0.217l-2.05-1.367l-0.335,0.882l-0.441,0.294l-0.508,0.115l-0.517,0.351l-1.542,1.546l-1.37,0.096
		l-4.358-3.207l-0.747-0.102l-2.509,2.332l-1.494,0.728l-1.916,0.492l-1.963,0.224l-1.638-0.083l-1.389,0.671l-2.098,3.506
		l-1.504,0.396l-3.046-0.702l-3.075,0.026l-1.791,0.658l-2.328,2.362l-0.268,0.175l-1.15,0.751l-3.103-0.121l-6.111-3.179
		l-9.128-0.268l-1.762,0.575l-2.816,2.062l-1.657,0.906l-1.964,0.236l-0.967-0.932l-0.872-1.423l-1.715-1.213l-1.647,0.115
		l-2.165,0.932l-2.069,1.321l-1.341,1.289l-0.316,0.944l-0.144,2.252l-0.488,1.199l-0.824,0.855l-1.015,0.58l-2.088,0.619
		l-3.889,0.453l-18.371-2.851l2.213-1.735l0.335-2.297l-0.469-2.591l-0.192-2.637l0.297-0.76l1.073-1.335l0.23-0.581l-0.115-0.715
		l-0.536-1.259l-0.125-0.601l-0.244-8.656l-0.053-1.9l0.45-2.054l0.077-0.723l-0.211-0.839l-0.881-1.383l-0.297-0.704l-0.153-1.655
		l0.086-1.784l0.287-1.714l0.441-1.422l0.46-0.426l1.456-0.423l0.508-0.317l0.287-0.618l0.603-1.801l0.818-1.321l1.223-1.975
		l1.015-2.887l-0.067-2.926l-1.638-2.616l-0.987-0.466l-2.193-0.116l-1.015-0.456l-0.575-0.915l-1.983-4.68l-0.987-4.258
		l-0.584-1.472l-0.431-0.502l-1.082-0.585l-0.274-0.307l-0.119-0.133l-0.239-0.942l0.038-1.837l-0.144-0.875l-0.996-2.845
		l-0.69-2.865l-0.163-2.992l-0.22-1.34l-0.728-1.353l-0.029-0.019l-0.077-1.65l-0.014-0.067l-0.178-0.88l-0.508-0.625l-1.044-0.699
		l-0.527-0.035l-1.418,0.496l-0.651,0.019l-0.728-0.571l-0.316-0.845l-0.22-0.819l-0.412-0.503l-0.948-0.103l-4.224,0.19
		l-0.613-0.248l-0.412-0.519l-0.345-0.545l-0.421-0.368l-2.768-0.584l-4.511-2.311l-0.872-0.447l-8.036-5.797l-1.935-1.96
		l-0.301-0.517l-1.136-1.954l-1.226-3.596l-3.506-2.641L110,355.067l1.772-0.946l3.86-0.071l1.686-0.544l1.341-1.775l1.475-4.605
		l1.427-1.874l1.418-0.684l1.159-0.256l1.044-0.72l0.987-2.008l1.264-4.604l0.316-2.613l-0.374-1.887v-0.019l-0.709-1.773
		l-1.178-1.449l-2.845-2.067l-4.799-4.502l-0.402-0.182l0.326-2.507l1.156-5.052l0.3-1.31l0.431-3.109l-0.661-1.729l2.414-4.62
		l1.236-1.18l0.105-0.378l0.029-0.391l-0.029-0.385l-0.105-0.378l-1.379-1.099l-1.245-1.901l-2.203-5.37l-0.326-0.47l0.144-0.477
		l0.283-0.437l0.589-0.911l0.805-0.744l2.356-1.257l0.977-0.836l1.446-2.234l0.833-0.722l1.274-0.029l1.647,0.255l0.642-0.386
		l0.027-0.04l0.481-0.715l1.264-0.876l2.529-0.33l6.982,1.892l2.816-0.693l2.816-1.199l1.092-1.327l0.072-0.187l0.55-1.418
		l1.638-6.149l0.575-1.6l0.651-1.07l1.082-0.655l2.567-0.609l1.207-0.475h0.01l0.01-0.007v-0.02l1.226-1.755l3.889-3.695l0.488-0.98
		l0.67-2.327l0.46-0.891l0.785-0.701l1.571-0.744l0.757-0.561l1.887-2.882l1.705-4.18l0.977-4.248l-0.155-1.613l-0.142-1.484
		l-1.542-0.69l-4.559-0.995l-1.647-1.028l-1.293-1.305l-2.452-3.353l-2.241-2.253l-0.575-0.858l-0.287-1.007l-0.287-2.323
		l-0.335-1.014l-1.169-1.718l-6.628-6.695l-0.803-0.58l-0.461-0.333l-1.523-0.685l-0.9-0.106l-1.762,0.092l-0.881-0.329
		l-0.535-0.582l-0.222-0.242l-1.034-2.182l-0.699-0.775l-0.862-0.241l-2.002,0.109l-0.987-0.224l-0.881-0.673l-1.303-1.751
		l-0.642-0.663l-3.075-1.468l-1.274-1.201l-0.881-2.439l-1.734-6.076l-1.13-2.346l-0.077-0.631l0.096-0.641l0.259-0.631l0.115-0.331
		l0.038-0.331l-0.038-0.314l-0.115-0.307l-0.307-0.44l-0.096-0.476l0.096-0.463l0.307-0.463l0.029-0.053l0.019-0.066l-0.019-0.066
		l-0.029-0.086l-0.709-1.581l-0.086-2.937l-0.613-1.688l-0.958-0.933l-2.73-1.513l-1.159-1.083l-0.843-1.348l-0.738-1.566
		l-0.594-1.673l-0.412-1.673l-0.019-1.067l0.345-2.141l-0.096-0.998l-2.404-2.895l-1.216-3.477l0.488-2.798l1.188-2.961l0.881-3.956
		l0.182-3.855l0.278-0.651l0.919-1.712l0.239-0.575l0.211-2.009l0.048-3.733l0.211-1.597l1.13-1.751l2.088-0.906l2.925-0.473
		l1.442-0.233l2.059-0.06l1.044-1.339l0.709-1.859l1.073-1.606l1.897-0.68l1.906,0.133l1.647-0.327l1.092-1.993l-0.01-1.133
		l-0.603-2.727l-0.096-1.261l0.182-1.454l0.958-3.824l-0.134-0.007l-0.182-0.407l-0.105-0.688l0.124-0.788l0.22-0.167l1.504-1.75
		l1.408-2.318l0.814-0.862l3.972-1.867l19.906,13.638l3.352,1.474l4.214,0.574l1.874,0.849l2.101,0.952l0.843,3.966l-1.58,3.958
		l-3.237,1.798l-2.021,0.273l-3.688,1.212l-1.916,0.28l-1.849,1.218l-1.034,2.895l-2.241,9.66l0.048,2.91l1.149,2.434l2.347,2.042
		l2.854,0.68l12.325-1.104l7.349-0.659l2.787-1.205l3.247-0.697l3.477-1.87l8.403-1.195l14.786,0.77l10.009,5.549l2.609,0.439
		l1.414,0.238l7.844-1.756l2.05,0.402l5.287,3.114l32.407,8.183l0.906,0.229l16.433-0.81l1.995-0.098l1.6-0.494l5.163-3.89
		l3.257-1.058l3.132,0.375l14.978,5.627l4.063,1.526l4.358,0.636l19.559-1.385l10.929,3.934l12.021,0.904l3.802,0.927l3.064,1.827
		l0.307,0.183l3.18,2.467l3.391,1.976l4.032,0.543l2.126-0.556l3.831-1.711l1.393-0.252l0.585-0.106l4.176,0.238l2.107-0.215
		l1.714-0.901l1.743-0.42l2.098-0.907l1.983-1.222l1.446-1.391l1.657-1.183l5.705-0.182l0.616-0.02l3.85-1.677l2.155-3.58
		l0.172-0.481l3.065-3.18l2.778-1.599l4.368-5.586l0.747-1.83l0.881-1.504l11.149-8.232l0.68-1.989l1.638-2.482l3.419-3.84
		l3.199-1.744l7.481-1.945l7.327-3.238l2.022-0.299l7.734-1.143l18.384-2.717l3.113-1.1l1.858-0.22l0.881-0.253l1.844-1.167
		l1.063-0.26h4.171l3.314-1.014l8.773-5.238l10.881-1.108l2.404-1.542l6.743,4.206l9.76,1.969l1.964,1.101l2.26-0.214l0.142,0.11
		l1.515,1.177l-0.436,2.921l1.949,2.233l5.22,2.499l1.102,1.006l1.791,3.164l1.015,0.726l17.672-0.153l5.459-1.738l2.117,0.759
		l1.839,3.909l0.593,0.81l3.631,4.959l6.082-1.503l6.408-3.633l5.153-0.606v0.013l2.203,3.714l4.186,14.8l3.132,2.48l19.132,8.738
		l19.769,3.434l13.327-0.778l-0.204,1.764l-0.287,15.55l0.226,1.64l0.943,2.239l0.943,1.551l0.634,1.405l0.075,1.863l-0.83,3.277
		l-1.493,4.055l-1.682,3.44l-1.403,1.444l-0.943,0.499l-4.299,4.107l-0.867,1.23l-0.498,1.598l-0.068,2.22l-1.267-1.764l-4.163-2.32
		l-0.89-0.742l-1.033-1.225l-2.33-0.955l-4.359-0.831l-2.082,0.415l-3.484,1.796l-1.705,0.405l-6.041-0.28l-1.923,0.28l-3.56,2.071
		l-2.527,3.518l-0.422,1.11l-5.181,13.534l-1.252,2.065l-1.614,1.211l-6.32,1.707l-1.056,0.729l-0.626,0.217h-0.913v0.869
		l3.22,2.415l0.634,0.972l-0.113,1.489l-1.78,5.529l-1.275,6.145l-0.656,1.182l-0.815,0.836l-0.724,0.903l-0.385,1.414l0.173,2.837
		l1.388,5.794l0.332,2.607l-0.513,8.557l0.513,1.893l-1.855,1.43l-0.038,2.078l0.747,2.725l0.513,3.33v6.03l-0.226,2.366
		l-0.226,0.878l-4.744,0.277l-4.978-0.862l-4.095-0.113l-0.973,0.195l-0.656,0.76l-0.611,1.755l-0.294,1.365l0.106,1.164
		l0.664,0.949l1.425,0.744l-2.481,0.431l-4.035,1.759l-2.082,0.395l-1.697,1.461l0.181,3.305l1.026,3.519l0.807,2.104l-1.493-0.712
		l-8.635-0.225l-2.723,1.567l-1.199,2.59l-0.656,3.106l-1.048,3.125l-1.659-0.839l-0.867,1.186l0.045,1.871l1.139,1.206
		l-0.332,0.869l-0.091,0.649l0.422,1.916l0.256-0.94l0.136-0.164l-0.045-0.015l-0.347-0.521l0.649-2.576l2.896,3.082l0.95,0.276
		l1.131-1.073l0.747-1.457l0.928-0.598l1.629,1.487l0.837-1.293l0.792,0.159l0.754,0.721l0.724,0.414l1.305-0.373l0.913-0.593
		l0.92-0.348l1.29,0.378l-0.045,0.644l-0.098,0.123l-0.181-0.031l-0.309,0.199l0.551,2.172l0.905,1.553l1.44,0.307l2.217-1.533
		l0.174,1.18l0.513,0.628l0.815,0.143l1.033-0.245v0.94l-0.535,0.158l-1.41,0.7l0.686,1.226l0.392,0.311l0.867,0.179l-0.882,1.246
		l-0.106,1.715l0.558,1.745l1.063,1.286l1.35,0.582l1.086-0.138l1.146-0.367l1.478-0.077v0.78l-0.543,0.689l-0.015,0.689
		l0.437,0.678l0.807,0.668l-2.308,1.927l-1.094,2.324l0.437,2.324l2.278,1.895l-0.407,0.336l-0.038,0.127l-0.181,0.469l3.341,2.19
		l0.513,0.804l0.437,0.916l1.056,1.206l1.252,1.115l1.048,0.6l-0.189,0.422l-0.256,0.977l-0.189,0.382l2.753,1.602l0.709,0.86
		l1.599,3.443l4.985,3.187l0.611,1.209l0.769,1.153l1.29,0.411l-0.385,1.371l0.453,1.168l0.89,0.965l0.935,0.762l0.053,0.625
		l-0.136,0.167l-0.249,0.01l-0.302,0.127l1.056,1.132l0.694,1.614l0.121,1.73l-0.603,1.486l0.271,1.258l-3.314-0.743l-1.398-0.451
		l-4.53,0.528l-1.264-0.393l-2.452-1.205l-2.289-0.59l-0.853-0.039l-1.762,0.284l-0.378-0.151l-0.369-0.055l-0.374,0.055
		l-0.364,0.151l-0.283,1.253l-0.005,1.688l-0.201,1.227l1.442,0.895l-0.273,0.757l-1.159,0.464l-1.207,0.048l-1.264-0.428
		l-4.837-2.676l-3.419-0.126l-7.208,1.884l-0.225,1.243l-0.326,0.608l-0.488,0.003l-0.699-0.534l-0.757,0.998l-0.943,0.628
		l-1.987,0.702l0.124,0.296l0.259,0.187l0.283,0.158l0.254,0.174l-0.297,0.27l-0.575,0.299l-0.22,0.277l1.283,0.553l-1.513,0.656
		l-1.226-0.859l-2.198-3.128l-1.403-1.204l-6.81-3.848l-2.222-1.946l-2.04-2.417l-3.927-6.08l-2.519-2.516l-2.96-1.768l-3.257-0.771
		l-2.021,0.287l-1.168,0.936l-2.059,2.778l-0.24,0.5l-0.077,0.439l-0.402,0.161l-2.246-0.593l-2.074-0.094l-1.034,0.094
		l-1.427-1.158l-1.571-0.913l-1.686-0.536l-1.632-0.027l-0.126-0.002l-2.217,1.129l-2.059,3.88l-1.791,1.241l-1.288,0.545
		l-0.828,1.28l-0.757,1.505l-1.034,1.241l-0.805,0.213l-1.738-0.284l-0.963,0.412l-0.996,1.005l-0.852-0.013l-0.872-0.325
		l-1.015,0.029l-0.996,0.628l-1.123,0.953l-0.946,0.802l-0.766,0.39l-1.02-0.277l-1.715-1.504l-0.867-0.435l-1.111,0.332
		l-2.002,2.029l-0.948,0.689l-1.777,0.206l-8.711-1.462l-1.657,0.203l-1.504,1.079l-2.672,2.875l-0.68,0.512l-0.575,0.583
		l-0.383,0.814l0.163,0.489l1.121,0.708l0.278,0.425l-0.077,0.698l-0.393,1.094l-0.105,0.653l-0.066,0.754l-0.078,0.896l-0.393,2.26
		l-0.766,2.276l-1.245,1.71l-4.425,1.362l-9.53-0.414l-3.831,3.366l-1.312,2.993l-0.345,2.696l0.642,2.493L479.615,429.957z"/>
</g>
</svg>
