<?xml version="1.0" encoding="utf-8"?>
<!-- Generator: Adobe Illustrator 21.0.0, SVG Export Plug-In . SVG Version: 6.00 Build 0)  -->
<svg version="1.1" id="Icon" xmlns="http://www.w3.org/2000/svg" xmlns:xlink="http://www.w3.org/1999/xlink" x="0px" y="0px"
	 viewBox="0 0 624 606" style="enable-background:new 0 0 624 606;" xml:space="preserve">
<style type="text/css">
	.st0{fill-rule:evenodd;clip-rule:evenodd;fill:#fff;}
</style>
<g>
	<path class="st0" d="M557,153c-0.1,0.8,0.1,0.6-0.7,1.5C556.5,154,556.8,153.5,557,153z"/>
	<path class="st0" d="M552.2,156.7c0.4,0,0.7,0,1.1,0c-3.4,4.1-1.4,10.5-5.9,14.8c-0.8-1-4.3,0.2-5.9,0c0,0.6,0,1.2,0,1.9
		c-4.7-1.5-25,9.2-23,13.3c-0.7,0-1.5,0-2.2,0c0.5,2.7-0.7,4.6-1.1,7c-4.2-0.2-3.4,2.8-5.9,4.1c-0.5,0.3-4.8,0.7-4.8,0.7
		c-2,2.4-4.3,4.4-7,5.9c-3.3,1.9-4,6.7-8.5,9.3c-0.2,0-0.5,0-0.7,0c-6.8,1.4-12,5.1-18.5,8.1c-0.7,0.1-1.5,0.2-2.2,0.4
		c-3.7,3.3-6.2,4.3-9.6,6.7c-5.6,3.8-8.3,9.2-12.6,13.3c-1.2,1.2-1.9,8.7-3.7,11.5c-0.1,0-0.2,0-0.4,0c-0.5,0-9.5,0-10.8,1.9
		c-9.8-6.8-13.9,4.8-17.1,9.3c-3.4,4.7-4.7,4.1-5.9,10c0,2.3,0,4.7,0,7c-0.2,0.7-1.5,3.1-1.1,4.8c0.9,4.2,2.8,7.3,2.6,10.4
		c4.9,0.4,2.7,6.8,8.2,8.9c0.1-0.5,0.2-1,0.4-1.5c2,11.8,17.6,23.5,24.5,31.9c-2,0.2,2.2,4.9,3,6.3c-1.7,0.6-1.7-0.5-1.5,1.5
		c0.1,1.5,1.7,3.1,1.1,4.4c-1.2-0.2-0.9-0.2-1.9,1.1c-4.2-1.9-9.7-4.9-14.1-6.7c-0.2,1.1,0.4,0.4-0.7,1.1c-0.4-1.2-6.7-1.5-6.7-1.5
		c-2.7,0.6-12.6,2.5-14.5,4.4c0.5,3.3-5.8,6.7-9.3,7c-5.2-8.8-22.8-12.8-35.2-8.9c-9.2,2.9-14.4,13.9-11.1,28.9
		c-3.4,0.3-7.2,12.3-8.9,13c-5.2-7.4-22.5,8-21.9,10c-12.6,0-20,6.3-27.4,12.2c-4-1.5-8.2,1.1-10.4,3.7c-1.6-0.9-3.2-1.7-4.8-2.6
		c-2.5-1-3.3,2.3-5.2,1.9c-0.1,1-0.2,2-0.4,3c-4.6-0.1-24.8,0.8-27.4-1.5c-10.2,6.7-18.9,3.5-25.6,15.9c-0.4-0.4-0.7-0.7-1.1-1.1
		c-0.6,1.7-1.2,1.7-2.6,2.6c0,0.1,0,0.2,0,0.4c1.3,0.2,1.1,0.1,1.9,0.7c-2.5,2-1.2,9.6-1.5,12.6c1.5,0.7,6.3,4.7,5.6,6.3
		c0.1,0.7-0.3,0.3-1.1,1.9c-4.6-3.5-10.6-2.7-19.3-1.9c-0.1-0.2-0.2-0.5-0.4-0.7c0.9-0.7,0.1-0.2,1.1-0.4
		c-4.4-11.2-3.7-16.3-11.5-23c-1.4-0.2-5.1-1.6-6.3-2.6c-3.8,0.8-4,1.8-8.2,1.1c0,0.5,0,1,0,1.5c-3-1.3-11.6,0.3-13.7,1.5
		c-0.3,1.3,0.4,0.7-1.1,1.1c-2.6,2.7-4-1.2-7.8,2.6c-3.9,0.1-4.4-0.8-7-3c-0.8-0.6-11.8-2-14.8-3.7c-6.3-3.5-14.5-12.7-25.2-9.3
		c-0.6-2.1-16.1-13.3-20-13.3c0-0.4,0-0.7,0-1.1c0.7-0.5,1.2-0.9,1.1-1.9c0-0.1-0.6-4.9-1.5-5.6c-0.1-1.3,0.2-0.5-1.1-0.7
		c0.5-5.6-0.8-14.4-3.3-15.6c-1.1-0.5-2,0.4-1.5-1.5c-0.7,0.4-1.5,0.7-2.2,1.1c0-0.7,0-1.5,0-2.2c-1.8,0.6-0.7,1.1-1.9,0.4
		c-0.8-0.1-7.8-11.9-7.8-11.9c1.1-0.2,1.9-1.2,1.9-2.6c1.1-4.1-2.5-6.7-2.2-9.3c-0.7,0-1.5,0-2.2,0c-0.1-0.5-0.2-1-0.4-1.5
		c1.2-0.6,0.5-0.5,1.9-0.4c0.2-0.4,0.5-0.7,0.7-1.1c-0.8-2.5-1.2-8.8,0-9.6c-6.2-6.9-7.3-12.8-9.6-16.7c-2.1-3.3,2.6-7.4,1.5-10
		c1.4-0.3,1-0.3,1.9-1.9c0.1,0,0.2,0,0.4,0c2.7,2.7,13.9,15.3,15.2,14.8c0.7,1.2,6.4,3.5,11.1,2.2c5.7-1.5,21.5-10.5,20.4-17.4
		c-0.3-1.7,3.8-9.6,5.2-9.3c0.2-1.4,1.5-1.8,3-2.6c-0.5-1.9,1.3-4.8,1.9-5.2c0.7-0.8,0-0.3,1.1-0.7c0.1,1-0.5,1.7,0.7,1.1
		c2.9,3.5,13.7-5.6,13.7-5.6c3.4,1.8,2.9-1,6.3-0.7c2.4,1.8,9.6,1.5,13,4.1c1.9,0,3.7,0,5.6,0c6,3.7,12.1,8.1,18.9,10.4
		c4.6,1.5,21.2-14,18.9-18.9c2.1-5.7,8-28.5,3-35.2c-0.9-0.8,0-0.2-1.5-0.4c-0.4-4.7-0.7-9.4-1.1-14.1c0.4,0,0.7,0,1.1,0
		c1.4,2.4,6,2.4,8.5,3.3c1.9,1.9,3.7,3.7,5.6,5.6c7.3-0.8,14.6,2.5,23.4,4.1c0.9-1.2,1.7-2.5,2.6-3.7c4.1,2.3,7.6,1.3,11.9,4.4
		c6-0.8,12.6-4.1,14.5,1.5c6.9-1.7,12.3-0.3,20.4,1.1c0.2-0.8-0.3-1.5,1.1-1.1c0,0.6,0,1.2,0,1.9c2.8,0.4,5.7,0.7,8.5,1.1
		c-0.1-0.5-0.2-1-0.4-1.5c12.5,2.7,39.9,1.1,50.4-5.9c0,1.5,0.1,0.4,0.4,1.9c3-1,7.5-1.6,9.6-1.1c0-0.5,0-1,0-1.5
		c7.9,1.3,13.9-9.1,20.4-11.9c6.8-2.9,16.1,1.4,21.9-0.7c15.5-5.8,38.6-11.8,48.2-21.9c6.5,2.6,18.2-10.8,20.8-17.8
		c2.1,0.5,3.2,1,6.3,1.9c0.6-1.5-0.5-0.9,1.1-1.5c-0.1,0.5-0.2,1-0.4,1.5c0.4,0,0.7,0,1.1,0c0.5-0.5,1-1,1.5-1.5
		c1.2,2.6,11.1-3.8,11.9-4.8c1.4,1,1.5,1,3,1.5c1-2.7,7.9-5.9,11.5-8.5c0-1.4,0-2.7,0-4.1c4.3-0.3,4.7-2.4,8.5-3.7
		c2.8-1,2.7,0.4,5.9,0c0.3-1.4,1-0.8,1.5-3.3c1.5,0.8,0.3,1,1.9,0.4c1-1.7,11.3-3.2,13.7-2.6c1.1-1.8,2.8-4.5,3.3-4.4
		c0.1-0.2,0.2-0.5,0.4-0.7c0.6,1.3,0.6,1.2,1.9,2.2c0.7-1.1,7.5-4,5.6-5.2C546.7,157.9,549.5,157.3,552.2,156.7z"/>
	<path class="st0" d="M268.5,247.1c0.2,0,0.5,0,0.7,0C269,247.1,268.8,247.1,268.5,247.1z"/>
	<path class="st0" d="M445.8,347.4c0.2,0.7,0.5,1.5,0.7,2.2c-0.5,0.2-1,0.5-1.5,0.7c-0.1-0.4-0.2-0.7-0.4-1.1c0-0.2,0-0.5,0-0.7
		C445,348.2,445.4,347.8,445.8,347.4z"/>
	<path class="st0" d="M66.4,364.9c0.2,0,0.5,0,0.7,0C66.5,365.2,67.1,365.2,66.4,364.9z"/>
	<path class="st0" d="M217.3,431.1c0.2,0,0.5,0,0.7,0C217.8,431.1,217.6,431.1,217.3,431.1z"/>
</g>
</svg>
