<svg xmlns="http://www.w3.org/2000/svg" viewBox="0 0 3093 1817.7" xmlns:v="https://vecta.io/nano"><path d="M1526.7 510.1c3.2 1.3 8.9-.9 11.3 1.1 3.4 11.9-7.7 3.8-11.3-1.1zm387.3 768.7c10.8 2.4 30.5-24.5 32.1-13 6.2 7.9 20.3-17.6 18.3 6.6-11.5 2.4-19.3.9-7.1 12.2 1.2 42.2-69.6 67.9-104.9 74.1-.2-7.4 3.7-13.2 11.7-14.8 15.3-8.3-.2-7-6.7-5.9-2.9-7.9 5.8-6.9 4.6-13.1-6.9-9.5 19.4-38.5 27.8-28.3 5 .8 5.5-8.1 11.4-1.6 2 14.1 13.6-11.1 12.8-16.2zm-394.6-768.5c-1.7 5.7-14.3-4.3-8.6 2-2.3 2.5 2.1 1.4 3.2 2.6 1.2.4-1 3.1 1.2 2.1 2.1-2.5 5.7 5.3 7.5 5.6 8.2 4.3-2.3 1.7-5.7.6 26.1 8 11.5 31.5-3 8.4 11 20.9-16.6.8-23.7 11.5 8.9-4.3 8.3-.5 11.5 6 6.2 3.4 16.1 2 7.8 9.9-2.1 10.4-8.4-1.4-5.7 5.6 1.7 3.4 7.9 1.7 9.5 3.6-1.3 6.6 16.4.8 6.3 9.7 5.1.4 10.8 1.4-1.7 3.7 6.8 3 14.6-1.2 4.1 6 11.8 5.2 18.6 21.8 26 31.7-3.3 3.4-11.2 12.4-14.8 9.9 7.8 5.2.3 4-4.6 3.6 2.9 2.5 8.6 1.6 7.1 7 10.9 19.9 39.6 27.2 51.6 46.6 34.3 17.6-41.8 27.6-46 1.8-16-9.2 18.2 24-5 15.2-18.5 2.3-32.8 93.9-15.6 72.3 4.8-1.4.6 3.9-2 3.9 3.5 2.6 2.5 5.8-1.5 7.2 4.3.1 1 5.6-1.6 4.4-3.4 2.1 8.4.9 6.9 4.7-3.2 2.2-6.6 2.2-9.1 2.9-1.1 9.4-3.6-2.6-5.1 3.4-8-11.3-13.2 24.2-28.9 22.4-2.3-.6 1.5-4.9-1-4.2-1.8 3.4-.4-1-1.3-2-3.4-10.5-5.9-6.6-1.6 1.4-2.9 3.6 4.4 2.3.5 6.1-.5 1.1.4 3.4-.2 4.5-26.8 8.4 3.5 11.6-22.5 19.2-3.2 1.8-11 8.1-2 6.1 11.3-6.6 3.9 2.1 8.6 6.2-.8 16.7-3.2 4.8-9.9 15.2 16.7-1.6 20.8 1.5 12.7 22.3-3.3 1.9-3-6.7-7.1-2.4-6.4-1.8-2.2 2.7-4.8 5.6 11.5-11.5-.4 45.3-7.9 12.1-3.3 6.3-1.6 10.2 2.2 14.3 7.8 5.3 1.9 3.5-1.6 6.3 3.8 7-2.8.1-7.6 13.9-5 23.2-43.2 24.9-62.1 38.3-23.7 29.9-13.2-64.9-21-33.8-22.8.1-2.1-18.4-8.9-13.9-5.6 11.9-13.8 8.8-11.4-2.8-.4 8.7-8.9 12.1-16.1 14.9-19.8 7.5-.1-20.4-17.8-16.3-5 5.8-5.5 6.4-9.9-.7 8 14-12.5-9.1-14.5-13.9-.5 15.9-19.3 38-39.6 22.7-8.7-2.1-27.3 27.7-25.3 7.8 1.4-5.2-3.9-47.4-7-38.2 2 4.3-3.3 6-1.3 7.2 4.3.2-6.7 7.9-8.4 4.8-9.4-15.2-27 14.3-38.9 2.1-11.8 0 18.3-12.6 4.9-7.1-7.9.2-14.3 18.9-14.4 2.4-4.2-17.5-27 19.9-20.7-7.9-.2-2.7-1.4-5.8-1.8-8.5.5-3-5.4-1.3-1.8-4.6.4-3.9 5.2 0 5.5-4.2-16.5-2.7.2-35.3-20.4-40.1 18.8-20.9 2.6-35.5-9.3-51.8 0-1.5 3.7-4.4.2-3.1-3.3 14.4-8.4-4.6-17-1.7-2.6 13.2-19.1-16.7-2-8.9 10 6.3 5.3-1.4-1.1-2.5-1.3-.5 1.3-1.2-.4-1.8 10.6-1.5-19.7-.6-13.1-15.1 4.2-2.3-9.4-8.2.3-9.1 2-.7 6.5 3.2 5.4 1.1-3-2.2-.8-6.6-2.1-9.6-1.1-1.5-2.6-6.8 1-4.6 12.1 2.4-3.3-2.8-5.1-12.7-1.3-4.1-9.3-1.6-9.8-5.6 5.6-10.9-9.7-26.7 1.8-32.2 5.2-4.3-4.7-13.8-.1-16.6 6.9 2.6 20.3-16 14.3-10.7-14.4 17.6-10.3 4.3-7.8-9.5 4.3-4.1 14.5-11 14.3-16.5-5.7 5.3 1.2-1.6-.1-4.8.1-5.3 11-2.7 14-6.2 4.9-7.4 1.8-1.3-.4 2.7-9.5 9.9 22.1 42.2 32.5 46.7 8.5 15.6.4 5.5 10.6 10.9 5.1 10.5 15.2 4.4 21.9 2.9 14.6-17 41.6-1.2 56.1-5.3 11.2-17 11.7 5.1 19.7-21.5-1-13.4 34.1-10.5 43.8-10.5 4.7 2.9-2 6.1-2.1 8.4 19.6-3.1 37.1 22.2 50.5-1.1 5.1-1.8 11.8-2.4 15.8.7 2.7-1.3 9.8-6.4 12.9-4 8.2 10.4 14.1-12 13.5-19 23.7-8-10.5-20.8 13.1-26.8-1.6-7.8 22-9.5 13.4-17.8-1.8-2.5-6.2 1.8-5.6-2.2.5-6.5 4.2-27.6 13.6-20.7 17.8-1.9 4.3-16.9 13.9-25.4 4.4.5-1.5-8.8-1.2-11.9-.7-4 2.6-9.3 2.4-13.3-2.4-1.6-4.3-3.8-.4-5.2 5.1-23.4 9.8-9.2 14.2-25.7 16.4 13.1 7.7-.8 20.1 1.8 10.7-4.4 6 7.6 15.1 1.9 14.8-4.1 35.8-3.4 57.5 9.2zm1265.9 391.8c-13.2 51.4 31.9 458-28.2 348.5-22.4-21.7-31.9-18.7-18.1-39.3-12.5 14.3-.6 10.3-26.4 12.3-9.1 5.7-23.1 7.4-21.1-7.1-3.2-3.5 1.8.3 2.6-1.7-9.4-4.4 2.4 8.5-8.9 8.4-7.8 2.2-9.8 17.5-14.6 3.9 10.1-30.8 19.4-34-8.9-57.9 9.8-2.5 23.7 8.9 29.9-2-33.5 11-51.5-34.2-3.2-11.6-2-.2-40-19.9-23.7-17.2 10.5 5.4-2.1-1.5-3.5-3.6-23.3-22.4-8.7-16.7-21.7-38.3-4.1-5.4 8.6-4.9 5.9-6.3-1.3-.2-2.3 1.1-3.4.8-22.6-4.4 7.5-9.9-.1-10.5-25.2 11.9-7.7-15.1-15.1-13.7-1.9-1 1.6 4.3-2.2 2.5-10.2-9.8 1.4-9.1-10.3-7.3-4-4.3 3.4-6-4.1-4.6-3.1-7.1-7.5.2-8.6-8.9-1.2-.8-1.8 3-3.4 1.2-1-3.4-9.1-1.3-7.6-5.6.5-2.6-1.2 1.4-3.3-2.7.7 2.2-2.3 1.8-2.2 0 1.8-9.1-2.2 3.5-5.3-.5-2.2-1.6.3-4.3-2.9-.7-3.2-.6 1.1-8.5-2.3-3.2-10.5 4.1-3.6-4.5-6.8-2.8-12 7.3-26.2-13.7-41.7-13.1-20.7-17.9-76.7-4.6-80.2-35.1-7.8-13.6 22.5 1.1 12-7.1-17.8-3.2-15.6 11.5-29.3-1.4-5.5-4.5 3.2 3.7-3.7 2.6 3.5 3.3 1 6.7-1.8 1.6-7.3-.7-3.4-6.5-7.1-4-.7-3.6 6-2.6.3-8.4-4.2-1.5 3.8 5.1-6.7 2.8-3.1 8.3-8.7-9.6-10-12.5-5.6-.6 1.7 8.7-1.5 7.5-.3-1.7-2.2-4.5-4.2-3.3-3.9 2.4 1-3.4-4.6-9.2 4.6-10.6-1.7-15.5 9.4-22.6 1.8-5.3 6.8 4.2 4.9-1.9-5-.3 0-16.2-5.3-5.8-12.6 6-5.6 35.1-15.7 23.1-1.9-.7 1.5 4.3-1.8 3.2 17.3 7.1-14 14.6-1.9 23.8-10.1 17.6-35.6 21.5-36.2-2.5-9.6-21.5 9.2.8 6.2-16.2-2.7-6.3-6-.7-4.4-12.8-5.2-7.4-4.9 10.6-11.7-4.2 1.6-13.1-26.9-19.6-33.5-17.5-1.3-2.1 5.2-3.4.4-5.1 9.2-3.7-7.4-1.4 1.1-4.8 3.9.2 3.4-1.6 7.9-1.5 4.6-1.7-5 .2-1.9-2.1 9.3-5.3 20.8 5.5 18.8.6 28.2 19.1 36.7-45.8 50.5-1.9-.6-4.2 3.2-18.2 3.1-4.6-.1 1.9-.8 4 .6 1.2-.1-4.4.6-8.4 2.5-1.5 7.8-6.9 8.6.7 8.8 7.4 1.4-2.2-.1-14 3.5-10.9 6.6 14.9 2.7 1.5 3.9-3-9.6-1.6 2.8-5.2 4.8 0-5.3-6.8 2.2-2.2 5.2-5.1-14.8.1 4.9-4.2-7.5-3.2 3.9-.4 6.2-4 4.5-7.6 1.1 2.7-7 7.6-7.7 3.9-1.9-2.7 6.2-4.1 7.7-5.9-.7-1.2-2.9 1.8-3-.4 8.5-7.3-9.5.4-11.7 2.4-11.1 3.8-34.3-1.6-53 5.9-9.4-3.4 1.8-12.2-19-2-4 .6-4.7-4.2-7.2-6-4.3-2.3-14.7-4.4-4.7-9.7-12.4 3.5-11-12-5.6-18.7-8.2 4.9-9.5-4-2.3-8-1.4-.8-6.4 3.9-5.1 1-8.3 3.9-2.5 3.5-5.3-3.4 1.3 3.5-4.6 6.6-4.6 2.1 2.4-2.2-2.1-.9-3.2-.5-6.9-6.6-10.9 1.7-14.1-4.3 2.6-2.6-1.7-3.4-3.5-2.9-.1.1-3.4-2.9-2.6-.5 7 4.8.5 5.3-3.7 7.6-1-7.7-15.1-.5-13.7-6.9 32.2-27 2-32.1 28.9-38.1 57.8-12 27.2-45.1 112.7.3 10.4-1.6 22.3-3.4 32 6.2.1 2.9-10.6.8-4.6 10.9 23.1 33.7-17.9 45.8 19.6 102.1 9.7 10.4-2.8-14.4 5.7-20 2.5 1.3 6 2.3 6 5.8-.4 46.9 12.8 7.3 10.5 25.6-3.8 2.9 1 19.4 6.1 13.6-1.7 6.1 4.4 5.1 8 7.2 24.9 3 18.8-.5 34.6-15.7 14.2-9.7 5.5-8.2 14.1-20 22.2-11.8 10.4-28.6 28.1-32.3 7.9 11.7 21.7-6.4 33.6-4.5 14.4-14.2-24.3-9.4 18.6-28.4 48.2-19.1 107.5 49.4 154.2 47.6.2-3.5 22.6-1.6 20.9 7-5.7 6.6 7.9 1.5 13.1 2zm-1491.6 340.4c4.9 3.8-10.4 4.2-5.4 0-1.2-1.8 4.3.4 5.4 0zm527.4-1.3c6.3 3.7-6.1 1.3-12.6 10.7-5.5-6.4 8.1-9.9 12.6-10.7zm275-10.2c1.3 3.3-10.3 2.6-7.4-1.1 1.1-2 7.9-3.1 7.4 1.1zm43.2-2.6c1.8 5.3-7.2 2.4-9.6.9-2.8-4 7.8-2.5 9.6-.9zm-69.7-2.8c5.1 4.2-5.3 5.9-7.5 2.8 1.9-1.2 5.1-4.4 7.5-2.8zm-545-.6c3.5 1.4.1 2.9-1.3 4.4-6 22.2-16.6-8.5 1.3-4.4zm516.6-7.1c2.5 3.2.1 6.3-3.5 4.1.2-2.1.3-6.1 3.5-4.1zm210.3-23.3c2.7-2.3.8 3.4-.7 3.7-5.2-1.7-.5 2.1-5.7 1.1-2.9-3.3 4.9-3.9 6.4-4.8zm-7.4-5.5c4.1 1.2-8.6 2.5-6.7-1.2 1.1-3.2 1.7.5 4.1-.2.9 1.4 4.9-.8 2.6 1.4zm11.2-7.6c1.1.9-6.8 7.7-6 5.4-10.5-3.7.1-5.1 6-5.4zm5.9-4.4c2.1-1.7-.8 3.8-3.1 1.9-.9-.3 2.7-6 3.1-1.9zm403.9-32.2c4.6 6.7-4 5.7-6.2.5-4.4-6.3 3.9-1.3 6.2-.5zm-387-5.7c2.9-.2 1.3 3.8-.7 2.4-2.6 1.5 1.1 2.4-.1 3.6-4.7 3.6-2.5-5.6.8-6zm168.2-5.3c4.4 2.6-1.4 7.5-2.1 10.7-4.9-.6 0-9.8 2.1-10.7zm-5.4-9.8c-6.2 11.8-2.7 2.9-14.1-3.6 3.7-8.2 11.2-.9 14.1 3.6zm12.6-7.8c5.3-1.6.3 11.5-1.6 10.3-2.4-3.8.9-5.9 1.6-10.3zm-25-1.9c4.4 2.4 1.5.5-1.7 4.4-2.1-3-12.1-8-8.5-10.4-.9-2.8-3.6 3.8-4-4.3.6-2 2-6.7 2.5-1.9 5.3-3.1 2.6 1.3 4.9 1.6 3.1-1.4-2.5 2.8-.5 4.3 3 2 4.9 5.9 7.3 6.3zM1105 1206.8c-16.5 0-33.3-13.6-48.2-6.1-9.1-2.8-6.6-10.5-11.2-4.3-27.1 16.8-50.1 2.4-81.6-9.5-95-4.2-12.5-32.7-54.6-29.7-12.4-14.1-30.9-7-46.5-7.8-5.8-6.3-9.9 4.5-11-5.3 5 2.5 5.5-9.6 9.4-3.9 4 18.3 12-6.9 13.1-12.4 13.3 10.3 7.8-13.8 12.1-21.7 4.5-5.6 11.2-21.4 14.1-7 4.3 4.5 5-4.2 9.2-2.6 8.4 8.7 19.7-.7 26.7 9.3 16 3.7 8.4-15.8 18-9 7.2 6.2 8.5-7.5 17.3 9.1 5.2 8.4 16.7 6 21.8 5.9 2.8.4 20.1 14.3 18.9 1.3 44.4 52.7 27.9 26.9 115.5 42.8 21.1 2.4 21.5-65.1 44.1-15.6 23.2 4.4 12.1-6.3 23.1-2.5 5.3 3.8 9.9 11 17.7 8.8 13.1-.9.9 11.2 28.7 4 2.4.3 4.1 4.4 6.6 2.2 4.2-8.5-1.1 11 5.4 7.6-7 4.8 8.4 9.6-2.9 9 1.9 3 5.9 4.7 7.6.7 17.2 16.7-24.1 12 29.2 33.7 10.6-4.8 23.6-3.7 34.9-5.7 8.4-7.8 6-2.3 13.1 1.7 30.7-7.7 2.3 52 12.6 42.9-1.8 12.7 29.5 20.8-.9 17.6-3.3.1 5-6.8-6.9-8-4.5 4.1-3.7-1.3-8.5 1.6-3.3.5-3-3.3-5.9-1.2-3.4.3 1.4-5.2-3.9-2.4-1.9.3-4.4-2.9-5.4-1.2 0-7.5-5.2 1.7-5.6-3.2-6-1.8-11.2-6.9-17.6-7-14.6-16-33.1 13.5-77-6.1-3.4 3.8-8.1-3.8-10.8.2.3 5.8-2.1-1.4-3.2 1.2-.8 8.3-2.5.3-14.2.6-24.6-5.7-55.6-10-83.2-28zm765.8-109.4c1.7 7.3-2.9.2-5.2-1.6-1-6.4 3.9-1.6 5.2 1.6zm472.2-20.6c-.3 1.2 1.7 6.2-.5 3.4-.3-1.2-.1.1-.2.3-6.1 1 2.1-14.7.7-3.7zm-25.9-5.5c1.1 1.9 3.6 1 3.2 1.8-1.3 3.6-5-.2-3.2-1.8zm-461.9 0c2.5.2 2.6 7.3.1 3.4-3.1-3.6-6.8-8.8-.1-3.4zm-12.8-15.6c4.8.3 7.1 3.7 4.3 7.6-2.9.9-7.1-6.7-4.3-7.6zm199.8-82.8c3.1 3.2-.7 7.6-4 4.5-3.4-2.5.8-6.8 4-4.5zM1776.5 955c2.8 1.8 1.9 2.7-.8 3.4-2.1 1.5-.8-3.2.8-3.4zm561.4-3.4c.8.9 1 4.8-.7 3.3-1.4-1.3-.6-3.7-2.8-3.6-2.4-3.5 2.9-2.6 3.5.3zm-555-2c2.2.6 1.1 4.8-.7 3.4-2-1.8-1.4-8.5.7-3.4zm279.9-6.5c5.4 5.7-6.2 1.8-7.3-.8 3.7-2.8 4.2-3.6 7.3.8zm8.5-8.4c6 5.1-9.3 7.7-6.1 2.3 1.5-1.7 4-4.1 6.1-2.3zm9.8-14.3c8.5 4.8-16.2 11.3-2.8 2.7 3.1.1 0-3.3 2.8-2.7zm-220.5-52c1.1 3.5.8 2.8-2 1.8.4-.8 1.2-3.7 2-1.8zm25.5-3.4c1.7.6 1.2 3.2 1.2 4.6-1.8-1.5-6.2-4.3-1.2-4.6zm-37.4-3c-.1.5 1 3.3 0 3.1-.5-.4-.6-4.7 0-3.1zm4.4 0c.9 1.5-.1 2.2-1.4 2.9-.6-1.1 0-4.2 1.4-2.9zm-814.5-11.3c1.1-1.6 3.9-1.3 5.5-.6-1.2 1.5-3.9.8-5.5.6zm1011-20.1c1.7 2.4-2.9 4.5-4.7 3.4.1-3 2.8-4.4 4.7-3.4zm-984.4-6.3c1.8.4-2.3 4.8-2 2.3-4.2 1 .8-2 2-2.3zm4.6-5.1c1.6.8-.3 3.3-1.7 3.3-.9-1.2.5-3 1.7-3.3zm-258.2-52c2.9 1.9-1.6 3.2-3.3 2.7-3.1-2.2 1.8-2.7 3.3-2.7zm-88.7-32.6c1.1-.9 3.5-2.4 4.8-1.2-1.2.7-4.1 3-4.8 1.2zm13-19.3c.9 6.1-1.8.7-2.3-1.6.4-1.6 2.1.8 2.3 1.6zm23-4.5c1.7.3.3 2.6 0 3.5-3.1 3.8-1.6-2.3 0-3.5zm-21.2-5.3c.9 1-.2 4.1-1.4 4-1.1-1.4-.4-3.8 1.4-4zm78.5-.3c7 1.4-.5 1.3-2.9 2.8-.4-1.8 1.2-2.9 2.9-2.8zm-48.5-2.4c1.3.6 5.3 4.8 1.8 4.3-.4-1.3-2.1-2.9-1.8-4.3zm-11.1-4.6c2 1.5.5 4-1.6 2.2-2.2-2.3-.8-2 1.6-2.2zm929.4-8.9c.7.3 2.8 1.9 1 1.7-1.6-1.3-4.8-2.6-1-1.7zm-14.6-.4c2.5-1.5 1.5 4.8-.5 2.8-.1-.9 0-2.1.5-2.8zm-28.8 113.2c-.4-14.3-6.6-29.5-2.9-44.5-6.7 3.3-11.1-5.4-6.3-7.9 8.7 8.3 7.9 11 11.5-2.4-2.1-5.6-10.4-8.6-1-12.5-4.2-10.5 10.3-10.8 9.2-17.4-4.4-16.2 11.7-2.6 11.7-22.1 7.5-7 1.5 10.6 11.9 9.7 13 2.9 2.9-9.5 12.7-10.6 1.6 1.4 1.6-1.4 2.3-2.2 6.6-1.9.1-19.9 6.5-17.7 13.8-4.3 20.3 10.3 31.9 2-5.8 17.6 15.2 11.9 25.9 11.6 1.1 8.7 6.6-1.4 11.2 3.1 5.1 2.5 6.5.1 12.3 1.6 12-4.2 24.5 19.8 31.5 4.8-.5-4.6 5.4 0 7.5-.1 15.8-4.6 5.3 3.5 15.5.1 32.5 15.2 39.9-6.3 63.4-16.4 1.5 4.1 5.3-3.5 1.9-3.9-6.8.9-1.2-6.6 1.6-8 12.2 6.7 15.6-27.2 23.9-14.9 5.3.3 6.9-2.9 5.7 5.2 3.2 3.3 7.3 6 .5 8.4-53.1 101.3-76.9 52-162.8 56.2-7.9-2.3-7.6 1.6-14.8 2-13.4 2-2.9-11-25.2-2.7-62.2-16.6-111.3 45.9-50.8 84.2 7 3.9 3.6 28.6 13.5 22.6 7.5-1.4 23.7 10.5 24.5-8.1 23.9-46.2 32.5 4.2 55.1-26.4 8-.7 59.7 2.5 31-4.5-6.8-2.3 5.5-4.8 8.8-4.7 6-2.8 21.6-4.2 27.1 6.1-5.7 45.7-16.6-1.8-20.8 9.9-25.9 3.2-29.5 43.2-58.8 44.9-21.1 4.2-5.1 27.7-32.9 8.5-1.4-3.3-4.8.2-3.3 2.6 4.7-1.6-.2 3.8 1.8 5.3.1 8.5 2.5-4.5 4.1-.6 4.7 12.1 15.2 13.2 23.4 22.8 6.5 11.8 10.7 27.2 21.5 32.1 8.8 2.4-6.8 10.4 12.3 16-5 9.5-.2 3.1-7.2 5-6.4 7.6 2.4 4.9 2.4 10.5-.9 3.7-1.7-2.7-4.8-3.2-4.2.1-.4 3.2-.2 6.2-12.2 10 11.6 19.8 20.2 24.7 1.7 3.1-10.6 4.3-3.4 4.8 5.4-1.1 2 12.1 6 8.3.8-.5 5.1 1.9 7.1.3-.9-1.6-5.8-4.8-1.9-5.1 7.5 4.1 6.8 18.3 1.9 23.1-1-1.3-10-9.9-8.7-6 1.9 2.4 7.8 6.8 3.5 8.9-.8-.4-3.3-3.8-2.2-.8-2.2 1.7-3-7.3-7.6-3.8-58.7 6.1 3.2 36.8-49 22.1-15.1-2.1-7.5-27.4-5.2-31.6 15.8-12-33.7-25.1-37.4-45.6 5.7-10 19.9-30.1 6.6-37.5 14.8-9.2-19.8-15.9-23.3-4.7-36.4 20.8-4.8 14-8.6 45.6.8 33.2-2.1 66.8-5.1 98.4 2.1 6 11.5 22.5 5.9 23.6-4.9-13-15.1 3-24.6-3.2-8.2.7-4.1 10.7-15.3 7.8-2.6-.1-1.8-9.2-5.3-3.2-2.7 2.7-1.8-9.2-6.7-4 2.1 2.5-2.6.9-1.8-1.3-6.6-18.1 4.3-38.8 9.1-57.4 8.6-32.3-9.8-36-4.2-58.1-13.2-23.5-35.5 23.3-38-23.2-7.2-6.4 3.6-2.1 4.1-16.2-22.7-11.4 13.1-13.1 13.5-29.2-4.5-15.3 10.6-20.9 12.3-32-13.8-16.4 17.2-92.5 25.8-55.3zM2072 620.3c2.1-.6 1.8 1.8 1 3-2.7 1.4-4.6-4.5-1-3zm22.1-6c-.2 1.8-1.9 7.1-3.4 2.9-1-2.5 1.9-7.6 3.4-2.9zM620.5 645.7c-20.3-46 19.1-26 25.9 6.7 23.2 3.7 39.3 12.9 44 42.1 21.2 22.3 11.9 9.5 36.7 15.9 11.3 11.9 13.7 14.6-3.1 21.5-12.9 7.2-13.3 8.8-22.3 5.7 5.3 2.1 5.9 7.3 11.8 1 18.7 1.3 40.3-35.3 50.8-5.3 7.2-7.4 10 11.5 10.5 16 2.5 4.5-7.6 1.7-8.9 4.8-4.9-4-3.4-1.6-2.7 2.7-1.2 1.9-4.6.1-5.3 2.1 1.2 6.2-16.8 6.2-9.3 7.7 14.3-6.7 11 3 1.6 5.6 2.7 2 19.5.7 10.9 7.5-3.7 1.1-8.7 3.2-9.4-2.3 6.1 14.4-6.7 11.1 5 19.3-3.5 3.2 2.1.1 3.4 1.9 3.1 5.6 8.8 8.4 14.4 11.2 2.5 6.5 1.3 0 5.7-1.1 37.3-1.2 30.4 24.8 32.3 54.8 2.1-3.4 2-7.4 5.9-2.1 4.6 1.1-2.9 7.3 0 6.9 5.2-5.7.9-.3 4.1 1.4 18.7-8.4 8.2 19.3-4.2 20.8 8.5-7.1 8.5 9.5 3 11.4-6 .2-9.1 14.2-5.3 8.1.4-6.1 7.9-5.7 10.1-10.3 1.1-5.7 1.9-13 7.2-16 5.2 10.2-2.3-2.2 12.6 5.5 9.5-4.8 19.5 2.5 25 1.3 7-1.9-1.1 8.8 2.7 12.3 5.9 7.7 10.5-.8 8.9 14.3 9.1 11.8 16.7-1 14.7 23.5-28.8 6 10.9 184.7-30.1 139.8-8.2-5.2-13.6-21.9-14.5-6-7.6.8 2 4.8-4.4 10.1 9.6 8.8-23.6-8.2-24.2-12.6-21.2-8.8 1 14 .1 23.4-14.9 1.1-2.8-1.9-13.7-9.1-10.5-10.7-21-24.2-30.4-33.2 3.9-5.4-5.1-9.6-9.1-10.7.9-2.4-.5-4.6-2.9-3.2-58.7-36.3-113.6-101.7-153.6-163.7 10.2-13.2-10.8-24.1-11.2-37.3-4.9-3.9.3-10.6-8.2-12.7-5.3-13.6-15.7-41.7-35.9-58.2-4.5-38.4-37.4-13.8-37.8-46.2-2.2 1.2 1.3-5.9-2-6.2-4.4 1.3 1.2-9.3-4.1-11.3-1.6-.1-1-2.5-.9-3.5-.5-18.2-19.7-34.7-8.5-43.1-4.6-10.3-28.5-26.1-48.1-37.1-20.5 5.7-12.4-24.2-18.4-35-35.2-49-118.1-81-126.7-148.2-2.8-38.7 56.6 22.8 75.8 12.1 23-10.6 22.3 10.8 47.4-1.5 8 13.7 28.4 21.1 25.5 39.1 7.5 2.8 18.8 5.6 14.6 20.8-1.8 2.3-6.1 1.7-4.7 6 1.7-6.7 27.7 9.1 28.2 15.9 25.2 17.6 76.1 47.7 71.1 67.4-5.7-4.1 5.5-5 3.3 1.3-.1 1.3 2.6 9.7 3.3 5.6-1.5-23.7 13.2 8.1 16 16.1 9.3 10.3 23.1 12.2 27.4 26.3zm1073.3 685.6c8.5 20.2-32.3 23.5-40.7 9-8.4-17-28.4-21.6-44.4-21.7-25-4.4-10.9-26.9 8.9-21.6 10.7-4.6 21.3 5.2 30.4-5.3 3.6 2.5 6.7 13.6 12.8 10.5 7.1 4.3.8 16.3 13.7 9.7 8.4 3.5 10 15.2 19.3 19.4zm-283.5-76c2.3.5 3.2 4 4 6-3.6 6-12.6-5.2-4-6zm225.7-2.6c10.8-.6-5 4.1 0 7.1-.2 5.3-3.6 1.9-6.3 1.6-.3-2.5 4.4-4.3 1.9-5.2-1.4-11.8 2.7 5.2 4.4-3.5zm-8.9-6.1c2.1 2.2.2 6.6-2.3 3.2-1.3-1.3-1.7 2-3.2 1.4 4.2 2.7-.5 1.4-.8 4.8 1.9 6 .2 2.1-3.3 3.6.4-3.2 1.6-24.1 4.7-15.3 1 .7 7.6-.6 4.9 2.3zM1832 1232c.7 10-11.4 8.6-17.8 7.2.6-7.7 12.1-11.6 17.8-7.2zm-363.1.4c17.6 4.9-13.4 31.9-5 32.9 6 3.3-2.3 4.2-5.1 4.9-1.8-1.2 4.3-6.2-1.3-4.9-2.4 0-.5 10.3-1.9 5.1-3.3-2.3-9.9 1.7-12-2.6-2.3-1.3-6.8 3-4.5-.8-.6-1.1-3-.2-2.5 1.1-.6 4.6-2.9-3.5-5.9-1.6-6.2-.5-6.7-11-1.9-5.9 17.4 1.6 2.6-44.8 40.1-28.2zm132.6-8.4c3.9 1.4 3 6.3-.4 7.6-4.7.3-3.7-7.3.4-7.6zm6.4 28.1c-2.7 17.3-14.4 1.1-25.7 7.2-4.6 4.8 13.5.2 11.7 6.3-29.5-5-29.7 11.2-28.7-15.2-10.8 26-117.9 48.5-85.6-.5 1.5-4.9-1.6-3.3 3.1-2.8 6.8-1 10.7-7.2 15.3-9.4 25.1 12.3 5 1.2 21.3 3.3.1 3.7 1.8 8.1 1.7 1.4 2.8-3.4.1 9.7 6.5 7.2 2.5.3 1.6 2.6 3.7 3.7.3.9-2.7-.1-1.3 1.6 1.5 6.6 5.9.8 9.1 4.1 3.4 2.8 5-4 8.1-4.5 3.3-1 14.8 2.6 10-4.6-9.3-3.6-49.5-22.9-16.8-28.8 15.3 1.9 7.9 6.6 16.7 14.9 3.4 4.6 7.3-1.9 9.5-4.7 15.1-1.6 13.3 7.6 12.1 16.9 6-5.4-1.4-14 10.4-15.1 14.6-1.9 5.8 16 11.7 21.3 5 .5 4.2-9.1 7.2-2.3zm206.7-18.9c1.1 4.7-4.8 2-6.6 4.4-.6 3.9 1.3 8.2-4.5 4.3 3.8 22.3-38.6 13.1-53.3 24.7-4.1 4.5-7.9-3.2-10.2 2.8-.3-7.3-7.6-4.2-12.2-6.3-5.1-1.3-.6 5.5-4.3 7-16.9-4.1-8.3 3.8-22.6.5-9.5-14.2-6 3.4-17.4-7.3-5.5-2-11.9.9-17.4 1.6-3.8-.2-6-6-10-2.4-12.1 1-6.8 9.4-12 .8-9.6-4.3.5-16.2-.3-22.9 5 6.7 14.4-5.1 22.2-8.4 3.4.4 6.2 1 7.8-2.5 2.4 1.5 1.4 4.9 5.4 1.6 14.2 2.3 36.8 10.2 53.4 20.3 6.9-7.3 8.5-7.1 19.6-6.5 3.2.7 7-6.3 9.2-2.5-3 6.2 24.1 17.1 25.5 4.6-8.2-6 29.7-13.2 21.9-19.9-3.4-1.4-13.5 7.7-7.7-1.5 4.5-12.1 11.7 1.1 13.5 7.6zm-400.6 0c18.6 12.9-29.8 17.5-20.7 31.1-14.4 10.4 10.1-21.2-32.3-24.7-8.3-5-18-22.1-1.4-16.2 24.4 11.7 33.1-16.8 54.4 9.8zm-356.9-31.1c4.4 3.2-9.7-2.3-11.9-1.4-2.4-6.1 10.1-.3 11.9 1.4zm354.3-49.8c1.2 5.4-18.3-3.5-9.4 3.6-16.1 5.5-8.5-17.6 9.4-3.6zm-711.9-87.4c-.8 2.2-3.4 1.8-.9 4.3-1.9.9-5.1-2-5.8 1.3-1.8-5.8-13.4-8.5-7.4-12.2 4.2-.8 11.7 3.4 14.1 6.6zm726.8-37.2c1.4 1-2.8 4.9-3.9 3 .4-.9 5.4-6.6 3.9-3zm29.9-79.6c3.5-3.8.2 12.7-.7 14.3-4.9-5-3.1-9.5.7-14.3zm-5.2 18.8c-12 50.3-22.8-11.2-7.2-24.4 9.2-13.5 4.9 17.3 7.2 24.4zm-854.2-34.5c-.3 1.2.8 2.4 1.5 3.2-1.7 1.3-3.3-2.2-1.5-3.2zm-5.9 3.5c10.6 16.5-6.4 2.5-3-2.7-2.8-4.6-10.1-6.7-7.9-13.9-5.9-19.4 24.7 12.3 11.8 13.8-3-.5-.4 1.4-.9 2.8zm-10.4-28.4c2.2 6.6-7.2 6.6-9.1 8.1-6.4-13.8-6.9-30.2 9.1-8.1zm-20.7-23.2c6.3 8.7-5.3 1.5-8.2-1.3-7.7-.2-.5-2.4-4.2-2.5-.5-2.4-1.1 1.5-2.1-2.6-3.7-4.1.3-1.8.4-3.6-.1-17.1 10.5 6.3 14.1 10zm494.3-41.7c1.4 4.6-10.1 8.4-7.2 1.3-5-2 5.6-5.3 7.2-1.3zm43-27.2c4.1 4.3-12.2 7.2-13.9 10.9-7.7 1.5-2.7-15.1-1.5-18.3 6.5 2.1 16.9-3.2 15.4 7.4zm-567 30.7c1.1 1.6 1.7 4.6 0 6-.3-1.6-1.2-7.9-3.3-6.6-1.7.7 6.1 10.9-.3 8.5-46.3-1.4-34.2-93.6-2.4-20.6.8 4.9-2.7-1.2-1.8 2 2.6 4.5 6.7 6.6 7.8 10.7zm-41.8-68c-.8 2 .7 4.7-.4 6.1.3-2.1-2.6.7-1.4-1.6-5.8 0 1.2 5.4-10.4-.8 7.2-.1 2.7-8.4 6.6-12.3 3-9.5 6.9 4 5.6 8.6zm-1.2-17.5c10.7 23.6-4.1 1.6-8-7-6.2-3.5 7.5-5.2 8 7zm260.3-45.4c2.7 4.9-5.7 8.2-8.3 5-1.3-6.5 4.8-14.9 8.3-5zm12.2-11.2c2.5 4.8-5-2.4-5.3-3.2 1.5 1 4.5 1.5 5.3 3.2zm16.2-3.9c5.5-.8 9.2 11.6 4.1 4.4-1.5-1.1-3.6-2.4-4.1-4.4zm-17.8 6.3c3.1 9-6.9 7.9-8-.4-.3-9.3 5.1-4.2 8 .4zm16.9-4.3c3.2 3.6 3.1 7.1-2 2.8-3.8-3.1-1.2-7.6 2-2.8zm7.6-8.3c4.7 5.3-4.3 3.7-5.5.4.9-3 2.9-1.2 5.5-.4zm46.3-2.1c2.7-.4 3.9 5 1.6 3.9.6-2-2.4-3-1.6-3.9zm149.5-.3c3.4.5 1.3 4.3-.8 3.5 2-1.7-3.5-3 .8-3.5zm-222.8 1.4c-2 4.4-11.3-4.5-4.1-6.9 1.7-.1 1.7 5 4.1 6.9zm-21.3 12.5c.1 11.3-3.5 3-8.3.4-7.8-2.4-17.3 3.3-23.6-2.4-5.6-3.6-1.1-5 2.3-7-.3-3.5-4.6-13.4 3-10 6.8 13.9 15 1.1 26.6 19zm4.2-7.6c8 16.1-20.3-12.4-27.1-4.7 4.1-16.1 21.8-6 27.1 4.7zm55.2-13.5c.8 19.4-18.6 3.5-10.7 4.7 1.1-1.9-2.2-4.7 2.5-3.2 2.6-4.3 1.4-3.5 4.8 0 0-2.8.8-4.7 3.4-1.5zm27.4 3.7c3.2 10-7.5 21.9-9.8 10.2 2.7-1-1.6-1.2-2.4-1.6-1.5-1.3.9-1.8 1.8-2-.3-.5-.4-1.9.3-2 1.1-6.2-9 3.8-12 0-1.8-11 10.8-8 17.7-11.1 1.2-3 0 6.1 4.4 6.5zm-117.9-8.4c-.6 11.9-1 28.1-12.7 9.3-1.8-16.4-4.2-27.6 12.7-9.3zm1.2-7c3 12.9-7-1.4-10.3-3.5-17.2-1.1-21.4-17.1-9.1-9.6 7.7 2.6 22.1.6 19.4 13.1zM491.2 654c7.3 4.8-6.6 4.3-6.8.3 2.6-6 3.4 4.4 6.8-.3zm-76-21.8c-3.7 4.1-2.1 2.7-4.4-1.7 2.4-1.9 4-2.2 4.4 1.7zm247.2 0c7.7 7.8-4.4 28-14.1 17-2.7-5-7.2-21.1 3.8-16.9 4.8-1.6 5.9-7.9 10.3-.1zm-274.6-4c4.4 1.3-2.8 5.7-1.8 1.2 0-1.1.8-1.5 1.8-1.2zm37-1.2c3.1 14.3-5-3.9-12.2-3.8 4.7-3.3 4.2 1.5 6.4-.1 3-2.9 4.8 1.6 5.8 3.9zm1150.4-5.6c.3 1.2 4.8 4.3 1.8 3.3-2.5-.5-6.4-9.3-2.3-6.9 1 .2 3.8 3.3 1.5 2.1-3-2.4-1.9-1-1 1.5zm-1196.3-9.9c-2.9 13.6-18.1-11.3-27-10.9-7.8 1.2-9.8-7.6-15.3-10.2-1.4-6.5 4 .7 5.1-9.5 5 3.4 8-1 5 5.6 3-2.1 4.4 2.6 6.5 4 12.1 1.6 1.9 5.4 8.3 7.5-1.4-4 9.5 5.9 11 7.4 1.5 6.4 2.8-5 6.4 6.1zm1137-53.2c4.8 2.8-3.2 3-4.7 2.6-.8-2.8 2.7-4.2 4.7-2.6zm6.6-6.1c5.9-.1 1.3 6.4 2.3 9.6-2.6 3.8-13.1-12-2.3-9.6zm14.5-3.4c1 5.6-5.6-1.6-6.3-3.5 1.3-4.9 6.1.7 6.3 3.5zm-20.3 1.1c-2.3 1.8-13.5-1.3-16-3.4-.1-7.2 14.1.5 16 3.4zm17.8-18.7c-2.2.5-5.8-3.2-6-4 2.1-1 6.9 1.7 6 4zm-8-18.1c5.1 1.3 2.4 7.6-1.8 7.4-6.4-2-2.3-13.4 1.8-7.4zm-1218-88.2c1.1 1.5.4.8-.8 1.5-4.8 1.4-1.3-6.4.8-1.5zm-3.4-4.8c1.9 1.2.6 3.3-1.1 1.6-.5.1-2.1 2.7-2 .8-.6-1.3.5-3.8-.4-3.9-4.1 1-.8-4 3.5 1.5zm12.3-10.8c5.1 5.7-2.3 11.4-6.9-.4 4.2-1.4 1.5 5.4 6.9.4zm1516.9 959.1c7.1 6.5-9.1 4.6-8.3 11.1-1.2 4.7-16 2.2-14.3 7.5-22.3.4 1.9-12.4 10.3-16.1 2.6-5.3 16.4-17 11.6-5 .4 1.7-2.9 2.6.7 2.5zm4.1-26c4.8 1.3-1.5 6.8-3 4.2-1.1 1.1 2.6 10.4-2.4 4.7-6.5 7.8.7-12.7 5.4-8.9zm25-112.8c2.7 5.3-6.3-.7-13.6 12.3-1.7-4.5-3.2 1.5-5.7 2-.4 2 4.3 5-.4 5.7-3.6-.1-2.4-5.2-5.9 0-3.1 4-5.2-3.9-7.8-1.2-14.2-.5 11.9-9.9 8.8-13.4-15.4.5 5.6-7.2 4.9-2.9-7.6 7.9 6.3 7.3 1.3 2.7-.6-2.7 3 1.4 3.1-2.5-3.2-7.5 4.3 2.1 3.3-2.8 5.6-3.6 4.3-1.5 12 .1zm20.5-.4c-1.6 4.8-6.1 23.3-13.9 18.7 1.7-12.2-13.3 1.6-4.6-10.4 3.6-4.2 5.3-4.6 7 1 2.8.1 8.2-17.2 11.5-9.3zm789 6.8c4.1 7.9-17 2.5-18.9.6 9.9-12 11.7-16.7 18.9-.6zm-744.3-7c3.1 15.9-23.5 7.3-32.2 13.3-3.8-2.8-8.9 4.9-11.1-1.9 3.2-4.6 6.2-8.1 11.3-10.2-2.6-2.8-13 7.4-5-5.2 12.2-4.9 4.2 6.9 10.4 1.8 8.2-.7 21.2-4.6 26.6 2.2zm159.9-5c7.6 11.1-22.2 5-15.9-1.6 5.1-1 10.7 4.2 15.9 1.6zm163.2 0c11-1.8-8.3 7.4-11.2 6.9-.3 3-3.6 6.6-7.5 5.9 7.4-8.2 11.8-18.3 18.7-12.8zm-68.5-14.9c3.2 15-17.9 9.7-13-4.1 3.5-1.2 14.1-1.2 13 4.1zm-162.5-8.8c-31.6 18.9-29.9 4.1-57.4 15.5 10-26.1 7.2-15.7 29.9-17.3 4-2.7 16.8-12.4 17.2-4.6 3.3 4 9.6.8 10.3 6.4zm34.2-11.6c3.9 2.8-3.9 6.7-6.1 7.5.8-4.8-1.6-11.8 6.1-7.5zm620.3.8c17.5.4-6.8 18.4-2.5 29.2-45 38.2-20.4 11.6-65.7 22.5-5.3-24.6 42.3-88.2 68.2-51.7zm-391.6-18.4c-7.3-.8 6.2 24.1-10.9 29.2-3.6 5.3-7.2 11.8-10.7 17.5.4-6.4.1-6.1-3.8-1.3-6 0-7.3 1.3-5.7-5.3-1.3-2-3.2-2.1-1.2-5 6.5-1.2.6-2.2 2.9-3.2 0-3-2.1-1.2-2.3-3.9 1.3-3.3 4.9 2 7.3 0-12.9-10.1 16.4-21.6 15.1-31.3 1.5-3.2 8.8-5.8 6.8.1 3-4.6 6.9 2.2 2.5 3.2zm15.3-2.2c.8 7.7-3.8.7-5.6-1.4-2.2-.7-6.8 1.3-7.9-1.4 3.5-4.1 12.3-2.6 13.5 2.8zm-179.1-3c1.6 11.1-15-3.4-2.2-4 .9 1.4 7 2.6 2.2 4zm-790.9-13c12.4 5.8-8.6 5.1-9.5 10.5 3.4 4.7-10.7-.5-14.1 2-2.9 1.4-1.6 6.4-5.2 6.9-3.9-4.5-21 2.3-19.2-5.2-1.2-2.3-4.1.1-2.3 1.9 7.2 6.1-19.2-3.8-20.2-1.7-10.9-22.6 55.5-17.5 70.5-14.4zM854 1130.3c.7 6.5-4.2 12.5-4.8 3.2-6.9 7.6-1.1-3.6 4.8-3.2zm1580.3 2.8c3.5-.1.8 3.8-.7 5-.9-.5-5.9-.3-2.8.1-10 31.7-29.6-1.1-12.5-12.8-5 1.9-3.4-4.2-3.4-7-8.7-21.5 21.3 8.8 19.4 14.7zm-753.8-37.1c1.6 4.3-2.5 40.8-4.5 26-.5-6.7-3.6-53.1 4.5-26zm-849.8-10.4c1.4.7 1.2 4.5-.7 3-3-2.1-4.2-5.4.7-3zm1512.6 1.6c2.3 2.3-2.8 13.6-4.2 7.2-.5-1.8-.8 4.6-3-1.3.3-5.7 1.1-9.3-1.4-13.9-2.8-5.7-.2.5 3-3 .9 3.2-2.3 3.2 2.3 3.6 1.2 3.9 1.2 4.7 3.3 7.4zm105.8 21.6c-2.2 26.7-35.8.4-21.8-19.2 5.1-3.8-14-3.3-6.3-8.4 8.6 5.7 7.4-6.5 13.9-8.2 2 1.6-2.6-9.1 1.7-6 6-2.7 8.2 4.5 8.4 7.9-1.2-.8-4.3.9-.5.8 9.4 5.2-.5 6.7 3.6 10.3 0 5-4.2 2 .9 5.5.9 5.5-2.9.5-3.1 3.3 5.5 6-2.2.2-4.4 1.1 1.8 1.9 14.2 9.8 4.5 14.2-1.3 1.1 2.9-.9 3.1-1.3zm-85.1-49.4c-.7 11-27.5 63.8-13.8 22.6 6.8-3 6.8-27.6 13.8-22.6zm-601.3-5.5c1.3 21.7-11.3 15.8-13.5-.4 5.5-6-.3-6.6 5.3-9-1.6 3.1 5.6.6 8.2 9.4zm522.8-30.3c1.2.9 1.7 3.5.2 4.3-.8-1.2-.9-3.2-.2-4.3zm-484.2 12.9c-.4 4-12.2 10.7-8.7 16 2.1-.2.2 2.4-1.1 2.2 9.2 2.6-5.3 19.2-3 6.4-3.6-9.4-.6 6.4-6 3.1-3.9-2.3 4.4-6.1-2-4.2-1.3 2.8 0 4.7-4.4 4-6.8-7.7 11.1-20 .8-31.8 3.4-10 8.1-3.4 14.8-10.8 11.1-9 6.3 9.8 9.6 15.1zm477.3-28.2c2.3-1.2 3.5 3.9 4 5.4-2 2.2-2.6-4.8-4-5.4zm-457.3 46.2c8 3.5-.2 9.3-4.6 11.2-3.5-1.1-8.1-3-11.1 5.2 6.9-1.9-1 9.8-3.8 10.7-.5-5.1-1.2-1-2.8-1.2-.9-8.7-2.9 11-9.3-9.6.8-1.1 5.3-4 4.6-5.6-5.2-2.8 15.8-14.9 5.7-11.9 6.4-11.8-2.2-39.8 16.8-47.9-1 4.3 5.3 6.9 7.1 12-.5 4 4 24.3-2.5 8.7-7.4-3.9-9.1 16-11.1 26.3 7.6-3.6 3.4-3.7 11 2.1zm562.9-57.7c9.9 8.7-10.5-2.5-12.7-4.6-1.5-6.3 9.3 5 12.7 4.6zm-118.6-6.4c5 4.2-6.3-.9-4.4-3.3 1.1-.3 3.1 2.8 4.4 3.3zm-7.1-7.8c1 .6 1.3 2.9.2 3.5-1.2-.7-2.7-5.2-.2-3.5zm-434.3.3c6.9 4-2.3 18.9-8.6 12.6-10.5-11.7-1.8-13.2 8.6-12.6zm445.7 2.5c.8 4.9-4.6-1.8-4.3-4 2.8-3.1 3.5 2.2 4.3 4zm-143.3-22.8c.7 1.7.7 3.8-1.9 3.3-1.7-1.5-.3-4.5 1.9-3.3zm-303.8-4c-.2 2.8-5 4-6.2.4.6-1.5 5.7-3.8 6.2-.4zm289.4-2.4c6 4.3-6.2 6.6-7.6 5.5 1.2-5.2 1.6-8.3 7.6-5.5zm-10.7-1.2c.2 8.5 1.6 6.8-4.6 6.3 6.5 5.3-11.8 10.8-6.2 7.1 7.1-9.1 2.3-4-4.8-1.4-18.8 7.9 6.3-14.5 15.6-12zm21.1.8c.4.8.4 4.3.4 5.2-1.4-.4-3.6-4.4-4.1-1.4.3 5.2-3.5-2.1-4.5-3.7-1.6-4.7 3.4-.3 5 .3 1.4 1.2 1.3-4.5 3.2-.4zm-80.1-3.2c-4.3 36.3-77.2 16.8-65.1-18.4 3.9-1.7 64.8-12.6 54.3 7.7 1.1 8.9 16.4-1.8 10.8 10.7zM943 921.2c1.2 7.7-6.9 5.8-9.9 1.5 2.9-5.1 5.3-3.2 9.9-1.5zm10.2-4.1c.2 4-2.1 2.8-4.4 1.2 1.6-2.2 2.9-5.2 4.4-1.2zm16 .6c2.6-5.2 9.1-2.2 3.7 2.7-2.8.8-3 2.8-5.1-.6-3.3-2.2 0-.9 1.4-2.1zM2239 958.6c-2.8 41-47.3-24.3-73.7-15.7-1.3 3.4 7.2 10-1.3 9.3-5.4-6.2-35.7-3-27.2-12.3-3-7.4-19 5.3-15.6 9.2-19 14.4-26.3-29-32.6-16.1-.3 5.7-14 36.7-8.5 15-3.1-11.7-7.3-14.9 7.2-18.7 3-22.7 36.8-6.2 53.3-15.2 1.9 2.3.1 10 5.4 8.5 21.2-15.7 25.1-7.3 48.3 2.4 17.2-3.3 31.7 4.6 33 22.6 15.3 4.7 3.7.3 11.7 11zm39.2-54.5c.7-.5 4-2.4 2.4-.4-.9 1.5-5.8 2.3-2.4.4zm-1260.4 12.4c-1.8 4.4-5 8-5.1 12.8-3 4.5 5.5 3-4.9 5.1-7.2 16.1-14.3-19-14.4-.7-16 11.8-12.9-2.1-12.8-13.4-4.8 2-3.5-1.2-.1-2.5-3.7-27.1 31.9-21.6 37.3-1.3zm1421.7-25.1c-.6 5.5-4.9-1.3-1.1-3.8.9-7.3 1.4 1.3 1.1 3.8zm-10.6-23.9c4.5.7.1 6-.4 8.5-4 .5-2.6-7.7.4-8.5zm-449.7 22.1c1.1 17.6-14.2-17-10.3-21.2 8.4-12 4.6 16.3 10.3 21.2zm-119.6-25.2c.1.4.3 2.5.6 2.8-7.3 2.6-6.5-13.5-.6-2.8zm133.6-7.6c-6.6 6.7-26.6 5-38.3 5.6-17.3 3.9-4.6 0-13-3.6-12-5.6 41.7-3.2 51.3-2zm-172.8-3.1c3.1 3-1.1 4.8-2 7.5-3.5 2.7-.5-12.1 2-7.5zm600.4-1.6c2.2 1.3-.3 3.9-1.5 5.1.5 12.9-6 .3 1.5-5.1zm-208.1 8.7c-7.1 3.8 6.1 3.3 1.7 5.4-2.2 1.9-4.6 2.3-4.2-1.5-2.8 4.1-10.5 9.4-13.7 4.1-41.2-8.6-3.4-14.2 12.7-20.1 2.6-1.1 1.8 2.2 1.6 3.6 3.8 2 6.6 6.9 1.9 8.5zm-274.3-6.3c3.2 9.8-6.5 3.3-11.1 6.7-7.8.2-3.6 4.8-15.2 0-25.7 19.1-37.3-9.4-16.2-15 8.1-1.5 24.8 5.9 30.9 6.8-.5-3.9 3-4.8 5.1-1.8.4 1.3-1.2 4.7 1.3 3.9 4.7-8.9 2.8 1 5.2-.6zm623.7-.8c7.7 4.5-7 2.3-9.4 5.6-83.2-3.4-75.2-25.7 9.4-5.6zM935.4 899.8c7.1 0 1.4 1.9-1.7 3.1-4.9 6.6-12.1 20.2 0 22.6 1.5 3.6-1 6.3-4.2 4.7-14.9 1.8-4.6-5.9-15.8-6.9-44.4-13.7-9-54.5-61.6-52-22.1-4.2 20.9-13.8 5.7-21.6.8-4.3 15.7-15.9 15.9-4.9 9.2 5.4-3.9 3.2 3.6 8.8 4.2.5 9.1 3.8 3.5-2.6.5-5.5-7.3-13.3 2.6-11.3 33 2 4.2 62.2 52 60.1zM2477.6 837c7.3 2.2-8 4.2-10.2 1.8-.4-4.1 7.7.1 10.2-1.8zm-386.2 6.8c2.4 13.2-18 2.5-24.9 5.9-31.7 8.8-12.9-42.8 24.9-5.9zm-24.6-22.1c1.9 5.8-6.6.8-11.4 2.1-2.3-6.4 7.9-3.1 11.4-2.1zm-226.4 3c7.2 2.8-1.2 16.4-7.6 14.3-4.6-14.2-5.8 3.8-6.8 6.7.3-2.6-13.3-.3-3.2-6.3-.2-3.1 1-16.3-3.7-10.4-18.3 35.5-26-16.7 4.7-10.8 6.8 6.8-3.7 4.7 1.7 10.5.1 11.3 7.5-13.1 10.2-4.9 2.5 1.5-.4-3.3 4.7.9zm348.9-5.9c.6 3.6-3 1.2-5.1 4.1-4.3 1.2 3.8-2.4.1-1.9-13.4 2.8-.9-6.2 5-2.2zm272.8-8.4c.2 13.8-15.9 2.7-8.1-4.3 3.9-2 7.9 3.5 4.5 6.6.5 4.1 2.3-2.3 3.6-2.3zm-213.2-1c5.4 44.8-42.4-4.5-7.8-6.2 1.4 4 11.2-1.6 7.8 6.2zm-7.5-12.9c-4.5 7.8-36.2 13.7-23.7 1.2 3.1 3.7 8.6-.1 15.1 1.1 7.9-1.6-3.9-4.6 8.6-2.3zm295.2 18.3c-.7 7.2-15.4 8.3-20.8 4.4-14 8.6-6.4-27.5-16.6-17.5-1.7 5.1-11-9.7-11.1-5 1.1 2 .2 1.2-1.1.7-14-13.8 9.8-6.8 17.2-2.6 11.6-9.1 17.3 21.2 32.4 20zm-491.1-20.3c2.7 2.7-.5 5-2.6 2.4-11.6 1.5 1.4-20.1 2.6-2.4zm182.9-17.8c2 4.9-7.8 9.6-4.4 1.7-3.3 1.5-2.1 3.4-7.3 3.5 4.5-3.4-3-.6 1.7-4.3 3.9 3.1 5.6-4.9 10-.9zm-477.2-2c4.2 1.2 4.2 9.4-.3 4.8-1.9-1.2 1.2 1.8-.9 1.6-7.9-3.9-4-.5-8.6 2.3-4.6.2 1.8-6.6 3.7-7 1.4-3.8-.4 1.4 6.1-1.7zm-935.9-.2c6.4 6.5-1.3 4.2-2 12.5-4.3-.2-5.2-5.2-6.9 2.3-3.5 2.3 1.2-4.6-6.9-10.3.5-3.9 6-11.3 4.5-2.7 1.1-.6-.1-3.8 2.3-1.6 4.6-3 4.3-6 9-.2zm945.4-3.8c5.5 4-7 7-9.1 2.6.6-4.4 5.1-3.5 9.1-2.6zm316.9 25c.8 4.9-7.2 8.6-11.3 5-1.9-.9-.6-6.7-3.5-5.1-4.6 1.7-9.9 6.6-9.7-1.9 4.1-6.4-2.1-4.9-4.5-9.6-6.4-4.8 0-21.2 4.4-8.8 4.4-4.1 5.5-11.1 10.4-.1 9.4 2.9-6.6 11.5 1.1 13.6-.7 8.4 10.6-1.8 13.1 6.9zm-35.4-15.9c-9.9 10.4-9.4-21.5 1.6-12.2 4.1 0 0 1.4-.7 2.5 1.5 2.5 2 9.4-.9 9.7zM770.1 767.1c8.6 4.9-8.1 8-12 5.3-5.1-4.2 5-10.7 12-5.3zm1000.8-1.3c4.4 2.9-6.7.5-3.2-2.1 1.9-1.9.9 1.1 3.2 2.1zm8.2.9c.4 6.2 0 4.6-2.6-.3-10.7-4.3-1.2-4.4 2.6.3zm-43-4.7c-.9-2.3.9-3.8 3.2-3.4 2.3 2.1-1.1 6.5-3.2 3.4zm525.8 3.2c.5 1.3 4.6 3.4 1 3.6-1.7 1.9-2.9 6-5.3 4.5-6.5-7.1-12.6 3.7-17.3-5 1-2.7-4-2.1-5.6-3-1.1-4.6-3.5-9.9-9.3-8.9-2 .6 3.7 1.5.6 1.7-2.1 7.1 31.9 16.3 6.5 19.3-6.3-1.5-1.2-16.7-10.3-4.2 2.6-1.9-1.3 5.9-1 2.7.3-16.3-5.3-4.6-13-10.3-9.6-4.5 1.8-1.1 5.8-2 3-1.9-3.2-1.2-.5-2.2.7-.6.7-1.7.2-2.5-.2.7-.8 2-1.7 1.6.1-2.7-.8.4-1.9-.9 0 .9 1.1 2 .4 2.8-18.5-6.5 50.4-18.1 51.4 2.8zm-1426 0c5.6 3.4 5.1 2.6-.6 2.9 4 6.1-8.5-2.2-9.8-4.2-8.9-.9-6.9 5.8-16 0-.9-4.9 3.8.2 5.3-13.6 1.4.4 5.8 1.2 7.8 5-5 1.7 2.3 1.1 3 3.6 3.5 10.4 4.7-5.8 10.3 6.3zm1330.8-6c6.4 12.1-10-4.3-10.8-8.2-8.3-7.9 9.7 7.4 10.8 8.2zm-112.3-7.5c0 4.8-1.5-.5-2.5-1.6-.6 2.8-1.4-.6-1.2-1.7 1.3-11 3.5-1.9 3.7 3.3zm-1241.9-4.4c-3 .6.4 1.9-1.1 2.8-6-6.9-4-12.6 1.1-2.8zm10.4 0c4.7 8.4-14.3-11.1-9.6-9.4 1.2-.8 8.5 8 9.6 9.4zm-15.3-15.5c1.1.5 1.1 3-.3 2.5-2-2.8-5.2-6.1.3-2.5zm1243.5-2.3c2.1 1.8 1.1 6.7-2.2 5.6-2-2.3-1.3-5.9 2.2-5.6zM797.3 710.4c1.7.3 5.7 4.6 2.7 4.4-.4-1.6-1.9-3-2.7-4.4zm1252.7 5c-1.5-1.4-.4-8.1 1.4-7.4 4.3-1.2 2.3 8.3-1.4 7.4zm-1249-5c-3.4 1.4-8.5-5.4-2.1-4.5 1.7-3.2 3 5.1 2.1 4.5zm1248.6-4.4c-2.6 5.3-7.6-3.4-2.5-4.5 1.8.8 3.5 2.4 2.5 4.5zm-1251.7-5.5c4.8.8-.3 4.6-2.7 4.7-5.5-9.3-7.1-9.7 2.7-4.7zm-340.6-6.7c-1.8 61.4-29.3-12.7-45.9-25.1 26.4-8.7 25.6 6.7 45.9 25.1zm1480-32.2c2.1 3-4 13.3-6.5 7.9 3.6-.7 5.6-4.7 6.5-7.9zm128.2 102c6.4-57.1-37.6-87.2 15.6-139.3 15.4.9-8 12.5-5.5 21.5 10.3 2.5 8.1 8.5 9.8 17.9 2.7 25.3-36.8 26.4-14.8 40.6 12.2 4.2 6.4-11.7 13.8-16.5 3.4-2.3 12.9-.9 8.7-7.7-15.4-3.1 37-35 27.7-11.8 19.4 28.3-56.6 33.7-8.1 49.1 14.9.3.6 16.2 15.4 16.1 13.1 11.2-34.8-9.3-40.8-8.8-25.9-2.7 2.3 68.3 17 77.1 9.2 3.1-9.5 1.8-8.1-2.2 6.6-1.5-10.9-5.7-11.6-8.5-2.4-12.8-12.7-18.6-19.1-27.5zm55.2-156.1c1.1 19.8-23.9 41.3-25.4 13.1 2.8-10.7 18.8-30.8 25.4-13.1zm-342.1 634.1c3.4-.3 4.2 3.1.9 4-1.2-.8-2.6-3-.9-4zm-35.2-8.4c2.6-.1 2.5 4-.1 3.9-1.6-1.1-2.3-3.5.1-3.9zm-384.8-67.7c5.6 2.3-3.2 2-5.1 1.6-1-2.4 3.6-2.6 5.1-1.6zm-12.2-2.4c4.3 5.8-1.8 5.8-4.6 2.1-2.7-3.7 3.3-6.4 4.6-2.1zM1833 848.4c2.8 2-2.6 4.7-3.5 6.7-4.3-.5 1.8-6.1 3.5-6.7zm-66.4-74.7c-4.4 2.6-6.2-3.9-2.4-7-.7 3.2 3.5 4.3 2.4 7zm428.8 428.7c2.5 1.8-.6 1.2-1.8.7-1.2-.7 1.1-.8 1.8-.7zm-3.2-2.2c1.1 2.3-1.2 1.3-1.5-.2-.4-1.6 1.6-1.2 1.5.2zm-18-9c-2.3-1.3-1-3 .8-.7 2.7-1 .4 2.2-.8.7zm-29.8-33.7c-.5-.4-.6-1.2 0-1.6 1.9-1.4 2 3 0 1.6zm19.5-13.9c-1.2.3.4-2.8 2.4-1.9.3 1.6-1.4 4-2.4 1.9zm28.6-24.9c-.3-.1-.7-.4-.8-.7-.3-1.4 2.6.3.8.7zm106.7-58.8c3.8-1.7-.5 6.7-1.5 3.2 0-1.1.4-2.7 1.5-3.2zm125.7-352.3c.4-.4 1.2-.7 1.8-.5 1.2 2.2-3.8 2.8-1.8.5zm-166.3-15.2c-.1-.3.3-.7.5-.9 0 .2-.4.7-.5.9zm1.1-2.9c1.2-1.2.9 1.1 0 1.4-.2-.2-.1-1 0-1.4zm-262.9-15.6c.8.5-.4 1.4-.2 2-.8 3.4-4.2-4.6.2-2zm10.6-244.8c.1-.1.4-.6.6-.4-.1.4-.3 1.3-.6.4zM1738.2 1369c3.2.6-3.1 3-4.5 2.1-.5-1.9 3.1-2.3 4.5-2.1zm709.2-240c.9 5.5-5.5 3-5.6-1.1 1.4-2.9 4.9-1.7 5.6 1.1zm-1313.9-38.9c3.1-1.7 1.6 3.5-.1 2.1-.1-.7-1.1-1.7.1-2.1zm1286.1-4.6c1.2.7.8 2.2.4 3.3-3.1 3.6-4.4-5.5-.4-3.3zM2386 894.1c2.9 3.1-3.4 4.4-5.1-.9-1.3-2.9 4.2.6 5.1.9zm-540.3-49.8c4.4 6.2-7 10-6.8 2.7 1.4-3.7-1.4-6.6 2.7-8.7 2-3.5.5 7.6 4.1 6zm257.8-35.6c5.2.7.4 4.6-2 1.8-.9-4.2-2.2-6 2-1.8zm83-33.6c1.7 1-.1 2.7-.3 4.1-2.6 4.3-4.7-4.6.3-4.1zM490.8 742.2c4.4-1.6 9.4-.6 14-.1 10.9 7-21.5 6.8-14 .1zm334-34.2c1.3-.2 2.1 1.3.8 1.9-.5-.4-1.2-1.2-.8-1.9zm-3.5-5.5c.3.7.3 1.6-.4 2.1-2.4 1.5-.5-4.3.4-2.1zm1109.4-55.3c1 1.2-1.2 2.1-1.2 3.3-1.4 0-3.1-8.2 1.2-3.3z" fill="#fff"/></svg>