<?xml version="1.0" encoding="utf-8"?>
<!-- Generator: Adobe Illustrator 21.0.0, SVG Export Plug-In . SVG Version: 6.00 Build 0)  -->
<svg version="1.1" id="Layer_1" xmlns="http://www.w3.org/2000/svg" xmlns:xlink="http://www.w3.org/1999/xlink" x="0px" y="0px"
	 viewBox="0 0 1000 1000" style="enable-background:new 0 0 1000 1000;" xml:space="preserve">
<style type="text/css">
	.st0{fill:#FFFFFF;}
</style>
<g>
	<path class="st0" d="M412.5,165.3l-2.7-3.3l5.5-1.1l1.6-1.4l4.1-0.5l3.8-0.5l3-4.4c0,0,3.3-3.6,3.6-4.4c0.3-0.8,1.9-2.5,1.9-2.5
		l1.1-2.7l0.8-3l1.9-1.4h3.8l2.5,2.5l3,1.4l3.8,0.3l3.8-1.1l4.1-1.1l4.1-1.9l1.4-0.5l3.6,3.3l5.5,1.9l1.4,1.1l2.7-1.1l3,0.5l1.6,3.3
		c0,0,1.9-0.5,2.5,0.3c0.5,0.8,3,2.2,3,2.2l3.6-0.3h3.6c0,0,1.1,2.7,2.7,1.9c1.6-0.8,5.2-1.1,5.2-1.1l3.6,0.3c0,0,1.9,1.4,3.3,1.4
		c1.4,0,2.5,2.2,2.5,2.2l2.2-3l1.7,1.4l2.7-4.4l4.9-4.4l3.3-0.3l7.1,1.6l3,0.8l3,2.2c0,0,0.8,1.4,0.5,2.5c-0.3,1.1-0.3,4.1-0.3,4.1
		s0.5,1.1-0.5,1.6c-1.1,0.6-3,2.8-3,2.8s-1.4,0.5-0.8,1.9c0.5,1.4,0.8,1.3,1.4,2.5c0.5,1.1,1.4,2.2,1.4,3.6c0,1.4,0,2.7,0,3.6
		c0,0.8,1.9,1.9,1.9,1.9s2.5-0.5,2.8,0.3c0.3,0.8,0.8,1.9,0.8,1.1s0.3-4.4,0.3-5.2c0-0.8,0.5-2.7,0.5-2.7l2.7-0.3c0,0,2.2,1.4,3,0.5
		c0.8-0.8,2.5-1.7,3.6-2.8c1.1-1.1,5.2-3.6,5.2-3.6l4.4-3.3l2.5-2.5l1.4,0.5c0,0,1.9,0.8,4.1,0.8c2.2,0,4.1,0,4.1,0l-1.4,5.5
		l2.5,2.8h1.4v1.9l3.3,1.1l1.9,1.1l1.6,0.3l-1.6,3.6v3.6l1.6,3l-3,2.7l-1.9,3.8l0.5,2.5l2.5,2.2h4.4l3.8,3l2.8,3.3l0.3,6.6h-1.6v2.5
		c0,0,0.5,4.4-0.3,4.4c-0.8,0-2.2,0-1.4,0.8c0.8,0.8,3,2.2,3,2.2l1.6,2.5v3l2.5,2.7l3,0.3l3.3-0.3l4.1-1.9v2.5l0.5,2.2v2.5l1.4,0.8
		l-2.2,1.7l4.1,2.2l-3.6,0.5l2.2,2.5l2.2,2.2l0.6,6.6l1.6,2.7l-1.7,2.5l-0.5,6.6l1.1,1.1l4.6-1.1h4.4c0,0,2.5,0.8,2.7,1.6
		c0.3,0.8,2.8,1.9,2.8,1.9l3.3,0.8l3.3,0.3l-0.8,1.1c0,0,1.7,2.7,2.8,3.6c1.1,0.8,3.8,1.1,3.8,1.9c0,0.8,0,1.4,0,2.2
		c0,0.8,1.4,1.9,1.4,1.9h1.9c0,0,3.8-0.3,4.6,0c0.8,0.3,3.3-0.5,3.3-0.5l3.6-0.5l2.8-1.6l0.8,2.2c0,0,1.1-2.2,1.9-2.2
		c0.8,0,3.8,0,3.8,0l3,1.9v1.1l3.6,0.3l3.6,0.5l3-1.9l2.5,0.5c0,0,1.4,0.3,1.4,1.1c0,0.8-0.8,2.5-0.8,2.5l-1.9,0.8l-0.5,2.2
		l-1.9,1.6l-1.9,0.5l-1.6,1.7l-1.6-2.2l-2.8,3h-4.1h-3.3l-1.6,0.3v3l-1.1,0.5c0,0-1.4,1.1,0,1.7c1.4,0.5,1.1,1.9,1.1,1.9l-3.8,0.3
		l0.6,2.2l1.1,3v1.6c0,0-0.5,2.2,0,3.3c0.5,1.1,2.2,1.7,2.7,2.5c0.5,0.8,0.5,2.2,0.5,2.2s-0.5,1.6,0.5,2.7c1.1,1.1,3,1.9,3,1.9
		l2.2,2.5l1.9,0.8v2.8l-2.7,1.4l0.5,2.2l3.3,1.4l2.5,1.1v2.2l-2.5,1.1l-0.8,2.5c0,0,0,1.7,0,2.8c0,1.1,0,2.5,0,2.5l-2.5-0.5
		l-0.5,2.2l-1.1-2.5l-1.7,0.3l-2.7,3.3l-2.7-2.2h-1.7l-1.4-1.4l-2.7,0.3l1.4,3.8h-1.9c0,0-2.2-0.6-1.9,0.8c0.3,1.4,1.1,2.2,1.1,3.3
		c0,1.1-0.3,3.6-0.3,3.6l-1.4,3.6l-1.6,2.7l-2.7-3.8c0,0-1.3-0.5-2.2,0.3c-0.8,0.8,0.3,3.8,0.3,3.8s2.7,0.6,1.4,1.1
		c-1.4,0.5-2.5,2.5-2.5,2.5s-0.8-0.3-1.6,0.3c-0.8,0.5-2.2,0.8-2.2,0.8s-1.4,0.8-1.4,1.6c0,0.8,0.8,3.8-0.3,3.8
		c-1.1,0-2.5,0.8-2.2,1.9c0.3,1.1,2.2,3.3,2.2,3.3l1.9,2.2l1.6,3l-0.3,3c0,0,1.6,1.9,0.3,2.5c-1.4,0.5-3.3,0.5-3.3,0.5l-1.4-1.9
		l-3,0.5l-0.5,1.1c0,0-1.9-1.4-2.7-2.5c-0.8-1.1-3-3-3-1.9c0,1.1,0,7.1,0,7.1s0.5,2.5-0.5,3c-1.1,0.5-4.4,1.1-4.4,1.1l-1.9,0.3
		l3.3,8.8c0,0-1.1,1.3,0,1.6c1.1,0.3,4.6-0.3,4.6-0.3s3,0.6,3,1.7c0,1.1,0.5,6.6,0.5,6.6l-2.2,3.3c0,0-2.2-0.5-1.1,1.1
		c1.1,1.6,2.2,2.8,2.2,2.8l-3,1.6l-3.8,4.7c0,0-2.5,1.4-2.5,3s0.3,3.8,0.3,3.8l-3.3,3.3l2.5,1.1l2.8,1.6l3.3-1.9v2.2
		c0,0-1.6,2.2,0.3,2.8c1.9,0.5,4.4,1.1,4.4,2.5c0,1.4-0.3,1.7,0.8,3.3c1.1,1.6,2.7,3.6,2.7,3.6v2.2l2.2,4.1l2.2,1.6
		c0,0,2.2,1.7,2.2,2.5c0,0.8,0,2.2,0,2.2l1.9,2.7l4.4-3.6l2.5,0.8l1.1-2.5l2.2,0.8l-1.1,3.6l3,2.2l-3,2.2l-2.8,3.8l3.8,1.1
		c0,0,2.2,2.5,2.7,1.1c0.5-1.4,1.9-3.3,1.9-3.3l3.3,4.4l-0.3,2.5c0,0,1.1,2.4,1.9,3.3c0.8,0.8,5.2,6,5.8,7.1
		c0.5,1.1,2.7,2.8,2.7,2.8l0.6,2.7l0.3,2.5l-2.2,3.3l-3,3.3h-3.8v2.7h2.8l2.5,1.4l-2.5,4.4c0,0-1.6,0.5,0,2.2s4.1,2.7,4.1,2.7
		s5.2-0.3,6.3-0.3c1.1,0,6.6,1.7,6.6,1.7s3.6-1.6,4.7-0.5c1.1,1.1,2.7,0.8,4.1,2.7c1.4,1.9,2.5,3.3,4.1,4.4c1.6,1.1,4.4,1.6,6,2.7
		c1.6,1.1,3.3,1.3,5.2,2.7c1.9,1.4,4.7,3,4.9,4.4c0.3,1.4,1.9,0.3,2.8,1.4c0.8,1.1,1.4,3.8,3.3,5.8c1.9,1.9,8.2,4.9,8.2,4.9
		s2.2,2.2,3,3.6c0.8,1.4,3.3,3.3,3.6,4.1c0.3,0.8,4.9,2.5,4.9,2.5l3-1.1l4.7-1.1l1.6-1.4c0,0,1.1,1.4,1.9,1.6
		c0.8,0.3,4.1,0.5,4.1,0.5s1.1,2.2,1.9,3c0.8,0.8,2.2,2.2,2.2,2.2s1.1,1.4,0.3,1.6c-0.8,0.3-2.2,2.5-2.2,2.5l0.5,2.2l2.8,1.7l1.1,3
		l3,1.4c0,0,2.7,1.7,1.6,1.9c-1.1,0.3-2.5,0.8-2.5,1.9s1.9,4.4,1.9,4.4s1.4-0.3,2.2,0.6c0.8,0.8,1.9,1.1,2.2,2.5
		c0.3,1.4,1.1,2.2,1.9,3.3c0.8,1.1,3.6,1.7,3.6,2.5s0.8,3,0.8,3s3.6,2.5,3.6,3.3c0,0.8,1.4,3,1.4,3l2.2,2.5c0,0,0,1.1,0,1.9
		c0,0.8,3,2.5,3.3,3.3c0.3,0.8,2.2,1.9,2.2,1.9l-12.3,29.3v32.6l2.2,0.5l1.9,1.9l19.2,0.3l0.5,33.7l-2.7,1.9l1.4,4.9h4.1l4.1,2.2
		c0,0,2.2,1.7,2.2,3c0,1.4,0.8,4.1,0.8,4.1l2.2,1.7l3.3-0.3c0,0,4.4,3.3,4.9,4.1c0.5,0.8,6.3,6.3,6.3,6.3l-3.6,4.1
		c0,0-0.3,2.2,0.5,3.3c0.8,1.1,2.5,2.2,2.5,2.2l0.5,1.9c0,0,0.8,2.2,1.1,3c0.3,0.8,1.6,2.2,1.6,2.2l4.7,1.9v2.2c0,0-3.8,0.8-5.2,0.8
		c-1.4,0-3.8-1.6-5.2-1.6c-1.4,0-4.7-0.8-6.3-2.2c-1.6-1.4-8.5-4.9-8.5-4.9s-4.1,0-4.9,0.3c-0.8,0.3-3.3,0.3-4.4,0.8
		c-1.1,0.5-4.4,2.2-4.4,2.2l-0.3-7.1l-2.8-2.5l0.8,8.8c0,0-5.8-3.3-8.2-4.4c-2.5-1.1-5.8-1.7-5.8-1.7s-1.4,0-2.7,0
		c-1.4,0-9.3,0-9.3,0s-0.6,0.5-1.7,0.8c-1.1,0.3-13.4-0.3-13.4-0.3l-3,1.9l-4.1,0.3c0,0-1.1,0.8-2.8,1.9c-1.6,1.1-4.4,3.8-4.4,3.8
		l-4.1,10.7c0,0-1.6,7.4-2.7,7.9c-1.1,0.5-2.8,4.1-2.8,5.2c0,1.1,1.1,2.7-0.3,3.6c-1.4,0.8-6.9,8.2-7.7,10.2
		c-0.8,1.9-4.7,9.3-6.3,10.7c-1.6,1.4-6.3,9.6-6.3,9.6s-4.6,1.9-4.6,3.3c0,1.4-1.7,3.3-2.8,4.4c-1.1,1.1-1.9,3.3-4.4,3.8
		c-2.5,0.5-8.8,1.4-10.2,2.2c-1.4,0.8-2.4,2.5-4.6,1.6c-2.2-0.8-3.3-1.9-4.4-1.9c-1.1,0-14.5-2.2-14.5-2.2l-18.1-1.6l-68.5-7.1
		l-77.8-30.1l4.1-62.2l-41.1-2.5l-6-24.4L250.2,578.3l-47.4-13.4l-35.1-92.3l149.6-84.9l15.9-31l-0.5-38.1l3.3-9.3v-9.6L344,287
		l-1.1-5.2l0.5-13.7l-8.5-16.7l2.5-24.7l6.9-14.2l30.1-6.3L412.5,165.3L412.5,165.3z"/>
</g>
</svg>
