<?xml version="1.0" encoding="utf-8"?>
<!-- Generator: Adobe Illustrator 21.0.0, SVG Export Plug-In . SVG Version: 6.00 Build 0)  -->
<svg version="1.1" id="Layer_1" xmlns="http://www.w3.org/2000/svg" xmlns:xlink="http://www.w3.org/1999/xlink" x="0px" y="0px"
	 viewBox="0 0 3773.9 3256.6" style="enable-background:new 0 0 3773.9 3256.6;" xml:space="preserve">
<style type="text/css">
	.st0{fill:none;}
	.st1{fill:#fff;}
</style>
<rect x="-185.6" y="388.8" class="st0" width="3989.2" height="2441.5"/>
<g>
	<g>
		<path class="st1" d="M1773.8,2020.4L1773.8,2020.4l-0.2,0.2l0.6-0.4C1774,2020.2,1773.9,2020.3,1773.8,2020.4z"/>
		<path class="st1" d="M3514.9,1346c-0.1-0.8-0.2-0.8-0.4-1.6c-1-4.1-2.9-8.7-5.9-14.1c6.7-3.5,6.7-8.6,3.5-14.6
			c0.2-8.2-5.5-12.2-11.5-16c-0.8-0.2-1.5-0.2-2.3-0.2c-1.7,0-3.3,0.3-5,0.6c-1.7,0.3-3.3,0.6-5,0.6c-1.6,0-3.2-0.3-4.8-1.1
			c-1.2,0.2-2.5,0.2-3.8,0.2c-1.3,0-2.7-0.1-4-0.1c-1.3-0.1-2.7-0.1-4-0.1c-3.8,0-7.6,0.6-11,3.3c0.1,1.5,0.9,2.3,2.5,2.6
			c0.1,0,0.2,0.1,0.2,0.1c0.1,0,0.2,0,0.2,0c0.1,0,0.1,0,0.2,0c0.1,0,0.3,0.1,0.3,0.3c-1.2,0.1-2.3,0.2-3.4,0.5
			c-4,3.5-8.5,5.5-13.7,5.5c-0.8,0-1.6,0-2.4-0.1c-9.2-1.4-9.1-16.5-19.3-16.5c-1.1,0-2.3,0.2-3.7,0.6c-4.1-0.8-4.9-3.8-5.9-7.1
			c-0.6-1.6-1.2-3.7-2.7-5c-7.4-5-15.3-9.4-22-15.2c-6-5.2-11.4-10.2-17.9-10.2c-3.5,0-7.4,1.5-11.9,5.2c-1.8,1.5-3.3,2.1-4.7,2.1
			c-3.9,0-6.5-4.7-9.2-9c-3.7-6-8.2-10.5-13.4-10.5c-3.4,0-7.1,1.9-11.1,6.4c-1.4,0.7-2.5,1-3.4,1c-3.8,0-2.2-6.2-4.5-7.8
			c-1.3-4.4-1.6-9.3-2.3-14.2c-1.3-9-4.1-17-17.7-18.4c-4.6-3.4-9.4-6-15.1-6c-1,0-2.1,0.1-3.1,0.3c-6.6,2.7-5.7,9.2-7.6,14.4
			c-1.2,3.4-2.5,4.8-3.8,4.8c-1.6,0-3.2-2.1-4.8-4.8c-1.6-0.3-3.3-0.5-4.9-0.8c-1,0.5-2,0.7-2.9,0.7c-2.1,0-3.9-1.2-5.7-2.5
			c-1.8-1.2-3.5-2.5-5.7-2.5c-0.2,0-0.4,0-0.6,0c4.8-1,7.5-4.5,10.6-7.6l1.1,0.2l1.1-0.1c5.6-0.7,5.2-5.2,5.9-9.1
			c-3.9-4.7-7.9-9.5-11.8-14.3c-2.7-3.2-2.3-6.9-2.1-11c0.2-3.3,0.2-6.5-2-9.3c-1.8-2.2-3.2-3-4.5-3c-2.9,0-5.1,4-8,5.2
			c-3.5,1.5-6.1,4.6-8.5,7.1c-5,6.6-9,13.5-18.2,14.3c-5,0.2-10.1,0-13.5,4.8c-1.1,1.9-2.3,3.5-4.6,3.5c-0.1,0-0.2,0-0.3,0
			c-0.7,0-1.4,0-2.2-0.1c-3.7-1.4-7.3-2.8-11-4.2c-2.4,0.5-4.8,0.9-7.1,0.9c-4.5,0-8.9-1.2-13-4.1c1.6-5.6,7.1-7,10.8-10.4
			c2.6-2.4,2.7-3.9,1.8-4.7c-1-0.8-3.4-1.2-5.4-1.6c-1.8-2-4.5-0.9-6.6-2.1c0.9,0.3,1.7,0.4,2.6,0.4c1.6,0,3.1-0.5,4.6-1.4
			c-12.3-8.2,3.1-16.5-0.1-24.7c-3.4-5.6-14.7-1-14.6-11.3c2.7-2.7,5.2-7.7,8-7.9c11.1-0.5,17.2-3.9,20.3-9.6
			c3.9-6.6,3.3-16.1,2.4-25.8c-4.9-6,3.2-14.6-4.1-20.2c-1-1.4-1.9-1.8-2.9-1.8c-1.8,0-3.7,1.7-5.5,1.9c-2-5.3-5.8-5.9-9.9-5.9
			c-0.5,0-1.1,0-1.6,0c-0.5,0-1.1,0-1.6,0c-0.7,0-1.4,0-2-0.1c-1.1-0.6-2-1.4-2.7-2.2c-0.5,0-0.9-0.8-1.3-1.6
			c-2.3-4.1-1.8-9.1-3.4-13.4c-2.2-1.2-4.2-2-6.1-2c-2.6,0-4.8,1.5-6.4,5.4c-1.5,3.7-3.2,5.2-5.6,5.2c-1.7,0-3.8-0.9-6.3-2.4
			c-15.4-9.1-31.6-17-39.5-34.6c-2.8-4.8-0.8-10.7-3.6-15.6c-0.1,0-0.3-0.4-0.5-0.7c-0.1-0.3-0.2-0.1-0.3-0.9
			c-1.1-3.3-3.3-7.3-2.4-9.9c5.8-15.6-1.5-24.8-14-32c-2.6-3.3-5.7-4-9-4c-2.6,0-5.3,0.5-7.9,0.5c-5.9,14.8-6.3,32.4-15.3,45.5
			c-0.4,0.8-0.8,1.6-1.2,1.6c-2.2,3.3-5,5.9-8.4,8.5c-0.7,0.5-0.4,2.5-0.6,3.8c-7.4,4.3-12.5,11.4-19.7,15.8
			c-5.2,9.8-10,20-23.3,20.6c-2.6-4.1-4.5-8.4-4.1-13.5c2.4-6,3.5-13.3,7.6-17.7c5.4-5.9,8.7-11.8,9.8-17.5c0.1,0,0.2-0.8,0.3-1.6
			c0.9-7.4-2.1-15.3-9.3-23.1c4.3-5.5,9.4-10.8,3.4-18.3c-2.2-4.2-5.3-7.5-8.3-7.5c-2,0-3.9,1.4-5.6,4.9
			c-4.9,10.5-15.8,17.1-17.7,29.2c-1.5,4.8-2.2,9.9-3,14.9c-0.1,0.8-0.2,1.6-0.3,1.6c-0.9,5.7-2,10.9-4.5,15.9
			c0.8,14.6-18.3,9.1-21.6,23.7c-1.5,6.5-4.1,12.8-7.3,17.8c-0.3,0.8-0.7,1.6-1.1,1.6c-10.9,17.2-28.5,30.7-40.2,47.7
			c-0.7,1-2.1,2.1-3.1,2.1c0,0,0,0,0,0c-0.4,0-0.7,0-1.1,0c-6.7,0-11.2,1.9-14.3,4.3c-5.9,4.9-6.2,14.6-6.1,24.3
			c0.8,6.5-6.7,8-7.9,13.3c-3.5,6.8-6.8,14-10.1,20.6c-7.1,14.7-14.2,29.5-23.4,42.8c-3.7,5.4-9.4,9.7-14.5,13.8
			c-6.2,5.7-11.5,11.6-11.4,22.3c0.1,13.8-11.1,21.1-22.8,26.4c-0.7,0-1.5,0-2.2,0c-1.3,0-2.7,0-4,0.1s-2.7,0.1-4,0.1
			c-5.1,0-10.1-0.6-14.6-4.2c-0.8,0.1-1.5,0.2-2.3,0.2c-4.6,0-8.8-1.8-13-3.9c-1.3-1.2-2.7-1.8-4-1.8c-1.3,0-2.6,0.6-3.9,1.8
			c-6.8,4.8-12.4,10.8-17.2,16.5c-7.4,9.8-12.7,20.7-16.8,32.4c-2.2,6.2,4.2,16.7,11.8,23.3c0.7,0.8,1.4,0.8,2.1,1.6
			c3.6,2.9,7.2,4.5,10.4,4.5c0.4,0,0.7,0,1.1-0.1c3.6-0.5,6.1-0.8,7.9-0.8c4.8,0,3.9,2.4,0.5,11.3c-3.3,8.5-6.6,17.1-9.9,25.6
			c-6.5,1.6-11,4.9-10.3,12.4c0.1,0.1,0.3,0.3,0.4,0.4c-0.4-0.1-0.7-0.2-1.1-0.3c-0.1,0-0.3,0-0.4,0c-3.8,0-7.3,0.8-10.2,3.4
			c-0.2,0.3-0.5,0.9-0.7,0.9c-0.5,0.8-0.9,1.6-1.4,1.6c-6.2,7.8-13.4,11.6-21.5,11.6c-4.7,0-9.7-1.3-15-3.8
			c-2.5-1.2-4.8-2.3-6.9-2.3c-1.8,0-3.5,0.8-5.1,2.8c-3.4,4.3-4.9,8.6-1.1,14.2c6.8,10.2,12.8,20.7,19,31.4c0.4,0.8,0.7,1.2,1.1,1.8
			c0.1,4,0.1,8,0.1,12c0.1,7.2-0.1,14.4,0.2,21.7c2.3,6,0.4,12.8,3.7,18.5c0.6,1.4,1.3,2.5,1.9,4.2c4,8.2,8.5,16.7,18.7,19.9
			c-1.1,5.2-2.9,6.8-5.1,6.8c-2.9,0-6.5-2.9-9.6-3.6c-2.7,1.8-5.1,2.6-7.3,2.6c-4.2,0-7.7-2.6-11.2-5.2c-3.5-2.6-7-5.2-11.2-5.2
			c0,0,0,0,0,0c-4.4-3.7-12,0.5-15.1-6.3c-1.3-2.9-2.4-5.6-3.4-8.9c-3.1-9.8-5.2-19.9-12.8-27.7c-1.9-5.5-4-8.2-3.3-8.2
			c0.5,0,2.4,1.4,6.8,4.1c1.3-9.3,0.9-18.2-1-26.4c-1.8-8.2-4.9-15.6-9.5-23.4c-4.8-8.3-9.1-11.8-13.8-11.8c-3.9,0-8.2,2.5-13.4,6.8
			c-5.7,4.7-9.7,10.5-13.1,16.9c-1.5,4-3.9,7.5-5.7,11.6c-1.4,3.3-2.5,6.5-2.2,10.4c2.6,3.8,5.2,7.6,7.8,11.5
			c-3.1,11.9-3.1,23.9,0,35.8c0.3,0.2,0.7,0.5,1,0.5c8.5,4.9,12.1,11.4,7.5,21.8c-4.9,11.3-8.6,23.2-13.2,34.7
			c-1.7,4.1-3.5,8.3-5.5,12.3c-7.1,13.9-16,20.7-25.5,20.7c-8.6,0-17.7-5.6-26.2-16.7c-4-5.3-7.7-10.5-11.6-16.3
			c-5.9-8.2-12.4-16-21.3-21.4c-0.2,0-0.3,0-0.5,0c-19.4,0-10.4-17.2-15.3-26c-0.8-3.2-1.8-5.8-3.1-9.1
			c-8.6-19.4-27.7-32.9-47.6-32.9c-2.8,0-5.6,0.3-8.4,0.8c-8.1,0.8-15.5,2.4-13.7,13.4c-0.6,6,2.1,11.9,0.1,17.9c0,0.3,0,0.8,0,0.8
			c0.1,5.7-1.2,10.7-5.6,14.7c-1.7,8.7-7.1,15.8-10.6,23.7c-2.8,6.2-5.8,12.4-9,18.1c-12.2,22.1-27.7,41-46.6,57.3
			c-3.5,3.3-7.1,6-10.8,8.9c-17.7,13.8-40.8,22.2-46.5,48.4c-0.2,0.8-0.3,1.6-0.5,2.4c-1.5,8.5-10.6,14.5-18.5,19.4
			c-3.9,4,0.8,12.2-6.9,14.4c-6.3,7.1-12.7,13.8-19,21.2c-7.3,8.2-14.7,16.3-22,24.5c-7.3,2.8-7.6,10.7-11.4,16
			c-2.3,8-6.8,13.6-13.6,16.9c-2,0.8-4.3,1.7-6.7,2.2c-7.5,7.4-19.7,1.7-27,9.5c-5,0.6-10,1.1-15,1.7c-10.6,2.8-21.9,3-32.1,7.8
			c-2.8,1.4-5.6,2.8-8.4,4.2c-3.8,1.7-7.7,2.1-11.6,2.1c-1.9,0-3.8-0.1-5.7-0.2c-1.9-0.1-3.8-0.2-5.7-0.2c-1.6,0-3.1,0.1-4.6,0.2
			c-6.6,2.6-14.7,1.4-19.6,8c-30.1,0.2-57.7,11.2-86,19.4c-2.7,0.8-5.4,1.4-8.1,2.1c-1.3-0.8-2.4-1.1-3.6-1.1
			c-3.3,0-6.2,2.4-9.4,2.9c-0.3,0-0.6,0-0.9,0c-6.1,0-12,0.8-17.2,4.3c-1.4,1.1-2.4,2.5-2.6,4.3c0.1,3.9-1.1,5.4-3.1,5.4
			c-1.2,0-2.6-0.5-4.2-1.4c-4-2.2-7.3-5.7-12.2-6.1c-3.9,0-7.4,1-10.5,3.4c-4.2,1.1-7.5,4.5-10.7,6.6c-13.1,8.7-34.1,10.7-32.8,33.6
			c-1,1-1.9,1.6-2.6,3.3c-2.2,3.3-3.1,7.6-3.9,11.7c-0.7,4.8,0.4,9.3,2.6,13.6c0.9,1.7,2,3.2,3.3,4.6c4.1,4.4,9.5,6,15.1,6.9
			c2.9,0.7,5.6,1,8.2,1c10.5,0,19.1-5.2,26.4-13.9c3.8-3.5,6.6-7.5,6.2-13.1c0.3,4.8-0.8,9-4.8,12.1c-3.7,5.3-9.4,9.3-10.7,16.2
			c-1.1,4.7-0.9,9.4,0.2,14.1c0.4,1.4,0.9,2.5,1.5,4.2c0.6,0.8,1.2,2.3,1.9,3.4c0.9,1.6,2,3,3.4,4.3c1.4,1.2,2.8,2.2,4.4,3
			c15.6,8-1.8,9.5-2.7,14.3c-2.1,4.3-1.6,9.4-4.6,13.5c-1.5,1.4-2.9,1.9-4.3,1.9c-3.1,0-5.9-2.7-9-3.4c-4.6-1.2-6.9-5.5-10.9-7.5
			c-12.1,1.1-5.5,13.7-11.5,18.7c1,3.2-1,3.4-1,3.4s-2.1,0.7-3.2,1.6c0.1-0.1,0.3-0.1,0.4-0.2l-0.6,0.4l0.2-0.2
			c-3.5,1.8-7,2.2-10.6,2.2c-1.8,0-3.5-0.1-5.3-0.2c-1.8-0.1-3.6-0.2-5.3-0.2c-1.3,0-2.6,0.1-4,0.2c-0.1,0-0.2,0-0.3,0
			c-1.8,0-3.6,0.3-5.3,0.6c-0.3,0.2-0.5,0-0.7,0.8c-3.6,3.3-5.7,9.1-11.9,9.8c-12.1,1.3-13.3,9.3-11.6,19
			c-3.5,10.1-21.9,14.6-12.9,29.4c0.3,0.8,0.7,1.1,1.1,1.6c9.8,7.7-3.5,15.9,0.6,23.8c1.1,1.2,2.1,2.4,3.2,3.6
			c-0.1,3.5,0.5,6.7,3.1,9.3c3.9,3.1,8.3,5.4,12.2,8.5c3.3,2.5,4.2,5.7,4.9,9.8c0.8,3.3,1.4,7.7,4.4,10.6c1.5,1.8,3.2,3.3,5.2,4.7
			c1.3,0.7,1.6,1.7,1.2,3c-0.8,0.8-1.8,1.2-2.8,1.5c-3.5-0.7-3.7-4.1-5.2-6.6c-2-4.2-2.3-9.1-3.2-13.2c-0.5-2.5-1.1-4.8-2.2-7.1
			c-3.6-3.9-8.5-5.3-13.3-6.9c-4.4-2-6.9-6.4-11-8.7c-0.6,0-1.2,0-1.8,0c-12.3,0-21,5-22.9,18.7c-1.1,1.4-1.8,2.4-2,4
			c-0.7,3.3,2,5.7,5.6,7.8c6.8,9.6,13.7,19.2,20.5,28.7c-0.7,5.2-2.3,6.8-4.4,6.8c-2.4,0-5.3-2.2-8-3.6c-15-18-33.7-30.7-55.3-39.5
			c-0.5-0.1-0.9-0.2-1.4-0.2c-1.4-0.4-2.6-0.6-3.7-0.6c-1,0-1.8,0.2-2.5,0.6c-3.7,1.6-1.8,6.8-0.5,11.7c-2.4,4.8-4,10.3-10,12.1
			c0,0-0.1,0-0.1,0c-4.1,0-6.2,2.6-7.7,6.1c-1.3,2.4,1.1,6.1-2.7,7.3c-0.1,0-0.1,0-0.2,0c-0.8,0-1.6-1.5-2-2.5
			c-0.4-9.4,9.9-13.6,11-22.5c-1.2-1.4-2.4-2.7-3.6-4.1c-5.2-6-14.7-2.4-19.9-8.2c-0.1,0-0.1-0.2-0.2-0.3c-2.5-2.7-6.3-3-9.9-3
			c-0.7,0-1.4,0-2,0c-0.7,0-1.3,0-1.9,0c-2.7,0-4.9-0.3-5.6-2c-7.5-18.7-23.9-21.4-39.6-26.1c-0.9-0.9-1.9-1.4-3-1.4
			c-0.5,0-1,0.1-1.5,0.2c-4.7,1-3.1,9.8-8.5,9.8c-0.8,0-1.8-0.2-2.9-0.6c-10.8-1.1-21.7-2.1-32.5-3.2c-2.6,1.2-5.2,1.5-7.9,1.5
			c-1.5,0-3-0.1-4.6-0.2c-1.5-0.1-3.1-0.2-4.6-0.2c-1.6,0-3.2,0.1-4.8,0.5c-3.4,1.1-6.9,1.7-10.3,1.7c-3,0-6-0.4-9-1.2
			c-6.9-1.1-10.6-7.3-16.5-10c-6.1-9.5-15.5-15.4-24.5-21.9c-8.6-5.7-17-12.3-22.2-21.9c-3.5-2.1-3.3-9.8-8.3-9.8
			c-1.1,0-2.4,0.4-4.1,1.2c-2.9,2.9-5.8,5.8-8.7,8.7c-2,6.6-2.9,13.3,0.6,19.8l-0.5-0.4c0.9,1,1.8,1.7,2.8,2.5
			c6.4,4.1,14.8,2.2,21.4,5.6c1.1,6.9,3.6,14,3.1,20.7c-0.9,12,1.7,22,7.5,30.2c3.7,4.9,8.7,9.9,14.9,14c5.2,3.5,8.9,9.2,13.2,13.9
			c5.9,4.6,13.8,4,20,7.9c3,9,7.4,15.9,13.5,22.4c4.5,4.9,10,8.7,16.6,12.4c17.9,10.3,35.9,22.8,44,44.1c0.6,1.6,1.2,3.1,1.6,4.8
			c2.4,1.6,5,2.1,7.5,2.1c2,0,4-0.3,5.9-0.6c2-0.3,4-0.6,5.9-0.6c2.5,0,5,0.5,7.4,2c2.4,6,3.4,13.2,7.4,17.9
			c6.3,7.3,14.8,17.1,23.5,17.1c2.2,0,4.4-0.6,6.6-2.1c6.2-4.2,11.7-5.1,17.1-5.1c4.1,0,8.2,0.6,12.6,0.7c2.3-2.5,5.1-3,8-3
			c1,0,2,0.1,3,0.1c1,0.1,2,0.1,3,0.1c2.6,0,5-0.4,7.2-2.2c2.5-11.4,11.3-18.7,18-27.4c2-1,4-1.4,6-1.4c3.9,0,7.7,1.6,11.5,3.1
			c0.6,0.1,1.2,0.1,1.8,0.1c5,0,8.7-3.3,12.8-5.7c1.6,0.1,3.2,0.2,4.8,0.3c0.3-0.2,0.7-0.4,1-0.4c8-3.3,18.2,1.8,24.5-6.9
			c2.6-1.2,5-1.7,7.3-1.7c7.1,0,12.6,4.9,18.5,8.6c2.8,1.6,5.6,3.2,8.8,3.9c3.4,1.3,6.8,2.5,10.2,2.5c2.5,0,4.9-0.6,7.4-2.2
			c1.6,1.1,3.4,1.5,5.2,1.5c2,0,4-0.5,6-1c2-0.5,3.9-1,5.7-1c1.9,0,3.6,0.5,5.1,2.1c4.6,5.1,8.7,7,12.5,7c6.5,0,12.2-5.4,18.2-9.7
			c1-1.3,2-2.3,3-3.2c1.9-1.9,3.9-2.8,5.7-2.8c2.1,0,4.2,1,6.2,2.8c1.1,0.8,2.3,2.2,3.4,3.8c5.7,4.3,11,6.8,16.2,6.8
			c5.6,0,11.1-2.9,16.8-9.6c0.3-0.3,0.6-1,0.9-1c5.5-6.6,11.2-15.1,21.7-15.9c6-2.3,12-4.3,18.3-4.3c1.9,0,3.8,0.2,5.8,0.6
			c11.4-10.1,16.4-24.6,24.3-36.9c0.9-1.6,1.9-3,3-4.4c0.8-7.4-2.5-15.5,3.8-22c1.3-9.8,8.5-14.8,15.9-19.7c6.6-1.4,13.5-1,19.8-3.9
			c0.2,0,0.4,0,0.5,0c5.6,0,9.3-2.7,11.4-8c0.2-0.1,0.4-0.2,0.6-0.2c2.9-1.6,6-2.1,9-2.1c1.8,0,3.6,0.2,5.5,0.3
			c1.8,0.2,3.7,0.3,5.5,0.3c1,0,2,0,3-0.2c3.1,0,6.1,0.8,9,1.6c4.3,1.3,8.5,2.7,12.9,2.7c1.4,0,2.7-0.1,4.1-0.4
			c1.5,0.1,3,0.1,4.4,0.1c3.2,0,6.3-0.1,9.5-0.3c3.2-0.1,6.4-0.3,9.5-0.3c0.6,0,1.3,0,1.9,0c0.5-0.1,1-0.2,1.5-0.2
			c2,0,3.8,0.8,5.7,1.6c1.8,0.8,3.7,1.6,5.7,1.6c0.9,0,1.9-0.2,2.9-0.6c2.9-1.4,5.8-2.7,8.7-4.3c2.3-1.6,4.6-2.4,6.9-3.5
			c3.3,1.7,6.7,2.1,10.2,2.1c1.6,0,3.3-0.1,4.9-0.2c1.7-0.1,3.3-0.2,4.9-0.2c1.2,0,2.4,0,3.6,0.2c1.2,0.5,2.2,0.8,3,1.7
			c7.8,4.9-0.5,13.5,0.7,20.1c6.5,7.3,7.9,21.7,19.6,21.7c2.3,0,5-0.6,8.2-1.8c2.4,1.5,5.1,1.9,7.7,1.9c1.3,0,2.5-0.1,3.8-0.2
			c1.3-0.1,2.6-0.2,3.8-0.2c2.8,0,5.6,0.4,8.1,2.2c7.6,8.7,16.8,13,27.1,13c3.3,0,6.7-0.4,10.2-1.3c1.9-0.5,3.7-0.7,5.3-0.7
			c3.8,0,7.1,1.3,10.3,3.6c0.6,0,1.2,0.8,1.8,1.3c4.3,5.1,8.8,10,12.4,15.7c2.9,0.6,3.4,5.8,6.3,5.8c0.5,0,1.2-0.2,1.9-0.6
			c4.6-2.5,0.7-6.6,0.3-10c8.9-8.6,21.2-2.5,31-7c1.3-1.2,2.6-2.3,3.9-3.5c0.5-0.5,0.8-0.9,1.1-1.8c2-4.9-0.5-11.6,6.4-13.9
			c6.7-4.1,16.7-2.8,20.2-12.2c4.1-1.6,7.8-4.8,12.4-4.8c1.2,0,2.4,0.2,3.7,0.7c3.6-1.3,7.1-2.6,10.7-3.9c3.7-0.1,7.3-0.1,11-0.1
			c3.5,0,7,0,10.4,0.1c2.6,3,7.9,4.4,14,4.4c11.3,0,25.6-4.6,32.4-12c2.5-1.7,4.9-2.7,7.1-2.7c2.9,0,5.5,1.6,7.7,5.4
			c3.7,1.2,8.6,1.2,10.8,3.7c4.5,5.1,8.9,7,12.7,7c8.3,0,14.4-8.9,15.2-13.9c1-6.4,3.7-11.8,6.7-15.9c3.5-5.7,7.7-10,10.7-15.6
			c2.5-13.5-4.4-27.8,3.2-41c0.4-0.8,0.9-1.6,1.5-2.3c7.1-2.8,15-0.7,22.4-4c14.2-6.4,19.4-20.5,7.1-30.3
			c-8.5-6.8-12.5-14.1-14-21.5c-1.9-9.8,0.4-20.1,2.8-30.8c2-1.2,4.3-1.3,6.6-1.3c0.2,0,0.5,0,0.7,0c0.2,0,0.5,0,0.7,0
			c3.1,0,6.1-0.2,8.5-2.8c1.2-0.3,2.6-0.4,4.1-0.4c1,0,2,0,3,0.1c1,0,2.1,0.1,3,0.1c5.8,0,10.3-1.5,5.9-13.5c-2-3-3.1-5.5-3.2-7.9
			c-0.1-3.3,2.5-5.8,9.5-6c5.8-0.2,11.6-0.2,16.8-3.3c12.8-11.5,31.2-16.1,39.7-32.8c-3.7-5.3-8.2-9.8-11.8-15.2
			c-0.2,0-0.3-0.1-0.5-0.1c-5.2-1.6-10.4-2.7-15.6-4c-4.4-5-4.6-10-0.1-15.1c1.9-5.6,11.7-9.5,5.6-16.5c-6.6-7.5-4.2-14.4-2.1-21.8
			c0.3-1.6,0.6-2.4,0.9-3.5c0.9-9.7,10.6-9.3,15.8-14c1.7-0.2,3.4-0.4,5-0.6c4.1-4.1,8.7-7.6,13.8-10.2c1.5-2,2.7-2.7,3.7-2.7
			c2.1,0,3.4,3.2,5.1,4.8c2.7,2.3,5.2,3.2,7.4,3.2c4.9,0,8.7-4.4,12.8-7.9c7.7-4.6,13.2-11.8,21.7-15.8c4.4-2.1,7.1-5,7.5-8.2
			c0.4-3.3-1.1-6.5-5-10c-5-7.2-3.3-14.7-0.7-22.1c3.6-2.7,4.5-6.5,4.4-10.7c6.3-2.6,5.7-8.3,5.1-13.3c0-0.4-0.1-0.5-0.1-1.3
			c-0.4-7.4,3.8-10.4,10.7-11.4c3.9-4.1,1.4-8.9,1.4-13.5c1.5-6.3-3-11.9-2.3-18.1c0.8-5.7-1.9-10.3-4.5-14.4
			c-1.1-1.6-2.2-3.7-3.1-5.7c4.5-6-0.8-13.8,3.8-19.7c0-2.8,0-5.6,0-8.3c-2.3-4.9,4.7-12-3.6-15.5c-1.8-3.1-2.1-5.6-1.3-8.1
			c0.9-2.5,3.4-4.5,6.7-5.1c9.7-1.9,10-8.9,10.3-15.7c0.3-6.5,0.4-12.8,3.8-18.6c-3.9-4.4-0.1-9.3-0.6-13.9c0.3,0.1,0.6,0.1,0.9,0.1
			c1.1,0,2.2-0.4,3.3-1.1c0.1-1,0.1-2.3,0.2-3.1c0.1-1.6,0.2-3.9,0.3-5.9c2.5-1.6,5.2-2,7.9-2c1.3,0,2.5,0.1,3.8,0.2
			c1.3,0.1,2.5,0.2,3.8,0.2c2.8,0,5.5-0.4,8.1-2.1c3.2-1.7,3.8-4.8,4-8.1c2.7-5,3.3-11.2,7.7-15.3c4.2-8.1,9.1-10.6,14.2-10.6
			c4.1,0,8.3,1.6,12.6,3.2c4.3,1.6,8.5,3.2,12.6,3.2c0.1,0,0.2,0,0.3,0c3.4,4,5.7,9.9,11.6,9.9c1,0,2.2-0.2,3.5-0.6
			c3.9-3.6,1.8-10.8,7.9-13.1c1.6-0.1,3.3-0.2,4.9-0.3c2.9-1.7,5.9-2.1,9-2.1c1.5,0,3,0.1,4.5,0.2c1.5,0.1,3,0.2,4.5,0.2
			c3.1,0,6.1-0.4,8.9-2c1.8-0.2,3.5-0.2,5.2-0.2c13.4,0,24.4,5.2,32.9,16.9c1.2,1.6,3.1,4.8,6,4.8c1,0,2.2-0.4,3.5-1.5
			c16.5-4,5.9-19.7,12.2-28.1l-0.3,0.4c1.1-0.5,2.2-0.7,3.1-0.7c5.3,0,7.5,6.8,12.4,7.7c0.2,3,0.3,5.9,0.5,8.9
			c2.4,1.5,4.6,2.1,6.6,2.1c8.1,0,13.2-10,21.1-10.3l1.8,0.1l1.8-0.1c5,2.2,7.9,8.2,14.2,8.2c0.1,0,0.3,0,0.4,0
			c4.4-2.8,8.5-3.9,12.5-3.9c8.5,0,16.2,5,24,9.2c2.5-3.4,5.2-4.9,8-4.9c2.5,0,5.1,1.1,7.8,3.2c9.7-2.1,19.8-5.8,29.1-5.8
			c9.2,0,17.8,3.6,24.9,15.9c1.5,2.7,7.3,2.6,10.6,4.6c8.7,5.5,20.3,6.6,26.2,16.5c0.9,0.8,1.8,1.3,2.8,2.1c3.1,1.6,6.7,3,8.9,6.1
			c2.9-1.2,5.7-2.5,8.6-3.7c1.7,0.9,3.3,1.5,4.5,1.5c1.7,0,2.8-1.1,3-3.9c0-0.8,0-0.9,0-1.4c-6.2-10-18.4-19-12.4-32.1
			c3.9-8.7-2.9-11.5-4.1-17.1c-0.5-2.4,0.3-4.3,1.4-5.9c1-1.6,2.4-2.9,3.3-4.4c2.5-0.6,4.9-0.8,7.3-0.8c5.9,0,11.4,1.8,16.2,5.3
			c1.3,0.8,2.6,2.2,3.8,3.6c13.2,14.7,30.5,23.5,47.1,33.4c6.5,3.9,12.5,6.5,18.7,6.5c5.5,0,11.2-2.1,17.5-7.1c6-4.8,15.7-9,25.4-9
			c1,0,2,0,3,0.1c6.7-0.1,13.1-1.3,19.1-4.3l1.8,0.2l1.8-0.1c1.3-5.1,4.2-6.1,7.4-6.1c1.1,0,2.2,0.1,3.3,0.2
			c1.1,0.1,2.2,0.2,3.3,0.2c0.3,0,0.7,0,1,0c2.9,2.2,5.7,3.2,8.5,3.2c3.9,0,7.7-2,11.3-5.1c8.6-2.8,17.4-5.3,25.8-8.7
			c3.1-1.3,8-2,7.8-6.9c0-0.8-0.2-1.5-0.5-2.4c-1.5-4.5-3.9-8.1-7.8-10.8c-1.6-1.1-2.9-1.5-4.1-1.5c-3,0-4.8,3-6.8,5.6
			c-3.5,4.6-6.2,6.4-8.4,6.4c-3.5,0-5.8-4.7-7.9-10.7c-1.8-5-4-9.6-1.2-14.9c-1.6-9.9,6.1-9.4,12.1-10.8c0.9-1.6,1.3-3.3,0.9-5.1
			c-3.1-4.9-7.8-7.9-12.7-10.5c-1.5-1.5-2.7-2.1-3.9-2.1c-1.7,0-3,1.3-4.3,2.6c-1.3,1.3-2.7,2.6-4.3,2.6c0,0,0,0,0,0
			c-5.3,1.5-10.5,2.3-15.8,2.3c-5.2,0-10.4-0.8-15.6-2.5c-2.8-1.8-4.6-4-5.8-6.4c-4-7.4-2.5-17.9-8.2-24.8
			c-9.7-11.7-4.3-20,4.7-28.6c0.2-0.2,0.4-0.7,0.7-0.7c0.6,0,1.3-0.8,1.9-1.6c8.6-7.6,17-11.5,25.7-11.5c7.3,0,14.7,2.7,22.7,8.4
			c2,1.4,3.9,2.4,5.8,3.2c2.5,1.1,5,1.6,7.5,1.6c3,0,6.1-0.7,9.2-1.6c0.9,0,1.8-0.6,2.7-0.9c4.7-1.6,9.4-2.5,14.2-2.5
			c4.7,0,9.3,0.9,14,2.7l-0.6-0.4c1.1,0.4,2.2,1.1,3.3,1.1c2,0.8,4,1.2,5.9,1.2c1.9,0,3.7-0.4,5.5-1.2c1.8-0.8,3.4-2.4,4.9-4.7
			c1.1,0.2,2.2,0.3,3.2,0.3c9.6,0,14.4-9.6,22.4-12.9c4.8-1.1,10-0.3,14.3-3.2l-0.1,0.1c4.9-3.2,11.5-0.2,16.2-4.2
			c3.8-0.6,7.7-1.3,11.5-1.9c3.6-5.9,11.5-5,15.8-9.9C3509.8,1363.7,3516.9,1357.4,3514.9,1346z"/>
	</g>
	<g>
		<path class="st1" d="M596.1,1932.2c1.7,0,3.3-0.2,4.9-0.6h-9.9C592.8,1932,594.5,1932.2,596.1,1932.2z"/>
		<path class="st1" d="M580.2,1931.6c0,0,0.1,0.1,0.1,0.1c0.1,0,0.2-0.1,0.3-0.1c0.1,0,0.2-0.1,0.3-0.1h-0.8
			C580.1,1931.5,580.2,1931.6,580.2,1931.6z"/>
		<path class="st1" d="M769.4,2047.4c1.9,0,3.8-0.2,5.7-0.5l0.1,0h-9.9C766.7,2047.3,768,2047.4,769.4,2047.4z"/>
		<path class="st1" d="M302.2,1292.5c-4.1-8.1-7.4-19.5-16.9-19.5c-1.2,0-2.6,0.2-4,0.6c-12,3.4-3.7,16.6-5.8,25.2
			c-5,6.6-10.8,13.1-5.2,22.2c5.2,4.5,4.3,16.4,12.9,16.4c1.1,0,2.4-0.2,3.9-0.7c10.2-3.1,10.3-13.1,9.9-22.2
			C301.8,1307.9,307.8,1301.6,302.2,1292.5z"/>
		<path class="st1" d="M1170.1,2161.1c-1.2-5.5-2.8-11.1-4.7-16.1c-7-19.7-17.6-37.7-25.9-56.5c-0.3-0.8-0.6-1.4-0.9-2.1
			c-9.4-4.1-3.6-14.3-8-20.3c-0.5-2.5-0.5-5.3-1.6-7.5c-5.4-9.8-12.5-19.2-18.6-28.3c-8-12.3-14.4-25.7-13.4-42.4
			c0.2-2.9-3.8-6.8-6.6-9.1c-1.9-1.6-3.6-3.3-5.3-5c-7.6-8.2-12.3-18.6-17.7-28.4c2.9-6.7-1.2-11.9-3.9-17.4
			c-2.8-4.9-6.3-8.3-10.3-11.6c-9.6-7.4-21.9-10.7-32.7-16.3c0,0.1-0.5,0.2-0.5,0.4l-0.4-0.2v0l0-0.2l0,0v0
			c-2.5-2.5-7.4-4.9-11.4-7.3c-3.5-5-7.8-9.1-10.5-14.7c-5.3-3.4-9.3-9-16.4-9c-0.2,0-0.3,0-0.5,0c-7.1-3.4-8-6.7-6.7-9.9
			c1.3-3.3,4.9-6.5,7.2-9.7c7-8.7,3-18.7,3.2-28.1c-1.5-5.7-2-11.3-2.1-17.1c-0.2-9.8,0.9-20.1,0.2-30.1c0.7-9-0.5-18.2-0.3-27.3
			c0.1-5.7,0.7-11.2,2.5-16.5c-0.1,0.1-0.2,0.1-0.3,0.2l0.4-0.7l-0.1,0.1c2.3-3.8-3.8-8.3,0.6-11.9c-8.1-11.6-16.3-23.3-24.4-34.9
			c-1.4-8.3-6.5-17.1,3.5-23.7c0.1-2.8,0.2-5.6,0.4-8.4c4.6-6-1-14,4-19.9c5.3-9.9,19.6-18.7,3.9-31.2c-2.1-6.5-3.5-13-0.7-19.6
			c1.5-1.4,3-2.8,4.6-4.2c7.3-18.9,28.5-33.9,15.9-58.2c-0.3-3.7,0.5-7.4,0.3-11.1c0.1-5.9-0.6-11.6-4.2-16.6
			c-1.8-10-3.3-20.1,1.6-29.7c-0.2-6.1,1.8-12.4-1.6-18.2c-23.6-31.8-39.6-68.1-59.2-102.3c-0.5-4.6-4-8.3-4-13.1
			c-13.9-31.1-40.7-48.3-69.8-61.4c-14-6.3-26.7-12.4-35.6-24.9c-6.9-0.9-7.4-6.8-9-11.7c-3.2-6.9-8.9-11.4-14.9-15.6
			c-1.9-1.3-3.7-1.9-5.3-1.9c-1.7,0-3.2,0.7-4.5,2.1c0-2.9-1.1-5.6-2.9-8.1c-15.7-17.1-16.9-43-35.5-58.4c-2-4.1-5.7-4.8-9.7-5
			c-2-3.7-2.1-11.1-6.5-11.1c-1.3,0-2.9,0.6-5.1,2.1c-4.1,2.8-7.8,3.9-11.4,3.9c-6.5,0-12.4-3.7-18.6-6.8c-1-0.3-1.8-0.4-2.4-0.4
			c-4.8,0-2.5,7-5.7,8.7c0.9,10-6,14.7-12.5,20.6c-10.4,9.3-23.7,17.2-23,34.2c-7.1,6.1,0.1,19.1-11.2,23.2
			c-3.8,7.3-8.6,11.3-14.6,11.3c-3.1,0-6.6-1.1-10.5-3.3c-2.3-3.9-4.7-5.7-7.6-5.7c-1.9,0-4,0.8-6.4,2.4c-0.1,1.1,0.5,2.2,0.5,3.3v0
			c0,0.1-0.7,0.2-0.7,0.3c0,1.1-0.1,2.2-0.2,3.4c0.7,5.3-0.9,10.6-0.9,15.8c-0.1-5.3,1.2-10.6,0.5-15.8c0-1.2-0.1-2.4-0.4-3.6l0,0
			c-3.9-6.4-7.7-12.8-11.6-19.2c-1.6-4.2-2.5-8.9-7.5-10.8c-2.9-2.3-5.4-3.2-7.6-3.2c-4,0-7,3-9.7,6.1c-2.8,3-5.3,6.1-8.4,6.1
			c-0.3,0-0.6,0-0.9-0.1c-2.1-0.4-4-0.6-5.9-0.6c-16.6,0-26.7,14.6-41.2,18.4c-8.9,5.3-4.2,14.3-5.7,21.5
			c-4.4,9.4-9.7,14.1-15.5,14.1c-3.8,0-7.9-2.1-12.1-6.3c-8.2-8.2-15.6-17.1-23.4-25.7l0,0c-1.5-2.8-3-5.6-4.5-8.4
			c-3.5-5.2-0.5-7.8,3.8-9.9c1-12.8,10.3-17.4,20.6-20.9c4.2-9.3,3.6-19.1,3.7-28.9c-3.9-5.7-14.7-9.9-3.9-18.7
			c6.7-4.8,8.4-10.4,2.4-17c-1.8-0.6-3.6-0.9-5.3-0.9c-3.9,0-7.6,1.3-11.3,2.7c-2.3-2.5-4.6-6.2-7.9-6.2c-1,0-2,0.3-3.1,1.1
			c-4,2.7-7.6,3.8-11,3.8c-7.3,0-13.2-5.4-19.3-10.8c1.9-8.6-6.8-15.6-3.8-24.4c-1.2-14.5-17.7-10-23.5-18.9c-2.8,0-5.5,0.1-8.3,0.1
			c-2.8,0-5.5,0-8.3-0.1c-1.3,0-2.6,0.1-3.9,0.2c-3.9,1.4-7.9,2.2-11.8,2.2c-3.9,0-7.7-0.8-11.5-2.5c-6.7-6.7-13.9-12-23.4-12
			c-1.3,0-2.7,0.1-4.1,0.3c-1.1-0.5-2.1-0.7-3-0.7c-1.5,0-2.7,0.6-3.7,1.5c-1-2.7-3.2-5.1-3.9-7.8c-3-2.7-6-5.5-9.1-8.2
			c-0.2-4.4-0.2-8.8,0-13.2c-3-6.8-10.2-7.8-15.6-11.2c-4.2,3.6-13.2,1.8-12.3,11.1c-5.6,8.5,4,17.3-0.4,25.8c-8,5-6,13.5-7.2,20.8
			c0.2,6.8,1.7,13.2,3.9,19.6c2.9,5.5,4.4,11.2,3.9,17.5c1,0.6,1.9,0.9,2.8,0.9c1.1,0,2.1-0.4,3-0.9c-0.5,2.7-0.1,5.4,2.1,8.1
			c13,21.5,25.5,43.2,35.4,66.3c-0.3,5.1-0.8,10.9-3.1,11.2c0.2,16.4-4.4,33,3.1,48.9c-3.4,6.1-1.7,12.6-1.2,19
			c2.4,3.3,5.5,4.6,8.9,5.2l-0.1,0c-2.3,0.8-4.1,2.3-5.3,4.4c1.1,10.2-3.1,20.9,2.8,30.7c0.9,3.7,1.9,7.4,2.8,11.1
			c0.6,8.5-1.1,17.5,5.9,24.4c0.7,3.7,1.3,7.4,2,11.2c0.6,3.2-1.4,7.8-0.4,10.8c-0.2,0-0.5,0-0.7,0c-2.3,0-4.6,0.4-6.8,1.6
			c-6.8,12.3-5.9,23.8,3.9,34.3c1.7,7.8,8.8,7,14.2,9.1c8.5,12,18.2,36.5,17.7,39.5c-0.4,3.1,3.1-0.7,1.9,6.2
			c-0.1,5.8-0.1,11.5,0,17.3c1.9,6.8,1.5,14.2,5.9,20.3c4.8,4.6,7.8,9.5,3.6,16.1c-5.2,5.2-1.6,14-7.6,18.9
			c-1.4,9.1-2.8,18.1-4.2,27.2c2.8,5.3,14.5,1.3,12.3,11.8c-1.4,2.7-2.9,5.4-4.3,8.1c4.2,4.5,11.5,3,15.5,7.9
			c13.5,4.9,23.2,13.1,24.4,28.5c1.3,0.7,2.6,1.2,4.1,1.2c0,0,0.1,0,0.1,0c0.1,0,0.2,0,0.3,0c0.2,0,0.5,0,0.7,0c0.3,0,0.5,0,0.8,0
			c1.6,0,3.1,0,4.7,0.3c1.2,0.5,2.5,1.5,2.1,2.4c-0.5,1.2-1.1,1.6-1.9,1.6c-0.5,0-1.1-0.2-1.7-0.4c-0.6-0.2-1.2-0.4-1.7-0.4
			c-0.1,0-0.1,0-0.2,0c-0.3,0-0.6,0-0.8,0c-1.5,0-3,0.2-4.5,0.8c-5.1,4.8-12.7,2.2-18.2,6c0,2.4,0.1,4.7,0.1,7.1
			c-5.8,7.2,1.5,11.3,4,16.6l0.5,0.1c6.7,2.6,14.4,1.1,21.4,2.8c-0.8,0.9-1.5,1.1-2.3,1.8c-1.6,12.4,0.8,21.8,15.2,25.3
			c5.8,1.4,12,6.7,15.7,11.7c15.4,21.1,30.6,42.9,48.6,61.7c6.1,6.6,12.6,12.6,19.4,18.5c4.1,3.4,5.1,10.3,7.6,15.7
			c0,7.4,1.2,15-3.9,21.5c0.1,0.6,0.3,0.9,0.6,1.7c2.1,4.1,8.4,6.6,4.5,11.5c-10.3,12.9-3.4,27.4-5.2,41c0.2,0.9,0.5,1.6,0.9,2.5
			c1.8,3.3,5.1,5.8,6.4,9.5c10.1,2.5,19.7,5.8,24.5,16.3c2.6,5.5,7.8,9.2,10.4,14.8c11.9,1,20.5,6.9,27,16.7h0.1
			c0,0,0.1,0.1,0.1,0.1c0.1,0,0.2-0.1,0.3-0.1h0.3c1.4-0.7,2.8-0.9,4.2-0.9c1.9,0,3.9,0.5,5.9,0.9c1.7,0.4,3.3,0.6,4.9,0.6
			c1.6,0,3.2-0.2,4.8-0.6c0.9-0.8,1.8-1,2.7-1.8c1.7-1.2,3.7-2,5.5-3.1c0,1.9,1.1,3.2,2.3,4.8c0.9,0.8,1.7,2,2.3,3.2
			c3.8,4.3,9.8,8,10.9,12.9c5.4,23.4,22.4,31.5,43.1,35.5c1.4,2,2.9,4.2,4.4,5.8c21.7,27.9,48.3,48.2,84.8,53.8
			c1.6,1.5,3.4,1.9,5.2,2.8c1.3,0.3,2.7,0.5,4,0.5c1.8,0,3.7-0.2,5.6-0.4l0.1,0c4.3-2.5,9.2-4.2,10.9-8.3c2.6,2.4,5.1,4.9,8.4,6.4
			c2,0.3,3.4,1.1,4.3,2c2,1.6,1.8,5-0.2,8.7c-1,18.8,17.6,25.6,24.2,39.8c6.8,3.1,4.9,7.1,7.4,7.1c0.1,0,0.3,0,0.5,0
			c3.4-0.5,6.7-0.8,9.9-0.8c6.5,0,12.5,1.1,17.9,3.3c9.4,4.1,17.2,10.9,23.4,21.7c2.1,1.3,4.3,1.6,6.7,1.6c0.9,0,1.8,0,2.8-0.1
			c0.9,0,1.8-0.1,2.8-0.1c2.6,0,5.1,0.4,7.4,2.2c14.6,17.3,36.8,21.4,55.6,31.2c2.5,0.8,5,2.7,7.3,4.3c6.4,12.6-2.7,27.3,5.3,39.6
			c4.1,4.5,8.4,8.6,12.1,14.3h16.3c2.5-4.1,5-6.9,8.1-9.6c10.2-8.8,15.1-25.3,31.9-25.3c0.7,0,1.5,0,2.2,0.1
			c4.8-4.3,9.6-6.2,14.3-6.2c5.3,0,10.6,2.3,15.8,6.4c4.2,0.1,8.4,0.3,12.6,0.4c2.1,1.6,4.7,2,7.3,2c0.9,0,1.9,0,2.8-0.1
			c0.9,0,1.9-0.1,2.8-0.1c4.1,0,7.8,0.8,10.2,5.8c9.9,2,12.6,16.7,23.7,16.7c1.3,0,2.8-0.2,4.3-0.7c8.8,4.6,18.4,3.8,27.8,3.9
			c2.6-2.7,5.3-5.4,7.9-8.1C1172.7,2179.4,1173.4,2170.3,1170.1,2161.1z"/>
	</g>
</g>
</svg>
