<?xml version="1.0" encoding="utf-8"?>
<!-- Generator: Adobe Illustrator 24.3.0, SVG Export Plug-In . SVG Version: 6.00 Build 0)  -->
<svg version="1.1" id="Layer_1" xmlns="http://www.w3.org/2000/svg" xmlns:xlink="http://www.w3.org/1999/xlink" x="0px" y="0px" viewBox="0 0 100 100" style="enable-background:new 0 0 100 100;" xml:space="preserve">
  <style type="text/css">
    .st0 {
      fill: #FFFFFF;
    }
  </style>
  <g>
    <path class="st0" d="M86.5,24.8L86.1,25l-0.4,0l-0.3-0.1L84.8,25l-0.4-0.3h-0.5l-0.4-0.2l-0.2-0.2l-0.4,0L82.5,24H82l-0.4-0.4
      l-0.3-0.1l-0.1-0.2l0.1-0.4l-0.1-0.1L81,22.9l-0.1,0l-0.1,0.1h-0.2l-0.2,0.2L79.8,23l-0.2,0.1l-0.1-0.5l-0.3-0.5l-0.4,0l-0.2-0.3
      l0-0.3l0.1-0.1l0-0.1l0.2,0l-0.1-0.1l0-0.2l0.2,0l-0.2-0.3l-0.1,0l0-0.2l0.2-0.3V20l-0.2-0.5l-0.2-0.3l-0.1-0.4l-0.6-0.5l-0.3-0.2
      l-0.3-0.1h-0.5l-0.1,0.1l0,0.2l-0.1,0l-0.1,0.1l-0.1,0l-0.1-0.3l0-0.6l-0.1-0.2l0.1-0.1l0,0L75.7,17l-0.3,0l-0.3-0.2L75,16.7
      l-0.3,0.1l-0.2,0l-0.4,0.4l-0.3-0.3l-0.1-0.4l-0.3,0.2l0,0l-0.1-0.2l-0.3,0l0,0.2l-0.2,0.1l-0.1,0.4l-0.1,0L72.6,17h-0.4l-0.7,0.5
      l-0.4,0l-0.1,0.4l-0.4,0l-0.8-0.3l-0.5,0l-0.1-0.1h-0.2l-0.1,0h-0.2l-0.9,0l-0.3,0L67,17.6l-0.6-0.1l-0.4,0l-0.9,0.2l-1.1,0
      l-0.4,0.1L63.4,18h-0.4L63,18.1h-0.2l-0.1,0.1l-0.3,0l-0.2,0.3l0.1,0.2l-0.5,0.1l0,0.3h-0.2l-0.2,0.1l-0.3,0l-0.1,0.3h-0.3
      l-0.1,0.3l0.2,0.1l0,0.2h-0.3l-0.3-0.3l-0.3-0.1v0.2L59.7,20l-0.2,0.2l0.2,0.1l0,0.1L59,20.8L58.9,21l-0.2,0.1l-0.1,0.2l-0.2,0
      l-0.2,0.2v0.1L58,21.9l0.1,0.2l0.3,0.2l0.1,0.1l0.2,0l0.1,0.1l0.1,0.3l0.3,0.3l0.1,0.2l0.1,0.1l-0.1,0.2l0.3,0.2l0.1,0.2l-0.2,0.4
      l0.4,0.2l0.1,0.1l-0.1,0.3l0.2,0.3l0,0.1l-0.4,0.6l0.3,0.4l0.2,0.1v0.1l-0.3,0.4l-0.4,0.3l0.1,0.2l0.2,0.1l-0.1,0l-0.1,0.3l0,0v0.1
      l0,0l0,0v0.1l-0.3,0.1l-0.5,0.3l-0.1,0l-0.1,0.4l-0.1,0.1l-0.1,0.1l0,0.1l-0.6,0.3l0,0.1l0.1,0.2l-0.1,0.2l-0.2,0.1L57.3,30
      l-0.1-0.1l0,0.5l0.3,0.3l0.4,0.2V31l-0.2,0.4l0,0.2l0.1,0.1l-0.1,0.1l0,0.2l-0.2,0.3l-0.1,0v0.2l0,0.1l-0.6,0.2l-0.1,0.2l-0.3,0
      L56.2,33l-0.7,0l-0.2,0.1l-0.1,0v0.1l-0.1,0l-0.3,0l0-0.1h-0.4l-0.2-0.1L54,33l-0.3-0.1h-0.4L53,32.7l-0.4,0.1v0.2L52.5,33
      l-0.1,0.2l0.2,0.1l0.3,0.4v0.3l0.1,0.1l0.2,0l0.3,0l0.1,0.1l0,0.3h0.2l0.1,0.1l-0.1,0.6l0.1,0.2l0.1,0l0.1,0.1l0.2,0.1l0.1,0.2
      L54.3,36l0.1,0.1l-0.1,0l0,0.1h-0.2L54,36.6l-0.3,0.2l0.1,0.1l-0.1,0.1l-0.3,0l-0.1-0.1l-0.2,0.4l-0.3,0.1l-0.1,0.1l-0.2,0
      l-0.4-0.2l-0.4,0.2l-0.5,0l0,0.1l-0.3,0.4l0,0l-0.1,0.4l0.2,0.4l-0.3,0.1l-0.1,0.2l-0.2,0.1l0.2,0.2v0.2l0.1,0.1l-0.3,0.5l-0.4,0.2
      l-0.2,0.4l0.2,0.5l0,1l0.1,0.8l0.1,0.2l-0.2,0l-0.4,0.3l-0.1,0.1l-0.3,0.7l-0.4,0.3l0,0.1l-0.3-0.1L48.1,45l-0.3,0l-0.2-0.1
      l-0.1-0.3l-0.2-0.2l-0.1-0.4l-0.3,0l-0.3-0.2L46,44.2l0,0h-0.6l-0.2-0.1l0-0.1L44.9,44l0-0.1l-0.3,0.4l-0.1,0.1l-0.2,0.3L44,44.9
      L43.5,45l-0.6,0.5h-0.5l-0.1-0.1l-0.2,0l0.2,0.3v0.2l0.2,0.1l0.4-0.1l0.1,0.1l0.1,0.2L43,46.4l-0.2,0l-0.4,0.2h-0.2l-0.4,0.2
      l0.1,0.1l0,0L41,47.2L40.4,47l-0.2,0L40,47.1l-0.2-0.2l0.1-0.3l-0.2,0l0-0.1l-0.5,0.1L39,46.7L38.8,47h-0.3l0,0.1l-0.2,0.6
      l-0.2,0.1l-0.1,0.2L38,48.3l-0.6,0.1v0.1h0.1l-0.2,0.3L37,48.9l-0.1,0.3l0.1,0.2l-0.3,0.6l-0.1,0.5l0,0.1l0.3,0.1l0.1,0.1l-0.1,0.1
      L37,51l-0.1,0.2v0.5l-0.2,0.6l0,0.1l-0.2,0.2l-0.1,0.2l0.5,0.5l0,0.1l-0.4,0.4l0.1,0.1l-0.1,0.1l-1.1,0.3v0.1l-0.5,0.1l-0.4,0.2
      v-0.1l-3.2,0.9l-0.4-0.2l-0.2,0.1l-1.2-0.1l-0.6,0l-0.2,0.1v0.1l-0.5,0.2h-0.2l-0.1,0.1l-0.2,0.1l-0.1,0.1l0,0.2l-0.1,0.2h-0.2
      L26.6,56l-1.3-0.2L24,55.8l-0.3,0.1h-0.8l-2.7,0.3l-0.4-0.1l-1.7-0.6l-0.4-0.2L13.3,54l1.3,1.7l0.8,0.8l-0.1,0.3l0.1,0.3l0.2,0.1
      l-0.1,0.3l0.2,0.1l0,0.2l0.1,0.1v0.2l0.8,1.2l0.5,0.6l1,0.6l0.3,0.1h0.2l0.3,0.1h0.2l0.5,0.2l0.8,0.8l0.9-0.1l0,0.3l-0.1,0.9
      l0.1,0.3l0.1,0.8l0.2,1.7l-0.2,0.6l0.1,0.2l-0.2,0.3v0.1l0.2,0.1l0.2,0l0.3,0.1l0.5-0.2l0.5,0l0.5,0.3l0.1,0.2l-0.3,0.3v0.7
      l0.1,0.4l-0.4,0.1l0,0.5l-0.1,0.4l-0.5,0l-0.3-0.1h-0.9l-0.2,0.1l-0.1,0.1h-0.3L20.7,70l-0.7,0.1l-0.1,0.1l-0.4,0.1l0,0.1l0.1,0.1
      l-0.1,0.1h-0.1l0,0.2l0.1,0.1l0,0.1l-0.6-0.2l0,0.3h-0.3l-0.4,0.2l-0.4,0.1l-0.1,0.1l-0.3,2l-0.1,0.1h-0.3v0.4l0.1,0.1l-0.1,0.2
      l-0.1,1.7l-0.2,0.5l-0.1,0.1l0.4,0.1l0.4,0.2l0,0.2L17,77.3l0,0.2l0.2,0l0.3-0.1l0.1-0.2l0-0.1l0.2-0.1l0.8,0L18.4,77v-0.1
      l-0.1-0.1l0-0.1l0.2-0.1l0.3-0.1l0.4,0l0.2,0.2l0,0.3l-0.3,0.1l0.5,0l0-0.1h-0.2L19.5,77l0.1-0.3l0.2-0.1l0.4-0.1L20,76.4l0.1-0.1
      l0.2,0l1.1,0.1l0.9,0.2l0.3-0.1l0-0.1l0.2,0l1.6,0.2l0-0.1l-0.1-0.1v-0.2l0.1-0.2l0.3-0.2l0.5-0.1l0.8,0.2l0.7,0.1l0.1-0.1
      l-0.1-0.3h-0.1l-0.1,0.1l-0.1-0.1l0.2-0.1v-0.1l-0.1,0l0.4,0l0.2-0.1l0.3,0.1v0.1l-0.2,0.1l0,0.1H27l0.2,0.2l-0.1,0V76l0.6,0.1v0.1
      l0.5,0.2l0.2,0.1l0.3,0l0-0.1l0.2-0.1l0.3,0.1l0.2,0.2v0.1l-0.2,0.1l0.1,0.1l0.4-0.1l-0.1-0.1h-0.1v-0.3l0.2-0.2L30,76l0.7,0
      l1.2,0.1L32,76l0.1-0.2l0.1-0.1l0.4,0l0.2,0.1l0.2-0.1l0.8,0.2l0.6-0.1l0.2-0.2l0.6,0l0.6-0.2l0.8-0.1l0.3,0l0.6,0.3h0.1l0-0.1
      l-0.2-0.1h0.2v-0.2l-0.2,0l-0.2,0.1L37,75h-0.1l0-0.1l-0.1,0l-0.3,0l0.1-0.2l0.3,0l0.2,0.1l0.1,0.1L37.1,75l0.1,0l0.1-0.1l0.1,0
      l0,0.1l0.1,0l0.1,0l0.2,0.1l0.1,0.1v0.1l0.1,0.1l-0.1,0.1l0,0l0,0.1l0.1,0l0,0.1h-0.1v0.1l0.5,0.4l0.3,0.3l0,0.1l-0.1,0.2l-0.1,0.2
      l0,0.2l0,0.4l-0.1,0.1l0.1,0.2l0,0.4l0.1,0.1l0.3,0l0.1-0.1l0.3,0.1l0.1-0.1h0.1l0.2,0.1l0.3,0.3l-0.1-0.2l-0.2-0.1v-0.1l0.2-0.1
      v0.1h0.1l0,0.2l0.2,0l0.2,0.3l0.1-0.1l-0.1-0.1l0.1,0.1l0.3-0.1l0.2,0.1l0,0.1L40.7,79l0.1,0.2l-0.1,0.1l0,0.1l0.2,0l0,0.2
      l-0.1,0.2l0.2,0.2l0,0.1l0.2,0.2l0,0.4l0.2,0.1l-0.2,0.1l0,0.1L41.2,81l0.1,0.2l0.1,0.1l-0.1,0.2l0.1,0.3l0,0.3l0.1,0.1l0,0.3
      l0.2,0.1l0,0.1l0.2,0L42,82.9l0.2,0.1l0.1,0l0.1,0.2l0.2,0.2h0.1v0.1l0.1,0l0.2,0L43,83.2h0.1l0.2,0.1v0h0.2l0-0.4l0.1,0l0.3,0.3
      l0.1,0l0.1,0.1l0,0.1l0.1,0.1l0.1-0.1v0.1l0.1,0l0,0l0,0l0-0.1l0.1-0.1v-0.3l0,0v-0.1l0.1,0.1l0.1,0l0.3-0.1l0,0.2l0.2,0l0-0.1
      l0.2-0.1l0.2-0.2l0.2,0.1l0-0.2l0.2-0.1l0.1,0.1l0.1-0.1l0.1,0l0.2-0.1l0.1,0.3l0.1-0.1h0.9l0.1-1.5l0.3-0.1l0.1,0.5l0.1,0.1h0.1
      l0.1-0.3l0.1-0.1l0.1,0.2l0.1,0.1l0.4-0.2l0.5,0.2l0.5-0.2l0.2,0l0.3,0l0.3,0.1l0.4-0.1l0.5,0.5l1.1,0l0.2,0l0.2-0.1l0.3-0.5
      l1.1-0.3l0.8-0.3l0.2,0.1l-0.2,0.3l0.1,0.2l-0.1,0.1l0.1,0l-0.1,0.2l0.3,0.1h0.6l0.4-0.2l0-0.2l0.3-0.3l0.2-0.1l0.1,0.1h0.1
      l0.2-0.2l0.2-0.1l0-0.1l-0.1-0.1l-0.6-0.4l0-0.4l-0.1-0.1v-0.3l0.1-0.1l0.4-0.2l-0.1-0.1l-0.2-0.5l-0.3-0.5l-0.2-1l-0.5-0.6L56,76
      l-0.3-0.3l0.1-0.6l-0.1,0l0-0.6l-0.1-0.2l-0.2,0l-0.3,0.1l-0.6,0.1l-0.5-0.2l-0.2-0.3l-0.3-0.3L53.2,73l-0.1-0.6l0.3-0.4l0.1-0.4
      l0-0.2l0.1-0.9l-0.1-0.3l-0.1-0.1l-0.3-0.1L52.3,70L52.1,70l-0.4-0.3l-0.9-0.4l-0.1-0.3l0.1-1l0.3-0.7l0.4-0.4l0.8-0.7l0.3-0.5
      l0.3-0.3l0.4-1l0.4-0.6l0-0.3l0.4-0.3l0.3-0.3l0.5-0.1h0.2l0.1,0.1l0.4,0.4l0.1,0.4l0.3,0.6l0.5,0.1l1.7-0.7l0.6-0.1H60l1-0.4
      l0.2-0.8l0.3-0.4l0.8-0.7l0.5-1.5l0.4-0.5l1.4-0.8l1-0.5l0.3-0.6l0.4-0.5l0.8-1.5l0.5-1.9l0.9-0.4l0.8-0.2l0.8-0.6l0-0.3l-0.2-0.4
      L69.6,51l0.1-0.2l0.1,0l0-0.2l0.1,0v-0.2l0.2-0.2l0.1,0.1l0,0l0-0.1l-0.1,0l0.1-0.1v-0.2l0.1,0l0-0.1h0.1l0.3-0.4l0.2-0.1L71,49
      l0.2-0.1l-0.1-0.1l0.1-0.2l0.1,0l0.1,0v-0.2l0.2-0.1l0-0.1l0.2-0.2H72l0.2-0.1l0-0.1l0.1-0.3l0.2,0.1l0.1,0l0.2-0.1l0.1-0.2
      l-0.1-0.2l-0.1,0l-0.1,0.1l0-0.1l-0.1,0l0,0.2l-0.1,0l0-0.2L72,47.2V47l0.1-0.3l0-0.1l0.1-0.1h0.1l0.2-0.5l0.1-0.1l0.1-0.2
      l-0.1-0.1l0,0l-0.3-0.1l0-0.1l0.1-0.1v-0.2l-0.4-0.8v-0.1l0.1,0l0-0.1l0.1-0.3l0.1-0.1l0.1-0.2l0.1,0l0.2-0.2l0.2,0l0-0.2l0.1,0.1
      l0.1-0.1h0.3l0-0.2l0.1-0.1l0-0.1l0.1,0l0-0.1h0.1l0.1-0.1l0.3,0.2l0.4-0.2l0.1-0.1h0.1l0.1,0.1l0.1-0.1l0-0.2l0.1,0l0,0.1h0
      l0.1-0.1l0-0.1l0.1-0.1v-0.2l0.2-0.2l0-0.2l-0.1-0.1l0-0.2l-0.4-0.3l-0.2,0l0-0.1l-0.2,0.1l-0.1,0l-0.2-0.3l-0.2-0.1l-0.2,0.2
      l-0.6-0.2l-0.4,0.1l-0.3-0.1l0-0.2l-0.1-0.1l0-0.3l0.1-0.2l-0.1-0.3l0.2-0.6l-0.2,0.1V39l-0.1,0.2l-0.4,0.1L72,39l0.1,0l-0.2-0.6
      l-0.4-0.1l0.2-0.3v-0.2l-0.4-0.2l-0.2,0l-0.1-0.3L70.6,37l-0.4-0.2l0-0.3l0.4-0.1l0.3-0.4l0.1-0.6l0-0.1l-0.4-0.5l-0.2,0l-0.1,0
      L70,34.2l0.5-0.5l0.3-0.1l0.3-0.2l0.2-0.3l-0.1-0.5l-0.1-0.1h-0.2l-0.2-0.1l-0.5,0.2l-0.5-0.1l-0.1-0.1v-0.1l0.1-0.3l0.3-0.4v-0.3
      l-0.3-0.5l-0.2,0.1l-0.1-0.1l-0.1,0l0-0.1l0.1-0.3l0.5-0.4L69.7,30l0-0.2l0.2-0.1l-0.1-0.4L70,29l0.2-0.1l0.2,0.1l0.4,0l0.3-0.2
      l0.3-0.2l0.1-0.2l0.1,0.1l0.1-0.1l0.9,0.2l0.4,0.4l0.2,0.1l0.5,0.1l0.3,0l0.5,0.2l0.5-0.1l0.5,0.1l0.1,0l0,0.1l0.4,0.3l0.5,0.1
      l0.4,0l0,0l0.4,0l0.6,0.1l0.4-0.3l0.3-0.2l0.1-0.1h0.2l0.2-0.2l0.2,0l0.2,0.2l0.2,0l0.4-0.2l0.2-0.2l0.3,0l0.4-0.3l0.4,0.2h0.5
      l0.3-0.4l0-0.5l0.3,0l0.3-0.2l0.4,0.2l0.1,0l0.1-0.5l0.2,0.1l0.4-0.2l2.1-1.6l0.7-0.7h0L86.5,24.8z M50.8,43.4L50.8,43.4L50.8,43.4
      L50.8,43.4z"
    />
    <polygon class="st0" points="44.5,83 44.5,83.1 44.5,83.5 44.4,83.5 44.6,83.5 44.7,83.6 44.8,83.6 44.9,83.2 44.9,83.2 44.7,83.2 " />
  </g>
</svg>