<?xml version="1.0" standalone="no"?>
<!DOCTYPE svg PUBLIC "-//W3C//DTD SVG 20010904//EN"
 "http://www.w3.org/TR/2001/REC-SVG-20010904/DTD/svg10.dtd">
<svg version="1.0" xmlns="http://www.w3.org/2000/svg"
 width="310.000000pt" height="310.000000pt" viewBox="0 0 310.000000 310.000000"
 preserveAspectRatio="xMidYMid meet">
<metadata>
Created by potrace 1.16, written by Peter Selinger 2001-2019
</metadata>
<g transform="translate(0.000000,310.000000) scale(0.100000,-0.100000)"
fill="#fff" stroke="none">
<path d="M1255 2581 c-11 -5 -41 -11 -67 -15 -26 -4 -64 -19 -85 -33 -21 -15
-58 -32 -83 -38 -35 -9 -52 -22 -80 -58 -31 -42 -42 -48 -120 -72 -90 -27
-163 -53 -245 -87 -27 -11 -65 -23 -82 -25 -37 -6 -39 -11 -19 -39 13 -17 18
-17 37 -6 28 17 42 3 33 -32 -6 -26 -7 -26 -30 -11 -13 8 -26 15 -29 15 -10 0
-5 -81 6 -102 6 -11 11 -48 12 -81 0 -53 -3 -63 -26 -83 -40 -34 -34 -59 27
-115 53 -49 54 -50 43 -85 -9 -29 -8 -41 7 -69 23 -42 25 -104 6 -139 -12 -24
-12 -31 3 -59 10 -18 15 -41 11 -50 -4 -12 3 -22 24 -34 46 -26 50 -93 13
-186 -15 -37 -15 -37 14 -37 20 0 25 5 25 24 0 19 4 22 25 18 14 -2 22 -8 19
-13 -8 -13 27 -61 41 -55 7 2 23 -1 36 -8 29 -15 33 -16 58 -23 11 -3 22 -11
25 -18 4 -11 13 -12 37 -5 52 15 79 -29 28 -45 -24 -8 -25 -33 -1 -42 22 -8
52 -42 63 -70 11 -28 39 -30 62 -3 9 11 24 20 32 20 19 0 19 15 -1 45 -23 36
1 33 54 -4 40 -30 76 -36 100 -18 8 7 12 5 12 -6 0 -8 -7 -17 -15 -21 -17 -6
-20 -36 -4 -36 6 0 20 -11 31 -25 16 -21 23 -23 39 -14 16 8 26 6 47 -8 15 -9
31 -16 36 -15 19 6 46 -11 46 -28 0 -11 14 -33 30 -50 17 -17 30 -37 30 -44 0
-8 7 -16 15 -20 8 -3 14 -11 13 -18 -6 -27 42 -19 73 11 37 37 41 38 54 9 6
-13 20 -27 33 -33 19 -8 22 -15 17 -41 -5 -31 -5 -31 35 -31 30 0 41 4 45 19
7 21 58 45 95 43 14 0 39 -8 57 -18 31 -16 32 -16 50 6 14 18 29 22 75 24 32
1 60 -3 64 -8 3 -5 14 -9 25 -9 12 0 27 -12 37 -29 13 -24 34 -35 107 -60 49
-17 93 -31 97 -31 10 0 -1 31 -18 50 -7 8 -12 26 -12 40 0 14 -3 43 -7 65 -5
32 -3 44 12 60 10 11 34 43 53 70 55 81 165 185 195 185 15 0 25 6 25 14 0 7
6 19 14 25 17 14 11 69 -11 93 -15 17 -15 18 5 18 13 0 22 6 22 15 0 8 -5 15
-11 15 -5 0 -20 21 -31 48 -11 26 -24 49 -28 52 -14 10 -31 52 -26 65 2 7 -4
29 -14 48 -15 27 -17 43 -10 68 4 19 11 55 15 81 5 42 3 49 -22 72 -15 15 -37
29 -48 32 -33 11 -35 25 -7 67 17 26 44 48 79 64 60 29 66 40 58 114 -10 92
-12 102 -39 174 -30 80 -56 193 -56 247 0 30 -7 42 -37 67 -21 17 -43 31 -50
31 -7 0 -13 4 -13 10 0 18 -40 32 -56 19 -11 -9 -87 -8 -342 5 -180 10 -332
19 -339 21 -7 2 -25 -2 -40 -10 -83 -42 -203 -23 -203 31 0 14 -7 39 -16 55
-23 45 -11 46 36 3 33 -30 41 -34 39 -19 -3 11 -27 35 -54 52 -42 28 -59 33
-105 32 -30 0 -64 -4 -75 -8z"/>
</g>
</svg>
