<?xml version="1.0" standalone="no"?>
<!DOCTYPE svg PUBLIC "-//W3C//DTD SVG 20010904//EN"
 "http://www.w3.org/TR/2001/REC-SVG-20010904/DTD/svg10.dtd">
<svg version="1.0" xmlns="http://www.w3.org/2000/svg"
 width="310.000000pt" height="310.000000pt" viewBox="0 0 310.000000 310.000000"
 preserveAspectRatio="xMidYMid meet">
<metadata>
Created by potrace 1.16, written by Peter Selinger 2001-2019
</metadata>
<g transform="translate(0.000000,310.000000) scale(0.100000,-0.100000)"
fill="#fff" stroke="none">
<path d="M1069 2619 c-14 -5 -31 -21 -37 -34 -7 -14 -20 -25 -30 -25 -10 0
-23 -5 -30 -12 -15 -15 -52 -21 -52 -8 0 6 -7 10 -15 10 -8 0 -15 -6 -15 -13
0 -14 -27 -31 -67 -42 -28 -8 -28 -11 -1 -55 25 -42 29 -77 11 -106 -11 -18
-11 -23 1 -33 8 -7 20 -10 25 -6 6 3 19 1 28 -4 18 -10 16 -12 -9 -15 -19 -2
-19 -68 1 -83 27 -22 94 -53 113 -53 10 0 18 -4 18 -8 0 -12 -68 -13 -75 -2
-9 15 -25 12 -25 -5 0 -8 -5 -15 -10 -15 -7 0 -9 -13 -5 -33 5 -24 2 -37 -9
-46 -21 -17 -20 -29 2 -34 14 -3 12 -6 -10 -17 -16 -7 -28 -19 -28 -27 0 -17
4 -16 43 4 27 14 84 19 95 8 9 -8 -32 -115 -58 -152 -18 -24 -28 -48 -24 -57
3 -9 1 -23 -6 -30 -19 -23 19 -79 55 -82 6 0 36 -27 67 -59 53 -53 56 -59 40
-71 -22 -18 -41 -17 -76 1 -30 16 -56 14 -56 -4 0 -5 20 -36 45 -70 25 -34 45
-70 45 -80 0 -11 5 -23 12 -27 8 -5 6 -10 -8 -14 -10 -4 -25 -3 -32 3 -17 13
-40 -9 -44 -42 -2 -19 6 -30 32 -47 19 -13 41 -29 47 -36 89 -93 120 -120 188
-162 44 -27 90 -51 103 -54 29 -6 28 -28 -5 -62 -20 -22 -31 -27 -44 -19 -31
16 -70 -17 -40 -35 4 -3 6 -16 4 -29 -3 -16 6 -36 31 -66 19 -23 38 -58 42
-77 4 -25 11 -34 25 -34 11 0 31 -7 44 -16 23 -15 29 -28 56 -127 14 -49 29
-57 39 -19 5 21 42 51 119 97 34 20 46 23 53 13 4 -7 8 -16 8 -20 0 -15 32 -8
63 14 32 23 49 26 206 31 82 3 95 6 110 25 11 15 20 19 26 13 13 -13 55 -2 55
14 0 7 6 15 14 18 24 10 25 54 1 77 -20 19 -21 26 -13 66 7 32 7 49 -1 57 -19
19 17 47 61 47 32 0 40 5 50 26 7 14 27 41 45 59 35 35 46 85 18 85 -8 0 -24
17 -34 39 -13 24 -37 49 -66 66 -46 27 -65 56 -65 101 0 14 -6 27 -14 30 -32
12 -30 164 3 164 19 1 66 38 58 47 -3 3 0 21 8 40 20 47 19 52 -10 63 -14 5
-32 24 -39 41 -12 28 -11 33 10 56 16 17 29 23 43 18 12 -3 25 -3 31 0 15 9
-6 42 -32 50 -13 4 -35 18 -49 32 -26 23 -26 24 -57 6 -18 -10 -40 -37 -53
-65 -25 -53 -38 -53 -65 0 -21 38 -44 49 -106 51 -26 1 -38 6 -38 15 0 19 -39
46 -66 46 -12 0 -24 7 -28 15 -4 10 1 15 15 15 25 0 59 17 59 31 0 5 -8 12
-17 16 -10 3 -25 12 -34 20 -16 13 -15 16 7 40 13 14 24 34 24 43 0 18 -54 50
-83 50 -9 0 -22 9 -30 20 -8 12 -18 20 -23 19 -24 -4 -38 4 -78 44 -23 24 -40
49 -38 55 2 7 0 20 -4 30 -4 9 -6 22 -5 27 2 6 4 25 6 43 3 28 0 32 -15 27
-14 -4 -24 4 -41 35 -12 22 -27 40 -31 40 -14 0 -78 54 -78 66 0 6 -11 21 -25
34 -23 21 -71 33 -120 29 -38 -3 -70 -2 -90 4 -11 3 -32 1 -46 -4z"/>
</g>
</svg>
