<?xml version="1.0" standalone="no"?>
<!DOCTYPE svg PUBLIC "-//W3C//DTD SVG 20010904//EN"
 "http://www.w3.org/TR/2001/REC-SVG-20010904/DTD/svg10.dtd">
<svg version="1.0" xmlns="http://www.w3.org/2000/svg"
 width="310.000000pt" height="310.000000pt" viewBox="0 0 310.000000 310.000000"
 preserveAspectRatio="xMidYMid meet">
<metadata>
Created by potrace 1.16, written by Peter Selinger 2001-2019
</metadata>
<g transform="translate(0.000000,310.000000) scale(0.100000,-0.100000)"
fill="#fff" stroke="none">
<path d="M1780 2270 c-8 -5 -32 -7 -52 -3 -34 5 -38 3 -38 -16 0 -28 -17 -34
-68 -22 -26 5 -44 5 -48 0 -3 -6 -14 -7 -23 -4 -30 9 -76 -60 -75 -112 1 -47
-5 -53 -24 -23 -10 16 -21 19 -56 17 -24 -2 -48 -7 -55 -11 -6 -4 -16 3 -23
18 -13 30 -16 31 -42 11 -15 -11 -23 -12 -33 -3 -7 6 -16 8 -20 5 -3 -4 -12
-2 -20 5 -10 8 -17 8 -24 1 -6 -6 -24 -8 -44 -3 -19 4 -37 5 -40 2 -3 -3 -11
1 -18 10 -15 18 -149 50 -215 50 -122 2 -144 -1 -149 -21 -6 -22 -26 -33 -63
-35 -22 -1 -25 -5 -22 -36 2 -19 10 -42 17 -50 14 -17 30 -61 27 -74 -2 -4 2
-14 8 -22 15 -17 3 -54 -16 -54 -19 0 -66 -46 -116 -113 -31 -41 -37 -57 -34
-87 1 -20 6 -42 10 -48 4 -6 -1 -8 -13 -5 -15 4 -21 -3 -31 -34 -7 -21 -16
-42 -21 -47 -16 -18 -10 -42 19 -74 16 -18 32 -32 37 -32 4 0 13 -7 20 -16 10
-15 13 -15 28 0 8 9 18 12 21 7 6 -9 108 -26 142 -22 11 1 28 -7 39 -19 22
-25 29 -25 63 -1 15 10 47 22 71 25 29 5 53 16 73 36 16 17 33 28 38 25 5 -3
11 -1 14 4 6 9 83 25 105 22 8 -2 34 -18 57 -37 29 -24 44 -31 47 -22 4 9 11
7 25 -9 11 -13 28 -23 37 -23 15 0 17 -6 11 -40 -5 -35 -3 -44 19 -64 14 -13
25 -28 24 -32 -4 -26 4 -42 27 -53 18 -8 25 -18 23 -34 -2 -12 0 -28 4 -34 5
-7 4 -13 -2 -13 -5 0 -13 5 -16 10 -4 6 -10 8 -15 5 -4 -2 -22 0 -39 6 -43 15
-64 -2 -55 -46 4 -22 1 -36 -8 -41 -15 -10 -36 -41 -44 -66 -4 -10 -13 -18
-20 -18 -20 0 -17 -17 6 -40 25 -25 44 -25 85 0 34 21 65 18 65 -6 0 -8 5 -14
10 -14 16 0 24 31 13 48 -7 12 1 24 41 56 27 23 60 61 73 86 19 37 30 46 58
51 24 4 36 2 39 -8 3 -7 18 -14 33 -14 18 -1 22 -3 10 -6 -23 -6 -17 -27 9
-32 10 -2 25 -8 33 -15 8 -6 42 -12 75 -12 34 -1 69 -3 79 -5 25 -4 21 -26 -6
-33 -35 -8 -117 -66 -117 -82 0 -8 10 -14 25 -14 13 0 42 -9 65 -21 36 -19 40
-24 37 -55 -1 -19 -5 -34 -9 -34 -14 0 -8 -23 10 -36 31 -24 70 -17 108 21 21
21 44 35 60 35 14 0 37 11 52 25 29 27 47 31 57 15 4 -6 19 -8 33 -6 15 2 33
5 40 5 6 1 12 12 12 26 0 14 5 25 10 25 6 0 10 7 10 15 0 12 -12 15 -55 13
-30 -1 -55 -6 -55 -10 0 -4 -9 -8 -19 -8 -22 0 -53 39 -76 94 -14 32 -13 35 1
29 11 -4 30 11 61 47 39 44 50 51 75 48 16 -3 33 1 39 9 14 16 39 17 39 2 0
-7 11 0 25 15 14 15 30 24 37 20 6 -4 17 2 25 12 10 13 26 19 56 19 26 0 42 5
43 13 1 6 3 15 4 20 1 4 1 17 0 30 -1 17 6 25 29 33 17 6 33 18 36 28 4 14 15
17 64 13 l58 -4 8 33 c11 53 7 102 -8 114 -19 14 -10 35 15 35 21 0 21 24 0
26 -7 1 -14 2 -17 3 -2 0 7 13 20 27 18 19 23 36 22 65 -1 37 -3 40 -25 34
-18 -4 -28 0 -39 15 -8 12 -21 19 -28 16 -7 -2 -16 1 -19 9 -2 7 -13 11 -24 9
-10 -3 -24 2 -31 10 -8 9 -22 16 -32 16 -10 0 -21 5 -25 12 -5 8 -11 6 -20 -6
-11 -16 -14 -16 -38 5 -14 12 -26 27 -26 33 0 6 -7 20 -15 30 -12 16 -18 17
-27 8 -7 -7 -22 -12 -34 -12 -13 0 -26 -5 -29 -10 -8 -12 -55 -2 -73 17 -17
16 -34 17 -51 1 -17 -18 -34 14 -38 71 -3 50 -30 83 -72 86 -14 1 -34 3 -43 3
-9 1 -19 11 -22 22 -3 11 -9 29 -12 40 -4 14 -1 20 10 20 26 0 26 17 1 44 -14
15 -25 35 -25 45 0 10 -8 25 -17 33 -20 17 -90 22 -113 8z"/>
</g>
</svg>
