<?xml version="1.0" standalone="no"?>
<!DOCTYPE svg PUBLIC "-//W3C//DTD SVG 20010904//EN"
 "http://www.w3.org/TR/2001/REC-SVG-20010904/DTD/svg10.dtd">
<svg version="1.0" xmlns="http://www.w3.org/2000/svg"
 width="310.000000pt" height="310.000000pt" viewBox="0 0 310.000000 310.000000"
 preserveAspectRatio="xMidYMid meet">
<metadata>
Created by potrace 1.16, written by Peter Selinger 2001-2019
</metadata>
<g transform="translate(0.000000,310.000000) scale(0.100000,-0.100000)"
fill="#fff" stroke="none">
<path d="M2538 2243 c-22 -5 -31 -40 -26 -91 4 -47 -4 -56 -78 -83 -68 -26
-94 -50 -94 -88 0 -29 -6 -33 -74 -55 -12 -4 -17 -13 -13 -25 5 -22 -62 -94
-104 -110 -36 -13 -58 2 -41 29 16 26 15 52 -2 75 -12 16 -16 17 -30 6 -14
-12 -15 -10 -10 17 5 25 1 36 -20 55 -14 13 -26 28 -26 33 0 5 -12 14 -26 21
-20 9 -32 9 -58 -2 -38 -16 -80 -9 -72 11 9 24 -17 15 -52 -18 -22 -22 -36
-29 -39 -21 -3 9 -10 10 -24 3 -29 -16 -23 -2 11 27 36 30 32 37 -18 40 -21 1
-62 6 -92 11 -35 6 -116 7 -220 1 -222 -12 -432 1 -694 43 -126 20 -130 20
-143 2 -11 -15 -17 -16 -33 -6 -11 6 -22 12 -25 12 -3 0 -5 -33 -5 -72 -1 -73
-23 -161 -50 -193 -7 -9 -15 -42 -17 -73 -9 -145 -8 -167 9 -200 10 -18 18
-44 18 -57 0 -13 5 -27 10 -30 6 -4 7 -11 4 -17 -4 -5 3 -31 14 -57 11 -25 23
-54 26 -63 3 -10 15 -18 26 -18 11 0 20 -4 20 -9 0 -4 18 -21 39 -36 22 -15
41 -37 43 -48 3 -19 10 -22 58 -25 30 -2 57 -7 60 -12 3 -5 43 -27 90 -49 68
-33 95 -41 141 -41 43 0 58 4 63 16 17 43 131 -17 167 -88 21 -42 69 -73 77
-50 7 23 34 43 55 40 29 -4 101 -93 102 -126 0 -15 6 -26 13 -25 7 2 9 -4 5
-14 -4 -11 -3 -14 5 -9 7 4 14 1 17 -6 3 -7 25 -14 50 -16 44 -2 45 -1 39 23
-11 44 4 91 34 105 15 8 38 25 52 39 38 39 62 49 108 45 24 -2 42 0 42 6 0 15
16 12 34 -6 13 -13 22 -14 46 -6 16 6 39 8 52 5 22 -4 22 -4 4 11 -10 8 -15
19 -11 25 4 7 -5 11 -22 11 -26 1 -24 2 12 15 56 21 159 29 185 15 17 -9 25
-8 39 4 23 21 37 20 77 -5 26 -16 34 -28 34 -49 0 -20 12 -41 38 -67 101 -100
128 -107 125 -30 -1 42 -9 58 -57 120 -30 40 -59 83 -64 97 -14 36 -3 90 25
128 13 17 29 46 35 62 5 17 16 30 24 30 8 0 14 6 14 14 0 7 11 24 23 38 13 14
24 32 25 39 1 8 4 26 8 41 5 21 1 32 -18 50 -28 26 -52 67 -44 75 9 9 26 -8
26 -28 0 -33 18 -20 22 17 2 20 -2 43 -10 55 -11 16 -11 19 1 19 15 0 30 51
21 73 -3 8 6 18 21 25 28 13 35 38 8 28 -15 -5 -15 -4 1 9 11 8 26 15 33 15 7
0 13 7 13 16 0 11 6 14 20 9 13 -4 20 -2 20 7 0 7 -9 19 -20 26 -25 15 -29 99
-5 108 8 4 15 14 15 23 0 9 10 21 22 26 32 14 34 39 4 53 -14 6 -29 25 -36 46
-11 35 -17 38 -52 29z"/>
</g>
</svg>
