<svg width="500" height="500" xmlns="http://www.w3.org/2000/svg">
  <g stroke="null" id="svg_1">
    <path stroke="null" d="m283.43079,232.3248l1.07839,2.96191l1.33889,1.5891l0.13993,1.04983l0.97871,1.29891l1.7277,0.84865l1.38638,1.44971l-0.04312,1.46704l0.69741,1.8504l-0.19493,3.06367l-0.69247,0.66603l0.90921,2.42743l-0.70224,1.57975l1.06958,3.37513l-0.67063,0.83895l0.32873,1.91509l1.21101,3.46501l0.96128,1.93535l-0.35386,1.40562l0.07387,2.37014l0.43377,0.88251l0.09691,2.46175l1.66959,3.42103l1.41364,2.0605l2.23461,1.55736l2.09127,1.06413l2.14212,0.67364l-2.16006,2.00229l-1.52903,0.13171l-5.71434,-1.53831l-2.45873,1.34038l-1.3656,-0.65148l-2.76946,-0.15707l-0.53002,-1.57229l-2.74543,-1.43795l-1.25286,0.20308l-0.50621,1.63918l-1.37635,-0.09666l-1.86084,0.76585l-1.99689,-1.06949l-2.67179,0.2302l0.33393,-2.63251l-2.38753,-2.6491l-0.23561,-1.31497l0.85541,-0.55495l-1.14428,-1.87143l0.76446,-0.93445l0.61273,-2.2358l-1.99826,-2.15878l-1.64526,0.92374l-1.25002,-0.41881l-0.60155,-2.53553l0.65668,-0.34701l0.70782,-4.21902l1.9482,-0.56226l-0.1288,-1.85264l-1.24617,0.07725l-0.52662,-1.56508l-1.11351,-0.58583l-0.38131,-1.96845l1.24961,-2.3793l2.82644,-1.8229l0.85509,-0.94319l1.88765,0.43847l1.21523,-0.55425l0.70881,-1.30536l2.88113,-1.64638l-0.65163,-1.76569l0.10806,-1.2394l-0.89547,-1.31265l-0.59527,-1.87934l2.43733,-1.39846l3.09533,-2.66459l0.14731,-1.09843l1.12189,-0.49095l0.00003,-0.00001z" fill="#ffffff"/>
    <path stroke="null" d="m273.81897,279.79287l-1.66673,-0.01555l-1.37393,0.96064l-0.00079,1.54906l-1.55881,0.52368l1.03083,1.29819l-0.53902,2.3466l-3.0941,0.64323l-2.67951,3.20154l0.67432,1.27216l1.13797,0.86834l-0.26081,1.01133l2.00116,0.19206l0.25252,1.42946l1.02117,1.45356l1.36999,-0.0568l0.76616,1.77683l1.33837,0.90612l0.2491,1.74832l0.70383,1.49633l-1.85887,0.8342l-0.30033,1.67104l-1.02848,0.88192l0.35801,1.5238l1.06056,0.58792l0.94339,-0.3536l0.54117,2.49187l1.7107,3.07028l-1.27596,0.8509l-1.48987,4.2456l-0.73343,4.43111l0.23234,1.73145l-1.97025,1.2318l-1.87647,0.16641l-2.30864,2.18456l-1.54748,0.08089l-1.49508,0.82075l-0.27209,1.91506l-1.29872,0.85159l-2.14264,0.48891l-1.93724,-2.07928l-2.07943,0.16912l-2.25126,-0.84587l-0.19726,-2.32617l-0.75302,-1.99543l-1.26254,-1.56944l1.42563,-1.17675l-1.35671,-1.8948l-1.58476,-0.97849l-0.22258,-0.16079l-0.08186,-0.13301l-0.25301,-2.19887l-1.11625,-1.69295l0.47396,-1.26299l3.04144,-1.02023l0.42086,2.53107l1.19721,2.59042l1.01184,0.79278l2.74756,-0.44886l-2.55174,-1.09531l-1.92441,-2.03573l-0.26092,-2.07086l-1.41816,-4.15868l0.30413,-0.93669l1.49347,-2.00446l2.67735,-2.78671l-1.54069,-0.73434l-0.7631,-1.5255l1.06352,-5.01083l4.1485,-0.94964l-0.60876,-1.04796l0.09267,-1.73618l1.43285,-1.15224l1.27678,-1.59653l-0.54349,-1.78584l-1.31021,-0.9315l-0.77565,1.43278l-2.53463,-1.44765l-1.22114,1.99497l-1.61897,1.12657l-1.29147,-1.20253l0.21876,-2.94378l-1.35348,-0.13077l-1.57902,-3.69983l0.05182,-2.12715l-1.1146,-2.79811l-2.0549,-3.88377l1.17691,-1.23466l0.8616,-2.00472l0.10464,-1.38169l1.75239,-2.21506l1.56807,-1.06236l0.28369,-1.59328l1.18492,-2.24895l1.3534,-0.76638l1.36078,-1.41553l1.52464,-0.2579l1.07156,1.00047l2.2912,-1.6114l0.90005,-1.6576l1.45141,-0.23889l3.41482,-2.60907l2.41961,-0.96358l0.36407,-0.51777l0.38131,1.96845l1.11351,0.58583l0.52662,1.56508l1.24617,-0.07725l0.1288,1.85264l-1.9482,0.56226l-0.70782,4.21902l-0.65668,0.34701l0.60155,2.53553l1.25002,0.41881l1.64526,-0.92374l1.99826,2.15878l-0.61273,2.2358l-0.76446,0.93445l1.14428,1.87143l-0.85541,0.55495l0.23561,1.31497l2.38753,2.6491l-0.33408,2.63251l-0.00002,-0.00002z" fill="#ffffff"/>
    <path stroke="null" d="m315.21111,318.6209l-1.72639,0.14232l-1.51795,2.88975l-1.69577,-2.09285l-0.005,-1.66696l0.78308,-1.10763l-1.97435,-1.93385l-1.15381,1.83026l-1.69252,-0.3659l0.05851,1.64792l-1.81616,0.24182l-0.06691,0.8698l-1.46896,0.57678l-1.65615,-0.15475l0.34813,-1.92373l-2.40204,-0.55099l-1.51013,2.14826l-2.08958,-0.98554l-0.61938,-1.06371l-1.20467,0.95795l-0.36197,1.20548l-1.83987,0.12665l-1.65394,1.8697l0.02807,1.00017l-2.41452,1.12002l-1.03655,-0.62157l-1.91932,-0.34777l-0.40016,-0.93138l-2.84294,0.96077l-1.29008,-0.4119l-0.12618,-1.16747l-0.97227,-0.97584l0.32869,-0.86795l-1.67635,-1.27916l0.08387,-1.47402l-0.87499,-1.59932l-1.44418,-1.54618l-0.77161,-0.03466l-1.7107,-3.07028l-0.54117,-2.49187l-0.94339,0.3536l-1.06056,-0.58792l-0.35801,-1.5238l1.02848,-0.88192l0.30033,-1.67104l1.85887,-0.8342l-0.70383,-1.49633l-0.2491,-1.74832l-1.33837,-0.90612l-0.76616,-1.77683l-1.36999,0.0568l-1.02117,-1.45356l-0.25252,-1.42946l-2.00116,-0.19206l0.26081,-1.01133l-1.13797,-0.86834l-0.67432,-1.27216l2.67951,-3.20154l3.0941,-0.64323l0.53902,-2.3466l-1.03083,-1.29819l1.55881,-0.52368l0.00079,-1.54906l1.37393,-0.96064l1.66673,0.01555l2.67179,-0.2302l1.99689,1.06949l1.86084,-0.76585l1.37635,0.09666l0.50621,-1.63918l1.25286,-0.20308l2.74543,1.43795l0.53002,1.57229l2.76946,0.15707l1.3656,0.65148l2.45873,-1.34038l5.71434,1.53831l1.52903,-0.13171l2.16006,-2.00229l1.44448,1.13662l0.75804,1.27361l1.63793,0.61331l1.20475,1.6686l-0.15828,1.08583l1.10787,1.10828l0.72231,2.16358l0.18429,2.08096l0.5246,1.03099l1.35694,0.88388l0.4789,1.90207l3.2831,2.06465l-0.27275,0.86655l-1.34342,0.05335l-1.0923,1.34094l-0.20014,1.78357l0.74147,3.77882l1.91165,4.12382l2.81146,5.02021l-0.32084,1.15277l-1.423,-0.76707l-1.95057,0.50536l-1.2118,-0.51424l-3.22486,-4.0838l-3.5028,0.61752l-2.24328,-0.11464l0.48468,1.23046l1.2072,-0.61877l3.77861,-0.12466l1.58152,2.90797l4.17889,4.44691l-0.00005,-0.00001z" fill="#ffffff"/>
    <path stroke="null" d="m315.21111,318.6209l1.50238,0.64596l1.32137,1.44058l1.21873,2.7619l0.17458,1.2083l1.49725,4.92512l0.20719,1.75854l-0.70232,3.33069l-4.28868,2.70229l-1.86542,2.11841l-0.49078,1.37173l2.26834,1.35001l0.62098,1.7577l1.10262,0.52768l-0.05793,1.54074l-1.99771,1.12622l-1.13434,-0.26853l-2.01441,0.66986l-0.03701,1.18181l-1.80319,0.50989l-1.48731,-0.55425l-0.92355,0.63802l-1.47923,-0.71749l-1.10458,0.41986l-1.50463,-1.02083l-1.63708,0.77049l-0.98786,-0.34246l-1.1718,2.46367l1.65661,0.31244l-0.1865,1.88709l1.2015,0.83332l0.1099,1.43609l-0.5919,1.13189l-1.92163,1.517l-1.20495,0.05229l0.42255,2.08631l-1.09355,0.16522l-1.3867,2.03529l-0.86482,-1.04231l-0.98495,0.28269l0.17686,1.49641l-0.81171,1.06227l-2.50936,0.63587l-1.25537,1.14354l-1.17356,0.07849l0.8337,2.06296l-1.85702,1.59248l-0.73058,-2.26442l-1.65184,-0.0001l-2.22868,0.8126l-0.48946,1.66021l-1.44605,0.52739l-1.896,-0.32493l0.27642,-1.21473l-0.58544,-1.41687l1.62818,-1.4324l-1.49356,-2.76677l0.51145,-0.72445l1.30937,-0.13093l-0.09427,-1.32218l1.25681,-0.95693l0.36724,-1.71105l-0.37907,-1.1777l1.31238,-0.18072l-0.39075,-1.50793l-1.80858,-3.72032l-4.31912,-3.35942l-0.69455,-1.0153l-0.04047,-1.41566l0.57616,-1.08219l-0.82615,-1.30072l-2.13828,-1.43419l1.06374,-1.75227l1.1731,0.28008l0.79539,-1.70569l-0.77781,-0.92525l-3.07943,-1.48315l-1.08842,-0.17339l-0.41439,-1.46336l0.90188,-1.81104l1.48662,-0.61486l0.25761,-1.31541l-1.42368,-5.64877l-2.56584,-1.26887l-0.23234,-1.73145l0.73343,-4.43111l1.48987,-4.2456l1.27596,-0.8509l0.77161,0.03466l1.44418,1.54618l0.87499,1.59932l-0.08387,1.47402l1.67635,1.27916l-0.32869,0.86795l0.97227,0.97584l0.12618,1.16747l1.29008,0.4119l2.84294,-0.96077l0.40016,0.93138l1.91932,0.34777l1.03655,0.62157l2.41452,-1.12002l-0.02807,-1.00017l1.65394,-1.8697l1.83987,-0.12665l0.36197,-1.20548l1.20467,-0.95795l0.61938,1.06371l2.08958,0.98554l1.51013,-2.14826l2.40204,0.55099l-0.34813,1.92373l1.65615,0.15475l1.46896,-0.57678l0.06691,-0.8698l1.81616,-0.24182l-0.05851,-1.64792l1.69252,0.3659l1.15381,-1.83026l1.97435,1.93385l-0.78308,1.10763l0.005,1.66696l1.69577,2.09285l1.51795,-2.88975l1.72641,-0.14232l0.00004,0.00007z" fill="#ffffff"/>
    <path stroke="null" d="m280.3788,363.28612l-1.51561,2.47752l-0.7681,-0.97118l-1.46594,0.67883l-1.22818,3.3347l-2.15589,1.20113l-1.01218,-1.29519l0.25369,-1.5439l-1.25239,-1.69115l-0.61411,-1.49823l-2.37959,1.80278l-4.49833,0.7619l-2.74609,-0.55301l-1.65862,1.65507l-1.59362,-0.5655l0.18359,-0.97587l-1.43827,-0.55029l-2.39203,0.79716l0.77457,3.13675l-2.20991,0.99411l-1.54633,-0.06708l-1.23617,0.90081l-0.9264,-0.81513l-0.95281,0.15128l-0.41041,-1.64966l-2.10082,-2.24739l-2.20967,0.7001l-1.65281,-3.08396l-0.47416,-1.50439l0.34179,-0.95252l-0.61354,-1.10185l0.66799,-1.28407l-0.55307,-0.85314l1.80123,-2.43523l0.10573,-0.80749l1.61381,-0.77376l0.42283,-2.01321l-2.0652,-2.32791l-2.10522,-1.92695l-0.22565,-0.80465l2.9988,-1.56612l1.77513,0.19424l1.03893,-1.70512l-0.30725,-0.8646l-2.28119,0.87649l0.11965,-1.58694l1.76595,-1.9503l0.33005,-1.53583l1.46966,-1.66843l-1.03549,-1.20637l-2.29097,-1.19644l-0.0189,-0.85385l1.12536,-1.55239l1.02929,-2.12289l1.29393,0.23209l1.29522,-0.8723l1.02042,0.9005l1.89594,0.15017l0.64598,1.79309l1.66261,-0.81393l0.34572,-2.04238l2.07943,-0.16912l1.93724,2.0793l2.14264,-0.48894l1.29872,-0.85159l0.27209,-1.91506l1.49508,-0.82075l1.54748,-0.08089l2.30864,-2.18455l1.87647,-0.16641l1.97025,-1.2318l2.56583,1.26888l1.42367,5.64877l-0.25761,1.31538l-1.48662,0.61486l-0.90188,1.81104l0.41439,1.46336l1.08842,0.17339l3.07943,1.48315l0.77781,0.92525l-0.79539,1.70569l-1.1731,-0.28008l-1.06374,1.75227l2.13828,1.43419l0.82615,1.30072l-0.57616,1.08219l0.04047,1.41566l0.69455,1.0153l4.31912,3.35942l1.80858,3.72032l0.39075,1.50793l-1.31238,0.18072l0.37907,1.1777l-0.36724,1.71105l-1.25681,0.95695l0.09427,1.32215l-1.30937,0.13093l-0.51144,0.7245l-0.00002,-0.00002z" fill="#ffffff"/>
    <path stroke="null" d="m311.36468,391.4884l2.03355,-2.46074l-0.39691,-1.62605l-0.80278,-0.93054l-1.93087,0.07922l-1.51982,0.50694l-1.71259,-1.68822l0.1479,-1.22902l-2.02589,-0.62807l-1.7792,0.63067l-3.08721,0.64707l-2.04458,0.7407l-2.18975,0.22209l-0.54129,-2.25072l0.75655,-0.36391l-2.05457,-2.92567l-1.24027,-0.90983l-0.1235,-1.15672l-1.14624,-1.50532l0.62562,-0.57338l0.98908,1.57437l1.83743,0.54555l0.56539,-0.76519l-0.32919,-1.48832l-2.43286,-1.69518l1.34058,-1.99829l-0.00316,-2.86144l1.95541,-1.9908l-0.82856,-1.12942l0.35848,-1.47817l-0.82801,-0.58722l0.81171,-1.06227l-0.17686,-1.49643l0.98495,-0.28266l0.86482,1.04231l1.3867,-2.03529l1.09355,-0.16522l-0.42255,-2.08631l1.20495,-0.05229l1.92163,-1.517l0.5919,-1.13189l-0.1099,-1.43609l-1.2015,-0.83332l0.1865,-1.88709l-1.65661,-0.31244l1.1718,-2.46369l0.98786,0.34246l1.63708,-0.77049l1.50463,1.02086l1.10458,-0.41986l1.47923,0.71749l0.92355,-0.63802l1.48731,0.55425l1.80319,-0.50989l0.03701,-1.18181l2.01441,-0.66986l1.13434,0.2685l1.99771,-1.1262l0.05793,-1.54074l1.78803,0.41177l1.67107,-1.1962l1.74991,-3.21257l1.28456,-1.02033l5.16876,0.45544l1.42493,0.84673l3.99919,0.06264l1.97241,0.78436l2.95183,0.70697l3.32821,2.37608l2.93904,3.10786l2.30863,3.23942l0.56259,2.6015l-0.38487,2.91926l0.41122,3.0351l-0.72249,1.12749l-0.28787,1.71706l-1.42942,2.95832l-1.09439,1.37802l-0.52315,3.16948l-1.18043,3.27105l-1.80501,0.47263l-2.77661,3.05457l-2.51254,1.3265l-1.98273,1.60239l0.76106,0.89315l-0.13441,1.49309l-2.80752,1.37971l-1.65184,-0.01028l-0.92065,-1.75263l-1.97454,0.40215l-0.39908,1.1417l-1.12775,0.81903l-1.9168,-0.2752l0.64846,1.30017l1.66483,-0.338l0.68114,-0.7018l1.15764,0.58189l-0.63649,3.33391l-1.77002,0.35882l-0.94764,0.70489l-0.19473,1.3027l-0.81416,1.3636l-3.13334,-1.01957l-0.67822,0.88313l-3.60631,-0.10871l-0.64407,1.54414l-2.1113,0.11604l-1.28354,-0.46698l-1.43428,-1.1719l0.00002,0.00002zm15.21021,-1.23494l-0.03554,-1.64276l1.84746,-0.02372l-1.81192,1.66648z" fill="#ffffff"/>
    <path stroke="null" d="m311.36468,391.4884l0.16688,0.40621l-1.63823,1.54026l-0.76523,3.03122l-1.2675,0.86937l-0.07716,0.81595l-1.57843,-0.13238l-0.13173,-1.358l-0.85464,-0.44174l-2.13413,1.62202l-0.57422,-1.31638l-2.08297,-2.33302l-1.03117,-0.07796l-1.00779,-1.32539l-2.04692,-1.1878l-1.04644,-1.24424l0.75032,-1.27484l0.36748,-1.82888l-0.35626,-1.50037l2.18975,-0.22209l2.04458,-0.7407l3.08721,-0.64704l1.7792,-0.63067l2.02589,0.62804l-0.1479,1.22902l1.71259,1.68822l1.51982,-0.50694l1.93087,-0.07922l0.80278,0.93054l0.39691,1.62605l-2.03353,2.46077l0,-0.00002z" fill="#ffffff"/>
    <path stroke="null" d="m272.23291,368.71196l0.12612,2.36778l-1.18073,1.88573l-0.19086,2.19139l-0.92527,0.6219l0.5018,1.63129l-0.62598,2.40677l0.71183,1.38673l-0.8189,0.95258l0.78353,1.31522l1.06764,2.95171l1.06488,1.82519l-0.94825,1.74206l1.20827,1.09756l-0.25544,1.41759l-0.84492,0.35988l-0.37917,2.38847l-1.56524,-0.36549l-0.75052,1.16832l-1.26095,-0.07601l0.93863,3.64308l-0.63087,4.17838l0.48074,0.80491l-1.47335,0.99685l-1.1417,-1.29274l-0.77148,-0.14669l-1.66243,-1.36788l-2.11259,0.12669l-0.02361,1.30553l1.26114,2.75602l0.79645,1.06923l-0.37632,1.91896l0.37605,1.6348l1.95935,1.27392l-1.69045,0.42722l-1.16626,-0.23693l-2.75219,0.41129l-0.47359,-0.68012l-1.35643,0.99174l1.51773,0.56529l-0.59799,2.73937l-1.72441,-0.03519l-1.85452,-0.61365l-1.847,-1.14565l-0.89947,0.12202l-2.20707,-0.8977l-1.93368,-0.40468l-1.31095,1.67526l-3.08759,-3.2068l-2.74229,-2.28203l-3.20234,-1.30684l-2.56893,0.86131l-1.86244,0.20298l-3.62063,-0.16688l-1.27884,1.34015l-1.50756,0.6618l-1.86304,-0.12524l-1.44776,1.82495l-0.83564,2.13691l-1.17839,1.23083l-0.15768,1.27745l1.06465,0.81324l-1.22935,1.73182l-1.63196,0.34533l-0.79951,0.82283l-0.73448,1.89951l-1.61684,0.97358l-1.03428,-0.98125l-1.08399,0.11747l-0.61994,-1.71682l-1.00132,-1.3636l-4.53624,-1.70066l-0.062,-1.59696l-2.27621,0.77238l-1.11879,-1.12133l-3.44491,-0.75365l-1.02205,0.84017l-2.34439,-0.40094l-2.47302,0.01028l-0.05493,-1.0095l-1.49637,0.33373l-1.57437,3.37924l-1.41036,-0.46741l-1.52516,1.168l-0.83735,-0.37063l-0.87318,1.67154l-1.35811,-0.96652l-1.28747,1.42939l0.29225,2.70257l-1.74338,1.26064l-0.93414,-0.05453l-1.50049,0.99403l-0.85803,-1.30315l0.35037,-0.63131l-0.95442,-2.45228l-4.41322,-2.36091l-0.45862,1.2817l-1.24082,1.10211l-2.35352,0.13288l-0.65114,-1.15717l0.74964,-0.81524l-0.23895,-1.39054l1.10219,-1.20663l1.00367,0.13868l2.35698,-1.30929l1.39009,0.19334l0.80285,1.09239l1.19138,-1.52554l1.34514,0.27633l2.12457,-1.1281l0.6439,-1.20819l2.0225,-0.63658l0.76719,-1.85927l1.98072,-0.60735l1.4094,-3.76165l0.92818,0.04101l2.88843,-1.40499l1.67491,0.2012l0.72428,-0.74661l0.44588,-1.64519l2.03413,-0.58253l0.86482,-1.43606l2.3017,-1.09874l0.48484,-1.92391l0.11244,-2.40745l1.20301,-2.02459l0.51045,-1.97054l2.18111,0.69429l0.97293,1.02399l1.70507,-0.02847l2.37569,-2.35002l0.08287,-1.52224l0.68174,-2.51142l2.89547,-0.49223l4.37611,0.51168l2.78542,-0.03579l2.94085,0.98641l1.25202,-0.09409l1.76595,0.5835l1.82962,1.79763l2.8164,0.55043l3.37464,-0.5883l1.72812,0.54357l1.3148,-0.59483l-0.30822,-1.47496l1.94955,-3.94171l1.84091,-0.80688l0.26393,-0.65026l2.0379,-1.61788l1.52763,-0.03397l1.57309,-1.63794l1.33881,-2.00888l-0.62411,-0.47987l0.35232,-2.04879l-0.37455,-2.07688l1.32466,-3.25685l1.23617,-0.90081l1.54633,0.06704l2.20991,-0.99411l-0.77457,-3.13675l2.39203,-0.79714l1.43827,0.55029l-0.18359,0.97587l1.59362,0.56547l1.65862,-1.65504l2.74609,0.55301l4.49833,-0.76192l2.37959,-1.80278l0.61411,1.49826l1.25239,1.69112l-0.25367,1.54385l0.00002,0.00005z" fill="#ffffff"/>
    <path stroke="null" d="m248.44185,319.40729l1.58476,0.97849l1.3567,1.8948l-1.42563,1.17675l1.26254,1.56944l0.75302,1.99543l0.19726,2.32617l2.25126,0.84587l-0.34572,2.04238l-1.66261,0.81393l-0.64598,-1.79309l-1.89594,-0.15017l-1.02042,-0.90052l-1.29522,0.8723l-1.29393,-0.23206l-1.02929,2.12289l-1.12536,1.55239l0.0189,0.85385l2.29097,1.19641l1.03549,1.2064l-1.46966,1.6684l-0.33005,1.53586l-1.76595,1.9503l-0.11965,1.58694l2.28119,-0.87649l0.30725,0.86458l-1.03893,1.70514l-1.77513,-0.19424l-2.9988,1.56609l0.22565,0.80467l2.10522,1.92692l2.0652,2.32791l-0.42283,2.01324l-1.61381,0.77376l-0.10573,0.80749l-1.80123,2.4352l0.55307,0.85317l-0.66799,1.28407l0.61354,1.10182l-0.34179,0.95252l0.47416,1.50442l1.65281,3.08396l2.20967,-0.70012l2.10082,2.24742l0.41041,1.64966l0.95281,-0.15128l0.9264,0.81513l-1.32466,3.25685l0.37455,2.07688l-0.35232,2.04881l-1.37233,1.02265l-1.04617,0.00263l-3.45233,1.10983l-1.96651,-0.44843l-2.85204,1.12905l-1.42753,1.51923l-0.28104,1.34155l-3.92108,0.28145l-4.6955,-1.48948l-0.53242,-1.40482l-1.21307,-1.6649l-1.36575,-0.28071l-0.99005,-3.42696l-1.07304,-1.7977l-0.83332,-0.3963l-2.38279,0.43823l-0.53225,1.00597l-1.27578,0.17553l-0.86696,-0.80589l-2.81706,0.76316l-1.20643,-1.25826l-0.11939,-1.44357l2.01435,-0.6078l1.22177,0.53801l0.54608,-0.92343l-0.92453,-1.2176l-1.85118,0.249l-0.87306,-0.43514l-1.06403,-2.05258l-3.76435,-1.19668l-2.65031,0.0632l-1.26725,2.26023l-1.60823,0.57101l-1.66636,-0.74477l-2.23791,1.41113l-2.27563,-1.27511l0.15338,-1.52827l-0.35861,-2.12624l-2.518,-0.59918l0.46904,-1.06949l2.1984,-0.26716l0.33748,-1.24393l-0.33353,-1.97573l-1.74668,-0.71599l-2.25531,-0.06781l0.69933,-1.011l2.10249,-0.95626l0.42014,-0.58985l2.52666,-0.18006l0.6787,-1.96616l2.01421,1.41975l2.96647,-0.46045l0.39455,-0.91666l1.71833,-0.62722l0.88157,-1.28433l2.03832,-0.38149l2.65677,0.5908l1.81606,-0.95092l1.73594,-1.35525l1.12654,0.27607l2.84444,-1.32474l1.80731,-1.82026l1.56261,-2.50499l1.30409,-2.77167l0.27626,-1.86024l-1.13699,-2.98015l2.23055,-3.48498l-1.50564,-3.5111l0.90892,-1.31264l-0.33398,-2.1761l-1.35564,-0.68945l-3.61759,0.20293l-1.75211,0.59397l-1.01495,1.01933l-0.70375,1.51346l-1.68749,-1.46647l-1.03226,0.73346l-2.64679,-0.3924l2.64019,-2.4886l0.56674,-0.87625l1.88746,-0.8556l1.09193,0.14244l2.10846,-1.73392l0.57818,0.11384l1.91909,-1.87112l0.1472,-1.98414l1.60805,-0.71362l1.66236,-1.21658l0.43011,-0.89389l1.791,-0.67734l0.70714,0.53897l5.66162,-1.58243l0.00237,-0.81329l1.50358,-0.10908l1.22907,1.45306l2.0486,0.46134l2.94374,-0.88886l2.60971,-0.4331l3.05615,2.56998l1.21075,1.6679l1.21568,0.10666l0.00003,0.00005zm-26.96449,-10.49157l2.24411,0.77209l0.28753,1.8751l0.5568,0.44758l0.39707,2.10151l1.84772,-0.55337l1.62495,0.5884l-1.26207,1.48524l-2.74481,1.26603l-3.21716,2.66366l-2.25092,-1.41892l-1.79192,-3.61723l-0.91193,0.03779l-1.25495,-3.24248l1.82587,1.11249l1.13669,-2.38048l-0.19219,-1.07514l3.29618,-0.43507l0.40901,0.37277l0.00001,0.00002z" fill="#ffffff"/>
    <path stroke="null" d="m191.60736,237.01659l1.78674,0.12244l1.46357,0.87055l0.8689,1.18466l1.9893,-0.51996l1.47153,1.3614l0.44295,1.46323l-1.07731,3.7331l1.53431,0.62857l-0.96109,1.98395l1.27448,1.08517l0.44864,2.06279l1.24147,2.26911l1.43833,0.43426l0.41409,1.69624l-0.22022,1.29597l-1.67123,1.33417l-0.72108,-0.12689l-2.46872,1.21949l-0.53102,0.84527l1.07539,0.73538l2.62535,-1.08358l0.34082,0.45307l2.8549,0.16972l0.87047,1.35997l-0.14691,1.69645l0.67735,1.35307l-0.16417,2.3576l0.29239,1.56123l-1.10281,0.83202l0.1224,1.556l-1.1089,1.71893l-1.28642,0.73227l-2.80362,2.3961l-0.49338,-1.03272l-2.87935,-0.22482l-1.55167,1.02399l0.17072,1.4128l-0.95578,2.10365l-1.65656,1.20105l-2.33793,0.99042l-1.69605,-1.88242l-0.56191,-1.32596l-1.8074,-0.89756l-2.45496,1.46239l-2.50257,-0.29203l-2.45341,0.08012l-0.66346,-1.46658l1.39792,-2.64926l-0.93088,-1.91063l-1.1399,0.42945l-1.24208,-1.76567l-0.30613,-4.58495l-0.50808,-1.13758l-2.05616,-2.14769l-3.17613,2.46479l-0.78654,1.62924l0.10611,2.26967l-1.62287,-0.02715l-2.96222,1.88333l-3.05831,0.22004l-2.52118,-1.35231l-1.03549,-2.57905l-2.6342,-0.34321l-0.86563,-0.80869l0.16855,-2.69109l-1.48341,-1.09373l-0.42185,-1.77418l-1.10205,-0.53488l-0.28936,-1.23012l-1.2165,-1.90737l2.95734,-1.69927l1.04356,-1.20884l1.04238,0.69134l2.00842,0.4829l2.20922,-1.43854l0.07598,-1.29074l-0.64863,-0.96902l-1.51895,-0.8106l-0.26121,-0.77335l2.04236,-1.75419l1.49723,1.52153l2.66265,-1.13262l1.81572,0.73105l0.24398,-1.65755l1.58595,-0.90968l1.19459,-1.47699l0.40924,-2.24461l1.19204,-0.11642l0.17696,-2.08253l1.55694,-1.38536l1.75607,-0.20433l2.1158,0.7417l0.80498,0.78008l1.23303,0.01038l0.96309,-0.80013l1.43612,-2.28237l0.41114,-1.62702l1.62547,1.32554l2.44948,0.50435l0.77415,-0.61697l2.43003,-0.07343l3.27508,-0.52729l0.00003,-0.00003z" fill="#ffffff"/>
    <path stroke="null" d="m296.05654,385.75247l0.35626,1.50034l-0.36748,1.82888l-0.75032,1.27487l1.04644,1.24422l2.04692,1.1878l1.00779,1.32539l1.03117,0.07796l2.08297,2.33305l0.57422,1.31638l2.13413,-1.62205l0.85464,0.44174l0.13173,1.35802l1.57843,0.13235l0.07716,-0.81595l1.2675,-0.86937l0.76524,-3.03122l1.63823,-1.54026l1.07986,1.01913l2.35436,0.63468l1.73951,-0.24194l0.33201,-0.95279l1.75229,0.03397l3.33526,0.86592l0.16672,1.34843l-1.68454,-0.55507l-0.66676,0.9662l0.56709,0.86052l1.92942,0.02976l0.77348,1.42022l2.17959,0.4639l0.80925,0.54531l2.41702,-0.06966l0.53061,-0.44294l8.22469,-0.22117l1.08849,0.69582l-0.72774,1.78041l-1.31415,-0.08924l0.53868,3.34092l-0.36367,2.5169l-0.4887,0.67611l-1.80973,0.87059l-1.89016,0.30635l-0.66194,0.77972l-2.7253,0.18206l-1.96176,1.26902l-0.87086,1.87023l0.06398,1.97594l-4.51182,-1.10878l-2.73053,1.89857l-6.55656,1.10006l-2.96406,2.61618l-0.97435,-0.06686l-6.66679,-3.43342l-2.71103,-0.88331l-1.39154,-0.14229l-3.17512,0.42753l-2.6492,-0.19601l-4.55693,0.52222l-1.57287,1.53109l-2.32575,-2.42653l0.71154,-0.8213l-0.23736,-1.14536l-2.78045,-0.52072l-0.78636,1.79198l-1.05221,0.32719l-0.12283,-2.1799l-1.0272,0.2513l0.6793,1.4431l-0.74953,0.47444l-1.45287,-1.47435l-1.92418,-1.38158l-0.19704,0.94836l-1.10499,0.92129l-3.48528,0.61218l-1.8478,1.10627l-2.51395,-1.08361l-1.95935,-1.2739l-0.37605,-1.6348l0.37632,-1.91896l-0.79645,-1.06923l-1.26117,-2.75605l0.02361,-1.30553l2.11259,-0.12669l1.66243,1.3679l0.77148,0.14666l1.1417,1.29274l1.47335,-0.99685l-0.48074,-0.80491l0.63087,-4.17835l-0.93863,-3.64311l1.26095,0.07601l0.75052,-1.16832l1.56524,0.36549l0.37917,-2.38847l0.84492,-0.35988l0.25544,-1.41755l-1.20827,-1.09758l0.94825,-1.74206l-1.06488,-1.82519l-1.06764,-2.95168l-0.78353,-1.31525l0.8189,-0.95258l-0.71183,-1.38673l0.62598,-2.40677l-0.5018,-1.63129l0.92527,-0.6219l0.19086,-2.19139l1.18073,-1.88573l-0.12612,-2.36778l1.01218,1.29519l2.15589,-1.20113l1.22818,-3.3347l1.46594,-0.67883l0.7681,0.97118l1.51561,-2.47756l1.49356,2.76677l-1.62818,1.4324l0.58544,1.4169l-0.27642,1.21473l1.896,0.32493l1.44605,-0.52742l0.48946,-1.66018l2.22868,-0.8126l1.65184,0.0001l0.73058,2.26442l1.85702,-1.59248l-0.8337,-2.06299l1.17356,-0.07846l1.25537,-1.14354l2.50936,-0.63589l0.82801,0.58722l-0.35848,1.4782l0.82856,1.12942l-1.95541,1.9908l0.00316,2.86144l-1.34058,1.99829l2.43286,1.69518l0.32919,1.48832l-0.56539,0.76517l-1.83743,-0.54555l-0.98908,-1.57437l-0.62562,0.5734l1.14624,1.50532l0.1235,1.1567l1.24027,0.90985l2.05457,2.92567l-0.75655,0.36391l0.54127,2.25072l-0.00002,-0.00002zm-21.46867,27.73253l3.80354,1.58815l0.91662,1.55088l-2.16241,0.91992l-0.83261,1.81127l-2.60107,0.441l-1.86019,-2.09454l-1.96604,-1.71146l-1.38401,-0.57931l0.74214,-0.94941l5.34402,-0.9765l0.00001,0zm51.82425,-17.76939l0.93506,1.63959l-1.26764,0.55909l-2.85859,-0.84781l-0.66516,-1.20437l0.45489,-1.59435l3.40146,1.44784l-0.00001,0.00001zm-95.40917,38.45187l-1.18852,0.00817" fill="#ffffff"/>
    <path stroke="null" d="m283.43079,232.3248l-1.1219,0.49091l-0.14731,1.09843l-3.09533,2.66459l-2.43733,1.39846l0.59527,1.87934l0.89547,1.31265l-0.10806,1.2394l0.65163,1.76569l-2.88113,1.64638l-0.70881,1.30536l-1.21523,0.55425l-1.88765,-0.43847l-0.85509,0.94319l-2.82644,1.8229l-1.24961,2.3793l-0.36407,0.51777l-2.41961,0.96358l-3.41482,2.60907l-1.45141,0.23889l-0.90005,1.6576l-0.11617,0.04491l-0.15898,0.06145l-1.71649,0.41693l-1.12814,-0.6329l-1.26838,0.18278l-2.05507,-0.5143l-1.25424,-0.90171l-0.79465,0.6538l-2.08126,-0.73587l-0.58269,1.82584l0.43372,0.74822l-0.85035,1.1173l-2.64934,-0.72317l-0.43839,0.55088l-1.95832,0.30036l-0.06043,0.88191l-3.44697,1.33146l-3.41922,-0.98745l-1.78373,-2.42049l-1.3392,-0.75873l-1.59342,-1.53923l-0.20034,2.09128l1.08652,0.72987l-0.8152,3.14135l-0.81643,1.49397l-2.2008,-1.57536l-1.05051,-1.18662l-0.35427,-1.48404l-1.90009,-2.05538l-1.33488,-0.5288l-0.49756,-1.28291l-2.66344,0.63445l-0.75433,0.96011l0.49258,2.28559l-0.03466,1.5217l0.66807,0.82029l-0.48772,1.46687l-1.62444,-1.20467l0.58081,-1.201l-0.67898,-1.40351l-0.0504,-1.75254l-2.19402,-3.02819l-0.43319,-2.57436l0.55978,-2.20043l1.82715,-0.78792l0.42572,1.91298l-0.33941,1.37973l1.46295,0.23959l-0.73255,-3.65059l1.41161,-2.07446l0.7408,-1.81278l1.14647,-0.53567l2.05412,-1.92989l0.83694,-1.8684l0.08352,-1.50434l1.64546,-0.97397l0.36065,-1.41012l1.33989,-0.92723l1.27176,-0.06682l0.96248,-1.75432l-0.39672,-3.50681l-1.43143,-1.80491l-0.79136,-0.42187l-1.53629,-3.31474l1.06618,-0.70081l-0.14891,-2.63625l0.28025,-2.62622l0.73334,-1.70953l1.98804,-0.33523l2.04416,1.43479l0.4858,-0.89935l-0.69735,-1.26993l-3.01244,-0.47173l-0.11019,-2.33451l-0.71694,-0.04963l-0.10195,2.41124l-2.41295,3.99623l-1.23626,-0.56643l-2.22921,-2.66802l-1.50999,1.11401l0.41793,2.00171l-2.08481,-0.80088l-0.46343,-1.36834l0.82586,-2.24863l0.12614,-2.46304l-2.4198,1.36803l0.11189,2.77005l1.10934,2.73781l-0.18849,2.24515l-1.39755,0.18424l-1.42901,1.36224l-1.08411,2.14066l0.0519,2.41951l-1.63662,2.91629l-0.84935,0.62077l-0.47566,1.65182l0.23192,2.17376l-1.99824,1.51615l-1.65121,-0.33244l-1.28388,0.36615l-1.0191,-0.68435l0.77294,-3.1064l1.6267,-0.89017l1.18189,-5.18937l0.51586,-0.33368l1.14345,-2.70846l2.30762,-2.89547l-1.44764,-1.77657l0.70927,-2.14854l1.62069,-1.83563l-2.01674,0.02757l-0.18878,-1.53555l2.26339,-3.22062l1.22103,-1.19924l2.08786,-2.78906l-1.59287,0.08486l1.32383,-2.31719l-0.97044,-0.53453l0.93633,-2.89601l2.53514,-3.24563l1.64224,-0.51488l-0.14015,-1.36496l0.805,-2.2128l1.21256,-1.34089l1.49229,-0.99026l1.89531,-2.92709l2.70707,-3.04961l-6.54556,5.31556l-2.07628,1.07302l-1.43889,1.64344l-3.04848,1.45476l-1.4327,-1.56867l-2.44965,-1.16626l-1.38243,-2.78448l-0.1335,-2.22123l-0.62572,-0.63539l-2.31224,-0.23704l-0.60221,-1.11408l1.90108,-1.35822l3.43209,0.32615l1.02428,1.03677l1.18782,-0.7834l0.09587,-1.18039l1.13157,-0.53598l1.91872,-1.95673l-2.51422,-0.06923l-0.48191,-1.43045l0.9714,-0.56966l0.54992,-1.50868l0.90718,-0.82131l1.60953,0.13212l-0.99516,-1.93431l3.32865,-1.5939l-0.60645,-1.59624l1.36018,-0.90198l-0.25891,-1.04949l1.48964,-1.27886l-1.98938,-0.75865l-0.05878,-1.26662l3.41822,-0.8918l-1.52922,-0.60778l-3.03749,0.13689l-0.17386,-2.58626l-0.52912,-2.21528l1.42802,-3.54068l0.50558,-0.13502l2.53293,3.23205l-0.2201,-2.47307l-0.72946,-0.44464l-0.25828,-1.44047l-0.73534,-0.77409l0.62371,-1.94083l1.03193,-0.19601l-1.11499,-1.73502l0.53126,-1.4818l0.20114,-2.29585l2.21754,-0.04219l0.73274,3.87807l1.24792,-2.22304l-1.00059,-0.92651l-0.01837,-1.20729l0.94449,-1.10093l1.01862,0.4391l0.05977,1.7705l1.23289,0.86003l1.24905,-1.82356l1.26771,1.16903l1.04106,-0.76264l1.98363,-0.28908l0.33222,-0.98518l-1.94463,-1.49881l-0.66599,-1.51214l-1.53539,-2.06474l0.76808,-0.99122l2.07465,1.93046l0.73964,-1.68059l-0.56824,-3.19106l-0.93703,-1.5047l0.80622,-0.46053l0.93087,1.13397l1.70232,-0.87324l1.87106,0.36865l0.38086,-2.16653l-0.61361,-1.64634l1.32617,-0.98336l0.22547,-1.12457l1.34388,-1.05568l-1.1229,-1.12792l0.62448,-1.26557l1.10287,-0.29052l0.85099,-1.13306l0.53856,-1.67892l2.29772,0.80225l1.25038,1.49248l3.40171,2.30099l0.46058,-1.50497l1.38695,0.26691l1.3941,1.25915l2.87741,1.20946l1.63561,-0.09965l1.09354,-0.83793l3.14271,0.36888l1.73471,0.70895l1.54867,0.03616l1.23937,-0.81394l3.49676,-0.35413l2.90026,1.51627l0.53431,-0.80805l-1.05013,-0.95489l3.4743,0.23277l1.20535,0.65012l2.37037,0.11754l-1.11894,2.71601l-1.42319,1.40924l0.03523,1.51715l1.22614,0.29847l-1.66172,3.48317l-2.47395,1.99362l-3.17822,0.74982l-1.0065,0.69748l-1.92617,2.39264l-3.14658,1.62584l-1.88721,1.29382l-1.16728,0.20715l-1.10881,1.63981l-2.76626,0.87338l-0.67422,1.19304l0.10384,1.12137l-1.05209,1.10827l-1.52362,0.42724l1.05645,1.44655l1.76224,-0.86736l1.13973,0.94986l1.95296,-0.07883l-2.81806,2.56412l-1.45348,1.85094l-1.14302,-0.21772l-0.70748,-1.32793l-1.79193,1.21398l-0.17994,1.04048l3.17541,0.04403l-3.90922,3.12102l-1.53957,2.10586l0.69649,0.7417l1.70377,-0.87738l1.63448,-1.31704l0.85838,-1.30599l1.39116,0.76104l1.17135,0.06103l3.20422,-1.73465l3.66863,0.18192l0.94983,-0.99247l2.88746,-0.56441l3.01946,1.80747l2.80934,1.32082l3.45852,-0.99244l1.90312,1.16982l0.55451,-0.30614l3.63347,1.48832l3.23184,0.36836l1.04306,-0.80192l1.90101,1.17378l1.524,-0.85477l3.41468,1.31845l0.56179,1.65893l1.16916,0.96359l-0.27152,1.55952l0.43316,3.69682l-1.61525,1.6116l-0.31701,0.90457l-2.85859,2.47928l-1.90573,3.27719l-0.65458,2.4632l0.48022,0.50856l-1.15237,2.03592l-2.76647,3.21996l-0.06085,2.12271l-0.9404,1.51621l-1.93266,1.94161l-1.79407,0.73765l-1.35468,2.29865l-0.03602,0.77502l-1.39639,0.93622l0.4473,1.09938l-1.40177,1.80419l-1.41559,0.38763l-2.46772,1.63401l-0.5171,1.03445l-1.08787,-0.75543l-1.57477,0.40866l-2.36645,0.03187l-1.21032,-0.44341l-1.59542,0.72454l-2.2218,1.78766l-0.17558,0.59352l4.9958,-1.58539l1.54098,-0.88268l2.21976,0.78458l-0.73795,2.04036l0.64749,1.79977l2.22913,0.86627l1.25303,1.60065l-2.85225,1.9046l-2.1093,0.80084l-1.10366,-0.28931l-1.31482,-1.16287l-4.59042,2.73598l-0.79836,1.87001l-2.25527,-0.08168l-2.23026,0.74272l-3.05502,-1.12306l-0.40622,-0.68569l-2.25041,0.01826l-0.04165,1.41078l1.6558,-0.15906l1.54477,0.97898l4.82026,1.56891l1.65472,-0.1766l1.82263,1.90323l3.25274,-0.46105l2.62391,-2.83832l2.97829,0.59228l1.33349,1.59232l2.56669,1.58025l1.97677,2.37514l2.1333,0.2119l1.59759,0.80306l0.0817,1.19939l0.85038,0.49093l0.61614,2.36157l-0.0001,-0.00005zm-71.92879,-95.51344l1.40013,0.0579l1.05243,1.11135l-0.11453,1.30668l-0.80867,1.28222l-1.09494,-0.44372l-0.27695,1.41312l-2.06556,1.36345l-2.48002,-0.55664l-0.10673,1.25843l-2.48149,-1.1077l0.50455,2.13647l-0.95646,1.17927l-0.70886,-0.51487l-1.04264,1.27046l-2.69801,0.15144l-0.98941,-2.16858l1.89081,-1.00402l1.37017,-1.86393l1.34402,0.44814l0.52724,-0.94415l-1.42803,-1.09136l-2.40375,-1.12709l0.01708,-1.18301l1.59995,-0.87517l-1.20495,-1.62727l-0.24307,-1.98503l1.16868,-1.24996l1.27404,-2.23082l1.00536,0.19576l1.52117,2.01804l1.32242,-0.34859l1.68036,0.59844l-0.95066,-2.23194l-0.07749,-1.03704l3.74518,-1.88589l1.99479,0.04232l2.55828,-2.00175l1.67201,-0.54476l1.8018,-1.06061l1.40449,1.3833l0.027,1.40978l-1.39193,1.96887l0.44481,0.83071l-3.00383,2.22793l0.17956,2.343l1.78678,-1.11117l0.43344,1.36869l-1.6718,0.79578l-0.64341,-1.02875l-1.05282,0.3617l-0.98431,-0.54302l-0.01022,2.46051l-1.01361,-0.1102l-1.82238,0.89326l0.00001,0.00002zm0.0713,14.1564l1.65418,1.57643l0.03408,1.32645l0.79826,0.31447l0.36543,3.24327l-1.39954,6.1223l0.48437,1.40634l1.68751,2.70907l1.57089,0.95662l1.80131,0.21494l1.2263,-0.40623l1.61664,0.69871l-0.47368,1.92696l-2.02863,0.998l-0.71027,-0.28094l-0.44442,1.85472l-1.19841,0.46314l-1.61392,1.80461l-1.67208,0.51504l-0.44727,-0.95436l1.26207,-2.6755l1.25929,-0.56304l-0.82831,-0.9722l-2.08933,-0.48084l-1.0621,-1.25136l-0.93375,0.56189l-2.61642,-0.9326l-1.36483,-2.98518l-0.23724,-1.82489l1.20652,-0.8037l-0.74229,-1.13376l0.16069,-1.02653l-1.76089,-0.1097l-0.1904,1.78387l-2.70625,-1.78862l-0.49977,-3.25326l1.61606,-1.70292l0.9225,2.79511l0.70211,0.03031l-0.21632,-2.11399l1.4899,0.11357l-1.20029,-1.86488l0.54766,-1.94919l0.83089,0.91349l0.02606,1.47337l1.04761,0.73926l0.54858,1.37642l1.67565,-1.73676l0.4244,-1.96128l-0.41109,-1.16324l1.60188,-0.72634l0.28664,-1.25706l0.00004,0.00002zm98.45974,-78.35315l-0.15879,2.91618l-0.96892,0.41304l0.84446,1.22667l-0.72687,1.52606l0.74716,0.33818l1.40108,-1.66089l0.77401,1.99073l1.43436,2.13971l-0.72002,2.32435l-1.25827,1.30393l-0.66974,1.66142l0.51337,1.62817l-2.27856,5.31858l0.05042,1.38962l-1.17015,2.08028l-1.03027,1.14716l-0.69883,-0.90709l0.27837,-1.74294l0.90187,-1.28636l1.28335,-3.06621l0.05812,-4.06903l-1.75076,0.17277l-0.65468,1.18059l-1.56071,-0.20349l0.32119,-1.54484l-3.15114,-1.36865l0.32501,-2.27927l3.3357,-0.28654l2.28743,0.17599l0.8051,-1.21101l-1.71232,-2.26774l0.28246,-2.63238l-1.46789,0.19279l0.58716,-1.80844l1.66066,-1.29843l0.40195,-0.96702l1.68471,-0.52589zm-102.04763,116.17684l1.36631,0.86884l1.33993,4.5574l1.72467,0.21411l2.61418,2.25446l0.80049,1.09968l-0.13392,1.30694l-1.74254,1.76158l-2.43625,1.08504l-2.89259,-1.01659l-1.30806,0.83481l-2.00341,-0.0872l-1.13308,-0.4867l-2.4415,0.27238l-0.69273,-1.86045l0.64226,-0.96067l3.03926,1.15516l1.76914,-0.00698l1.08967,-1.00408l-2.7564,0.05917l-0.0274,-0.96888l1.2654,-0.7585l0.7578,-1.14172l1.38771,0.18001l0.62649,-1.21587l-1.93817,0.19771l-0.19341,-1.0654l-1.33851,-1.32431l-1.15059,-0.02016l-0.10603,-3.06401l0.92611,0.31603l1.13298,-0.87548l1.81219,-0.30632l-0.00002,0.00001zm-5.56785,25.08662l0.28736,1.65511l0.18578,3.94729l0.59917,0.81382l-0.24784,2.86954l-2.76282,1.56009l-0.83171,-0.44009l-1.85163,1.58956l-1.29888,-0.69999l1.0215,-1.79724l1.01542,-0.21901l-0.83679,-3.24549l1.53877,-0.48836l-1.5337,-1.06043l-1.95715,2.49199l-1.56444,0.84678l0.19562,-2.25169l1.15654,-1.47434l0.53398,-2.43309l1.28774,0.04801l1.51343,-0.91222l0.25868,0.95783l3.29097,-1.75806l-0.00001,0zm75.5546,-102.95269l1.45894,0.34571l2.19692,1.69889l0.57316,1.28466l-2.3337,2.07455l0.97472,0.55471l0.97039,-0.44656l1.34617,1.82896l1.5104,1.24279l2.3849,-0.909l-0.34877,1.78491l-1.36895,0.04224l-1.03847,1.29805l-0.84552,-1.05598l-0.68022,2.83409l-1.67758,2.97511l-0.44536,-0.95443l0.42228,-1.09597l-0.22296,-1.50736l1.41268,-0.33673l0.30302,-2.137l-0.59415,-2.26723l-4.20433,1.10276l-0.27428,-1.97402l-2.29605,-0.27794l0.11512,-1.8657l1.41957,-4.09942l1.24206,-0.14011zm-59.67159,113.90853l1.51359,0.88636l0.64409,0.97738l0.16725,2.6188l-0.78093,0.72894l1.33555,1.37782l-0.64496,3.3853l-2.48589,0.35012l-1.99149,-1.44282l-0.61331,-1.70328l0.64196,-1.43682l-0.70778,-2.55454l1.03269,-2.07292l1.88923,-1.11431l0,-0.00002zm-5.74055,-16.70651l0.4382,1.37773l-4.28292,5.39075l-2.3136,2.19839l-1.0737,2.52684l-1.39527,-0.39755l-0.76197,-1.46289l0.43924,-2.26613l2.41544,-2.42794l1.17886,-1.90129l3.01832,-1.41321l2.33741,-1.62468l0,-0.00002zm-19.83422,-59.41744l2.95256,-0.51023l0.24374,1.23704l1.81996,0.97803l-0.94531,1.02804l-1.66641,3.24423l-1.46363,-0.04521l0.1374,1.09768l-2.67016,-1.67332l-0.9598,-2.66733l-0.87161,-0.16588l-0.41772,-1.42419l0.59114,-1.11875l1.20572,-0.62988l0.99949,1.40754l1.04464,-0.75777l0.00001,0zm-1.51763,10.14869l1.32755,1.13509l-0.36931,1.68686l-0.92941,1.27595l-0.75083,2.33763l0.16438,1.07717l-1.49078,1.60095l-1.44297,-0.06852l-0.36177,-1.75149l0.50535,-3.54938l0.97984,-1.68732l0.30695,-1.63776l-0.29378,-1.51349l1.70191,-0.41065l0.65287,1.50495l0,0.00002zm124.2614,-89.14168l0.72026,0.1664l-0.35004,3.09927l-0.99389,1.05775l0.65712,0.82156l-1.07584,3.11054l-1.23502,-0.86928l-0.93323,0.26209l-0.29168,-2.50623l0.55435,-2.35657l0.70545,0.33178l0.88752,-3.16741l1.35501,0.0501l-0.00002,0zm-39.53658,53.86077l-0.73526,0.20681l-1.00234,-2.32463l0.01072,-1.08998l-0.98943,-0.34772l0.87424,-1.64089l0.9452,-0.21174l2.2451,2.35472l-0.21969,2.59555l-1.12856,0.45788l0.00001,0zm-52.43581,97.74508l0.75012,0.09775l-0.01273,2.67012l-1.26132,0.18804l-1.08392,-0.71327l0.30282,-2.59458l-0.74813,-0.37793l-0.70097,-1.93375l0.91241,-0.6976l1.78021,1.92581l0.06151,1.43541l0.00001,0zm95.00189,-155.49848l2.0332,0.67965l-0.26848,1.7347l-1.90657,2.57642l-1.74969,0.41289l-0.12684,-1.27444l0.90434,-1.00635l-0.09546,-1.47851l1.20949,-1.64436l0.00001,0zm-111.91647,108.05803l0.70712,-0.16419l1.1612,1.10274l0.18725,1.20781l-0.73703,1.43842l-1.2277,0.67548l-2.00992,-2.8002l1.91908,-1.46006zm-13.99371,-18.18251l0.74573,2.02731l-2.03918,0.25374l-1.61006,-1.42332l0.21342,-1.63444l1.59046,-0.5752l1.09964,1.35192zm2.99286,34.43898l-1.32586,0.53837l-0.44406,1.16304l-1.23742,-0.31705l-0.68195,1.42099l-1.6204,-0.57357l0.27187,-1.84391l0.88394,-0.73454l1.45243,0.61438l1.21767,-0.55486l1.48377,0.28714l0.00001,0zm5.98142,-2.66016l-0.72613,0.94845l-1.55809,0.94312l-1.69436,-0.64792l1.20557,-1.39004l1.82755,-0.98965l0.94546,1.13603zm15.25202,-27.63251l-1.18296,1.92586l0.288,2.36422l-0.79334,1.21872l-1.14286,-0.86747l0.54777,-2.37108l0.81268,-1.33552l1.47073,-0.93473l-0.00001,0zm-31.15489,10.55878l1.08399,1.46368l-1.81303,1.26366l-1.05224,-0.27661l0.34472,-1.86894l1.43657,-0.58179l-0.00001,-0.00001zm108.43071,-62.08033l-1.25164,0.14238l-1.0248,1.25141l-1.31113,-0.95631l-0.08166,-0.86369l3.66924,0.42622l0,-0.00001zm-89.79071,98.99394l-1.53694,2.62055l-1.67293,1.24782l0.50319,-2.56805l1.07493,-0.99713l1.63176,-0.30318l-0.00001,0zm80.02427,-102.46911l0.67778,2.42084l-1.38593,0.424l-0.64862,-0.76786l0.08948,-1.6378l1.26728,-0.43916l0,-0.00001zm-2.33159,5.337l0.98251,0.35439l0.30909,1.56232l-1.47593,0.11006l-1.12071,-1.83979l1.30504,-0.18698zm35.5347,-36.5259l1.18622,-0.13393l-0.16639,1.42063l-1.13423,-0.06029l0.11439,-1.22642l0.00001,0zm-28.86388,38.62975l0.68617,0.04232l0.58136,1.57778l1.06,0.93747l-1.54068,0.51629l-0.0189,-1.66278l-0.76795,-1.41107zm-78.52378,66.30924l0.3462,0.73841l-0.90062,1.73408l-1.20026,-0.82237l1.75468,-1.65011zm75.60118,-64.18792l-0.57254,2.2136l-1.31312,-0.79667l1.88567,-1.41694l0,0.00001zm26.64769,-25.82886l0.51251,0.8635l-0.81513,2.16022l-0.75556,-0.68427l-0.1099,-2.04364l1.16807,-0.29581l0.00001,0zm-95.88611,78.96383l-1.0342,0.04552l-0.53404,-1.13284l0.73366,-0.66066l1.07438,1.00741l-0.23979,0.74058l-0.00001,-0.00001zm99.66421,-85.28845l-1.35126,1.48397l-0.24974,-1.39403l1.60101,-0.08993l-0.00001,0zm-103.09705,237.80085l-0.05426,0.07557" fill="#ffffff"/>
   </g>
</svg>