<?xml version="1.0" encoding="UTF-8"?>
<svg width="413" height="413" viewBox="0 0 413 413" xmlns="http://www.w3.org/2000/svg">
    <g id="features">
        <path id="UZ" fill="#6f9c76" stroke="#ffffff" stroke-width="0.160616" stroke-linecap="round" stroke-linejoin="round" d="M 329.339172 239.767426 L 329.403412 239.992279 L 329.017944 241.405701 L 328.85733 241.662689 L 328.600311 241.726929 L 328.150604 241.598434 L 327.829376 241.43782 L 327.476013 241.180847 L 327.283264 240.859604 L 327.572388 240.538376 L 327.98999 240.506256 L 328.279083 240.345642 L 328.921539 239.89592 L 329.339172 239.767426 Z M 315.269196 234.210098 L 314.915833 234.177979 L 313.406036 234.338593 L 310.996796 235.077438 L 310.257965 235.141678 L 309.55127 235.077438 L 308.876678 234.595581 L 308.55545 233.664017 L 308.330597 232.603943 L 307.880859 231.865112 L 307.495392 231.704498 L 307.174164 231.768738 L 306.852936 231.865112 L 306.499542 231.897232 L 306.14621 231.768738 L 305.27887 231.41539 L 305.503754 230.612305 L 305.471619 230.548065 L 305.311005 230.355316 L 305.27887 230.323196 L 305.311005 230.323196 L 305.086151 230.001953 L 305.054016 229.937714 L 305.021881 229.841339 L 304.989746 229.359497 L 305.246765 228.941895 L 305.760712 228.620667 L 306.917145 228.331558 L 307.109894 228.267303 L 307.270508 228.04245 L 307.68811 227.335739 L 307.912994 227.11087 L 308.137848 227.014511 L 308.394836 226.918137 L 308.651825 226.821762 L 308.876678 226.629028 L 309.454895 225.890198 L 310.514954 225.022858 L 310.739838 224.798004 L 310.996796 224.60527 L 311.125305 224.541016 L 311.414398 224.476776 L 311.478668 224.380402 L 311.510803 224.284027 L 311.575012 224.187668 L 311.832031 224.027054 L 311.832031 223.994919 L 311.864136 223.834305 L 312.02475 223.063354 L 311.350159 222.677872 L 309.808258 222.324509 L 309.55127 221.971161 L 309.487 221.585678 L 309.647614 221.29657 L 310.001007 221.26445 L 310.579193 221.778427 L 310.932556 221.906921 L 310.964691 221.489304 L 310.836182 221.29657 L 307.720245 217.795135 L 307.174164 217.313293 L 307.142029 217.249054 L 307.077759 217.152679 L 306.756531 216.799332 L 306.563812 216.574463 L 305.792847 216.253235 L 305.150391 216.445969 L 304.668518 218.82309 L 303.736969 219.915268 L 302.516296 220.654114 L 300.749512 221.360825 L 299.143341 222.613617 L 295.99527 223.577316 L 295.641907 223.770065 L 295.288574 224.059158 L 294.581848 224.958618 L 294.164246 225.344101 L 293.714508 225.472595 L 293.200562 225.279846 L 292.975677 225.087112 L 292.815063 224.862244 L 292.493835 224.316162 L 292.301086 224.091293 L 291.883484 223.802185 L 291.65863 223.641571 L 291.016174 222.581512 L 290.630707 222.228149 L 290.084595 222.163895 L 289.827606 222.003281 L 289.602753 221.778427 L 289.377899 221.617813 L 289.056641 221.553558 L 288.510559 221.746307 L 288.253571 221.906921 L 287.996582 222.099655 L 287.57901 222.677872 L 287.321991 223.256088 L 287.193512 223.930679 L 287.193512 224.733749 L 287.289886 225.954437 L 287.225616 226.243546 L 286.968658 226.40416 L 285.940704 226.468399 L 285.330383 226.886017 L 285.330383 227.367859 L 286.004944 228.524307 L 286.390442 229.7771 L 286.551056 230.194702 L 287.000763 230.965652 L 287.161377 231.41539 L 287.289886 231.897232 L 287.161377 232.989426 L 286.615295 233.085785 L 285.940704 232.828812 L 285.523102 232.893051 L 285.587341 233.535507 L 286.808044 234.659821 L 286.808044 235.205917 L 286.165558 235.495026 L 285.330383 235.462906 L 283.788452 235.013184 L 283.210236 234.691956 L 282.664124 234.434967 L 282.278656 234.370712 L 279.516052 234.78833 L 279.194824 234.948944 L 278.584503 235.270172 L 278.199005 235.334412 L 277.203186 235.173798 L 276.849823 235.205917 L 275.886139 235.430786 L 275.211548 235.62352 L 274.858185 235.880508 L 275.275787 236.362366 L 276.046753 236.844208 L 276.657104 237.069061 L 276.817719 237.036957 L 280.800995 236.265991 L 281.57196 236.844208 L 281.700439 237.165436 L 281.732574 237.486679 L 281.732574 237.807907 L 281.57196 238.097015 L 281.186462 238.16127 L 279.96579 237.968521 L 279.612427 238.06488 L 279.002106 238.578857 L 278.777222 238.675232 L 278.391754 237.968521 L 278.134766 237.743652 L 277.909912 238.16127 L 277.942047 238.353989 L 278.263275 238.610992 L 278.29538 238.771606 L 278.263275 239.221329 L 278.29538 239.446198 L 278.391754 239.671051 L 279.869415 241.726929 L 279.933655 242.240906 L 279.226959 242.530014 L 278.841492 241.919678 L 278.552368 240.955978 L 278.23114 240.217148 L 277.877777 239.960159 L 277.749268 240.120773 L 277.813538 240.538376 L 277.974152 241.020233 L 278.359619 241.823303 L 278.359619 242.144547 L 278.134766 242.562134 L 278.070526 242.626389 L 277.909912 242.658508 L 277.845642 242.690628 L 277.717163 243.011856 L 277.717163 243.043991 L 277.717163 243.17247 L 277.685028 243.397339 L 277.556549 243.525833 L 277.331696 243.397339 L 276.881958 242.658508 L 276.624969 242.465775 L 276.046753 242.979752 L 275.789764 242.883377 L 275.597015 242.851242 L 275.436401 243.333099 L 275.275787 246.898773 L 275.179413 247.44487 L 274.954559 247.862473 L 274.536957 248.312195 L 273.798126 248.761917 L 273.573273 249.08316 L 273.637512 249.243774 L 273.766022 249.500748 L 273.766022 249.532883 L 273.412659 249.661377 L 272.384705 249.95047 L 271.5495 250.046844 L 270.714294 249.982605 L 269.300873 249.468628 L 266.763153 249.404388 L 260.948853 247.894592 L 260.145752 247.862473 L 259.535431 248.055206 L 257.92926 249.211639 L 256.580109 249.404388 L 256.25885 249.757736 L 256.355225 250.721436 L 256.32309 250.81781 L 256.226715 250.88205 L 256.162476 250.914169 L 256.066101 250.914169 L 255.648514 250.88205 L 255.391541 250.914169 L 255.230911 251.106918 L 255.006058 251.942123 L 254.909683 252.841568 L 254.877548 253.644653 L 254.65271 254.383484 L 254.5242 255.122314 L 254.427841 255.154434 L 254.267227 255.122314 L 254.074463 255.154434 L 253.913849 255.315063 L 253.849625 255.411423 L 253.81749 255.572037 L 253.78537 255.861145 L 253.913849 256.728455 L 253.913849 256.76062 L 254.395706 257.210327 L 256.451599 257.917053 L 257.832886 257.981262 L 258.507477 258.238281 L 258.571716 258.334656 L 258.700226 258.591614 L 258.7966 258.687988 L 258.925079 258.720123 L 259.214172 258.655884 L 259.310577 258.687988 L 259.471191 258.944977 L 259.503296 259.23407 L 259.310577 260.936615 L 259.374786 261.482727 L 259.406921 261.514832 L 259.696045 261.803955 L 261.880432 262.157288 L 262.330139 262.125183 L 263.615082 261.707581 L 263.839935 261.579102 L 264.096924 261.514832 L 264.321777 261.514832 L 264.610901 261.611206 L 264.771515 261.707581 L 265.028503 261.964539 L 265.285492 261.996674 L 265.574585 261.90033 L 265.863678 261.707581 L 265.992188 261.675446 L 266.120667 261.643311 L 266.281281 261.675446 L 266.40979 261.707581 L 266.666779 262.028809 L 267.244995 263.281616 L 267.566223 263.763458 L 267.758972 264.020447 L 267.919586 264.470154 L 267.887451 264.952026 L 267.758972 265.305359 L 267.534119 265.594482 L 267.27713 265.851471 L 266.988007 266.012085 L 266.570404 266.076324 L 266.281281 266.076324 L 266.088562 266.204834 L 266.024323 266.686676 L 266.088562 266.879395 L 266.184937 267.072144 L 266.249176 267.297028 L 266.249176 267.521851 L 266.152802 267.650391 L 265.735199 267.971619 L 265.60672 268.292847 L 265.638824 268.710449 L 265.863678 269.513489 L 265.895813 269.963257 L 265.863678 271.216034 L 265.895813 271.665771 L 266.024323 271.954895 L 266.441895 272.597351 L 266.5383 272.918579 L 266.570404 273.625275 L 266.634644 273.946503 L 266.795288 274.235626 L 267.469849 274.878113 L 268.0802 276.034515 L 268.369293 276.323639 L 269.268768 276.837585 L 270.61792 278.058289 L 271.003418 278.700745 L 271.099762 279.53595 L 270.810669 280.788757 L 270.393066 282.00946 L 269.718475 283.005249 L 269.525757 283.422852 L 269.397247 283.80835 L 269.333008 284.129578 L 269.204529 284.386536 L 269.011749 284.54718 L 268.915405 284.579285 L 268.658417 284.675659 L 267.855347 284.772034 L 267.34137 284.964783 L 267.052246 285.286011 L 266.313416 287.470398 L 265.799438 288.466217 L 264.578766 290.200867 L 263.647217 291.068207 L 262.779877 292.192505 L 262.041046 293.445313 L 261.591309 294.76236 L 261.527069 295.661804 L 261.848297 297.364349 L 261.912537 298.263794 L 261.816162 299.03476 L 261.623413 299.741455 L 261.302185 300.383911 L 261.237976 300.70517 L 261.141571 300.319672 L 260.948853 300.030579 L 260.659729 299.83783 L 260.306366 299.741455 L 259.696045 299.77359 L 259.471191 299.741455 L 259.278442 299.645081 L 258.925079 299.388092 L 258.73233 299.323853 L 258.539612 299.323853 L 258.218384 299.420227 L 258.025635 299.452332 L 257.92926 299.548706 L 257.832886 299.77359 L 257.672272 299.966309 L 257.511658 300.030579 L 257.222565 299.805695 L 256.901337 298.90625 L 256.515839 298.713501 L 256.162476 298.809875 L 255.841248 299.066864 L 255.295166 299.612976 L 254.941803 299.869934 L 254.620575 300.062683 L 254.235092 300.159058 L 253.81749 300.191162 L 253.399887 300.287537 L 252.725311 300.70517 L 252.371948 300.769409 L 251.986465 300.64093 L 251.793732 300.287537 L 251.665222 299.9021 L 251.504608 299.548706 L 251.15126 299.227478 L 250.380295 298.938385 L 250.059067 298.713501 L 249.898453 298.392273 L 249.60936 297.460693 L 249.416611 297.267975 L 249.031143 297.1716 L 248.356537 296.657623 L 248.067444 296.529144 L 247.232224 296.497009 L 245.658203 296.882507 L 243.441696 296.978851 L 243.281082 297.043091 L 242.927734 297.332214 L 242.76712 297.396454 L 242.285263 297.396454 L 242.092514 297.332214 L 240.968201 296.850372 L 240.550598 296.818237 L 240.100876 296.850372 L 239.779633 296.946747 L 239.362045 296.625519 L 239.39418 296.240021 L 239.651154 295.886688 L 239.972397 295.533325 L 240.22937 295.115723 L 240.165115 294.76236 L 239.908142 294.473267 L 239.586914 294.184143 L 239.329926 293.573792 L 239.39418 292.802856 L 239.779633 291.3573 L 239.843887 290.522095 L 239.715408 288.81958 L 239.779633 287.984375 L 240.35788 286.924286 L 241.321564 285.671478 L 241.9319 284.450806 L 241.771286 284.001099 L 241.578552 283.422852 L 241.546417 283.422852 L 241.000336 283.005249 L 240.35788 282.716156 L 239.715408 282.523407 L 238.430481 282.523407 L 237.884384 282.362793 L 236.181854 281.559723 L 235.378769 280.563904 L 234.864792 280.082062 L 234.318695 279.825073 L 233.226517 279.503845 L 232.166458 278.66864 L 231.684601 278.411652 L 230.560287 278.218933 L 228.857742 277.383698 L 228.279541 277.351563 L 227.797684 277.544312 L 226.962494 278.218933 L 226.544891 278.443756 L 225.356323 278.540161 L 224.23201 278.154663 L 221.405182 276.259399 L 219.734772 275.135071 L 217.42189 273.561035 L 215.815735 272.083374 L 213.567108 270.027496 L 212.410675 269.320801 L 209.90506 268.421326 L 207.720673 267.168518 L 204.155014 264.116821 L 203.191315 262.864014 L 202.677338 262.189423 L 202.259735 261.964539 L 201.745773 261.996674 L 200.428711 262.671265 L 200.011108 262.767639 L 199.497147 262.671265 L 198.98317 262.414307 L 196.252701 260.454773 L 193.87558 258.752228 L 191.980301 257.370941 L 190.952362 256.310883 L 189.121338 253.741028 L 188.061279 252.713074 L 185.684158 251.042664 L 180.094711 247.027267 L 177.332123 245.067749 L 175.019257 243.397339 L 173.027603 241.951797 L 172.031799 240.955978 L 171.83905 240.859604 L 170.618362 239.317688 L 170.457748 238.739471 L 170.13652 237.486679 L 170.104401 236.972702 L 170.16864 236.49086 L 170.297134 236.073257 L 170.393509 235.687775 L 170.329254 235.205917 L 169.815292 234.081604 L 169.751053 233.631882 L 169.718918 233.021545 L 169.686798 232.571823 L 169.526184 232.18634 L 169.108582 231.286896 L 168.980087 230.869293 L 168.947968 229.937714 L 168.787354 229.74498 L 167.373932 228.941895 L 166.570847 228.684921 L 166.185364 228.395798 L 166.121124 228.267303 L 166.089005 228.203064 L 165.928391 227.689087 L 165.832016 227.496353 L 165.22168 226.629028 L 164.964691 226.179306 L 164.643463 224.798004 L 164.450714 224.476776 L 163.872498 223.86644 L 163.679764 223.577316 L 163.551254 223.095474 L 163.358536 222.067535 L 162.812424 220.172272 L 162.61969 219.722534 L 162.748184 219.56192 L 162.683945 219.240677 L 162.61969 217.634521 L 162.58757 217.184799 L 162.426956 216.799332 L 161.174149 214.711319 L 160.852921 214.357956 L 157.062378 211.531113 L 155.584702 210.888641 L 153.914291 210.438919 L 153.303955 210.37468 L 152.918488 210.567413 L 152.693619 211.049271 L 152.500885 211.852341 L 152.083282 212.077209 L 151.762054 212.78392 L 151.280197 213.330017 L 150.701981 213.619125 L 150.059509 213.651245 L 149.352814 213.362137 L 147.618149 212.109329 L 147.329041 212.109329 L 146.301102 212.269958 L 146.204727 212.077209 L 146.172607 211.852341 L 146.108368 211.820236 L 146.011993 211.98085 L 145.787125 212.366318 L 145.65863 212.494812 L 145.562256 212.591187 L 144.727066 211.755981 L 143.538498 211.466873 L 140.133438 211.659607 L 138.07756 212.334198 L 137.049606 212.366318 L 136.47139 212.205704 L 135.957428 211.852341 L 135.057983 210.920776 L 134.030029 210.149811 L 132.391739 209.314606 L 130.52861 208.350922 L 130.046753 207.869064 L 129.918259 207.355103 L 130.143127 205.524078 L 130.271622 205.138596 L 130.496475 204.817368 L 130.785583 204.560379 L 131.492294 204.207031 L 131.717163 203.917923 L 131.556549 203.500305 L 130.432236 201.89415 L 129.918259 200.866211 L 129.757645 200.095261 L 130.207367 199.452789 L 130.657089 199.131561 L 131.203186 199.099442 L 131.845657 199.292175 L 132.423874 199.677643 L 132.745102 199.806137 L 133.00209 199.774017 L 133.226944 199.484909 L 133.194824 199.163681 L 133.00209 198.842438 L 132.809357 198.585464 L 132.584488 198.360596 L 131.781403 197.878754 L 131.524429 197.621765 L 131.33168 197.332657 L 130.914078 196.722321 L 130.432236 196.304718 L 128.633331 195.630127 L 127.766006 195.662247 L 127.509026 195.533752 L 127.316284 195.212524 L 127.348404 194.923416 L 127.541145 194.698547 L 127.830254 194.602188 L 127.862373 194.602188 L 128.858185 194.216705 L 128.82608 193.317261 L 128.472717 192.192947 L 128.633331 191.132874 L 128.92244 190.90802 L 129.275803 190.779526 L 129.532776 190.554657 L 129.597031 190.169174 L 129.404297 189.880066 L 129.018814 189.655212 L 128.247849 189.366089 L 127.66964 188.820007 L 127.18779 188.081161 L 126.641693 187.470825 L 125.870735 187.406586 L 125.099785 187.470825 L 123.622108 187.342331 L 120.056435 187.920547 L 119.15699 187.888443 L 118.739388 187.727814 L 118.064796 186.988983 L 117.647194 186.828369 L 116.779869 186.76413 L 116.298019 186.475006 L 116.073158 186.057404 L 115.880417 184.322754 L 115.719803 183.873032 L 115.462822 183.487549 L 114.402748 182.363235 L 113.985146 182.106262 L 113.567543 182.138367 L 113.053574 182.39537 L 112.571732 182.523849 L 112.057755 182.555984 L 111.318924 182.39537 L 110.130363 181.881393 L 108.973923 180.821335 L 105.311882 176.484695 L 104.894279 176.227707 L 104.605171 176.773804 L 104.348183 178.733322 L 103.994827 179.407898 L 103.288116 179.600647 L 102.420792 179.568512 L 101.553467 179.343658 L 99.722443 178.604813 L 99.30484 178.604813 L 98.983612 178.701202 L 98.08416 179.247284 L 97.441696 179.536407 L 97.120461 179.761261 L 96.959846 180.114609 L 97.056213 180.532211 L 97.377449 180.821335 L 99.529701 181.849274 L 100.107925 182.298996 L 100.654015 183.102066 L 101.103737 184.19426 L 102.356544 186.250153 L 103.031128 187.053238 L 103.223869 187.245972 L 103.320244 187.438705 L 103.255997 187.631439 L 103.031128 187.759933 L 101.938942 187.920547 L 101.681953 187.856308 L 101.457092 187.53508 L 101.48922 187.181717 L 101.553467 186.796234 L 101.617714 186.378647 L 101.457092 185.543442 L 101.00737 184.965225 L 100.429153 184.547607 L 98.758751 183.744537 L 98.373268 183.680298 L 98.052032 183.712418 L 97.441696 184.001526 L 97.184708 184.001526 L 96.895599 183.873032 L 96.510124 183.26268 L 96.253136 183.037827 L 95.931908 182.909332 L 95.546425 182.909332 L 95.193069 182.973572 L 94.871834 183.134201 L 94.679092 183.359055 L 94.550606 183.616043 L 94.100883 184.13002 L 93.651154 184.322754 L 93.362045 184.579742 L 93.45842 185.190079 L 93.811768 185.961044 L 93.843895 186.314392 L 93.683281 186.860489 L 93.00869 188.466644 L 92.751701 188.723633 L 92.109238 188.948502 L 91.980751 189.23761 L 92.077118 189.590958 L 92.301979 189.847946 L 92.366226 190.072815 L 91.980751 190.329788 L 91.659515 190.426163 L 90.503075 190.361923 L 90.181847 190.426163 L 89.218147 190.90802 L 88.447197 191.068634 L 86.037956 190.651031 L 84.399673 190.715271 L 82.79351 191.486237 L 81.444336 192.835403 L 80.512764 194.602188 L 79.8703 195.565887 L 79.163589 196.079849 L 77.525299 196.850815 L 77.043457 197.525406 L 77.043457 198.392715 L 77.428932 200.19162 L 77.396812 201.05896 L 77.236191 201.797791 L 77.236191 202.504501 L 77.525299 203.307571 L 77.910782 203.950043 L 78.103523 204.528259 L 78.16777 205.20285 L 78.16777 206.00592 L 78.23201 206.616272 L 78.456879 207.258728 L 78.778107 207.804825 L 79.163589 208.222427 L 79.388451 208.415161 L 79.677559 208.543655 L 80.512764 208.736404 L 80.641251 208.832764 L 80.609131 208.993378 L 80.416389 209.218246 L 80.063034 209.475235 L 79.259956 209.892838 L 78.938721 210.278305 L 78.392632 211.242004 L 78.071396 211.434753 L 75.983391 210.985031 L 74.377228 210.663788 L 70.586693 210.438919 L 69.976349 210.406799 L 66.442795 210.214066 L 63.29472 210.053452 L 60.532124 209.892838 L 60.532124 204.688873 L 60.532124 199.452789 L 60.532124 194.216705 L 60.532124 188.948502 L 60.5 183.680298 L 60.5 178.379959 L 60.5 173.079636 L 60.5 167.715057 L 60.5 162.350479 L 60.5 156.985901 L 60.5 151.589203 L 60.5 146.16037 L 60.5 140.731567 L 60.5 135.27063 L 60.5 129.777527 L 60.5 124.25235 L 60.5 124.220215 L 60.5 124.18811 L 60.532124 124.18811 L 62.106159 123.674133 L 63.712322 123.160156 L 65.318481 122.646179 L 66.892517 122.132202 L 68.49868 121.618256 L 70.104843 121.104279 L 71.678879 120.590302 L 72.931679 120.204834 L 73.285042 120.076324 L 74.891197 119.562347 L 76.465233 119.080505 L 78.071396 118.566559 L 79.645432 118.020447 L 81.251595 117.50647 L 82.857758 116.992493 L 84.431793 116.478546 L 86.037956 115.964569 L 88.158089 115.322083 L 90.278214 114.679626 L 92.398354 114.005035 L 94.550606 113.362579 L 95.514305 113.073456 L 96.510124 112.784363 L 97.473816 112.495239 L 98.469635 112.174011 L 99.497581 111.884918 L 100.525528 111.595795 L 101.553467 111.306702 L 102.581406 110.985443 L 103.93058 110.599976 L 104.348183 110.632111 L 104.797905 110.856964 L 104.926407 110.921204 L 104.765785 111.081818 L 104.669418 111.242432 L 104.637291 111.435181 L 104.605171 111.852783 L 104.508804 112.302521 L 104.38031 112.495239 L 104.316063 112.752228 L 104.316063 112.880737 L 104.316063 113.266205 L 104.251816 113.651672 L 104.251816 113.844421 L 104.219696 113.908691 L 104.251816 114.262024 L 104.187569 114.390533 L 103.962708 114.551147 L 103.802094 114.711761 L 103.384491 115.322083 L 103.223869 115.386353 L 103.19175 115.450592 L 102.870514 115.707581 L 102.645653 116.157318 L 102.003189 117.088867 L 101.938942 117.281616 L 101.874695 117.44223 L 101.842575 118.020447 L 101.874695 118.470154 L 101.778328 118.727173 L 101.48922 119.209015 L 101.328606 119.883606 L 101.232231 120.9758 L 100.97525 121.618256 L 100.461273 122.260712 L 100.204292 122.614075 L 100.204292 122.678314 L 100.107925 122.903168 L 100.011551 123.417145 L 100.011551 123.738373 L 99.754562 124.380829 L 99.690315 124.959045 L 99.369087 125.408783 L 98.919365 126.308228 L 98.919365 126.468842 L 98.790871 126.79007 L 98.694496 127.239807 L 98.662376 127.785889 L 98.790871 128.974457 L 98.951485 129.713287 L 99.272713 130.548492 L 99.690315 131.544312 L 100.268539 132.957733 L 100.364906 133.632324 L 100.236412 134.40329 L 100.043678 134.628143 L 99.81881 134.563904 L 99.593948 134.531769 L 99.369087 134.692383 L 99.079979 135.14212 L 98.919365 135.495453 L 98.887238 135.913086 L 98.887238 137.005249 L 99.079979 137.454987 L 99.33696 137.711975 L 99.626076 137.80835 L 100.075798 137.904694 L 100.750389 137.904694 L 101.103737 137.872589 L 102.003189 137.422852 L 103.127502 135.977325 L 103.834213 134.435394 L 104.187569 132.315277 L 104.765785 129.970276 L 104.476677 129.552673 L 105.022774 129.552673 L 105.311882 129.135071 L 105.536743 128.46048 L 105.504623 127.59317 L 105.279755 127.047058 L 104.765785 126.597351 L 104.540924 126.147614 L 104.573044 125.794281 L 104.894279 125.312408 L 104.990646 124.734192 L 104.894279 124.348724 L 104.573044 123.995361 L 104.219696 123.931122 L 105.857971 122.357086 L 106.307701 121.618256 L 106.500443 120.9758 L 106.532562 120.526062 L 106.179207 119.17688 L 105.793732 118.245331 L 105.60099 117.731323 L 105.60099 116.831879 L 105.761604 115.579071 L 106.147087 113.491058 L 106.339821 113.009216 L 106.982285 112.36676 L 107.014412 112.334625 L 107.528381 112.687988 L 109.198792 113.812286 L 111.351044 115.289978 L 112.86084 116.285797 L 113.953026 117.024628 L 116.876236 119.016266 L 120.056435 121.168518 L 123.397247 123.417145 L 126.834435 125.697876 L 130.207367 127.978638 L 133.516052 130.195129 L 136.632019 132.283142 L 139.490982 134.178436 L 141.964462 135.816711 L 143.98822 137.165863 L 145.465897 138.161713 L 146.525955 138.868408 L 146.975693 139.35025 L 147.296921 139.992706 L 147.393295 140.570953 L 147.521774 141.791626 L 147.682404 142.369843 L 148.678223 143.976013 L 150.637741 146.09613 L 151.569305 147.091949 L 152.500885 148.087769 L 153.689438 149.469086 L 154.653137 150.625519 L 155.648956 151.749817 L 156.612656 152.874146 L 157.576355 153.998444 L 158.540054 155.090637 L 159.503738 156.214935 L 160.467438 157.307129 L 161.399017 158.399323 L 162.683945 159.876984 L 163.037292 160.037613 L 163.358536 160.166092 L 163.422775 160.166092 L 164.804077 159.909119 L 165.414413 159.780624 L 166.02475 159.68425 L 166.602966 159.587891 L 167.213318 159.459396 L 168.177017 159.298782 L 169.140701 159.106033 L 170.104401 158.9133 L 171.03598 158.752686 L 172.610016 158.495697 L 174.151917 158.238708 L 175.693848 157.98172 L 177.267883 157.724731 L 178.809784 157.499878 L 180.3517 157.242889 L 181.925735 156.985901 L 183.467651 156.728912 L 186.069641 156.953766 L 188.639496 157.21077 L 191.24147 157.435623 L 193.84346 157.660492 L 196.188446 157.885345 L 198.533447 158.110214 L 200.910568 158.302963 L 203.255554 158.527817 L 204.187119 158.624191 L 204.508362 158.527817 L 204.79747 158.431442 L 206.5 157.499878 L 208.13829 156.568298 L 209.808685 155.636719 L 211.479095 154.705139 L 211.800323 154.608795 L 212.089447 154.480286 L 212.37854 154.512421 L 212.635529 154.57666 L 212.924637 154.833649 L 213.21376 155.090637 L 215.044769 157.467743 L 216.875793 159.876984 L 217.711014 160.776443 L 218.546204 161.675888 L 220.312988 162.768082 L 222.047638 163.86026 L 222.400986 164.149368 L 222.722229 164.470612 L 224.16777 167.458069 L 225.09935 169.353333 L 226.384277 171.987442 L 227.476456 174.236069 L 227.60495 174.268188 L 227.765564 174.268188 L 230.206924 172.951141 L 232.68042 171.601959 L 232.294937 177.38414 L 231.941589 183.102066 L 231.909454 183.712418 L 231.845215 184.322754 L 231.780975 184.515503 L 231.684601 184.740356 L 231.491852 184.804611 L 231.299118 184.90097 L 231.234879 185.029465 L 231.170624 185.190079 L 231.170624 185.89679 L 231.106369 189.687332 L 231.074265 194.152466 L 231.074265 194.28096 L 231.106369 194.409439 L 231.170624 194.441574 L 231.234879 194.505814 L 233.290771 194.505814 L 235.153915 194.537933 L 237.017059 194.537933 L 239.072952 194.537933 L 239.137177 194.537933 L 239.201431 194.537933 L 239.265671 194.537933 L 239.329926 194.537933 L 239.39418 194.537933 L 239.4263 194.570053 L 239.49054 194.570053 L 239.522659 194.602188 L 239.811768 197.493271 L 240.100876 200.384369 L 240.646973 203.179077 L 241.193069 206.00592 L 241.9319 209.346741 L 242.638611 212.655426 L 243.024094 213.137268 L 243.409576 213.587006 L 243.827179 213.7155 L 244.116272 213.779739 L 244.822983 213.972473 L 246.782516 213.843994 L 248.452911 213.74762 L 250.926392 213.587006 L 252.757431 213.490631 L 254.909683 213.362137 L 256.290985 213.265778 L 258.507477 213.137268 L 260.691864 213.008789 L 260.884583 213.073029 L 261.077332 213.105164 L 261.430695 213.297882 L 261.784027 213.490631 L 261.976807 213.554886 L 262.137421 213.619125 L 262.330139 213.587006 L 262.490753 213.587006 L 262.972595 213.233643 L 263.454437 212.912415 L 263.679321 212.78392 L 263.904175 212.655426 L 264.000549 212.976654 L 264.096924 213.297882 L 264.129059 213.297882 L 264.129059 213.330017 L 264.193268 213.426392 L 264.257538 213.554886 L 264.643005 214.068848 L 264.996368 214.550705 L 265.092743 214.743439 L 265.189117 214.968307 L 265.253357 215.385895 L 265.317596 215.835632 L 265.446106 216.028366 L 265.54245 216.18898 L 265.638824 216.124741 L 265.735199 216.028366 L 265.863678 215.964127 L 265.960052 215.931992 L 266.056458 215.931992 L 266.184937 215.964127 L 266.281281 216.092606 L 266.345551 216.18898 L 266.47403 215.931992 L 266.602509 215.707123 L 266.763153 215.675018 L 266.955902 215.642883 L 266.988007 215.899872 L 267.020142 216.124741 L 267.020142 216.15686 L 267.020142 216.18898 L 266.988007 216.285355 L 266.988007 216.381714 L 267.052246 216.413849 L 267.148621 216.445969 L 267.180756 216.478088 L 267.180756 216.510208 L 266.988007 216.638718 L 266.795288 216.799332 L 266.731018 216.831436 L 266.666779 216.863571 L 266.731018 216.895691 L 266.795288 216.927811 L 266.827393 216.992065 L 266.891632 217.024185 L 266.955902 217.184799 L 267.020142 217.313293 L 267.020142 217.634521 L 267.020142 217.95575 L 266.923767 218.309113 L 266.859528 218.694595 L 266.731018 219.080063 L 266.602509 219.433426 L 266.47403 219.722534 L 266.345551 220.011642 L 266.249176 220.172272 L 266.152802 220.332886 L 266.024323 220.461365 L 265.895813 220.589859 L 265.767334 220.718353 L 265.60672 220.814728 L 265.317596 220.975342 L 264.996368 221.103836 L 264.932129 221.168076 L 264.867889 221.23233 L 264.835754 221.32869 L 264.803619 221.425064 L 264.867889 221.457199 L 264.932129 221.489304 L 265.253357 221.553558 L 265.574585 221.649918 L 265.863678 221.778427 L 266.120667 221.939041 L 266.891632 222.709991 L 267.662598 223.480957 L 268.240814 223.930679 L 268.819031 224.380402 L 269.493622 224.733749 L 270.810669 225.440475 L 272.802307 226.500534 L 272.834442 226.436295 L 272.866547 226.37204 L 272.962921 226.275681 L 273.0914 226.179306 L 273.21991 226.179306 L 273.348389 226.179306 L 273.412659 226.115051 L 273.476898 226.018677 L 273.509003 225.922318 L 273.541138 225.825943 L 273.637512 225.761703 L 273.701752 225.729584 L 273.798126 225.729584 L 273.926636 225.761703 L 274.247864 225.922318 L 274.601196 226.082932 L 274.82608 226.115051 L 275.050934 226.147171 L 275.211548 226.050812 L 275.404297 225.954437 L 275.468536 225.793823 L 275.500671 225.665329 L 275.340027 225.568954 L 275.179413 225.472595 L 275.404297 225.151367 L 275.597015 224.798004 L 275.597015 224.733749 L 275.62915 224.63739 L 275.564911 224.508896 L 275.468536 224.380402 L 275.436401 224.251907 L 275.372162 224.123413 L 275.340027 223.962799 L 275.307922 223.834305 L 275.307922 223.705811 L 275.307922 223.545197 L 275.115173 223.513077 L 274.89032 223.448822 L 274.82608 223.416702 L 274.729706 223.352463 L 274.665466 223.256088 L 274.601196 223.191849 L 274.536957 222.96698 L 274.472717 222.742126 L 274.376343 221.810547 L 274.312103 220.878967 L 274.344238 220.686234 L 274.376343 220.52562 L 274.408478 220.461365 L 274.472717 220.429245 L 274.504852 220.36499 L 274.569092 220.332886 L 274.633331 220.204376 L 274.697571 220.075882 L 274.697571 219.979523 L 274.697571 219.851028 L 274.697571 219.59404 L 274.665466 219.369186 L 274.665466 219.240677 L 274.665466 219.112198 L 274.697571 219.144318 L 274.729706 219.144318 L 274.82608 219.176437 L 274.89032 219.208572 L 274.954559 219.240677 L 274.986694 219.272812 L 275.083069 219.015823 L 275.179413 218.726715 L 275.404297 218.566101 L 275.62915 218.405487 L 276.014648 218.244873 L 276.175262 218.180618 L 276.689209 217.95575 L 276.849823 217.730896 L 277.010437 217.538162 L 277.331696 216.638718 L 277.652924 215.739258 L 277.877777 215.45015 L 278.102661 215.193161 L 278.712982 214.936172 L 279.291199 214.679199 L 279.483948 214.325836 L 279.708801 213.940353 L 279.805176 213.811859 L 279.933655 213.651245 L 280.094269 213.587006 L 280.287018 213.522751 L 280.640381 213.490631 L 280.993744 213.458511 L 281.314972 213.297882 L 281.6362 213.137268 L 281.925293 212.944534 L 282.214417 212.751801 L 282.342896 212.591187 L 282.50351 212.462692 L 282.567749 212.334198 L 282.632019 212.205704 L 282.760529 211.11351 L 282.889008 210.053452 L 282.889008 209.860718 L 282.889008 209.667969 L 282.856873 209.539474 L 282.824738 209.410995 L 282.824738 209.346741 L 282.792633 209.314606 L 282.760529 209.282486 L 282.696259 209.250366 L 282.632019 209.153992 L 282.535645 209.057632 L 282.535645 208.961258 L 282.50351 208.864883 L 282.535645 208.800644 L 282.567749 208.704269 L 282.664124 208.64003 L 282.728394 208.60791 L 283.113861 208.415161 L 283.499329 208.222427 L 283.659973 208.158173 L 283.820587 208.093933 L 283.981201 208.158173 L 284.141815 208.222427 L 284.238159 207.997559 L 284.302429 207.772705 L 284.527283 207.547836 L 284.720032 207.355103 L 285.201874 207.065994 L 285.651611 206.744751 L 285.812225 206.744751 L 285.940704 206.712631 L 286.197693 206.809006 L 286.422546 206.873245 L 286.551056 206.873245 L 286.679535 206.841125 L 287.000763 206.648392 L 287.354126 206.423523 L 287.482605 206.391403 L 287.611115 206.359283 L 288.092957 206.455643 L 288.606934 206.552017 L 288.703308 206.487778 L 288.799683 206.423523 L 288.799683 206.295029 L 288.799683 206.198669 L 288.639069 205.941681 L 288.510559 205.652573 L 288.478455 205.556198 L 288.44632 205.427704 L 288.542694 205.138596 L 288.671173 204.817368 L 288.896027 204.656754 L 289.120911 204.496124 L 289.602753 204.33551 L 290.084595 204.207031 L 290.951935 203.500305 L 291.819244 202.825729 L 292.044098 202.536606 L 292.301086 202.247513 L 292.429596 202.151138 L 292.59021 202.022644 L 293.746643 201.701416 L 294.870941 201.380188 L 295.834656 201.348053 L 296.766235 201.315933 L 297.119568 201.155319 L 297.472931 201.026825 L 297.729919 200.705597 L 297.986908 200.384369 L 298.115417 200.223755 L 298.243896 200.063126 L 298.372375 199.934647 L 298.500885 199.838272 L 298.982727 199.645523 L 299.432434 199.484909 L 300.13916 198.970947 L 300.845886 198.42485 L 301.07074 198.167862 L 301.295593 197.942993 L 301.87384 196.915054 L 302.452026 195.919235 L 302.580505 195.790741 L 302.67691 195.662247 L 302.837524 195.598007 L 302.966003 195.501633 L 303.126617 195.437393 L 303.287231 195.405273 L 303.415741 195.308884 L 303.576355 195.244644 L 303.672729 195.116165 L 303.769073 194.987656 L 303.833344 194.794922 L 303.897583 194.602188 L 304.122437 194.120331 L 304.315186 193.670609 L 304.700653 193.34938 L 305.054016 193.028152 L 305.889221 192.674789 L 306.724426 192.321442 L 306.852936 192.321442 L 306.981415 192.353561 L 307.109894 192.482056 L 307.270508 192.578415 L 307.398987 192.739029 L 307.559631 192.899643 L 307.623871 193.028152 L 307.68811 193.188766 L 307.720245 193.41362 L 307.784485 193.606369 L 307.912994 193.766983 L 308.041473 193.895477 L 308.234222 193.959717 L 308.426941 194.023956 L 308.61969 194.056091 L 308.812439 194.088211 L 309.069427 193.959717 L 309.358521 193.831238 L 309.519135 193.477875 L 309.711884 193.156647 L 309.872498 192.739029 L 310.033112 192.321442 L 310.225861 191.935959 L 310.418579 191.582611 L 310.643463 191.293488 L 310.900452 191.004379 L 310.996796 190.843765 L 311.061066 190.683151 L 311.15741 190.490402 L 311.22168 190.265549 L 311.350159 190.104935 L 311.446533 189.944321 L 311.671417 189.912201 L 311.864136 189.912201 L 312.249634 190.04068 L 312.667206 190.137054 L 312.988434 190.104935 L 313.309692 190.04068 L 313.63092 189.880066 L 313.920044 189.719452 L 314.49823 189.23761 L 315.076447 188.755753 L 315.461945 188.402405 L 316.200775 187.856308 L 316.746857 187.792053 L 317.292969 188.016922 L 319.670074 189.719452 L 320.216187 189.912201 L 320.280426 189.944321 L 320.023438 190.779526 L 319.380981 191.229248 L 317.999664 191.646851 L 315.590424 193.445755 L 314.883728 193.606369 L 314.048523 193.574234 L 313.341797 193.766983 L 313.052704 194.602188 L 312.988434 195.919235 L 312.82782 196.304718 L 312.217499 196.529572 L 310.514954 196.722321 L 310.001007 197.043549 L 308.330597 198.48909 L 307.591766 199.356415 L 307.077759 200.416489 L 306.692322 201.026825 L 306.178314 201.380188 L 305.632233 201.637161 L 304.604309 202.440247 L 301.841705 204.078537 L 301.488342 204.656754 L 301.80957 205.395584 L 302.419891 205.716812 L 304.829132 206.00592 L 305.471619 206.391403 L 305.760712 206.648392 L 306.0177 206.96962 L 306.435303 207.772705 L 306.692322 207.997559 L 306.981415 207.997559 L 307.077759 208.029678 L 307.656006 207.804825 L 309.744019 206.584137 L 310.322235 206.487778 L 310.643463 206.712631 L 310.932556 207.098114 L 311.89624 208.736404 L 312.056854 209.218246 L 312.088989 209.700089 L 311.832031 211.08139 L 311.864136 211.466873 L 312.056854 211.788101 L 312.345978 211.723846 L 312.667206 211.563232 L 313.052704 211.531113 L 313.373932 211.691727 L 313.69516 211.884476 L 313.984253 212.173584 L 314.209137 212.526932 L 314.530365 212.81604 L 314.851593 212.84816 L 315.590424 212.719681 L 316.393494 212.880295 L 316.778992 213.040909 L 317.132355 213.330017 L 317.421448 213.522751 L 318.063904 213.587006 L 318.353027 213.811859 L 318.77063 214.550705 L 319.027618 214.711319 L 319.220367 214.293716 L 319.156097 213.811859 L 319.091858 213.394272 L 319.123962 213.105164 L 319.477356 212.912415 L 319.894928 212.944534 L 320.087677 213.201523 L 320.280426 214.068848 L 320.44104 214.390091 L 320.665894 214.614944 L 320.890747 214.582825 L 321.083496 214.165222 L 321.501099 213.619125 L 322.657532 214.614944 L 323.042999 214.293716 L 323.139374 213.490631 L 322.97876 209.603714 L 323.107269 209.314606 L 323.332123 209.37886 L 324.135193 210.149811 L 324.874023 210.471054 L 325.45224 210.34256 L 325.934113 209.860718 L 326.512299 208.64003 L 326.737183 207.869064 L 326.801422 207.419342 L 326.737183 207.001755 L 326.287476 206.391403 L 326.094727 206.00592 L 326.44809 205.138596 L 326.640808 204.881607 L 327.026306 204.720993 L 327.379639 204.785233 L 327.604523 205.074356 L 327.700867 205.524078 L 327.700867 206.00592 L 327.379639 207.258728 L 327.411774 207.547836 L 327.572388 207.612091 L 327.668762 207.419342 L 327.733002 207.162369 L 327.829376 207.033859 L 327.98999 207.130234 L 328.086365 207.483597 L 328.246979 207.547836 L 328.375488 207.451477 L 328.407593 206.96962 L 328.503967 206.873245 L 328.664581 206.9375 L 328.79306 207.033859 L 330.367096 209.4431 L 330.656219 210.117691 L 330.752594 210.856537 L 330.720459 211.820236 L 330.784729 212.78392 L 331.234436 212.976654 L 332.583618 212.751801 L 333.001221 213.105164 L 333.258179 213.458511 L 333.547302 213.619125 L 334.061279 213.330017 L 334.446747 212.976654 L 334.832245 212.719681 L 335.249817 212.655426 L 335.667419 212.912415 L 335.860168 213.362137 L 335.956543 213.972473 L 335.988647 214.614944 L 336.149292 215.803513 L 336.149292 216.253235 L 336.020782 216.638718 L 335.795929 217.184799 L 336.309906 217.024185 L 337.27359 216.735077 L 337.916046 216.638718 L 338.044556 216.542343 L 338.237274 215.931992 L 338.333679 215.771378 L 338.622772 215.514404 L 338.847626 215.675018 L 339.361603 216.445969 L 339.714966 216.670822 L 340.196808 216.799332 L 341.096252 216.895691 L 341.192627 216.959946 L 341.224762 217.056305 L 341.224762 217.184799 L 341.192627 217.313293 L 341.192627 217.827271 L 341.513855 217.987885 L 341.931458 218.020004 L 342.252686 218.148499 L 342.991547 219.272812 L 343.505493 219.851028 L 344.180084 220.140137 L 344.918915 220.236511 L 347.103302 220.043762 L 347.745758 220.236511 L 347.842133 220.878967 L 347.777893 221.26445 L 348.002747 221.23233 L 348.773712 220.654114 L 350.058655 220.075882 L 350.315613 220.268631 L 350.540497 220.589859 L 350.893829 220.846848 L 351.889648 220.782608 L 352.275146 220.878967 L 352.43576 220.911087 L 352.5 221.360825 L 351.986023 222.0354 L 351.182953 222.517258 L 349.576782 223.095474 L 348.131256 224.027054 L 346.910553 224.316162 L 346.300232 224.573135 L 345.914734 225.215607 L 345.722015 226.693268 L 345.208038 226.950256 L 344.597687 226.661148 L 344.276459 226.661148 L 344.14798 227.014511 L 344.115845 227.335739 L 344.051605 227.656967 L 343.890991 227.946075 L 343.601868 228.138824 L 342.927277 228.203064 L 341.738739 227.367859 L 341.096252 227.271484 L 340.61441 227.046631 L 340.036194 226.37204 L 339.457977 225.890198 L 338.976135 226.115051 L 338.911896 226.468399 L 339.265228 227.078751 L 339.265228 227.11087 L 339.265228 227.496353 L 339.168854 227.849716 L 339.168854 228.106689 L 339.297363 228.299438 L 340.036194 228.845535 L 340.132568 229.038269 L 340.228943 229.295258 L 340.196808 229.809235 L 340.036194 230.387436 L 339.682831 230.869293 L 339.297363 230.933548 L 338.815521 230.772919 L 337.819702 230.162582 L 337.562714 230.098328 L 336.791748 230.130463 L 336.566895 230.034088 L 336.663269 229.841339 L 336.855988 229.7771 L 337.145111 229.74498 L 337.4021 229.680725 L 337.466339 229.455872 L 337.305725 229.327377 L 336.984497 229.295258 L 336.855988 229.295258 L 336.085052 229.327377 L 335.795929 229.391617 L 334.671631 230.034088 L 334.510986 230.258957 L 334.414642 230.676544 L 334.157654 231.319016 L 333.707916 231.736618 L 332.230255 232.507584 L 332.133881 232.828812 L 332.26239 233.15004 L 332.583618 233.374893 L 333.097565 233.631882 L 333.19397 233.696136 L 333.322449 233.760376 L 333.418793 233.953125 L 333.290314 234.177979 L 333.06546 234.242233 L 332.808472 234.210098 L 332.583618 234.113739 L 332.455109 234.081604 L 332.358734 234.113739 L 332.166016 234.177979 L 331.491425 234.113739 L 330.816833 233.953125 L 330.206482 233.985245 L 329.6604 234.531342 L 329.371277 235.238052 L 329.178558 235.527161 L 328.889435 235.784134 L 327.98999 236.330231 L 327.765137 236.394485 L 327.411774 236.233871 L 327.315399 235.912643 L 327.315399 234.981064 L 327.18692 234.531342 L 326.962036 234.017365 L 326.672943 233.760376 L 326.351685 234.049484 L 326.255341 234.467087 L 326.223206 234.85257 L 326.062592 235.109558 L 325.644989 235.141678 L 324.841919 235.013184 L 324.456451 234.85257 L 324.103058 234.627716 L 323.78183 234.306473 L 323.653351 233.985245 L 323.492737 233.728256 L 322.721771 233.471268 L 322.17569 232.989426 L 321.854462 232.957306 L 321.30838 233.021545 L 321.019257 232.989426 L 320.794373 232.893051 L 320.601654 232.668198 L 320.473145 232.443329 L 320.280426 232.314835 L 320.055542 232.379089 L 319.798584 232.796677 L 319.63797 233.278534 L 319.380981 233.664017 L 318.867004 233.728256 L 316.875336 233.439148 L 315.879547 233.599762 L 315.269196 234.210098 Z M 308.587555 216.735077 L 308.330597 216.831436 L 308.523315 217.281174 L 308.523315 217.313293 L 308.812439 217.602402 L 309.326385 218.276993 L 309.615509 218.533981 L 309.936737 218.630341 L 309.904633 218.244873 L 309.679749 217.698776 L 309.454895 217.313293 L 309.069427 216.959946 L 308.587555 216.735077 Z M 318.995483 238.578857 L 319.059753 238.578857 L 319.252472 238.418243 L 319.348846 238.353989 L 319.766449 238.257629 L 319.991302 238.289749 L 320.119812 238.482498 L 320.023438 238.835846 L 319.220367 239.381943 L 318.931244 239.671051 L 318.995483 240.249268 L 319.734314 241.052353 L 319.702209 241.726929 L 319.50946 241.983917 L 319.284576 242.080292 L 318.70639 242.080292 L 317.90329 242.305161 L 317.646301 242.273026 L 317.453583 242.112411 L 317.421448 241.855438 L 317.325073 241.662689 L 317.003845 241.662689 L 316.811127 241.791183 L 316.586243 242.016052 L 316.361389 242.176666 L 316.136505 242.048157 L 316.104401 241.502075 L 316.843231 240.345642 L 316.746857 239.703171 L 316.554108 239.542557 L 316.104401 239.446198 L 315.879547 239.317688 L 315.686798 239.060715 L 315.269196 238.129135 L 315.172821 237.775787 L 315.204956 237.390305 L 315.301331 237.004822 L 315.590424 236.298111 L 316.136505 236.009003 L 316.522003 236.265991 L 316.778992 236.812088 L 317.03598 237.422424 L 317.325073 237.775787 L 317.774811 238.097015 L 318.738525 238.482498 L 318.802734 238.546738 L 318.867004 238.578857 L 318.995483 238.578857 Z"/>
        <path id="UZ-copy" fill="#ffffff" stroke="#ffffff" stroke-width="0.160616" stroke-linecap="round" stroke-linejoin="round" d="M 329.339172 239.767426 L 329.403412 239.992279 L 329.017944 241.405701 L 328.85733 241.662689 L 328.600311 241.726929 L 328.150604 241.598434 L 327.829376 241.43782 L 327.476013 241.180847 L 327.283264 240.859604 L 327.572388 240.538376 L 327.98999 240.506256 L 328.279083 240.345642 L 328.921539 239.89592 L 329.339172 239.767426 Z M 315.269196 234.210098 L 314.915833 234.177979 L 313.406036 234.338593 L 310.996796 235.077438 L 310.257965 235.141678 L 309.55127 235.077438 L 308.876678 234.595581 L 308.55545 233.664017 L 308.330597 232.603943 L 307.880859 231.865112 L 307.495392 231.704498 L 307.174164 231.768738 L 306.852936 231.865112 L 306.499542 231.897232 L 306.14621 231.768738 L 305.27887 231.41539 L 305.503754 230.612305 L 305.471619 230.548065 L 305.311005 230.355316 L 305.27887 230.323196 L 305.311005 230.323196 L 305.086151 230.001953 L 305.054016 229.937714 L 305.021881 229.841339 L 304.989746 229.359497 L 305.246765 228.941895 L 305.760712 228.620667 L 306.917145 228.331558 L 307.109894 228.267303 L 307.270508 228.04245 L 307.68811 227.335739 L 307.912994 227.11087 L 308.137848 227.014511 L 308.394836 226.918137 L 308.651825 226.821762 L 308.876678 226.629028 L 309.454895 225.890198 L 310.514954 225.022858 L 310.739838 224.798004 L 310.996796 224.60527 L 311.125305 224.541016 L 311.414398 224.476776 L 311.478668 224.380402 L 311.510803 224.284027 L 311.575012 224.187668 L 311.832031 224.027054 L 311.832031 223.994919 L 311.864136 223.834305 L 312.02475 223.063354 L 311.350159 222.677872 L 309.808258 222.324509 L 309.55127 221.971161 L 309.487 221.585678 L 309.647614 221.29657 L 310.001007 221.26445 L 310.579193 221.778427 L 310.932556 221.906921 L 310.964691 221.489304 L 310.836182 221.29657 L 307.720245 217.795135 L 307.174164 217.313293 L 307.142029 217.249054 L 307.077759 217.152679 L 306.756531 216.799332 L 306.563812 216.574463 L 305.792847 216.253235 L 305.150391 216.445969 L 304.668518 218.82309 L 303.736969 219.915268 L 302.516296 220.654114 L 300.749512 221.360825 L 299.143341 222.613617 L 295.99527 223.577316 L 295.641907 223.770065 L 295.288574 224.059158 L 294.581848 224.958618 L 294.164246 225.344101 L 293.714508 225.472595 L 293.200562 225.279846 L 292.975677 225.087112 L 292.815063 224.862244 L 292.493835 224.316162 L 292.301086 224.091293 L 291.883484 223.802185 L 291.65863 223.641571 L 291.016174 222.581512 L 290.630707 222.228149 L 290.084595 222.163895 L 289.827606 222.003281 L 289.602753 221.778427 L 289.377899 221.617813 L 289.056641 221.553558 L 288.510559 221.746307 L 288.253571 221.906921 L 287.996582 222.099655 L 287.57901 222.677872 L 287.321991 223.256088 L 287.193512 223.930679 L 287.193512 224.733749 L 287.289886 225.954437 L 287.225616 226.243546 L 286.968658 226.40416 L 285.940704 226.468399 L 285.330383 226.886017 L 285.330383 227.367859 L 286.004944 228.524307 L 286.390442 229.7771 L 286.551056 230.194702 L 287.000763 230.965652 L 287.161377 231.41539 L 287.289886 231.897232 L 287.161377 232.989426 L 286.615295 233.085785 L 285.940704 232.828812 L 285.523102 232.893051 L 285.587341 233.535507 L 286.808044 234.659821 L 286.808044 235.205917 L 286.165558 235.495026 L 285.330383 235.462906 L 283.788452 235.013184 L 283.210236 234.691956 L 282.664124 234.434967 L 282.278656 234.370712 L 279.516052 234.78833 L 279.194824 234.948944 L 278.584503 235.270172 L 278.199005 235.334412 L 277.203186 235.173798 L 276.849823 235.205917 L 275.886139 235.430786 L 275.211548 235.62352 L 274.858185 235.880508 L 275.275787 236.362366 L 276.046753 236.844208 L 276.657104 237.069061 L 276.817719 237.036957 L 280.800995 236.265991 L 281.57196 236.844208 L 281.700439 237.165436 L 281.732574 237.486679 L 281.732574 237.807907 L 281.57196 238.097015 L 281.186462 238.16127 L 279.96579 237.968521 L 279.612427 238.06488 L 279.002106 238.578857 L 278.777222 238.675232 L 278.391754 237.968521 L 278.134766 237.743652 L 277.909912 238.16127 L 277.942047 238.353989 L 278.263275 238.610992 L 278.29538 238.771606 L 278.263275 239.221329 L 278.29538 239.446198 L 278.391754 239.671051 L 279.869415 241.726929 L 279.933655 242.240906 L 279.226959 242.530014 L 278.841492 241.919678 L 278.552368 240.955978 L 278.23114 240.217148 L 277.877777 239.960159 L 277.749268 240.120773 L 277.813538 240.538376 L 277.974152 241.020233 L 278.359619 241.823303 L 278.359619 242.144547 L 278.134766 242.562134 L 278.070526 242.626389 L 277.909912 242.658508 L 277.845642 242.690628 L 277.717163 243.011856 L 277.717163 243.043991 L 277.717163 243.17247 L 277.685028 243.397339 L 277.556549 243.525833 L 277.331696 243.397339 L 276.881958 242.658508 L 276.624969 242.465775 L 276.046753 242.979752 L 275.789764 242.883377 L 275.597015 242.851242 L 275.436401 243.333099 L 275.275787 246.898773 L 275.179413 247.44487 L 274.954559 247.862473 L 274.536957 248.312195 L 273.798126 248.761917 L 273.573273 249.08316 L 273.637512 249.243774 L 273.766022 249.500748 L 273.766022 249.532883 L 273.412659 249.661377 L 272.384705 249.95047 L 271.5495 250.046844 L 270.714294 249.982605 L 269.300873 249.468628 L 266.763153 249.404388 L 260.948853 247.894592 L 260.145752 247.862473 L 259.535431 248.055206 L 257.92926 249.211639 L 256.580109 249.404388 L 256.25885 249.757736 L 256.355225 250.721436 L 256.32309 250.81781 L 256.226715 250.88205 L 256.162476 250.914169 L 256.066101 250.914169 L 255.648514 250.88205 L 255.391541 250.914169 L 255.230911 251.106918 L 255.006058 251.942123 L 254.909683 252.841568 L 254.877548 253.644653 L 254.65271 254.383484 L 254.5242 255.122314 L 254.427841 255.154434 L 254.267227 255.122314 L 254.074463 255.154434 L 253.913849 255.315063 L 253.849625 255.411423 L 253.81749 255.572037 L 253.78537 255.861145 L 253.913849 256.728455 L 253.913849 256.76062 L 254.395706 257.210327 L 256.451599 257.917053 L 257.832886 257.981262 L 258.507477 258.238281 L 258.571716 258.334656 L 258.700226 258.591614 L 258.7966 258.687988 L 258.925079 258.720123 L 259.214172 258.655884 L 259.310577 258.687988 L 259.471191 258.944977 L 259.503296 259.23407 L 259.310577 260.936615 L 259.374786 261.482727 L 259.406921 261.514832 L 259.696045 261.803955 L 261.880432 262.157288 L 262.330139 262.125183 L 263.615082 261.707581 L 263.839935 261.579102 L 264.096924 261.514832 L 264.321777 261.514832 L 264.610901 261.611206 L 264.771515 261.707581 L 265.028503 261.964539 L 265.285492 261.996674 L 265.574585 261.90033 L 265.863678 261.707581 L 265.992188 261.675446 L 266.120667 261.643311 L 266.281281 261.675446 L 266.40979 261.707581 L 266.666779 262.028809 L 267.244995 263.281616 L 267.566223 263.763458 L 267.758972 264.020447 L 267.919586 264.470154 L 267.887451 264.952026 L 267.758972 265.305359 L 267.534119 265.594482 L 267.27713 265.851471 L 266.988007 266.012085 L 266.570404 266.076324 L 266.281281 266.076324 L 266.088562 266.204834 L 266.024323 266.686676 L 266.088562 266.879395 L 266.184937 267.072144 L 266.249176 267.297028 L 266.249176 267.521851 L 266.152802 267.650391 L 265.735199 267.971619 L 265.60672 268.292847 L 265.638824 268.710449 L 265.863678 269.513489 L 265.895813 269.963257 L 265.863678 271.216034 L 265.895813 271.665771 L 266.024323 271.954895 L 266.441895 272.597351 L 266.5383 272.918579 L 266.570404 273.625275 L 266.634644 273.946503 L 266.795288 274.235626 L 267.469849 274.878113 L 268.0802 276.034515 L 268.369293 276.323639 L 269.268768 276.837585 L 270.61792 278.058289 L 271.003418 278.700745 L 271.099762 279.53595 L 270.810669 280.788757 L 270.393066 282.00946 L 269.718475 283.005249 L 269.525757 283.422852 L 269.397247 283.80835 L 269.333008 284.129578 L 269.204529 284.386536 L 269.011749 284.54718 L 268.915405 284.579285 L 268.658417 284.675659 L 267.855347 284.772034 L 267.34137 284.964783 L 267.052246 285.286011 L 266.313416 287.470398 L 265.799438 288.466217 L 264.578766 290.200867 L 263.647217 291.068207 L 262.779877 292.192505 L 262.041046 293.445313 L 261.591309 294.76236 L 261.527069 295.661804 L 261.848297 297.364349 L 261.912537 298.263794 L 261.816162 299.03476 L 261.623413 299.741455 L 261.302185 300.383911 L 261.237976 300.70517 L 261.141571 300.319672 L 260.948853 300.030579 L 260.659729 299.83783 L 260.306366 299.741455 L 259.696045 299.77359 L 259.471191 299.741455 L 259.278442 299.645081 L 258.925079 299.388092 L 258.73233 299.323853 L 258.539612 299.323853 L 258.218384 299.420227 L 258.025635 299.452332 L 257.92926 299.548706 L 257.832886 299.77359 L 257.672272 299.966309 L 257.511658 300.030579 L 257.222565 299.805695 L 256.901337 298.90625 L 256.515839 298.713501 L 256.162476 298.809875 L 255.841248 299.066864 L 255.295166 299.612976 L 254.941803 299.869934 L 254.620575 300.062683 L 254.235092 300.159058 L 253.81749 300.191162 L 253.399887 300.287537 L 252.725311 300.70517 L 252.371948 300.769409 L 251.986465 300.64093 L 251.793732 300.287537 L 251.665222 299.9021 L 251.504608 299.548706 L 251.15126 299.227478 L 250.380295 298.938385 L 250.059067 298.713501 L 249.898453 298.392273 L 249.60936 297.460693 L 249.416611 297.267975 L 249.031143 297.1716 L 248.356537 296.657623 L 248.067444 296.529144 L 247.232224 296.497009 L 245.658203 296.882507 L 243.441696 296.978851 L 243.281082 297.043091 L 242.927734 297.332214 L 242.76712 297.396454 L 242.285263 297.396454 L 242.092514 297.332214 L 240.968201 296.850372 L 240.550598 296.818237 L 240.100876 296.850372 L 239.779633 296.946747 L 239.362045 296.625519 L 239.39418 296.240021 L 239.651154 295.886688 L 239.972397 295.533325 L 240.22937 295.115723 L 240.165115 294.76236 L 239.908142 294.473267 L 239.586914 294.184143 L 239.329926 293.573792 L 239.39418 292.802856 L 239.779633 291.3573 L 239.843887 290.522095 L 239.715408 288.81958 L 239.779633 287.984375 L 240.35788 286.924286 L 241.321564 285.671478 L 241.9319 284.450806 L 241.771286 284.001099 L 241.578552 283.422852 L 241.546417 283.422852 L 241.000336 283.005249 L 240.35788 282.716156 L 239.715408 282.523407 L 238.430481 282.523407 L 237.884384 282.362793 L 236.181854 281.559723 L 235.378769 280.563904 L 234.864792 280.082062 L 234.318695 279.825073 L 233.226517 279.503845 L 232.166458 278.66864 L 231.684601 278.411652 L 230.560287 278.218933 L 228.857742 277.383698 L 228.279541 277.351563 L 227.797684 277.544312 L 226.962494 278.218933 L 226.544891 278.443756 L 225.356323 278.540161 L 224.23201 278.154663 L 221.405182 276.259399 L 219.734772 275.135071 L 217.42189 273.561035 L 215.815735 272.083374 L 213.567108 270.027496 L 212.410675 269.320801 L 209.90506 268.421326 L 207.720673 267.168518 L 204.155014 264.116821 L 203.191315 262.864014 L 202.677338 262.189423 L 202.259735 261.964539 L 201.745773 261.996674 L 200.428711 262.671265 L 200.011108 262.767639 L 199.497147 262.671265 L 198.98317 262.414307 L 196.252701 260.454773 L 193.87558 258.752228 L 191.980301 257.370941 L 190.952362 256.310883 L 189.121338 253.741028 L 188.061279 252.713074 L 185.684158 251.042664 L 180.094711 247.027267 L 177.332123 245.067749 L 175.019257 243.397339 L 173.027603 241.951797 L 172.031799 240.955978 L 171.83905 240.859604 L 170.618362 239.317688 L 170.457748 238.739471 L 170.13652 237.486679 L 170.104401 236.972702 L 170.16864 236.49086 L 170.297134 236.073257 L 170.393509 235.687775 L 170.329254 235.205917 L 169.815292 234.081604 L 169.751053 233.631882 L 169.718918 233.021545 L 169.686798 232.571823 L 169.526184 232.18634 L 169.108582 231.286896 L 168.980087 230.869293 L 168.947968 229.937714 L 168.787354 229.74498 L 167.373932 228.941895 L 166.570847 228.684921 L 166.185364 228.395798 L 166.121124 228.267303 L 166.089005 228.203064 L 165.928391 227.689087 L 165.832016 227.496353 L 165.22168 226.629028 L 164.964691 226.179306 L 164.643463 224.798004 L 164.450714 224.476776 L 163.872498 223.86644 L 163.679764 223.577316 L 163.551254 223.095474 L 163.358536 222.067535 L 162.812424 220.172272 L 162.61969 219.722534 L 162.748184 219.56192 L 162.683945 219.240677 L 162.61969 217.634521 L 162.58757 217.184799 L 162.426956 216.799332 L 161.174149 214.711319 L 160.852921 214.357956 L 157.062378 211.531113 L 155.584702 210.888641 L 153.914291 210.438919 L 153.303955 210.37468 L 152.918488 210.567413 L 152.693619 211.049271 L 152.500885 211.852341 L 152.083282 212.077209 L 151.762054 212.78392 L 151.280197 213.330017 L 150.701981 213.619125 L 150.059509 213.651245 L 149.352814 213.362137 L 147.618149 212.109329 L 147.329041 212.109329 L 146.301102 212.269958 L 146.204727 212.077209 L 146.172607 211.852341 L 146.108368 211.820236 L 146.011993 211.98085 L 145.787125 212.366318 L 145.65863 212.494812 L 145.562256 212.591187 L 144.727066 211.755981 L 143.538498 211.466873 L 140.133438 211.659607 L 138.07756 212.334198 L 137.049606 212.366318 L 136.47139 212.205704 L 135.957428 211.852341 L 135.057983 210.920776 L 134.030029 210.149811 L 132.391739 209.314606 L 130.52861 208.350922 L 130.046753 207.869064 L 129.918259 207.355103 L 130.143127 205.524078 L 130.271622 205.138596 L 130.496475 204.817368 L 130.785583 204.560379 L 131.492294 204.207031 L 131.717163 203.917923 L 131.556549 203.500305 L 130.432236 201.89415 L 129.918259 200.866211 L 129.757645 200.095261 L 130.207367 199.452789 L 130.657089 199.131561 L 131.203186 199.099442 L 131.845657 199.292175 L 132.423874 199.677643 L 132.745102 199.806137 L 133.00209 199.774017 L 133.226944 199.484909 L 133.194824 199.163681 L 133.00209 198.842438 L 132.809357 198.585464 L 132.584488 198.360596 L 131.781403 197.878754 L 131.524429 197.621765 L 131.33168 197.332657 L 130.914078 196.722321 L 130.432236 196.304718 L 128.633331 195.630127 L 127.766006 195.662247 L 127.509026 195.533752 L 127.316284 195.212524 L 127.348404 194.923416 L 127.541145 194.698547 L 127.830254 194.602188 L 127.862373 194.602188 L 128.858185 194.216705 L 128.82608 193.317261 L 128.472717 192.192947 L 128.633331 191.132874 L 128.92244 190.90802 L 129.275803 190.779526 L 129.532776 190.554657 L 129.597031 190.169174 L 129.404297 189.880066 L 129.018814 189.655212 L 128.247849 189.366089 L 127.66964 188.820007 L 127.18779 188.081161 L 126.641693 187.470825 L 125.870735 187.406586 L 125.099785 187.470825 L 123.622108 187.342331 L 120.056435 187.920547 L 119.15699 187.888443 L 118.739388 187.727814 L 118.064796 186.988983 L 117.647194 186.828369 L 116.779869 186.76413 L 116.298019 186.475006 L 116.073158 186.057404 L 115.880417 184.322754 L 115.719803 183.873032 L 115.462822 183.487549 L 114.402748 182.363235 L 113.985146 182.106262 L 113.567543 182.138367 L 113.053574 182.39537 L 112.571732 182.523849 L 112.057755 182.555984 L 111.318924 182.39537 L 110.130363 181.881393 L 108.973923 180.821335 L 105.311882 176.484695 L 104.894279 176.227707 L 104.605171 176.773804 L 104.348183 178.733322 L 103.994827 179.407898 L 103.288116 179.600647 L 102.420792 179.568512 L 101.553467 179.343658 L 99.722443 178.604813 L 99.30484 178.604813 L 98.983612 178.701202 L 98.08416 179.247284 L 97.441696 179.536407 L 97.120461 179.761261 L 96.959846 180.114609 L 97.056213 180.532211 L 97.377449 180.821335 L 99.529701 181.849274 L 100.107925 182.298996 L 100.654015 183.102066 L 101.103737 184.19426 L 102.356544 186.250153 L 103.031128 187.053238 L 103.223869 187.245972 L 103.320244 187.438705 L 103.255997 187.631439 L 103.031128 187.759933 L 101.938942 187.920547 L 101.681953 187.856308 L 101.457092 187.53508 L 101.48922 187.181717 L 101.553467 186.796234 L 101.617714 186.378647 L 101.457092 185.543442 L 101.00737 184.965225 L 100.429153 184.547607 L 98.758751 183.744537 L 98.373268 183.680298 L 98.052032 183.712418 L 97.441696 184.001526 L 97.184708 184.001526 L 96.895599 183.873032 L 96.510124 183.26268 L 96.253136 183.037827 L 95.931908 182.909332 L 95.546425 182.909332 L 95.193069 182.973572 L 94.871834 183.134201 L 94.679092 183.359055 L 94.550606 183.616043 L 94.100883 184.13002 L 93.651154 184.322754 L 93.362045 184.579742 L 93.45842 185.190079 L 93.811768 185.961044 L 93.843895 186.314392 L 93.683281 186.860489 L 93.00869 188.466644 L 92.751701 188.723633 L 92.109238 188.948502 L 91.980751 189.23761 L 92.077118 189.590958 L 92.301979 189.847946 L 92.366226 190.072815 L 91.980751 190.329788 L 91.659515 190.426163 L 90.503075 190.361923 L 90.181847 190.426163 L 89.218147 190.90802 L 88.447197 191.068634 L 86.037956 190.651031 L 84.399673 190.715271 L 82.79351 191.486237 L 81.444336 192.835403 L 80.512764 194.602188 L 79.8703 195.565887 L 79.163589 196.079849 L 77.525299 196.850815 L 77.043457 197.525406 L 77.043457 198.392715 L 77.428932 200.19162 L 77.396812 201.05896 L 77.236191 201.797791 L 77.236191 202.504501 L 77.525299 203.307571 L 77.910782 203.950043 L 78.103523 204.528259 L 78.16777 205.20285 L 78.16777 206.00592 L 78.23201 206.616272 L 78.456879 207.258728 L 78.778107 207.804825 L 79.163589 208.222427 L 79.388451 208.415161 L 79.677559 208.543655 L 80.512764 208.736404 L 80.641251 208.832764 L 80.609131 208.993378 L 80.416389 209.218246 L 80.063034 209.475235 L 79.259956 209.892838 L 78.938721 210.278305 L 78.392632 211.242004 L 78.071396 211.434753 L 75.983391 210.985031 L 74.377228 210.663788 L 70.586693 210.438919 L 69.976349 210.406799 L 66.442795 210.214066 L 63.29472 210.053452 L 60.532124 209.892838 L 60.532124 204.688873 L 60.532124 199.452789 L 60.532124 194.216705 L 60.532124 188.948502 L 60.5 183.680298 L 60.5 178.379959 L 60.5 173.079636 L 60.5 167.715057 L 60.5 162.350479 L 60.5 156.985901 L 60.5 151.589203 L 60.5 146.16037 L 60.5 140.731567 L 60.5 135.27063 L 60.5 129.777527 L 60.5 124.25235 L 60.5 124.220215 L 60.5 124.18811 L 60.532124 124.18811 L 62.106159 123.674133 L 63.712322 123.160156 L 65.318481 122.646179 L 66.892517 122.132202 L 68.49868 121.618256 L 70.104843 121.104279 L 71.678879 120.590302 L 72.931679 120.204834 L 73.285042 120.076324 L 74.891197 119.562347 L 76.465233 119.080505 L 78.071396 118.566559 L 79.645432 118.020447 L 81.251595 117.50647 L 82.857758 116.992493 L 84.431793 116.478546 L 86.037956 115.964569 L 88.158089 115.322083 L 90.278214 114.679626 L 92.398354 114.005035 L 94.550606 113.362579 L 95.514305 113.073456 L 96.510124 112.784363 L 97.473816 112.495239 L 98.469635 112.174011 L 99.497581 111.884918 L 100.525528 111.595795 L 101.553467 111.306702 L 102.581406 110.985443 L 103.93058 110.599976 L 104.348183 110.632111 L 104.797905 110.856964 L 104.926407 110.921204 L 104.765785 111.081818 L 104.669418 111.242432 L 104.637291 111.435181 L 104.605171 111.852783 L 104.508804 112.302521 L 104.38031 112.495239 L 104.316063 112.752228 L 104.316063 112.880737 L 104.316063 113.266205 L 104.251816 113.651672 L 104.251816 113.844421 L 104.219696 113.908691 L 104.251816 114.262024 L 104.187569 114.390533 L 103.962708 114.551147 L 103.802094 114.711761 L 103.384491 115.322083 L 103.223869 115.386353 L 103.19175 115.450592 L 102.870514 115.707581 L 102.645653 116.157318 L 102.003189 117.088867 L 101.938942 117.281616 L 101.874695 117.44223 L 101.842575 118.020447 L 101.874695 118.470154 L 101.778328 118.727173 L 101.48922 119.209015 L 101.328606 119.883606 L 101.232231 120.9758 L 100.97525 121.618256 L 100.461273 122.260712 L 100.204292 122.614075 L 100.204292 122.678314 L 100.107925 122.903168 L 100.011551 123.417145 L 100.011551 123.738373 L 99.754562 124.380829 L 99.690315 124.959045 L 99.369087 125.408783 L 98.919365 126.308228 L 98.919365 126.468842 L 98.790871 126.79007 L 98.694496 127.239807 L 98.662376 127.785889 L 98.790871 128.974457 L 98.951485 129.713287 L 99.272713 130.548492 L 99.690315 131.544312 L 100.268539 132.957733 L 100.364906 133.632324 L 100.236412 134.40329 L 100.043678 134.628143 L 99.81881 134.563904 L 99.593948 134.531769 L 99.369087 134.692383 L 99.079979 135.14212 L 98.919365 135.495453 L 98.887238 135.913086 L 98.887238 137.005249 L 99.079979 137.454987 L 99.33696 137.711975 L 99.626076 137.80835 L 100.075798 137.904694 L 100.750389 137.904694 L 101.103737 137.872589 L 102.003189 137.422852 L 103.127502 135.977325 L 103.834213 134.435394 L 104.187569 132.315277 L 104.765785 129.970276 L 104.476677 129.552673 L 105.022774 129.552673 L 105.311882 129.135071 L 105.536743 128.46048 L 105.504623 127.59317 L 105.279755 127.047058 L 104.765785 126.597351 L 104.540924 126.147614 L 104.573044 125.794281 L 104.894279 125.312408 L 104.990646 124.734192 L 104.894279 124.348724 L 104.573044 123.995361 L 104.219696 123.931122 L 105.857971 122.357086 L 106.307701 121.618256 L 106.500443 120.9758 L 106.532562 120.526062 L 106.179207 119.17688 L 105.793732 118.245331 L 105.60099 117.731323 L 105.60099 116.831879 L 105.761604 115.579071 L 106.147087 113.491058 L 106.339821 113.009216 L 106.982285 112.36676 L 107.014412 112.334625 L 107.528381 112.687988 L 109.198792 113.812286 L 111.351044 115.289978 L 112.86084 116.285797 L 113.953026 117.024628 L 116.876236 119.016266 L 120.056435 121.168518 L 123.397247 123.417145 L 126.834435 125.697876 L 130.207367 127.978638 L 133.516052 130.195129 L 136.632019 132.283142 L 139.490982 134.178436 L 141.964462 135.816711 L 143.98822 137.165863 L 145.465897 138.161713 L 146.525955 138.868408 L 146.975693 139.35025 L 147.296921 139.992706 L 147.393295 140.570953 L 147.521774 141.791626 L 147.682404 142.369843 L 148.678223 143.976013 L 150.637741 146.09613 L 151.569305 147.091949 L 152.500885 148.087769 L 153.689438 149.469086 L 154.653137 150.625519 L 155.648956 151.749817 L 156.612656 152.874146 L 157.576355 153.998444 L 158.540054 155.090637 L 159.503738 156.214935 L 160.467438 157.307129 L 161.399017 158.399323 L 162.683945 159.876984 L 163.037292 160.037613 L 163.358536 160.166092 L 163.422775 160.166092 L 164.804077 159.909119 L 165.414413 159.780624 L 166.02475 159.68425 L 166.602966 159.587891 L 167.213318 159.459396 L 168.177017 159.298782 L 169.140701 159.106033 L 170.104401 158.9133 L 171.03598 158.752686 L 172.610016 158.495697 L 174.151917 158.238708 L 175.693848 157.98172 L 177.267883 157.724731 L 178.809784 157.499878 L 180.3517 157.242889 L 181.925735 156.985901 L 183.467651 156.728912 L 186.069641 156.953766 L 188.639496 157.21077 L 191.24147 157.435623 L 193.84346 157.660492 L 196.188446 157.885345 L 198.533447 158.110214 L 200.910568 158.302963 L 203.255554 158.527817 L 204.187119 158.624191 L 204.508362 158.527817 L 204.79747 158.431442 L 206.5 157.499878 L 208.13829 156.568298 L 209.808685 155.636719 L 211.479095 154.705139 L 211.800323 154.608795 L 212.089447 154.480286 L 212.37854 154.512421 L 212.635529 154.57666 L 212.924637 154.833649 L 213.21376 155.090637 L 215.044769 157.467743 L 216.875793 159.876984 L 217.711014 160.776443 L 218.546204 161.675888 L 220.312988 162.768082 L 222.047638 163.86026 L 222.400986 164.149368 L 222.722229 164.470612 L 224.16777 167.458069 L 225.09935 169.353333 L 226.384277 171.987442 L 227.476456 174.236069 L 227.60495 174.268188 L 227.765564 174.268188 L 230.206924 172.951141 L 232.68042 171.601959 L 232.294937 177.38414 L 231.941589 183.102066 L 231.909454 183.712418 L 231.845215 184.322754 L 231.780975 184.515503 L 231.684601 184.740356 L 231.491852 184.804611 L 231.299118 184.90097 L 231.234879 185.029465 L 231.170624 185.190079 L 231.170624 185.89679 L 231.106369 189.687332 L 231.074265 194.152466 L 231.074265 194.28096 L 231.106369 194.409439 L 231.170624 194.441574 L 231.234879 194.505814 L 233.290771 194.505814 L 235.153915 194.537933 L 237.017059 194.537933 L 239.072952 194.537933 L 239.137177 194.537933 L 239.201431 194.537933 L 239.265671 194.537933 L 239.329926 194.537933 L 239.39418 194.537933 L 239.4263 194.570053 L 239.49054 194.570053 L 239.522659 194.602188 L 239.811768 197.493271 L 240.100876 200.384369 L 240.646973 203.179077 L 241.193069 206.00592 L 241.9319 209.346741 L 242.638611 212.655426 L 243.024094 213.137268 L 243.409576 213.587006 L 243.827179 213.7155 L 244.116272 213.779739 L 244.822983 213.972473 L 246.782516 213.843994 L 248.452911 213.74762 L 250.926392 213.587006 L 252.757431 213.490631 L 254.909683 213.362137 L 256.290985 213.265778 L 258.507477 213.137268 L 260.691864 213.008789 L 260.884583 213.073029 L 261.077332 213.105164 L 261.430695 213.297882 L 261.784027 213.490631 L 261.976807 213.554886 L 262.137421 213.619125 L 262.330139 213.587006 L 262.490753 213.587006 L 262.972595 213.233643 L 263.454437 212.912415 L 263.679321 212.78392 L 263.904175 212.655426 L 264.000549 212.976654 L 264.096924 213.297882 L 264.129059 213.297882 L 264.129059 213.330017 L 264.193268 213.426392 L 264.257538 213.554886 L 264.643005 214.068848 L 264.996368 214.550705 L 265.092743 214.743439 L 265.189117 214.968307 L 265.253357 215.385895 L 265.317596 215.835632 L 265.446106 216.028366 L 265.54245 216.18898 L 265.638824 216.124741 L 265.735199 216.028366 L 265.863678 215.964127 L 265.960052 215.931992 L 266.056458 215.931992 L 266.184937 215.964127 L 266.281281 216.092606 L 266.345551 216.18898 L 266.47403 215.931992 L 266.602509 215.707123 L 266.763153 215.675018 L 266.955902 215.642883 L 266.988007 215.899872 L 267.020142 216.124741 L 267.020142 216.15686 L 267.020142 216.18898 L 266.988007 216.285355 L 266.988007 216.381714 L 267.052246 216.413849 L 267.148621 216.445969 L 267.180756 216.478088 L 267.180756 216.510208 L 266.988007 216.638718 L 266.795288 216.799332 L 266.731018 216.831436 L 266.666779 216.863571 L 266.731018 216.895691 L 266.795288 216.927811 L 266.827393 216.992065 L 266.891632 217.024185 L 266.955902 217.184799 L 267.020142 217.313293 L 267.020142 217.634521 L 267.020142 217.95575 L 266.923767 218.309113 L 266.859528 218.694595 L 266.731018 219.080063 L 266.602509 219.433426 L 266.47403 219.722534 L 266.345551 220.011642 L 266.249176 220.172272 L 266.152802 220.332886 L 266.024323 220.461365 L 265.895813 220.589859 L 265.767334 220.718353 L 265.60672 220.814728 L 265.317596 220.975342 L 264.996368 221.103836 L 264.932129 221.168076 L 264.867889 221.23233 L 264.835754 221.32869 L 264.803619 221.425064 L 264.867889 221.457199 L 264.932129 221.489304 L 265.253357 221.553558 L 265.574585 221.649918 L 265.863678 221.778427 L 266.120667 221.939041 L 266.891632 222.709991 L 267.662598 223.480957 L 268.240814 223.930679 L 268.819031 224.380402 L 269.493622 224.733749 L 270.810669 225.440475 L 272.802307 226.500534 L 272.834442 226.436295 L 272.866547 226.37204 L 272.962921 226.275681 L 273.0914 226.179306 L 273.21991 226.179306 L 273.348389 226.179306 L 273.412659 226.115051 L 273.476898 226.018677 L 273.509003 225.922318 L 273.541138 225.825943 L 273.637512 225.761703 L 273.701752 225.729584 L 273.798126 225.729584 L 273.926636 225.761703 L 274.247864 225.922318 L 274.601196 226.082932 L 274.82608 226.115051 L 275.050934 226.147171 L 275.211548 226.050812 L 275.404297 225.954437 L 275.468536 225.793823 L 275.500671 225.665329 L 275.340027 225.568954 L 275.179413 225.472595 L 275.404297 225.151367 L 275.597015 224.798004 L 275.597015 224.733749 L 275.62915 224.63739 L 275.564911 224.508896 L 275.468536 224.380402 L 275.436401 224.251907 L 275.372162 224.123413 L 275.340027 223.962799 L 275.307922 223.834305 L 275.307922 223.705811 L 275.307922 223.545197 L 275.115173 223.513077 L 274.89032 223.448822 L 274.82608 223.416702 L 274.729706 223.352463 L 274.665466 223.256088 L 274.601196 223.191849 L 274.536957 222.96698 L 274.472717 222.742126 L 274.376343 221.810547 L 274.312103 220.878967 L 274.344238 220.686234 L 274.376343 220.52562 L 274.408478 220.461365 L 274.472717 220.429245 L 274.504852 220.36499 L 274.569092 220.332886 L 274.633331 220.204376 L 274.697571 220.075882 L 274.697571 219.979523 L 274.697571 219.851028 L 274.697571 219.59404 L 274.665466 219.369186 L 274.665466 219.240677 L 274.665466 219.112198 L 274.697571 219.144318 L 274.729706 219.144318 L 274.82608 219.176437 L 274.89032 219.208572 L 274.954559 219.240677 L 274.986694 219.272812 L 275.083069 219.015823 L 275.179413 218.726715 L 275.404297 218.566101 L 275.62915 218.405487 L 276.014648 218.244873 L 276.175262 218.180618 L 276.689209 217.95575 L 276.849823 217.730896 L 277.010437 217.538162 L 277.331696 216.638718 L 277.652924 215.739258 L 277.877777 215.45015 L 278.102661 215.193161 L 278.712982 214.936172 L 279.291199 214.679199 L 279.483948 214.325836 L 279.708801 213.940353 L 279.805176 213.811859 L 279.933655 213.651245 L 280.094269 213.587006 L 280.287018 213.522751 L 280.640381 213.490631 L 280.993744 213.458511 L 281.314972 213.297882 L 281.6362 213.137268 L 281.925293 212.944534 L 282.214417 212.751801 L 282.342896 212.591187 L 282.50351 212.462692 L 282.567749 212.334198 L 282.632019 212.205704 L 282.760529 211.11351 L 282.889008 210.053452 L 282.889008 209.860718 L 282.889008 209.667969 L 282.856873 209.539474 L 282.824738 209.410995 L 282.824738 209.346741 L 282.792633 209.314606 L 282.760529 209.282486 L 282.696259 209.250366 L 282.632019 209.153992 L 282.535645 209.057632 L 282.535645 208.961258 L 282.50351 208.864883 L 282.535645 208.800644 L 282.567749 208.704269 L 282.664124 208.64003 L 282.728394 208.60791 L 283.113861 208.415161 L 283.499329 208.222427 L 283.659973 208.158173 L 283.820587 208.093933 L 283.981201 208.158173 L 284.141815 208.222427 L 284.238159 207.997559 L 284.302429 207.772705 L 284.527283 207.547836 L 284.720032 207.355103 L 285.201874 207.065994 L 285.651611 206.744751 L 285.812225 206.744751 L 285.940704 206.712631 L 286.197693 206.809006 L 286.422546 206.873245 L 286.551056 206.873245 L 286.679535 206.841125 L 287.000763 206.648392 L 287.354126 206.423523 L 287.482605 206.391403 L 287.611115 206.359283 L 288.092957 206.455643 L 288.606934 206.552017 L 288.703308 206.487778 L 288.799683 206.423523 L 288.799683 206.295029 L 288.799683 206.198669 L 288.639069 205.941681 L 288.510559 205.652573 L 288.478455 205.556198 L 288.44632 205.427704 L 288.542694 205.138596 L 288.671173 204.817368 L 288.896027 204.656754 L 289.120911 204.496124 L 289.602753 204.33551 L 290.084595 204.207031 L 290.951935 203.500305 L 291.819244 202.825729 L 292.044098 202.536606 L 292.301086 202.247513 L 292.429596 202.151138 L 292.59021 202.022644 L 293.746643 201.701416 L 294.870941 201.380188 L 295.834656 201.348053 L 296.766235 201.315933 L 297.119568 201.155319 L 297.472931 201.026825 L 297.729919 200.705597 L 297.986908 200.384369 L 298.115417 200.223755 L 298.243896 200.063126 L 298.372375 199.934647 L 298.500885 199.838272 L 298.982727 199.645523 L 299.432434 199.484909 L 300.13916 198.970947 L 300.845886 198.42485 L 301.07074 198.167862 L 301.295593 197.942993 L 301.87384 196.915054 L 302.452026 195.919235 L 302.580505 195.790741 L 302.67691 195.662247 L 302.837524 195.598007 L 302.966003 195.501633 L 303.126617 195.437393 L 303.287231 195.405273 L 303.415741 195.308884 L 303.576355 195.244644 L 303.672729 195.116165 L 303.769073 194.987656 L 303.833344 194.794922 L 303.897583 194.602188 L 304.122437 194.120331 L 304.315186 193.670609 L 304.700653 193.34938 L 305.054016 193.028152 L 305.889221 192.674789 L 306.724426 192.321442 L 306.852936 192.321442 L 306.981415 192.353561 L 307.109894 192.482056 L 307.270508 192.578415 L 307.398987 192.739029 L 307.559631 192.899643 L 307.623871 193.028152 L 307.68811 193.188766 L 307.720245 193.41362 L 307.784485 193.606369 L 307.912994 193.766983 L 308.041473 193.895477 L 308.234222 193.959717 L 308.426941 194.023956 L 308.61969 194.056091 L 308.812439 194.088211 L 309.069427 193.959717 L 309.358521 193.831238 L 309.519135 193.477875 L 309.711884 193.156647 L 309.872498 192.739029 L 310.033112 192.321442 L 310.225861 191.935959 L 310.418579 191.582611 L 310.643463 191.293488 L 310.900452 191.004379 L 310.996796 190.843765 L 311.061066 190.683151 L 311.15741 190.490402 L 311.22168 190.265549 L 311.350159 190.104935 L 311.446533 189.944321 L 311.671417 189.912201 L 311.864136 189.912201 L 312.249634 190.04068 L 312.667206 190.137054 L 312.988434 190.104935 L 313.309692 190.04068 L 313.63092 189.880066 L 313.920044 189.719452 L 314.49823 189.23761 L 315.076447 188.755753 L 315.461945 188.402405 L 316.200775 187.856308 L 316.746857 187.792053 L 317.292969 188.016922 L 319.670074 189.719452 L 320.216187 189.912201 L 320.280426 189.944321 L 320.023438 190.779526 L 319.380981 191.229248 L 317.999664 191.646851 L 315.590424 193.445755 L 314.883728 193.606369 L 314.048523 193.574234 L 313.341797 193.766983 L 313.052704 194.602188 L 312.988434 195.919235 L 312.82782 196.304718 L 312.217499 196.529572 L 310.514954 196.722321 L 310.001007 197.043549 L 308.330597 198.48909 L 307.591766 199.356415 L 307.077759 200.416489 L 306.692322 201.026825 L 306.178314 201.380188 L 305.632233 201.637161 L 304.604309 202.440247 L 301.841705 204.078537 L 301.488342 204.656754 L 301.80957 205.395584 L 302.419891 205.716812 L 304.829132 206.00592 L 305.471619 206.391403 L 305.760712 206.648392 L 306.0177 206.96962 L 306.435303 207.772705 L 306.692322 207.997559 L 306.981415 207.997559 L 307.077759 208.029678 L 307.656006 207.804825 L 309.744019 206.584137 L 310.322235 206.487778 L 310.643463 206.712631 L 310.932556 207.098114 L 311.89624 208.736404 L 312.056854 209.218246 L 312.088989 209.700089 L 311.832031 211.08139 L 311.864136 211.466873 L 312.056854 211.788101 L 312.345978 211.723846 L 312.667206 211.563232 L 313.052704 211.531113 L 313.373932 211.691727 L 313.69516 211.884476 L 313.984253 212.173584 L 314.209137 212.526932 L 314.530365 212.81604 L 314.851593 212.84816 L 315.590424 212.719681 L 316.393494 212.880295 L 316.778992 213.040909 L 317.132355 213.330017 L 317.421448 213.522751 L 318.063904 213.587006 L 318.353027 213.811859 L 318.77063 214.550705 L 319.027618 214.711319 L 319.220367 214.293716 L 319.156097 213.811859 L 319.091858 213.394272 L 319.123962 213.105164 L 319.477356 212.912415 L 319.894928 212.944534 L 320.087677 213.201523 L 320.280426 214.068848 L 320.44104 214.390091 L 320.665894 214.614944 L 320.890747 214.582825 L 321.083496 214.165222 L 321.501099 213.619125 L 322.657532 214.614944 L 323.042999 214.293716 L 323.139374 213.490631 L 322.97876 209.603714 L 323.107269 209.314606 L 323.332123 209.37886 L 324.135193 210.149811 L 324.874023 210.471054 L 325.45224 210.34256 L 325.934113 209.860718 L 326.512299 208.64003 L 326.737183 207.869064 L 326.801422 207.419342 L 326.737183 207.001755 L 326.287476 206.391403 L 326.094727 206.00592 L 326.44809 205.138596 L 326.640808 204.881607 L 327.026306 204.720993 L 327.379639 204.785233 L 327.604523 205.074356 L 327.700867 205.524078 L 327.700867 206.00592 L 327.379639 207.258728 L 327.411774 207.547836 L 327.572388 207.612091 L 327.668762 207.419342 L 327.733002 207.162369 L 327.829376 207.033859 L 327.98999 207.130234 L 328.086365 207.483597 L 328.246979 207.547836 L 328.375488 207.451477 L 328.407593 206.96962 L 328.503967 206.873245 L 328.664581 206.9375 L 328.79306 207.033859 L 330.367096 209.4431 L 330.656219 210.117691 L 330.752594 210.856537 L 330.720459 211.820236 L 330.784729 212.78392 L 331.234436 212.976654 L 332.583618 212.751801 L 333.001221 213.105164 L 333.258179 213.458511 L 333.547302 213.619125 L 334.061279 213.330017 L 334.446747 212.976654 L 334.832245 212.719681 L 335.249817 212.655426 L 335.667419 212.912415 L 335.860168 213.362137 L 335.956543 213.972473 L 335.988647 214.614944 L 336.149292 215.803513 L 336.149292 216.253235 L 336.020782 216.638718 L 335.795929 217.184799 L 336.309906 217.024185 L 337.27359 216.735077 L 337.916046 216.638718 L 338.044556 216.542343 L 338.237274 215.931992 L 338.333679 215.771378 L 338.622772 215.514404 L 338.847626 215.675018 L 339.361603 216.445969 L 339.714966 216.670822 L 340.196808 216.799332 L 341.096252 216.895691 L 341.192627 216.959946 L 341.224762 217.056305 L 341.224762 217.184799 L 341.192627 217.313293 L 341.192627 217.827271 L 341.513855 217.987885 L 341.931458 218.020004 L 342.252686 218.148499 L 342.991547 219.272812 L 343.505493 219.851028 L 344.180084 220.140137 L 344.918915 220.236511 L 347.103302 220.043762 L 347.745758 220.236511 L 347.842133 220.878967 L 347.777893 221.26445 L 348.002747 221.23233 L 348.773712 220.654114 L 350.058655 220.075882 L 350.315613 220.268631 L 350.540497 220.589859 L 350.893829 220.846848 L 351.889648 220.782608 L 352.275146 220.878967 L 352.43576 220.911087 L 352.5 221.360825 L 351.986023 222.0354 L 351.182953 222.517258 L 349.576782 223.095474 L 348.131256 224.027054 L 346.910553 224.316162 L 346.300232 224.573135 L 345.914734 225.215607 L 345.722015 226.693268 L 345.208038 226.950256 L 344.597687 226.661148 L 344.276459 226.661148 L 344.14798 227.014511 L 344.115845 227.335739 L 344.051605 227.656967 L 343.890991 227.946075 L 343.601868 228.138824 L 342.927277 228.203064 L 341.738739 227.367859 L 341.096252 227.271484 L 340.61441 227.046631 L 340.036194 226.37204 L 339.457977 225.890198 L 338.976135 226.115051 L 338.911896 226.468399 L 339.265228 227.078751 L 339.265228 227.11087 L 339.265228 227.496353 L 339.168854 227.849716 L 339.168854 228.106689 L 339.297363 228.299438 L 340.036194 228.845535 L 340.132568 229.038269 L 340.228943 229.295258 L 340.196808 229.809235 L 340.036194 230.387436 L 339.682831 230.869293 L 339.297363 230.933548 L 338.815521 230.772919 L 337.819702 230.162582 L 337.562714 230.098328 L 336.791748 230.130463 L 336.566895 230.034088 L 336.663269 229.841339 L 336.855988 229.7771 L 337.145111 229.74498 L 337.4021 229.680725 L 337.466339 229.455872 L 337.305725 229.327377 L 336.984497 229.295258 L 336.855988 229.295258 L 336.085052 229.327377 L 335.795929 229.391617 L 334.671631 230.034088 L 334.510986 230.258957 L 334.414642 230.676544 L 334.157654 231.319016 L 333.707916 231.736618 L 332.230255 232.507584 L 332.133881 232.828812 L 332.26239 233.15004 L 332.583618 233.374893 L 333.097565 233.631882 L 333.19397 233.696136 L 333.322449 233.760376 L 333.418793 233.953125 L 333.290314 234.177979 L 333.06546 234.242233 L 332.808472 234.210098 L 332.583618 234.113739 L 332.455109 234.081604 L 332.358734 234.113739 L 332.166016 234.177979 L 331.491425 234.113739 L 330.816833 233.953125 L 330.206482 233.985245 L 329.6604 234.531342 L 329.371277 235.238052 L 329.178558 235.527161 L 328.889435 235.784134 L 327.98999 236.330231 L 327.765137 236.394485 L 327.411774 236.233871 L 327.315399 235.912643 L 327.315399 234.981064 L 327.18692 234.531342 L 326.962036 234.017365 L 326.672943 233.760376 L 326.351685 234.049484 L 326.255341 234.467087 L 326.223206 234.85257 L 326.062592 235.109558 L 325.644989 235.141678 L 324.841919 235.013184 L 324.456451 234.85257 L 324.103058 234.627716 L 323.78183 234.306473 L 323.653351 233.985245 L 323.492737 233.728256 L 322.721771 233.471268 L 322.17569 232.989426 L 321.854462 232.957306 L 321.30838 233.021545 L 321.019257 232.989426 L 320.794373 232.893051 L 320.601654 232.668198 L 320.473145 232.443329 L 320.280426 232.314835 L 320.055542 232.379089 L 319.798584 232.796677 L 319.63797 233.278534 L 319.380981 233.664017 L 318.867004 233.728256 L 316.875336 233.439148 L 315.879547 233.599762 L 315.269196 234.210098 Z M 308.587555 216.735077 L 308.330597 216.831436 L 308.523315 217.281174 L 308.523315 217.313293 L 308.812439 217.602402 L 309.326385 218.276993 L 309.615509 218.533981 L 309.936737 218.630341 L 309.904633 218.244873 L 309.679749 217.698776 L 309.454895 217.313293 L 309.069427 216.959946 L 308.587555 216.735077 Z M 318.995483 238.578857 L 319.059753 238.578857 L 319.252472 238.418243 L 319.348846 238.353989 L 319.766449 238.257629 L 319.991302 238.289749 L 320.119812 238.482498 L 320.023438 238.835846 L 319.220367 239.381943 L 318.931244 239.671051 L 318.995483 240.249268 L 319.734314 241.052353 L 319.702209 241.726929 L 319.50946 241.983917 L 319.284576 242.080292 L 318.70639 242.080292 L 317.90329 242.305161 L 317.646301 242.273026 L 317.453583 242.112411 L 317.421448 241.855438 L 317.325073 241.662689 L 317.003845 241.662689 L 316.811127 241.791183 L 316.586243 242.016052 L 316.361389 242.176666 L 316.136505 242.048157 L 316.104401 241.502075 L 316.843231 240.345642 L 316.746857 239.703171 L 316.554108 239.542557 L 316.104401 239.446198 L 315.879547 239.317688 L 315.686798 239.060715 L 315.269196 238.129135 L 315.172821 237.775787 L 315.204956 237.390305 L 315.301331 237.004822 L 315.590424 236.298111 L 316.136505 236.009003 L 316.522003 236.265991 L 316.778992 236.812088 L 317.03598 237.422424 L 317.325073 237.775787 L 317.774811 238.097015 L 318.738525 238.482498 L 318.802734 238.546738 L 318.867004 238.578857 L 318.995483 238.578857 Z"/>
    </g>
    <g id="points"/>
    <g id="labelpoints"/>
</svg>
