<?xml version="1.0" encoding="utf-8"?>
<svg version="1.1" id="Icon" xmlns="http://www.w3.org/2000/svg" xmlns:xlink="http://www.w3.org/1999/xlink" x="0px" y="0px"
	 viewBox="0 0 500 500" style="enable-background:new 0 0 500 500;" xml:space="preserve">
<style type="text/css">
	.st0{fill-rule:evenodd;clip-rule:evenodd;fill:#fff;}
</style>
<g>
	<path class="st0" d="M349.6,350.7c-2.5-0.3-2.5-1.1-3.9-1.4c0.7-1.7,1.1-2.1,1.8-3.2c-0.2,0-0.5,0-0.7,0c0.1-0.2,0.2-0.5,0.4-0.7
		c-0.5,0.5-0.9,0.9-1.4,1.4c-0.9,0.2-2.1,0.4-1.8,1.8c-1.8,1.6,5.9,8.7,0.4,8.1c-0.2,0.2-0.5,0.5-0.7,0.7c-0.2,1.9,0.5,13.1,0,13.4
		c-0.2-1.1,0.1-0.1-1.1-1.1c0.1,0.4,0.2,0.7,0.4,1.1c-0.2,3.6,0.9,4.2-2.1,7.8c-0.9-0.1-1.9-0.2-2.8-0.4c0.3,2.1-0.7,6.1-1.1,7.8
		c-2-0.3-3.9,0.1-5.6-0.4c0,0.1-0.5,3.7-2.5,4.2c-0.1-1-3.7,0.1-5.3,0.7c0.4,4.8-7.4,5-12.3,7.1c0.3,2-0.4,5.1-2.5,5.6
		c-2.8-3.7-18.4,11.7-23.9,9.2c1-0.5,2-1.9,1.8-3.2c0,0-4.4-1.2-4.9,0c-0.2-0.1-0.5-0.2-0.7-0.4c1.1,3.6-1.7,3.1-3.9,2.1
		c-0.2,0.2-0.5,0.5-0.7,0.7c0.6,2.3,0.5,2-1.1,2.8c1.4,2.6-1,8.6-2.8,8.5c0.7,2.2,0.6,2.3,1.4,3.9c-1.1,0.8-1.2,0.1-1.1,1.1
		c-1.5-0.9-3-1.9-4.6-2.8c0,0.5,0,0.9,0,1.4c1.3,0.9,1.2,4,3.2,4.2c-0.3,2-0.2,2.3-1.8,3.5c-1.3,0.5-2.6,0.9-3.9,1.4
		c-1.6-4-5.5-4.2-8.8-6.7c0,0.5,0,0.9,0,1.4c1.6,0.9,3.5,3.8,3.9,6.7c-1.6,0.3,0.4,1.2-1.4,2.8c-0.5,1-16.2,7.1-17.6,7.1
		c-0.6,0.4-1.2,0.7-1.8,1.1c-0.3,0.2-3.9,6.3-3.2,7.1c-1.9,1.9-3.8,2.8-5.3,3.9c-0.5,0.3-1,0.5-0.4,1.1c0,0-8.9,3.9-9.8,1.4
		c-0.8-0.2-1.1-0.2-1.8-1.4c2.6,0.1,3.4-1.4,3.9-3.5c-2,0.3-0.4-0.1-2.1-0.7c0.7-9.2,1.4-18.4,2.1-27.5c2.1-1.8,4.2-3.5,6.3-5.3
		c-0.1-0.5-0.2-0.9-0.4-1.4c-2.8,0-5.6-2.6-7.4-5.3c-0.9,0-1.9,0-2.8,0c-0.6,0.8-1.2,1.6-1.8,2.5c-1.2-2.6-4.6-5.6-3.9-7.8
		c2.5-0.5,1.4-3.2,5.3-3.5c2,0.1,4,0.2,6,0.4c0.2-1.3,3-5.6,5.3-4.6c0-2.4-0.4-2.9-0.7-6c0.2-0.1,0.5-0.2,0.7-0.4
		c2.7,0,5.7,1.1,7.7,2.1c0.1-1.7,0.6-2,1.4-3.5c5.1,0.3,9.7-1.3,9.5-1.1c2,0.3,1.5,4.1,3.5,4.6c0.7,1,0.1,0,1.1,0.7
		c0-0.7,0-1.4,0-2.1c0.4,0.1,0.7,0.2,1.1,0.4c1.7,1.8,1.9,2.2,6,2.1c0.1-0.4,0.2-0.7,0.4-1.1c-1.2-0.9-0.6-2-1.8-2.8
		c0.6-0.6,1.2-1.2,1.8-1.8c-0.4-0.9-0.7-1.9-1.1-2.8c-1.2,0-2.3,0-3.5,0c-0.4-2.9-3.6-3.7-4.9-5.6c0.1-2.8,1.3-5.9-0.4-7.4
		c-0.9-0.7-0.1-0.2-1.1-0.4c0.4-0.8,0.7-1.6,1.1-2.5c1.3,0.2,2.6,0.5,3.9,0.7c0.5-1.4,0.3-2.6,1.4-3.5c2.8,1.3,7.7,2,11.2,2.8
		c-1.3-2.8-0.5-5.5-0.7-8.5c0.5,0,0.9,0,1.4,0c0,1.1,6.8,0.1,7.7,0c0.1-0.9,0.2-1.9,0.4-2.8c8.5,2.1,8.4-7.1,15.8-7.1
		c0.6,1.4,1.4,2.1,2.5,2.5c0.3-1.9,0.8-1.5,2.8-2.5c-0.1-2.7,2.2-9,1.1-11.6c-0.9-2.1-3.1-3.3-2.8-6c1.2-1.6,5.1-12.8,3.9-16.6
		c-1.8-5.4-3.8-4-4.2-10.9c0.1-0.2,0.2-0.5,0.4-0.7c-1.6-2.2-3.1-1.6-3.9-5.6c1-0.5,3.9-6.7,4.2-7.8c2.6-4.7-0.3-6.2,1.1-10.6
		c0.6-0.8,1.2-1.6,1.8-2.5c-0.6-0.6-3.3-3.1-2.5-3.2c0.1-1.2,1.1-1.8,3.2-1.4c-0.5-2.6,1.7-5.3,2.5-7.8c-1.1-0.2-2.1-0.5-3.2-0.7
		c0-0.7,0-1.4,0-2.1c-1.8,0.4-1.2,0.1-1.8-0.7c-2.2-0.3-10.3-8-7.7-10.6c0.3-2.2,2.3-1.5,5.3-3.2c0.2-1.4,0.5-2.8,0.7-4.2
		c-0.6,0-1.2,0-1.8,0c-0.9,0.5-0.2,0.6-1.1,0c-1.4-0.3-6-2.4-6.3-4.6c1.4-0.7,0.4-0.4,1.1-1.4c-3.1,0.1-8-2.1-8.4-6
		c-2,0.1-1.9,0.1-3.2,1.1c-0.1,1.3,0.2,0.1-0.7,1.1c-0.7-1.9-0.8-1.4-2.1-2.5c0.4-1.1-0.1-0.8,0.7-1.4c-0.7-1.4-1-1.8-3.2-2.8
		c0.1-2.7,0.2-5.4,0.4-8.1c-2.1-5.4-7.5-4.6-7-10.2c-0.7,0.5-1.4,0.9-2.1,1.4c-2.1-5.3-20.2-17.2-16.2-21.9c-1.2-1.7-4-2.8-4.6-6
		c-0.6,0.1-1.2,0.2-1.8,0.4c0,0.5,0,0.9,0,1.4c-0.9-0.6-1.9-1.2-2.8-1.8c0.2-0.6,0.5-1.2,0.7-1.8c-4.5,0.2-5-5.6-6-8.5
		c0.8-0.6,1.6-1.2,2.5-1.8c-0.2-0.4-0.5-0.7-0.7-1.1c-0.2-1,0.4-0.4-0.7-1.1c-2.2-2-7.5-1.5-10.5-2.8c-1-0.4-7.4-6.2-6.7-6.4
		c-4.8-2.3-14.5-5.7-17.2-9.2c0.6-0.8,3.3-3.6,4.9-2.8c0.1-1.3,1.2-4.7,0.4-3.9c-0.7-1.8-2-2.6-1.4-4.2c0.6,0.8,0.2,0.3,1.1,0.7
		c0.2,0,0.5,0,0.7,0c2-0.2,3.6-2,6.3-1.4c3.5,0.8,2.6,2.4,8.8,2.8c0.7-3.4,3.8-3.2,4.6-5.3c0.4-1.5-0.3-2-1.1-3.2
		c0.1-0.1,0.2-0.2,0.4-0.4c1.6-0.3,3-1.3,4.9-2.1c-0.4-1.6-0.7-3.3-1.1-4.9c-1.1-0.3-0.6-0.5-1.4-1.8c-1.5,0.4-3,0.7-4.6,1.1
		c-0.9-0.9-0.5-0.5-0.7-1.4c-1.5-1.4,0.2-1.7-0.4-3.5l-7.4-2.5c-0.1-0.5-0.2-0.9-0.4-1.4c1.6-0.1,6.2-1.4,5.6-2.8
		c0.9-0.7,0.7-0.7,0.7-2.1c-3.6-2.6-6.7-3.7-8.4-7.8c-3,0.7-3.3-1-7.4-1.4c-0.4,4.7-11,1.7-8.1,9.2c-0.7,0-1.4,0-2.1,0
		c-0.8-1.6-4.8-4.6-6-4.6c-7,0.9-8.4-2.4-11.6-7.4c-1.8,0.4-1.2,0.1-1.8-0.7c-1.7-0.2-1.9-3-1.4-4.6c-1.9,0.1-2.1-1.3-1.8-0.7
		c0.5-0.9,0.4-0.3,1.4-1.1c-0.6-3.6,0.9-7.8,1.8-11.6c-1.1,0-2.1,0-3.2,0c0-1.7,0.2-2.9-1.1-3.5c-0.1,0.2-0.2,0.5-0.4,0.7
		c0.5,2.1-0.2,3.4-1.8,3.5c-0.5,0.5-0.9,1.3-1.4,0.4c-2.6-2.4,0.5-3.2-1.1-5.6c-1.1-1.9-3.4-2.7-3.9-3.9c0-0.7,0-1.4,0-2.1
		c-3.7-1-7.3-6.2-9.1-8.8c0-0.4-1.5-1.2-0.4-1.4c0.3-1.4,0.8-1,2.5-0.4c0.2-0.2,0.5-0.5,0.7-0.7c0-0.3,5.2-10.1,5.3-10.2
		c0.2,0,0.5,0,0.7,0c2.9,2.8,6.1,1.8,9.5,4.2c0.6,2.7,2.1,5.3,6,5.6c0.3-2.2,1.7-2.4,3.2-2.1c-0.2-2.1,2.6-7.2,4.6-8.8
		c0.8,1.6,3.2,5.7,5.6,6.4c-0.1-0.2-0.2-0.5-0.4-0.7c0.7-0.6,1.8-3.4,2.5-4.6c4,1.9,6.3,5.4,8.4,8.5c0.7-0.2,1.4-0.5,2.1-0.7
		c-0.8-3.4,1.6-2.3,0.4-5.6c1.4-0.6,5.5-3.3,6-4.2c0.1,0,0.2,0,0.4,0c-0.1,2.1-0.1,2.8,0.4,3.9c1.1,0.1,1.8,0.7,2.8,1.4
		c2.5-2.3,4.8-6,9.1-4.2c1.1-2.2,1.5-1.5,3.5-3.5c-0.7-2.2-0.3-3.7,0.4-6c2.5-0.3,7.2-2.5,10.2-4.2c1.3-0.8,0.5-2.5,2.8-2.8
		c1.8,3.8,6.2,2.4,7.4,8.8c4-0.7,6.2,2.6,9.1,4.6c6.2-4.5,7,0.1,11.6,1.8c1.3-0.3,4-2.1,4.9-1.8c2.7,1.2,5.4,2.4,8.1,3.5
		c-1.1,2.4-3.3,3.8-2.5,7.1c-2.6,0-2.2,0.8-4.2,1.4c0,1.9,0,3.8,0,5.6c0.8-0.1,2.8-0.6,2.1,0.7c1.6,1.1,1.5,5.7,1.4,8.8
		c0.2,0,6.1,0.8,5.6,2.5c1.1-0.2,2.1-0.5,3.2-0.7c0.2,1-0.4,0.4,0.7,1.1c-0.5,1.3-0.6,1.1-0.7,2.8c3.2,1.2,3.8,2.7,6.3,3.5
		c0.4-1.2,1.1-0.7,1.1-0.7c0.9,0.5,2.2,2.2,1.8,3.5c0.5,0,0.9,0,1.4,0c0.3-1.3,0.3-1.4,2.5-1.8c0.2,1.3,1.3,1.1,1.8,2.1
		c3.4-1.2,8.8-2.4,8.1-1.1c1.2,1.2,2.3,2.4,3.5,3.5c-0.4,1.4-0.6,3.3-1.8,4.2c-0.7,0.7-0.6,0.6-2.1,0.7c0.4-1.1,0.5-2.8,1.1-4.2
		c-1.4,0.4-3.4-0.3-2.8,1.1c-1.9,1-1.1,2.4-3.5,1.8c0.5,3.4-3.2,15.6-6.3,17.3c-0.9,0.7-0.2,0.3-1.8,0.4c-0.2-1.2-0.6-1.6-2.1-2.8
		c0.4-1,0.3-0.5,0.4-1.4c0.7-0.4,1.4-0.7,2.1-1.1c0-0.1,0-0.2,0-0.4c-0.5-0.2-0.9-0.5-1.4-0.7c-1.4,0.2-2.8,0.5-4.2,0.7
		c-0.4,0.9-0.7,1.9-1.1,2.8c-0.8,0-1.6,0-2.5,0c0.9,1.3,1.7,1.7,1.1,2.8c-0.5,1.2-0.4,1.9-2.1,2.5c0.1-0.2,0.2-0.5,0.4-0.7
		c-0.8-0.2-1.4,0.3-1.1-1.1c-3.2,0.7-8.7,1.3-9.1,5.3c-0.8,1,2.1,0.7,0.7,1.4c-1.4,2-3.5,4.3-2.1,7.8c-0.2,0.1-0.5,0.2-0.7,0.4
		c-0.6-1-3.4-3.1-5.6-2.5c-1.4,0.9-2.8,1.9-4.2,2.8c3.5,10.4-4.8,13.6-9.8,15.5c0,5.1-2.2,18.5-6.3,19.4c0.2,0.9,0.1,2.6,0.7,3.2
		c0.3,1.8,8.1,17.1,10.5,19.1c4.2,0.5,7.8,3.3,10.5,6c0.8,0.4,2.2,4.1,2.1,3.9c-0.1,0.8-0.5,1.7-1.4,2.1c0.2,2,0.5,4,0.7,6
		c1.5,2.1,12.5,17.9,17.2,15.9c-0.1,10.3,20.3,17.7,26.3,23.3c0.2,1.7,0.6,1.8,2.8,2.5c-0.7,1.4-0.6,0.9-0.7,2.5
		c0.4,0.4,0.7,0.7,1.1,1.1c0.8-0.6,1.6-1.2,2.5-1.8c0.2,0.5,0.5,0.9,0.7,1.4c-1.4,0.2-1.3,2.5-0.4,3.2c0.4,2.7,3.4,2.6,3.9,3.5
		c1.6,3.6,1.2,5.9,3.5,8.5c2.4,2.6,3.7,1.8,5.3,5.3c0.8-0.1,2.9-1.1,2.1,0.4c4.8,2.6,0.4,7.5,2.8,10.9c4.8,6.9,5.5,20.4,9.1,26.8
		c1,1.7,1.4,7.1,0.4,8.1c-0.5,0-0.9,0-1.4,0c1.3,3.8,2.8,7.3,3.2,9.5c-0.3,0.1-0.7,0-0.4,0.4c-0.7-0.4-1.4-0.7-2.1-1.1
		c0.4,2.6,1.6,2.4,2.1,3.9c0.6,2-1.3,4.6-0.4,6c1.4,2.2,3.5,3.5,4.2,7.1c-1.9,0.2-1.6,0.2-2.5,3.2
		C349.2,346.8,349.7,347.9,349.6,350.7z"/>
	<path class="st0" d="M168.4,100.8c0.2,0,0.5,0,0.7,0C168.8,100.8,168.6,100.8,168.4,100.8z"/>
	<path class="st0" d="M303.3,106.8c0.2,0.4,0.5,0.7,0.7,1.1c0.6-0.2,1.2-0.5,1.8-0.7c0,0.5,0,0.9,0,1.4c-1.1,0.1-1.2,0.2-1.8,0.4
		c-1-0.3-0.7,0.3-0.7-0.7C303.3,107.8,303.3,107.3,303.3,106.8z"/>
	<path class="st0" d="M311,242.7c0.1,0.2,0.2,0.5,0.4,0.7C311.2,243.2,311.1,242.9,311,242.7z"/>
	<path class="st0" d="M314.5,246.2c1.3,0.3,0.7,0,1.4,0.7c-0.2-0.1-0.5-0.2-0.7-0.4c0,0.2,0,0.5,0,0.7
		C315,246.9,314.7,246.6,314.5,246.2z"/>
	<path class="st0" d="M318,249.1c0.2,0.2,0.5,0.5,0.7,0.7C318.5,249.5,318.3,249.3,318,249.1z"/>
	<path class="st0" d="M254.1,397.3c0.2,0,0.5,0,0.7,0C254.5,397.3,254.3,397.3,254.1,397.3z"/>
	<path class="st0" d="M335.6,407.2c0.4,0,0.7,0,1.1,0c0,0.5,0,0.9,0,1.4c-1-0.4-0.5-0.3-1.4-0.4
		C335.4,407.9,335.5,407.5,335.6,407.2z"/>
	<path class="st0" d="M200,410c1.1,1.1,2.1,2.1,3.2,3.2c-0.1,5.1-1.4,3.1-1.4,8.5c-0.5,0-0.9,0-1.4,0c0-5.7-3.5-5.3-4.2-9.9
		c1.3,0.3,1.8,0.7,3.2-0.4C200.3,410.8,199.7,410.9,200,410z"/>
	<path class="st0" d="M200.7,422c0.1,0.2,0.2,0.5,0.4,0.7C200.9,422.5,200.8,422.2,200.7,422z"/>
	<path class="st0" d="M272.3,457.3c0.5,0,0.9,0,1.4,0c0,0.1,0,0.2,0,0.4c-0.8,0.9-1.6,1.9-2.5,2.8c0-0.4,0-0.7,0-1.1
		c-0.1-0.4-0.2-0.7-0.4-1.1C272.2,458.3,272.2,458,272.3,457.3z"/>
</g>
</svg>
