<?xml version="1.0" encoding="utf-8"?><svg version="1.1" id="Layer_1" xmlns="http://www.w3.org/2000/svg" xmlns:xlink="http://www.w3.org/1999/xlink" x="0px" y="0px" viewBox="0 0 24 24" style="enable-background:new 0 0 24 24;" xml:space="preserve"><style type="text/css">.st0{fill:#333333;}</style><path class="st0" d="M5,2c1.5,0.5,3.1,0.9,4.6,1.4c0,3.8,0,7.5,0,11.3c-1.5,1.3-3,2.6-4.4,4c3.6-1.9,7.2-3.8,10.8-5.7c-1-0.5-2-0.9-3-1.4c-0.7-1.5-1.4-2.9-2-4.4c3.4,1,6.7,2.1,10.1,3.1c0,1.6,0,3.3,0,4.9c-3.8,2.3-7.6,4.5-11.4,6.8c-1.5-1.1-3-2.1-4.6-3.2C5,13.2,5,7.6,5,2z"/></svg>
