<!-- Generated by IcoMoon.io -->
<svg version="1.1" xmlns="http://www.w3.org/2000/svg" width="1024" height="1024" viewBox="0 0 1024 1024">
<title></title>
<g id="icomoon-ignore">
</g>
<path fill="#333" d="M135.134 322.795v373.291h43.639v-269.867c0.084-2.997 0.132-6.523 0.132-10.061 0-14.489-0.804-28.79-2.371-42.862l0.157 1.732h1.638c3.456 8.952 7.45 16.645 12.168 23.82l-0.289-0.468 191.885 297.702h53.628v-373.286h-43.597v262.511c-0.058 2.528-0.091 5.505-0.091 8.491 0 16.344 0.993 32.457 2.921 48.28l-0.189-1.901h-0.998c-2.321-4.506-7.381-12.809-15.159-24.96l-186.761-292.416zM532.574 322.795v373.291h198.4l0.205-40.956h-153.971v-129.412h134.737v-39.317h-134.737v-124.092h144.572v-39.509zM764.57 322.795v39.509h107.302v333.781h43.588v-333.781h108.54v-39.509zM27.878 642.859c-7.707 0.192-14.597 3.533-19.461 8.78l-0.016 0.018c-5.191 5.188-8.402 12.357-8.402 20.276 0 0.069 0 0.137 0.001 0.206v-0.011c-0.002 0.111-0.002 0.241-0.002 0.372 0 7.864 3.212 14.978 8.396 20.101l0.003 0.003c5.047 5.303 12.157 8.601 20.039 8.601 0.154 0 0.307-0.001 0.46-0.004h-0.023c0.053 0 0.115 0.001 0.178 0.001 7.962 0 15.154-3.293 20.291-8.591l0.007-0.007c5.304-5.111 8.599-12.277 8.599-20.211 0-0.094 0-0.189-0.001-0.283v0.014c0-0.027 0-0.058 0-0.089 0-7.988-3.291-15.208-8.592-20.376l-0.006-0.006c-5.126-5.423-12.37-8.798-20.401-8.798-0.026 0-0.052 0-0.078 0h0.004c-0.113-0.002-0.246-0.003-0.379-0.003-0.216 0-0.432 0.003-0.647 0.007l0.032-0.001z"></path>
</svg>
