<!-- Generated by IcoMoon.io -->
<svg version="1.1" xmlns="http://www.w3.org/2000/svg" width="1024" height="1024" viewBox="0 0 1024 1024">
<title></title>
<g id="icomoon-ignore">
</g>
<path fill="#377FEA" d="M77.269 457.173c-2.005 0-2.475-0.981-1.493-2.517l10.496-13.44c0.981-1.493 3.456-2.475 5.461-2.475h178.005c1.963 0 2.475 1.493 1.493 2.987l-8.491 12.928c-0.981 1.536-3.499 2.987-4.992 2.987zM2.005 503.040c-2.005 0-2.517-0.981-1.493-2.475l10.453-13.483c0.981-1.493 3.499-2.475 5.504-2.475h227.328c2.005 0 2.987 1.493 2.475 2.987l-3.968 11.947c-0.512 2.005-2.475 2.987-4.48 2.987zM122.667 548.907c-2.005 0-2.517-1.493-1.493-2.987l6.955-12.459c0.981-1.493 2.987-2.987 4.992-2.987h99.712c2.005 0 2.987 1.493 2.987 3.499l-0.981 11.947c0 2.005-2.005 3.499-3.499 3.499zM640.171 448.213c-31.403 7.979-52.864 13.952-83.755 21.931-7.509 1.963-7.979 2.475-14.507-4.992-7.424-8.491-12.928-13.952-23.381-18.944-31.445-15.445-61.867-10.965-90.24 7.467-33.92 21.931-51.371 54.357-50.859 94.72 0.469 39.893 27.904 72.789 67.285 78.293 33.92 4.48 62.293-7.467 84.779-32.896 4.48-5.504 8.448-11.477 13.44-18.475h-96.213c-10.453 0-12.971-6.485-9.472-14.933 6.485-15.445 18.432-41.387 25.429-54.357 2.146-4.741 6.835-7.98 12.281-7.98 0.063 0 0.125 0 0.187 0.001h181.452c-0.981 13.483-0.981 26.923-2.987 40.405-5.559 37.294-20.063 70.447-41.253 98.224l0.378-0.517c-35.883 47.36-82.773 76.8-142.080 84.736-48.853 6.485-94.251-2.987-134.101-32.853-36.907-27.947-57.856-64.853-63.317-110.72-6.485-54.357 9.472-103.211 42.368-146.091 35.413-46.336 82.261-75.776 139.605-86.229 46.848-8.491 91.733-2.987 132.096 24.405 26.453 17.493 45.355 41.387 57.856 70.315 2.987 4.48 0.981 6.997-4.992 8.491zM805.205 723.925c-45.397-1.024-86.784-13.995-121.685-43.904-28.265-23.932-47.826-57.374-53.733-95.335l-0.113-0.879c-8.96-56.32 6.485-106.197 40.405-150.571 36.395-47.872 80.256-72.789 139.605-83.243 50.859-8.96 98.731-4.011 142.080 25.429 39.381 26.88 63.829 63.317 70.315 111.147 8.448 67.328-10.965 122.155-57.344 169.045-32.896 33.408-73.301 54.315-119.68 63.787-13.44 2.517-26.88 2.987-39.851 4.523zM923.819 522.496c-0.469-6.485-0.469-11.477-1.451-16.469-8.96-49.365-54.357-77.269-101.717-66.304-46.379 10.453-76.288 39.893-87.253 86.741-8.96 38.912 9.984 78.293 45.867 94.251 27.435 11.947 54.827 10.453 81.28-2.987 39.381-20.48 60.8-52.352 63.275-95.232z"></path>
</svg>
