<!-- Generated by IcoMoon.io -->
<svg version="1.1" xmlns="http://www.w3.org/2000/svg" width="1024" height="1024" viewBox="0 0 1024 1024">
<title></title>
<g id="icomoon-ignore">
</g>
<path fill="#333" d="M816.216 67.495c113.136 19.586 145.216 96.898 142.831 177.921l0.561-1.152-50.91 667.222-661.297 45.35c-54.944-2.308-177.404-7.351-182.991-178.555l61.364-111.908 123.918 289.371 104.628-341.074-1.122 0.255 0.591-1.122 345.213 110.255-52.078-202.577-36.929-145.471 328.992-21.216-22.939-19.025-236.192-192.546 136.489-76.131zM64.392 776.423v0.973-1.084zM255.743 253.614c132.822-131.777 304.262-209.673 370.102-143.227 65.721 66.282-3.92 227.719-136.998 359.425-132.899 131.748-302.249 213.884-367.933 147.602-65.869-66.282 1.683-231.9 134.724-363.677z"></path>
</svg>
